<?xml version="1.0" encoding="utf-8" standalone="no"?>
<!DOCTYPE svg PUBLIC "-//W3C//DTD SVG 1.1//EN"
  "http://www.w3.org/Graphics/SVG/1.1/DTD/svg11.dtd">
<!-- Created with matplotlib (https://matplotlib.org/) -->
<svg height="345.6pt" version="1.1" viewBox="0 0 460.8 345.6" width="460.8pt" xmlns="http://www.w3.org/2000/svg" xmlns:xlink="http://www.w3.org/1999/xlink">
 <defs>
  <style type="text/css">
*{stroke-linecap:butt;stroke-linejoin:round;}
  </style>
 </defs>
 <g id="figure_1">
  <g id="patch_1">
   <path d="M 0 345.6 
L 460.8 345.6 
L 460.8 0 
L 0 0 
z
" style="fill:#ffffff;"/>
  </g>
  <g id="axes_1">
   <g id="patch_2">
    <path d="M 57.6 307.584 
L 414.72 307.584 
L 414.72 41.472 
L 57.6 41.472 
z
" style="fill:#ffffff;"/>
   </g>
   <g id="matplotlib.axis_1">
    <g id="xtick_1">
     <g id="line2d_1">
      <path clip-path="url(#p84af7d6ffc)" d="M 73.832727 307.584 
L 73.832727 41.472 
" style="fill:none;stroke:#b0b0b0;stroke-linecap:square;stroke-width:0.8;"/>
     </g>
     <g id="line2d_2">
      <defs>
       <path d="M 0 0 
L 0 3.5 
" id="m2bc16107bf" style="stroke:#000000;stroke-width:0.8;"/>
      </defs>
      <g>
       <use style="stroke:#000000;stroke-width:0.8;" x="73.832727" xlink:href="#m2bc16107bf" y="307.584"/>
      </g>
     </g>
     <g id="text_1">
      <!-- $\mathdefault{10^{0}}$ -->
      <defs>
       <path d="M 28.796875 12.203125 
L 28.796875 46.90625 
C 28.796875 52.90625 28.90625 59 29.09375 60.296875 
C 29.09375 60.703125 28.796875 60.796875 28.5 60.796875 
C 22.90625 57.296875 17.703125 54.90625 8.90625 50.796875 
C 9 49.59375 9.5 48.703125 10.40625 48.09375 
C 14.90625 50 17.203125 50.59375 19.09375 50.59375 
C 20.703125 50.59375 21.09375 48.203125 21.09375 44.796875 
L 21.09375 12.203125 
C 21.09375 3.90625 18.40625 3.40625 11.40625 3.09375 
C 10.796875 2.5 10.796875 0.40625 11.40625 -0.203125 
C 16.296875 -0.09375 19.796875 0 25.296875 0 
C 30 0 32.5 -0.09375 37.5 -0.203125 
C 38.09375 0.40625 38.09375 2.5 37.5 3.09375 
C 30.5 3.40625 28.796875 3.90625 28.796875 12.203125 
z
" id="LinLibertineO-49"/>
       <path d="M 23.203125 57.5 
C 24.90625 57.5 26.5 56.90625 27.703125 55.796875 
C 30.796875 53.203125 33.5 45.59375 33.5 32.203125 
C 33.5 23 33.203125 16.703125 31.796875 11.59375 
C 29.59375 3.40625 24.703125 2.5 22.90625 2.5 
C 13.59375 2.5 12.59375 19.59375 12.59375 28.296875 
C 12.59375 52.90625 18.703125 57.5 23.203125 57.5 
z
M 22.796875 -1 
C 30.5 -1 42.203125 6.796875 42.203125 30.296875 
C 42.203125 40.203125 39.796875 48.703125 35.40625 54.5 
C 32.703125 57.90625 28.59375 61 23.203125 61 
C 13.296875 61 3.90625 49.203125 3.90625 29.40625 
C 3.90625 18.703125 7.09375 8.59375 12.59375 3.203125 
C 15.5 0.296875 18.90625 -1 22.796875 -1 
z
" id="LinLibertineO-48"/>
      </defs>
      <g transform="translate(65.447727 323.657594)scale(0.13 -0.13)">
       <use transform="translate(0 0.134375)" xlink:href="#LinLibertineO-49"/>
       <use transform="translate(46.499985 0.134375)" xlink:href="#LinLibertineO-48"/>
       <use transform="translate(93.75411 30.3)scale(0.7)" xlink:href="#LinLibertineO-48"/>
      </g>
     </g>
    </g>
    <g id="xtick_2">
     <g id="line2d_3">
      <path clip-path="url(#p84af7d6ffc)" d="M 208.642609 307.584 
L 208.642609 41.472 
" style="fill:none;stroke:#b0b0b0;stroke-linecap:square;stroke-width:0.8;"/>
     </g>
     <g id="line2d_4">
      <g>
       <use style="stroke:#000000;stroke-width:0.8;" x="208.642609" xlink:href="#m2bc16107bf" y="307.584"/>
      </g>
     </g>
     <g id="text_2">
      <!-- $\mathdefault{10^{1}}$ -->
      <g transform="translate(200.257609 323.657594)scale(0.13 -0.13)">
       <use transform="translate(0 0.276563)" xlink:href="#LinLibertineO-49"/>
       <use transform="translate(46.499985 0.276563)" xlink:href="#LinLibertineO-48"/>
       <use transform="translate(93.75411 30.442188)scale(0.7)" xlink:href="#LinLibertineO-49"/>
      </g>
     </g>
    </g>
    <g id="xtick_3">
     <g id="line2d_5">
      <path clip-path="url(#p84af7d6ffc)" d="M 343.452491 307.584 
L 343.452491 41.472 
" style="fill:none;stroke:#b0b0b0;stroke-linecap:square;stroke-width:0.8;"/>
     </g>
     <g id="line2d_6">
      <g>
       <use style="stroke:#000000;stroke-width:0.8;" x="343.452491" xlink:href="#m2bc16107bf" y="307.584"/>
      </g>
     </g>
     <g id="text_3">
      <!-- $\mathdefault{10^{2}}$ -->
      <defs>
       <path d="M 6.09375 46.796875 
C 6.09375 44.703125 8 42.90625 10.09375 42.90625 
C 11.796875 42.90625 14.796875 44.59375 14.796875 46.90625 
C 14.796875 47.703125 14.59375 48.296875 14.40625 49 
C 14.203125 49.703125 13.59375 50.59375 13.59375 51.40625 
C 13.59375 53.90625 16.203125 57.5 23.5 57.5 
C 27.09375 57.5 32.203125 55 32.203125 45.40625 
C 32.203125 39 29.90625 33.796875 24 27.796875 
L 16.59375 20.5 
C 6.796875 10.5 5.203125 5.703125 5.203125 -0.203125 
C 5.203125 -0.203125 10.296875 0 13.5 0 
L 31 0 
C 34.203125 0 38.796875 -0.203125 38.796875 -0.203125 
C 40.09375 5.09375 41.09375 12.59375 41.203125 15.59375 
C 40.59375 16.09375 39.296875 16.296875 38.296875 16.09375 
C 36.59375 9 34.90625 6.5 31.296875 6.5 
L 13.5 6.5 
C 13.5 11.296875 20.40625 18.09375 20.90625 18.59375 
L 31 28.296875 
C 36.703125 33.796875 41 38.203125 41 45.796875 
C 41 56.59375 32.203125 61 24.09375 61 
C 13 61 6.09375 52.796875 6.09375 46.796875 
z
" id="LinLibertineO-50"/>
      </defs>
      <g transform="translate(335.067491 323.657594)scale(0.13 -0.13)">
       <use transform="translate(0 0.134375)" xlink:href="#LinLibertineO-49"/>
       <use transform="translate(46.499985 0.134375)" xlink:href="#LinLibertineO-48"/>
       <use transform="translate(93.75411 30.3)scale(0.7)" xlink:href="#LinLibertineO-50"/>
      </g>
     </g>
    </g>
    <g id="xtick_4">
     <g id="line2d_7">
      <defs>
       <path d="M 0 0 
L 0 2 
" id="m201445ad59" style="stroke:#000000;stroke-width:0.6;"/>
      </defs>
      <g>
       <use style="stroke:#000000;stroke-width:0.6;" x="60.7683" xlink:href="#m201445ad59" y="307.584"/>
      </g>
     </g>
    </g>
    <g id="xtick_5">
     <g id="line2d_8">
      <g>
       <use style="stroke:#000000;stroke-width:0.6;" x="67.664165" xlink:href="#m201445ad59" y="307.584"/>
      </g>
     </g>
    </g>
    <g id="xtick_6">
     <g id="line2d_9">
      <g>
       <use style="stroke:#000000;stroke-width:0.6;" x="114.414545" xlink:href="#m201445ad59" y="307.584"/>
      </g>
     </g>
    </g>
    <g id="xtick_7">
     <g id="line2d_10">
      <g>
       <use style="stroke:#000000;stroke-width:0.6;" x="138.153387" xlink:href="#m201445ad59" y="307.584"/>
      </g>
     </g>
    </g>
    <g id="xtick_8">
     <g id="line2d_11">
      <g>
       <use style="stroke:#000000;stroke-width:0.6;" x="154.996364" xlink:href="#m201445ad59" y="307.584"/>
      </g>
     </g>
    </g>
    <g id="xtick_9">
     <g id="line2d_12">
      <g>
       <use style="stroke:#000000;stroke-width:0.6;" x="168.060791" xlink:href="#m201445ad59" y="307.584"/>
      </g>
     </g>
    </g>
    <g id="xtick_10">
     <g id="line2d_13">
      <g>
       <use style="stroke:#000000;stroke-width:0.6;" x="178.735205" xlink:href="#m201445ad59" y="307.584"/>
      </g>
     </g>
    </g>
    <g id="xtick_11">
     <g id="line2d_14">
      <g>
       <use style="stroke:#000000;stroke-width:0.6;" x="187.760294" xlink:href="#m201445ad59" y="307.584"/>
      </g>
     </g>
    </g>
    <g id="xtick_12">
     <g id="line2d_15">
      <g>
       <use style="stroke:#000000;stroke-width:0.6;" x="195.578182" xlink:href="#m201445ad59" y="307.584"/>
      </g>
     </g>
    </g>
    <g id="xtick_13">
     <g id="line2d_16">
      <g>
       <use style="stroke:#000000;stroke-width:0.6;" x="202.474047" xlink:href="#m201445ad59" y="307.584"/>
      </g>
     </g>
    </g>
    <g id="xtick_14">
     <g id="line2d_17">
      <g>
       <use style="stroke:#000000;stroke-width:0.6;" x="249.224427" xlink:href="#m201445ad59" y="307.584"/>
      </g>
     </g>
    </g>
    <g id="xtick_15">
     <g id="line2d_18">
      <g>
       <use style="stroke:#000000;stroke-width:0.6;" x="272.963269" xlink:href="#m201445ad59" y="307.584"/>
      </g>
     </g>
    </g>
    <g id="xtick_16">
     <g id="line2d_19">
      <g>
       <use style="stroke:#000000;stroke-width:0.6;" x="289.806246" xlink:href="#m201445ad59" y="307.584"/>
      </g>
     </g>
    </g>
    <g id="xtick_17">
     <g id="line2d_20">
      <g>
       <use style="stroke:#000000;stroke-width:0.6;" x="302.870673" xlink:href="#m201445ad59" y="307.584"/>
      </g>
     </g>
    </g>
    <g id="xtick_18">
     <g id="line2d_21">
      <g>
       <use style="stroke:#000000;stroke-width:0.6;" x="313.545087" xlink:href="#m201445ad59" y="307.584"/>
      </g>
     </g>
    </g>
    <g id="xtick_19">
     <g id="line2d_22">
      <g>
       <use style="stroke:#000000;stroke-width:0.6;" x="322.570176" xlink:href="#m201445ad59" y="307.584"/>
      </g>
     </g>
    </g>
    <g id="xtick_20">
     <g id="line2d_23">
      <g>
       <use style="stroke:#000000;stroke-width:0.6;" x="330.388064" xlink:href="#m201445ad59" y="307.584"/>
      </g>
     </g>
    </g>
    <g id="xtick_21">
     <g id="line2d_24">
      <g>
       <use style="stroke:#000000;stroke-width:0.6;" x="337.283929" xlink:href="#m201445ad59" y="307.584"/>
      </g>
     </g>
    </g>
    <g id="xtick_22">
     <g id="line2d_25">
      <g>
       <use style="stroke:#000000;stroke-width:0.6;" x="384.034309" xlink:href="#m201445ad59" y="307.584"/>
      </g>
     </g>
    </g>
    <g id="xtick_23">
     <g id="line2d_26">
      <g>
       <use style="stroke:#000000;stroke-width:0.6;" x="407.773151" xlink:href="#m201445ad59" y="307.584"/>
      </g>
     </g>
    </g>
    <g id="text_4">
     <!-- Samples per pixel -->
     <defs>
      <path d="M 39.40625 63.09375 
C 33.59375 63.90625 33.90625 65.796875 24.09375 65.796875 
C 14 65.796875 5.09375 59.09375 5.09375 48.5 
C 5.09375 37.90625 13.703125 33.09375 22.5 29.796875 
C 28.59375 27.40625 36 24.59375 36 14.90625 
C 36 6.796875 31.40625 2.59375 23.5 2.59375 
C 14.09375 2.59375 8.09375 6.796875 5.90625 16.796875 
C 4.703125 17.203125 3.59375 17 2.703125 16.5 
C 3.09375 8.796875 3.5 6.203125 4.703125 1.296875 
C 11 1.296875 13.703125 -1 22.59375 -1 
C 27.203125 -1 31.5 0.09375 35 2.203125 
C 40.703125 5.796875 44.40625 12 44.40625 18.40625 
C 44.40625 29 36.296875 33.703125 28.09375 36.703125 
C 22.203125 39 12.203125 42.703125 12.203125 51.203125 
C 12.203125 56.796875 17.296875 62.40625 23.09375 62.40625 
C 32.90625 62.40625 36 56.203125 38 49.59375 
C 39 49.40625 40.296875 49.5 41.203125 50.203125 
C 40.90625 55 40.5 57.796875 39.40625 63.09375 
z
" id="LinLibertineO-83"/>
      <path d="M 29.296875 23.296875 
L 29.296875 10.09375 
C 29.296875 8.796875 28.703125 8.09375 27.90625 7.5 
C 25.296875 5.40625 21.90625 3.09375 19.09375 3.09375 
C 14.09375 3.09375 11.90625 7.09375 11.90625 10.203125 
C 11.90625 14.703125 14 19.296875 21.40625 21.203125 
z
M 29.296875 4.796875 
C 29.90625 1.703125 30.90625 -1 36 -1 
C 39.796875 -1 43.40625 0.703125 45.5 2.703125 
C 45.296875 3.90625 44.90625 4.703125 43.796875 5.40625 
C 43 4.703125 41.296875 3.796875 40.09375 3.796875 
C 37.203125 3.796875 37.09375 7.703125 37.09375 12.296875 
L 37.09375 27 
C 37.09375 41.203125 29.296875 43.90625 22 43.90625 
C 13.796875 43.90625 5.5 38.5 5.5 32.796875 
C 5.5 30.40625 6.703125 29.203125 9 29.203125 
C 11.90625 29.203125 13.703125 31.296875 13.703125 32.59375 
C 13.703125 33.296875 13.59375 34 13.40625 34.40625 
C 13.296875 34.703125 13.203125 35.296875 13.203125 36.40625 
C 13.203125 39.5 17.40625 40.59375 21.203125 40.59375 
C 24.59375 40.59375 29.296875 38.90625 29.296875 27.59375 
C 29.296875 26.90625 29 26.5 28.703125 26.40625 
L 20.09375 24.296875 
C 10.5 21.90625 3.59375 16.59375 3.59375 9.796875 
C 3.59375 1.59375 9.203125 -1 16.203125 -1 
C 19.59375 -1 22.703125 -0.203125 27.09375 3.203125 
L 29.09375 4.796875 
z
" id="LinLibertineO-97"/>
      <path d="M 17 35.796875 
C 16.796875 38.703125 16.59375 42.296875 16.203125 43.40625 
C 15.90625 43.796875 15.796875 44.203125 15 44.203125 
C 12.203125 43.09375 9.59375 42.203125 2.703125 41.296875 
C 2.5 40.703125 2.703125 39.09375 2.90625 38.5 
C 8.296875 38 9.40625 37.5 9.40625 31.703125 
L 9.40625 12.203125 
C 9.40625 4 8.09375 3.5 2.59375 3.09375 
C 2 2.5 2 0.40625 2.59375 -0.203125 
C 5.59375 -0.09375 9.40625 0 13.40625 0 
C 17.40625 0 20.40625 -0.09375 23.40625 -0.203125 
C 24 0.40625 24 2.5 23.40625 3.09375 
C 18.40625 3.59375 17.296875 4 17.296875 12.203125 
L 17.296875 28.59375 
C 17.296875 30.703125 18.203125 31.90625 19 32.796875 
C 22.90625 36.59375 26.703125 38.703125 29.796875 38.703125 
C 33.59375 38.703125 36.40625 36.296875 36.40625 29.59375 
L 36.40625 12.203125 
C 36.40625 4 35.59375 3.5 30.203125 3.09375 
C 29.703125 2.5 29.703125 0.40625 30.203125 -0.203125 
C 32.703125 -0.09375 36.40625 0 40.40625 0 
C 44.40625 0 47.703125 -0.09375 50.203125 -0.203125 
C 50.703125 0.40625 50.703125 2.5 50.203125 3.09375 
C 45.203125 3.5 44.296875 4 44.296875 12.203125 
L 44.296875 28.09375 
C 44.296875 29.5 44.296875 30.90625 44.203125 32.09375 
C 49 37.40625 53.5 38.703125 57.40625 38.703125 
C 61.203125 38.703125 63.40625 36.5 63.40625 29.796875 
L 63.40625 12.203125 
C 63.40625 4 62.40625 3.5 57.203125 3.09375 
C 56.703125 2.5 56.703125 0.40625 57.203125 -0.203125 
C 59.703125 -0.09375 63.40625 0 67.40625 0 
C 71.40625 0 74.90625 -0.09375 77.703125 -0.203125 
C 78.203125 0.40625 78.203125 2.5 77.703125 3.09375 
C 72.203125 3.5 71.296875 4 71.296875 12.203125 
L 71.296875 28 
C 71.296875 36.90625 69.796875 43.90625 61 43.90625 
C 55.796875 43.90625 49.703125 42 44.5 36.5 
C 44.203125 36.203125 43.59375 35.703125 43.40625 36.5 
C 42.40625 40.59375 38.59375 43.90625 33.40625 43.90625 
C 27.59375 43.90625 22.296875 40.40625 18.203125 35.796875 
C 17.703125 35.203125 17 34.59375 17 35.796875 
z
" id="LinLibertineO-109"/>
      <path d="M 17.5 33.09375 
C 20.09375 36.296875 24.59375 39.296875 27.59375 39.296875 
C 34 39.296875 39.5 32.09375 39.5 20.796875 
C 39.5 12.59375 36.59375 2.40625 25.40625 2.40625 
C 23.59375 2.40625 20.09375 2.90625 18.296875 4.5 
C 16.203125 6.296875 15.90625 6.796875 15.90625 10.5 
L 15.90625 28.703125 
C 15.90625 30.796875 16.296875 31.59375 17.5 33.09375 
z
M 15.59375 36.796875 
C 15.40625 39.796875 15.203125 42.296875 14.796875 43.40625 
C 14.5 43.796875 14.40625 44.203125 13.59375 44.203125 
C 10.796875 43.09375 8.203125 42.203125 1.296875 41.296875 
C 1.09375 40.703125 1.296875 39.09375 1.5 38.5 
C 6.90625 38 8 37.5 8 31.703125 
L 8 -11 
C 8 -19.296875 6.90625 -19.796875 0.796875 -20.09375 
C 0.203125 -20.703125 0.203125 -22.796875 0.796875 -23.40625 
C 4.296875 -23.296875 8 -23.203125 12 -23.203125 
C 16 -23.203125 20.796875 -23.296875 24.09375 -23.40625 
C 24.703125 -22.796875 24.703125 -20.703125 24.09375 -20.09375 
C 17 -19.703125 15.90625 -19.296875 15.90625 -11 
L 15.90625 -0.203125 
C 15.90625 1.09375 16.203125 0.90625 17.296875 0.5 
C 19.703125 -0.5 22.796875 -1 26 -1 
C 31.59375 -1 36.59375 0.703125 40.703125 4.59375 
C 45.40625 9.203125 48.09375 15.40625 48.09375 23.5 
C 48.09375 34.09375 40.59375 43.90625 30.40625 43.90625 
C 25.703125 43.90625 20.59375 40.796875 16.703125 36.40625 
C 16.09375 35.703125 15.59375 35.796875 15.59375 36.796875 
z
" id="LinLibertineO-112"/>
      <path d="M 9.5 12.203125 
C 9.5 3.90625 8.40625 3.40625 2.296875 3.09375 
C 1.703125 2.5 1.703125 0.40625 2.296875 -0.203125 
C 5.796875 -0.09375 9.5 0 13.5 0 
C 17.5 0 21.296875 -0.09375 24.59375 -0.203125 
C 25.203125 0.40625 25.203125 2.5 24.59375 3.09375 
C 18.5 3.40625 17.40625 3.90625 17.40625 12.203125 
L 17.40625 58.296875 
C 17.40625 64.796875 17.796875 68.796875 17.796875 68.796875 
C 17.796875 69.5 17.40625 69.796875 16.5 69.796875 
C 14 68.796875 6.5 67.40625 2.5 67.09375 
C 2.296875 66.296875 2.5 64.703125 3.09375 64.09375 
C 8.90625 63.703125 9.5 63.40625 9.5 55.90625 
z
" id="LinLibertineO-108"/>
      <path d="M 12.40625 28.203125 
C 14.296875 39.5 21.296875 40.40625 23.703125 40.40625 
C 27.5 40.40625 32 38.296875 32 29.90625 
C 32 29 31.59375 28.5 30.5 28.5 
z
M 38.59375 9.296875 
C 34.90625 5.5 32 3.90625 26.203125 3.90625 
C 22.59375 3.90625 18.40625 6 15.296875 11.09375 
C 13.296875 14.40625 12.09375 19 12.09375 24.796875 
L 38.703125 24.59375 
C 39.90625 24.59375 40.59375 25.203125 40.59375 26.296875 
C 40.59375 34.703125 37.59375 43.703125 23.703125 43.703125 
C 15 43.703125 3.703125 35.40625 3.703125 20.203125 
C 3.703125 14.59375 5.09375 9.203125 8.40625 5.40625 
C 11.796875 1.40625 16.5 -1 23.703125 -1 
C 31.296875 -1 36.703125 2.5 40.703125 7.703125 
C 40.40625 8.703125 39.796875 9.203125 38.59375 9.296875 
z
" id="LinLibertineO-101"/>
      <path d="M 4.796875 13.796875 
C 5.203125 8.90625 5.5 4.203125 5.5 0 
C 6.5 0.203125 7.5 0.296875 8 0.296875 
C 8.703125 0.296875 9.296875 0.296875 10 0.09375 
C 12.703125 -0.59375 15.40625 -1 19.09375 -1 
C 24.703125 -1 35 1.703125 35 11.59375 
C 35 18.40625 30.09375 22.40625 23.296875 24.90625 
C 17.203125 27.09375 13.296875 28.703125 13.296875 34.203125 
C 13.296875 38.296875 16.90625 40.59375 20.296875 40.59375 
C 22.5 40.59375 28.296875 39.796875 29.59375 31.296875 
C 30.203125 30.703125 32.203125 30.796875 32.796875 31.40625 
C 33.09375 35 33.296875 38.703125 33.40625 42 
C 30.296875 42.5 25.5 43.90625 20.296875 43.90625 
C 12.90625 43.90625 6.203125 39.09375 6.203125 32.703125 
C 6.203125 25.40625 9.5 22.296875 17.203125 19.09375 
C 25.5 15.703125 27.40625 13.59375 27.40625 9.296875 
C 27.40625 4.40625 22.59375 2.296875 18.90625 2.296875 
C 15 2.296875 12.796875 3.59375 11.796875 4.703125 
C 9.59375 7 8.5 11.40625 7.90625 13.90625 
C 7.296875 14.5 5.40625 14.40625 4.796875 13.796875 
z
" id="LinLibertineO-115"/>
      <path id="LinLibertineO-32"/>
      <path d="M 17.59375 35.796875 
C 17.40625 39.796875 17.203125 42.296875 16.796875 43.40625 
C 16.5 43.796875 16.40625 44.203125 15.59375 44.203125 
C 12.796875 43.09375 10.203125 42.203125 3.296875 41.296875 
C 3.09375 40.703125 3.296875 39.09375 3.5 38.5 
C 8.90625 38 10 37.5 10 31.703125 
L 10 12.203125 
C 10 3.90625 8.796875 3.5 2.59375 3.09375 
C 2 2.5 2 0.40625 2.59375 -0.203125 
C 6.09375 -0.09375 10 0 14 0 
C 18 0 22.59375 -0.09375 26.09375 -0.203125 
C 26.703125 0.40625 26.703125 2.5 26.09375 3.09375 
C 19.09375 3.59375 17.90625 3.90625 17.90625 12.203125 
L 17.90625 26.09375 
C 17.90625 28.703125 19.09375 31 20.296875 32.796875 
C 21.40625 34.40625 23.703125 37.703125 24.90625 37.703125 
C 25.796875 37.703125 26.703125 37.40625 27.40625 36.40625 
C 28.203125 35.40625 29.296875 34.09375 31.09375 34.09375 
C 33.5 34.09375 35.796875 36.59375 35.796875 39.09375 
C 35.796875 41 34 43.90625 29.796875 43.90625 
C 25.09375 43.90625 21 39.5 18.703125 35.59375 
C 18.09375 34.5 17.59375 35.296875 17.59375 35.796875 
z
" id="LinLibertineO-114"/>
      <path d="M 9 59.90625 
C 9 57.296875 11.40625 54.703125 13.796875 54.703125 
C 16.59375 54.703125 19 57.296875 19 59.5 
C 19 61.90625 16.90625 64.703125 14.203125 64.703125 
C 11.796875 64.703125 9 62.296875 9 59.90625 
z
M 18.09375 12.203125 
L 18.09375 32.09375 
C 18.09375 37.09375 18.5 43.5 18.5 43.5 
C 18.5 43.90625 18 44.203125 17.203125 44.203125 
C 14.296875 43.09375 10.40625 42.203125 3.5 41.296875 
C 3.296875 40.703125 3.5 39.09375 3.703125 38.5 
C 9.09375 37.90625 10.203125 37.40625 10.203125 31.703125 
L 10.203125 12.203125 
C 10.203125 3.90625 9.09375 3.59375 3 3.09375 
C 2.40625 2.5 2.40625 0.40625 3 -0.203125 
C 6.296875 -0.09375 10.203125 0 14.203125 0 
C 18.203125 0 22 -0.09375 25.296875 -0.203125 
C 25.90625 0.40625 25.90625 2.5 25.296875 3.09375 
C 19.203125 3.5 18.09375 3.90625 18.09375 12.203125 
z
" id="LinLibertineO-105"/>
      <path d="M 18.203125 35.796875 
C 15.90625 39.09375 16.59375 39.296875 21.09375 39.796875 
C 21.703125 40.40625 21.703125 42.5 21.09375 43.09375 
C 18.40625 43 14 42.90625 11 42.90625 
C 8 42.90625 5 43 2.40625 43.09375 
C 1.796875 42.5 1.796875 40.40625 2.40625 39.796875 
C 5.796875 39.5 8.59375 37.796875 11.40625 33.703125 
L 20.09375 21 
C 20.5 20.203125 20.5 19.90625 20.203125 19.5 
L 11.796875 8.703125 
C 7.796875 3.59375 5.59375 3.296875 2.09375 3.09375 
C 1.5 2.5 1.5 0.40625 2.09375 -0.203125 
C 4.09375 -0.09375 6.296875 0 9.296875 0 
C 12.296875 0 15.09375 -0.09375 17.703125 -0.203125 
C 18.296875 0.40625 18.296875 2.5 17.703125 3.09375 
C 14.09375 3.40625 13.203125 3.796875 15.5 7.09375 
L 21.796875 16.203125 
C 22.59375 17.296875 22.90625 17.203125 23.59375 16.40625 
L 29.40625 8.40625 
C 32.796875 3.59375 31.203125 3.40625 28.09375 3.09375 
C 27.5 2.5 27.5 0.40625 28.09375 -0.203125 
C 31.09375 -0.09375 34.40625 0 38 0 
C 41.796875 0 44.5 -0.09375 46.90625 -0.203125 
C 47.5 0.40625 47.5 2.5 46.90625 3.09375 
C 42.296875 3.40625 40.90625 3.703125 36.90625 9.40625 
L 27.90625 22.09375 
C 27.40625 22.59375 27.40625 23 27.90625 23.59375 
L 36.296875 34.296875 
C 40 39 42.296875 39.5 46 39.796875 
C 46.59375 40.40625 46.59375 42.5 46 43.09375 
C 44 43 41.703125 42.90625 38.703125 42.90625 
C 35.703125 42.90625 32.90625 43 30.296875 43.09375 
C 29.703125 42.5 29.703125 40.40625 30.296875 39.796875 
C 33.90625 39.40625 35.09375 39 32.703125 35.703125 
L 26.203125 26.59375 
C 25.40625 25.59375 25 25.59375 24.296875 26.796875 
z
" id="LinLibertineO-120"/>
     </defs>
     <g transform="translate(189.480859 339.774)scale(0.13 -0.13)">
      <use xlink:href="#LinLibertineO-83"/>
      <use x="48.499985" xlink:href="#LinLibertineO-97"/>
      <use x="94.199982" xlink:href="#LinLibertineO-109"/>
      <use x="173.199966" xlink:href="#LinLibertineO-112"/>
      <use x="225.09996" xlink:href="#LinLibertineO-108"/>
      <use x="251.499954" xlink:href="#LinLibertineO-101"/>
      <use x="296.199951" xlink:href="#LinLibertineO-115"/>
      <use x="335.199936" xlink:href="#LinLibertineO-32"/>
      <use x="360.199921" xlink:href="#LinLibertineO-112"/>
      <use x="412.099915" xlink:href="#LinLibertineO-101"/>
      <use x="456.799911" xlink:href="#LinLibertineO-114"/>
      <use x="493.999908" xlink:href="#LinLibertineO-32"/>
      <use x="518.999893" xlink:href="#LinLibertineO-112"/>
      <use x="570.899887" xlink:href="#LinLibertineO-105"/>
      <use x="597.999878" xlink:href="#LinLibertineO-120"/>
      <use x="646.999863" xlink:href="#LinLibertineO-101"/>
      <use x="691.69986" xlink:href="#LinLibertineO-108"/>
     </g>
    </g>
   </g>
   <g id="matplotlib.axis_2">
    <g id="ytick_1">
     <g id="line2d_27">
      <path clip-path="url(#p84af7d6ffc)" d="M 57.6 248.596439 
L 414.72 248.596439 
" style="fill:none;stroke:#b0b0b0;stroke-linecap:square;stroke-width:0.8;"/>
     </g>
     <g id="line2d_28">
      <defs>
       <path d="M 0 0 
L -3.5 0 
" id="mbf09aaac4c" style="stroke:#000000;stroke-width:0.8;"/>
      </defs>
      <g>
       <use style="stroke:#000000;stroke-width:0.8;" x="57.6" xlink:href="#mbf09aaac4c" y="248.596439"/>
      </g>
     </g>
     <g id="text_5">
      <!-- $\mathdefault{10^{-1}}$ -->
      <defs>
       <path d="M 46.296875 22.59375 
C 47.59375 22.59375 49 24.90625 49 25.90625 
C 49 26.703125 48.59375 27.59375 47.59375 27.59375 
L 8.5 27.59375 
C 7.296875 27.59375 6 25.703125 6 24.203125 
C 6 23.40625 6.59375 22.59375 7.5 22.59375 
z
" id="LinLibertineO-8722"/>
      </defs>
      <g transform="translate(28.89 253.133236)scale(0.13 -0.13)">
       <use transform="translate(0 0.276563)" xlink:href="#LinLibertineO-49"/>
       <use transform="translate(46.499985 0.276563)" xlink:href="#LinLibertineO-48"/>
       <use transform="translate(93.75411 30.442188)scale(0.7)" xlink:href="#LinLibertineO-8722"/>
       <use transform="translate(132.254099 30.442188)scale(0.7)" xlink:href="#LinLibertineO-49"/>
      </g>
     </g>
    </g>
    <g id="ytick_2">
     <g id="line2d_29">
      <defs>
       <path d="M 0 0 
L -2 0 
" id="m32ae0598b2" style="stroke:#000000;stroke-width:0.6;"/>
      </defs>
      <g>
       <use style="stroke:#000000;stroke-width:0.6;" x="57.6" xlink:href="#m32ae0598b2" y="299.704399"/>
      </g>
     </g>
    </g>
    <g id="ytick_3">
     <g id="line2d_30">
      <g>
       <use style="stroke:#000000;stroke-width:0.6;" x="57.6" xlink:href="#m32ae0598b2" y="284.281667"/>
      </g>
     </g>
    </g>
    <g id="ytick_4">
     <g id="line2d_31">
      <g>
       <use style="stroke:#000000;stroke-width:0.6;" x="57.6" xlink:href="#m32ae0598b2" y="270.921889"/>
      </g>
     </g>
    </g>
    <g id="ytick_5">
     <g id="line2d_32">
      <g>
       <use style="stroke:#000000;stroke-width:0.6;" x="57.6" xlink:href="#m32ae0598b2" y="259.137729"/>
      </g>
     </g>
    </g>
    <g id="ytick_6">
     <g id="line2d_33">
      <g>
       <use style="stroke:#000000;stroke-width:0.6;" x="57.6" xlink:href="#m32ae0598b2" y="179.24726"/>
      </g>
     </g>
    </g>
    <g id="ytick_7">
     <g id="line2d_34">
      <g>
       <use style="stroke:#000000;stroke-width:0.6;" x="57.6" xlink:href="#m32ae0598b2" y="138.68059"/>
      </g>
     </g>
    </g>
    <g id="ytick_8">
     <g id="line2d_35">
      <g>
       <use style="stroke:#000000;stroke-width:0.6;" x="57.6" xlink:href="#m32ae0598b2" y="109.89808"/>
      </g>
     </g>
    </g>
    <g id="ytick_9">
     <g id="line2d_36">
      <g>
       <use style="stroke:#000000;stroke-width:0.6;" x="57.6" xlink:href="#m32ae0598b2" y="87.572631"/>
      </g>
     </g>
    </g>
    <g id="ytick_10">
     <g id="line2d_37">
      <g>
       <use style="stroke:#000000;stroke-width:0.6;" x="57.6" xlink:href="#m32ae0598b2" y="69.331411"/>
      </g>
     </g>
    </g>
    <g id="ytick_11">
     <g id="line2d_38">
      <g>
       <use style="stroke:#000000;stroke-width:0.6;" x="57.6" xlink:href="#m32ae0598b2" y="53.908679"/>
      </g>
     </g>
    </g>
    <g id="text_6">
     <!-- RMSE -->
     <defs>
      <path d="M 27.203125 61.796875 
C 33.296875 61.796875 40.5 59.59375 40.5 47.796875 
C 40.5 35.296875 33.40625 32.5 23.703125 32.5 
L 18.90625 32.5 
L 18.90625 55.40625 
C 18.90625 58.296875 20.09375 61.796875 27.203125 61.796875 
z
M 18.90625 12.203125 
L 18.90625 29.09375 
C 27.296875 29.09375 29.09375 27.59375 30.59375 25.296875 
L 41.296875 7.90625 
C 44.09375 3.203125 48.5 -1 54.5 -1 
C 56 -1 57.703125 -0.796875 58.703125 -0.296875 
C 59 0.296875 59 1.296875 58.59375 2.09375 
C 54.09375 2.09375 51.59375 5.40625 49 9.796875 
L 36.40625 30.796875 
C 40.703125 32.203125 49.703125 37.40625 49.703125 47.90625 
C 49.703125 52.90625 48 57 44.40625 60.40625 
C 39.59375 64.90625 33.40625 65.203125 27.09375 65.203125 
C 22.40625 65.203125 18.203125 64.5 14.59375 64.5 
C 11.09375 64.5 6.40625 64.59375 1.703125 64.703125 
C 1.09375 64.09375 1.09375 62 1.703125 61.40625 
C 8.703125 61.09375 10.40625 60.59375 10.40625 52.296875 
L 10.40625 12.203125 
C 10.40625 3.90625 8.703125 3.40625 1.703125 3.09375 
C 1.09375 2.5 1.09375 0.40625 1.703125 -0.203125 
C 6.203125 -0.09375 10.796875 0 14.703125 0 
C 18.40625 0 23.203125 -0.09375 27.59375 -0.203125 
C 28.203125 0.40625 28.203125 2.5 27.59375 3.09375 
C 20.59375 3.40625 18.90625 3.90625 18.90625 12.203125 
z
" id="LinLibertineO-82"/>
      <path d="M 66.203125 11.59375 
C 66.703125 3.5 66.40625 3.40625 59.90625 3.09375 
C 59.296875 2.5 59.296875 0.40625 59.90625 -0.203125 
C 63.59375 -0.09375 67.59375 0 70.59375 0 
C 73.59375 0 78.09375 -0.09375 81.5 -0.203125 
C 82.09375 0.40625 82.09375 2.5 81.5 3.09375 
C 74.703125 3.40625 74.296875 3.796875 73.796875 12.09375 
L 70.796875 54.203125 
C 70.40625 59.59375 70.90625 61 77.703125 61.40625 
C 78.296875 62 78.296875 64.09375 77.703125 64.703125 
L 64.59375 64.5 
L 43.40625 13.796875 
C 43 12.796875 42.703125 12.40625 42.5 12.40625 
C 42.296875 12.40625 42 12.90625 41.703125 13.703125 
L 21.203125 64.5 
L 6.703125 64.703125 
C 6.09375 64.09375 6.09375 62 6.703125 61.40625 
C 13.59375 61 14.203125 60.796875 13.5 53.296875 
L 9.40625 12.09375 
C 8.90625 6.09375 7.703125 3.59375 2 3.09375 
C 1.40625 2.5 1.40625 0.40625 2 -0.203125 
C 5 -0.09375 8.203125 0 10.59375 0 
C 13 0 17 -0.09375 20 -0.203125 
C 20.59375 0.40625 20.59375 2.5 20 3.09375 
C 13.40625 3.59375 12.796875 6.59375 13.40625 12.296875 
L 17.203125 52.40625 
L 17.40625 52.40625 
L 38.09375 0.5 
C 38.296875 -0.296875 39 -1 39.59375 -1 
C 40.203125 -1 40.59375 -0.296875 41 0.5 
L 63.5 53.40625 
L 63.703125 53.40625 
z
" id="LinLibertineO-77"/>
      <path d="M 28.09375 36.09375 
L 19 36.09375 
L 19 54.09375 
C 19 58.5 20.203125 60.5 25.59375 60.5 
L 33.09375 60.5 
C 40.59375 60.5 42.203125 56.5 44.40625 49.59375 
C 45.59375 49.40625 46.703125 49.59375 47.703125 50.09375 
C 47.203125 54.203125 45.703125 63.796875 45.5 64.59375 
C 45.5 64.796875 45.40625 64.90625 45.09375 64.90625 
C 43.40625 64.59375 42.59375 64.5 40.203125 64.5 
L 14.703125 64.5 
C 11.59375 64.5 5.796875 64.59375 1.796875 64.703125 
C 1.203125 64.09375 1.203125 62 1.796875 61.40625 
C 8.796875 61.09375 10.5 60.59375 10.5 52.296875 
L 10.5 12.203125 
C 10.5 3.90625 8.796875 3.40625 1.796875 3.09375 
C 1.203125 2.5 1.203125 0.40625 1.796875 -0.203125 
C 5.5 -0.09375 11.5 0 14.796875 0 
L 36.296875 0 
C 41.09375 0 49.09375 -0.203125 49.09375 -0.203125 
C 50.5 4.796875 52 11.40625 52.796875 16.5 
C 51.703125 17 50.59375 17.296875 49.296875 17 
C 47.296875 9.796875 43.796875 3.90625 36.203125 3.90625 
L 24.59375 3.90625 
C 20.40625 3.90625 19 5.5 19 10.203125 
L 19 32.296875 
L 28.09375 32.296875 
C 36.59375 32.296875 36.90625 30 37.203125 25.5 
C 37.796875 24.90625 39.90625 24.90625 40.5 25.5 
C 40.40625 28.09375 40.296875 30.796875 40.296875 34.296875 
C 40.296875 37.09375 40.40625 40.5 40.5 42.90625 
C 39.90625 43.5 37.796875 43.5 37.203125 42.90625 
C 36.90625 37.40625 36.59375 36.09375 28.09375 36.09375 
z
" id="LinLibertineO-69"/>
     </defs>
     <g transform="translate(21.847187 190.570812)rotate(-90)scale(0.13 -0.13)">
      <use xlink:href="#LinLibertineO-82"/>
      <use x="58.699997" xlink:href="#LinLibertineO-77"/>
      <use x="142.599991" xlink:href="#LinLibertineO-83"/>
      <use x="191.099976" xlink:href="#LinLibertineO-69"/>
     </g>
    </g>
   </g>
   <g id="line2d_39">
    <path clip-path="url(#p84af7d6ffc)" d="M 73.832727 53.801899 
L 114.414545 95.92886 
L 154.996364 139.794059 
L 195.578182 181.951753 
L 236.16 215.880732 
L 276.741818 247.087366 
L 317.323636 267.440718 
L 357.905455 277.864271 
L 398.487273 282.072507 
" style="fill:none;stroke:#1f77b4;stroke-linecap:square;stroke-width:1.5;"/>
   </g>
   <g id="line2d_40">
    <path clip-path="url(#p84af7d6ffc)" d="M 73.832727 53.568 
L 114.414545 97.805144 
L 154.996364 141.300697 
L 195.578182 186.98098 
L 236.16 224.585465 
L 276.741818 248.203735 
L 317.323636 275.337435 
L 357.905455 288.853555 
L 398.487273 295.488 
" style="fill:none;stroke:#ff7f0e;stroke-linecap:square;stroke-width:1.5;"/>
   </g>
   <g id="patch_3">
    <path d="M 57.6 307.584 
L 57.6 41.472 
" style="fill:none;stroke:#000000;stroke-linecap:square;stroke-linejoin:miter;stroke-width:0.8;"/>
   </g>
   <g id="patch_4">
    <path d="M 414.72 307.584 
L 414.72 41.472 
" style="fill:none;stroke:#000000;stroke-linecap:square;stroke-linejoin:miter;stroke-width:0.8;"/>
   </g>
   <g id="patch_5">
    <path d="M 57.6 307.584 
L 414.72 307.584 
" style="fill:none;stroke:#000000;stroke-linecap:square;stroke-linejoin:miter;stroke-width:0.8;"/>
   </g>
   <g id="patch_6">
    <path d="M 57.6 41.472 
L 414.72 41.472 
" style="fill:none;stroke:#000000;stroke-linecap:square;stroke-linejoin:miter;stroke-width:0.8;"/>
   </g>
   <g id="legend_1">
    <g id="patch_7">
     <path d="M 293.336563 89.157625 
L 405.62 89.157625 
Q 408.22 89.157625 408.22 86.557625 
L 408.22 50.572 
Q 408.22 47.972 405.62 47.972 
L 293.336563 47.972 
Q 290.736562 47.972 290.736562 50.572 
L 290.736562 86.557625 
Q 290.736562 89.157625 293.336563 89.157625 
z
" style="fill:#ffffff;opacity:0.8;stroke:#cccccc;stroke-linejoin:miter;"/>
    </g>
    <g id="line2d_41">
     <path d="M 295.936562 57.722 
L 321.936562 57.722 
" style="fill:none;stroke:#1f77b4;stroke-linecap:square;stroke-width:1.5;"/>
    </g>
    <g id="line2d_42"/>
    <g id="text_7">
     <!-- Owen + XOR -->
     <defs>
      <path d="M 33.09375 62.203125 
C 46.296875 62.203125 57 51.203125 57 31 
C 57 13.09375 48.40625 2.59375 37 2.59375 
C 24.796875 2.59375 13.296875 13.5 13.296875 32.703125 
C 13.296875 53.703125 23.203125 62.203125 33.09375 62.203125 
z
M 66.59375 32.90625 
C 66.59375 53.59375 52.296875 65.796875 34.40625 65.796875 
C 15 65.796875 3.703125 50.296875 3.703125 31 
C 3.703125 11.296875 18 -1 35 -1 
C 46 -1 54.90625 3.703125 60.40625 11.59375 
C 64.40625 17.203125 66.59375 24.5 66.59375 32.90625 
z
" id="LinLibertineO-79"/>
      <path d="M 20.296875 39.796875 
C 20.90625 40.40625 20.90625 42.5 20.296875 43.09375 
C 17.296875 43 13.796875 42.90625 10.203125 42.90625 
C 6.40625 42.90625 3.703125 43 1.09375 43.09375 
C 0.5 42.5 0.5 40.40625 1.09375 39.796875 
C 5.796875 39.296875 6.90625 38.296875 9 33.09375 
L 22.09375 0.796875 
C 22.703125 -0.59375 23.5 -1.203125 24.5 -1.203125 
C 25.40625 -1.203125 26.203125 -0.59375 26.90625 1 
L 37 25.59375 
L 47.296875 0.796875 
C 47.90625 -0.59375 48.703125 -1.203125 49.703125 -1.203125 
C 50.59375 -1.203125 51.40625 -0.59375 52 0.90625 
L 65 32.59375 
C 66.703125 36.59375 68.40625 39.5 73.5 39.796875 
C 74.09375 40.40625 74.09375 42.5 73.5 43.09375 
C 71.5 43 69.296875 42.90625 66.296875 42.90625 
C 63.296875 42.90625 59.09375 43 56.09375 43.09375 
C 55.5 42.5 55.5 40.40625 56.09375 39.796875 
C 63.59375 39.40625 62.5 36.5 61.09375 33 
L 52.796875 12.203125 
C 51.796875 9.703125 51.40625 9.703125 50.5 11.796875 
L 41.90625 33.703125 
C 40.09375 38.40625 40.296875 39.40625 45.59375 39.796875 
C 46.203125 40.40625 46.203125 42.5 45.59375 43.09375 
C 42.59375 43 38.59375 42.90625 35.59375 42.90625 
C 33.09375 42.90625 29.796875 43 26.796875 43.09375 
C 26.203125 42.5 26.203125 40.40625 26.796875 39.796875 
C 31.5 39.296875 32.59375 36.40625 34.40625 32 
L 35.09375 30.40625 
L 28.09375 12.703125 
C 26.796875 9.40625 26.5 9.203125 25.203125 12.5 
L 17.203125 33.09375 
C 15.40625 37.90625 15.5 39.5 20.296875 39.796875 
z
" id="LinLibertineO-119"/>
      <path d="M 18.40625 35.796875 
C 17.703125 35.09375 17.203125 34.796875 17.203125 35.796875 
C 17.09375 38.5 16.796875 42.296875 16.40625 43.40625 
C 16.09375 43.796875 16 44.203125 15.203125 44.203125 
C 12.40625 43.09375 9.796875 42.203125 2.90625 41.296875 
C 2.703125 40.703125 2.90625 39.09375 3.09375 38.5 
C 8.5 38 9.59375 37.5 9.59375 31.703125 
L 9.59375 12.203125 
C 9.59375 4 8.59375 3.59375 2.59375 3.09375 
C 2 2.5 2 0.40625 2.59375 -0.203125 
C 5.59375 -0.09375 9.59375 0 13.59375 0 
C 17.59375 0 20.59375 -0.09375 23.59375 -0.203125 
C 24.203125 0.40625 24.203125 2.5 23.59375 3.09375 
C 18.5 3.59375 17.5 4 17.5 12.203125 
L 17.5 28.59375 
C 17.5 30.703125 18.40625 31.90625 19.203125 32.796875 
C 23 36.5 27.5 38.703125 31.40625 38.703125 
C 33.40625 38.703125 35.5 37.40625 36.703125 35.09375 
C 37.703125 33.09375 37.90625 30.40625 37.90625 27.40625 
L 37.90625 12.203125 
C 37.90625 4 36.90625 3.59375 31.703125 3.09375 
C 31.203125 2.5 31.203125 0.40625 31.703125 -0.203125 
C 34.703125 -0.09375 37.90625 0 41.90625 0 
C 45.90625 0 49.5 -0.09375 52.5 -0.203125 
C 53 0.40625 53 2.5 52.5 3.09375 
C 46.90625 3.59375 45.796875 4 45.796875 12.203125 
L 45.796875 27.09375 
C 45.796875 32.59375 45.40625 37.40625 43.09375 40.5 
C 41.40625 42.703125 38.296875 43.90625 34.796875 43.90625 
C 29.90625 43.90625 24.296875 42.59375 18.40625 35.796875 
z
" id="LinLibertineO-110"/>
      <path d="M 25 43.5 
L 25 27.59375 
L 8.5 27.59375 
C 7.296875 27.59375 6 25.703125 6 24.203125 
C 6 23.40625 6.59375 22.59375 7.5 22.59375 
L 25 22.59375 
L 25 5.59375 
C 25 4.703125 25.796875 4.09375 26.59375 4.09375 
C 28.09375 4.09375 30 5.40625 30 6.59375 
L 30 22.59375 
L 46.296875 22.59375 
C 47.59375 22.59375 49 24.90625 49 25.90625 
C 49 26.703125 48.59375 27.59375 47.59375 27.59375 
L 30 27.59375 
L 30 44.796875 
C 30 45.796875 29.09375 46.203125 28.296875 46.203125 
C 27.296875 46.203125 25 44.796875 25 43.5 
z
" id="LinLibertineO-43"/>
      <path d="M 53.796875 10.203125 
L 38.5 31.203125 
C 37.5 32.5 36.90625 33.5 36.90625 34.5 
C 36.90625 35.40625 36.90625 36.296875 37.90625 37.5 
L 51.59375 55.203125 
C 55 59.59375 58.203125 60.90625 62.703125 61.40625 
C 63.296875 62 63.296875 64.09375 62.703125 64.703125 
C 59.703125 64.59375 56 64.5 53.703125 64.5 
C 51.40625 64.5 47.203125 64.59375 43.203125 64.703125 
C 42.59375 64.09375 42.59375 62 43.203125 61.40625 
C 47.59375 61.09375 49.40625 60.5 47.09375 57.203125 
L 34.796875 39.703125 
C 34.203125 38.796875 33.59375 38.5 33.203125 38.5 
C 32.90625 38.5 32.40625 38.90625 32 39.59375 
L 20.90625 55.90625 
C 18.09375 59.90625 17.703125 61.09375 23.296875 61.40625 
C 23.90625 62 23.90625 64.09375 23.296875 64.703125 
C 19.59375 64.59375 15.90625 64.5 11.90625 64.5 
C 8 64.5 4.703125 64.59375 1.703125 64.703125 
C 1.09375 64.09375 1.203125 62 1.796875 61.40625 
C 6 61.09375 7.796875 60.5 11.90625 54.703125 
L 26.203125 34.40625 
C 27 33.203125 27.59375 32.40625 27.59375 31.40625 
C 27.59375 30.796875 27.09375 29.796875 26.59375 29.09375 
L 11.796875 9.296875 
C 8.296875 4.703125 5.09375 3.5 0.703125 3.09375 
C 0.09375 2.5 0.09375 0.40625 0.703125 -0.203125 
C 3.703125 -0.09375 7.40625 0 9.703125 0 
C 12 0 16.203125 -0.09375 20.203125 -0.203125 
C 20.796875 0.40625 20.796875 2.5 20.203125 3.09375 
C 15.703125 3.40625 13.796875 3.90625 16.296875 7.296875 
L 29.5 25.796875 
C 30 26.59375 30.703125 27.203125 31 27.203125 
C 31.40625 27.203125 31.796875 26.90625 32.40625 26.09375 
L 44.703125 8.5 
C 47.5 4.40625 48 3.40625 42.40625 3.09375 
C 41.796875 2.5 41.796875 0.40625 42.40625 -0.203125 
C 46.09375 -0.09375 49.796875 0 53.796875 0 
C 57.703125 0 61 -0.09375 64 -0.203125 
C 64.59375 0.40625 64.5 2.5 63.90625 3.09375 
C 59.703125 3.40625 58 4.296875 53.796875 10.203125 
z
" id="LinLibertineO-88"/>
     </defs>
     <g transform="translate(332.336562 62.272)scale(0.13 -0.13)">
      <use xlink:href="#LinLibertineO-79"/>
      <use x="70.199982" xlink:href="#LinLibertineO-119"/>
      <use x="144.899963" xlink:href="#LinLibertineO-101"/>
      <use x="189.59996" xlink:href="#LinLibertineO-110"/>
      <use x="243.799957" xlink:href="#LinLibertineO-32"/>
      <use x="268.799942" xlink:href="#LinLibertineO-43"/>
      <use x="323.799927" xlink:href="#LinLibertineO-32"/>
      <use x="348.799911" xlink:href="#LinLibertineO-88"/>
      <use x="414.799896" xlink:href="#LinLibertineO-79"/>
      <use x="484.999878" xlink:href="#LinLibertineO-82"/>
     </g>
    </g>
    <g id="line2d_43">
     <path d="M 295.936562 76.364812 
L 321.936562 76.364812 
" style="fill:none;stroke:#ff7f0e;stroke-linecap:square;stroke-width:1.5;"/>
    </g>
    <g id="line2d_44"/>
    <g id="text_8">
     <!-- Rank-1 -->
     <defs>
      <path d="M 8.59375 12.203125 
C 8.59375 3.90625 7.5 3.5 1.90625 3.09375 
C 1.296875 2.5 1.296875 0.40625 1.90625 -0.203125 
C 5.203125 -0.09375 8.59375 0 12.59375 0 
C 16.09375 0 19.40625 -0.09375 21.703125 -0.203125 
C 22.296875 0.40625 22.296875 2.5 21.703125 3.09375 
C 17.59375 3.5 16.5 3.90625 16.5 12.203125 
L 16.5 20.796875 
C 18.40625 20.796875 19.796875 20.59375 20.796875 20.296875 
C 21.90625 19.59375 22.796875 18.703125 24 17.09375 
L 31.296875 7.296875 
C 34.203125 3.296875 35.296875 1.40625 35.5 0.296875 
C 35.5 0 35.59375 -0.203125 35.90625 -0.203125 
C 37.90625 -0.09375 40.09375 0 42.09375 0 
C 45.203125 0 48.296875 -0.09375 50.296875 -0.203125 
C 50.90625 0.40625 50.90625 2.5 50.296875 3.09375 
C 46.90625 3.5 44.296875 3.90625 41.703125 7.296875 
L 28.5 23.90625 
C 28.09375 24.296875 27.796875 24.796875 27.796875 25.296875 
C 27.796875 25.703125 27.796875 25.90625 28.203125 26.296875 
L 37 35.40625 
C 40 38.59375 43.5 39.40625 47.5 39.796875 
C 48.09375 40.40625 48.09375 42.5 47.5 43.09375 
C 45.203125 43 42.40625 42.90625 38.796875 42.90625 
C 35 42.90625 31.296875 43 29 43.09375 
C 28.40625 42.5 28.40625 40.40625 29 39.796875 
C 34.59375 39.40625 32.203125 35.796875 31.296875 34.703125 
C 29 31.796875 25.796875 28.40625 23.296875 26.5 
C 21 24.796875 18.296875 23.59375 16.5 23.40625 
L 16.5 58.296875 
C 16.5 64.796875 16.90625 68.796875 16.90625 68.796875 
C 16.90625 69.5 16.5 69.796875 15.59375 69.796875 
C 13.09375 68.796875 5.59375 67.40625 1.59375 67.09375 
C 1.40625 66.296875 1.59375 64.703125 2.203125 64.09375 
C 7.40625 63.796875 8.59375 64.296875 8.59375 55.90625 
z
" id="LinLibertineO-107"/>
      <path d="M 27.09375 22.296875 
C 28.40625 22.296875 29.796875 25.09375 29.796875 26.296875 
C 29.796875 27.296875 29.40625 28.296875 28.40625 28.296875 
L 6.5 28.296875 
C 5.296875 28.296875 4 26 4 24.203125 
C 4 23.203125 4.59375 22.296875 5.5 22.296875 
z
" id="LinLibertineO-45"/>
     </defs>
     <g transform="translate(332.336562 80.914812)scale(0.13 -0.13)">
      <use xlink:href="#LinLibertineO-82"/>
      <use x="58.699997" xlink:href="#LinLibertineO-97"/>
      <use x="104.399994" xlink:href="#LinLibertineO-110"/>
      <use x="158.599991" xlink:href="#LinLibertineO-107"/>
      <use x="209.799988" xlink:href="#LinLibertineO-45"/>
      <use x="243.599976" xlink:href="#LinLibertineO-49"/>
     </g>
    </g>
   </g>
  </g>
 </g>
 <defs>
  <clipPath id="p84af7d6ffc">
   <rect height="266.112" width="357.12" x="57.6" y="41.472"/>
  </clipPath>
 </defs>
</svg>
