<?xml version="1.0" encoding="UTF-8" standalone="no"?>
<svg
   xmlns:ns0="http://www.iki.fi/pav/software/textext/"
   xmlns:dc="http://purl.org/dc/elements/1.1/"
   xmlns:cc="http://creativecommons.org/ns#"
   xmlns:rdf="http://www.w3.org/1999/02/22-rdf-syntax-ns#"
   xmlns:svg="http://www.w3.org/2000/svg"
   xmlns="http://www.w3.org/2000/svg"
   xmlns:sodipodi="http://sodipodi.sourceforge.net/DTD/sodipodi-0.dtd"
   xmlns:inkscape="http://www.inkscape.org/namespaces/inkscape"
   id="svg8"
   version="1.1"
   viewBox="0 0 122.11206 49.053116"
   height="49.053116mm"
   width="122.11205mm"
   sodipodi:docname="airy_reformulation.svg"
   inkscape:version="0.92.1 unknown">
  <sodipodi:namedview
     pagecolor="#ffffff"
     bordercolor="#666666"
     borderopacity="1"
     objecttolerance="10"
     gridtolerance="10"
     guidetolerance="10"
     inkscape:pageopacity="0"
     inkscape:pageshadow="2"
     inkscape:window-width="2495"
     inkscape:window-height="1416"
     id="namedview54"
     showgrid="false"
     inkscape:zoom="3.8486515"
     inkscape:cx="262.91304"
     inkscape:cy="135.60406"
     inkscape:window-x="65"
     inkscape:window-y="24"
     inkscape:window-maximized="1"
     inkscape:current-layer="layer1" />
  <defs
     id="defs2">
    <marker
       style="overflow:visible"
       id="marker5010"
       refX="0"
       refY="0"
       orient="auto">
      <path
         transform="matrix(-0.3,0,0,-0.3,0.69,0)"
         d="M 8.7185878,4.0337352 -2.2072895,0.01601326 8.7185884,-4.0017078 c -1.7454984,2.3720609 -1.7354408,5.6174519 -6e-7,8.035443 z"
         style="fill:#41b700;fill-opacity:1;fill-rule:evenodd;stroke:#41b700;stroke-width:0.625;stroke-linejoin:round;stroke-opacity:1"
         id="path5008" />
    </marker>
    <marker
       orient="auto"
       refY="0"
       refX="0"
       id="marker4952"
       style="overflow:visible">
      <path
         id="path4950"
         style="fill:#ff8a2c;fill-opacity:1;fill-rule:evenodd;stroke:#ff8a2c;stroke-width:0.625;stroke-linejoin:round;stroke-opacity:1"
         d="M 8.7185878,4.0337352 -2.2072895,0.01601326 8.7185884,-4.0017078 c -1.7454984,2.3720609 -1.7354408,5.6174519 -6e-7,8.035443 z"
         transform="matrix(-0.3,0,0,-0.3,0.69,0)" />
    </marker>
    <marker
       style="overflow:visible"
       id="marker4908"
       refX="0"
       refY="0"
       orient="auto">
      <path
         transform="matrix(-0.3,0,0,-0.3,0.69,0)"
         d="M 8.7185878,4.0337352 -2.2072895,0.01601326 8.7185884,-4.0017078 c -1.7454984,2.3720609 -1.7354408,5.6174519 -6e-7,8.035443 z"
         style="fill:#ff8a2c;fill-opacity:1;fill-rule:evenodd;stroke:#ff8a2c;stroke-width:0.625;stroke-linejoin:round;stroke-opacity:1"
         id="path4906" />
    </marker>
    <marker
       orient="auto"
       refY="0"
       refX="0"
       id="marker4854"
       style="overflow:visible">
      <path
         id="path4852"
         style="fill:#207ade;fill-opacity:1;fill-rule:evenodd;stroke:#207ade;stroke-width:0.625;stroke-linejoin:round;stroke-opacity:1"
         d="M 8.7185878,4.0337352 -2.2072895,0.01601326 8.7185884,-4.0017078 c -1.7454984,2.3720609 -1.7354408,5.6174519 -6e-7,8.035443 z"
         transform="matrix(-0.3,0,0,-0.3,0.69,0)" />
    </marker>
    <marker
       orient="auto"
       refY="0"
       refX="0"
       id="Arrow2Mend"
       style="overflow:visible">
      <path
         id="path4583"
         style="fill:#000000;fill-opacity:1;fill-rule:evenodd;stroke:#000000;stroke-width:0.625;stroke-linejoin:round;stroke-opacity:1"
         d="M 8.7185878,4.0337352 -2.2072895,0.01601326 8.7185884,-4.0017078 c -1.7454984,2.3720609 -1.7354408,5.6174519 -6e-7,8.035443 z"
         transform="scale(-0.6)" />
    </marker>
    <marker
       orient="auto"
       refY="0"
       refX="0"
       id="Arrow2Send"
       style="overflow:visible">
      <path
         id="path4589"
         style="fill:#000000;fill-opacity:1;fill-rule:evenodd;stroke:#000000;stroke-width:0.625;stroke-linejoin:round;stroke-opacity:1"
         d="M 8.7185878,4.0337352 -2.2072895,0.01601326 8.7185884,-4.0017078 c -1.7454984,2.3720609 -1.7354408,5.6174519 -6e-7,8.035443 z"
         transform="matrix(-0.3,0,0,-0.3,0.69,0)" />
    </marker>
  </defs>
  <metadata
     id="metadata5">
    <rdf:RDF>
      <cc:Work
         rdf:about="">
        <dc:format>image/svg+xml</dc:format>
        <dc:type
           rdf:resource="http://purl.org/dc/dcmitype/StillImage" />
        <dc:title />
      </cc:Work>
    </rdf:RDF>
  </metadata>
  <g
     id="layer1"
     transform="translate(-130.55531,-15.603177)">
    <rect
       style="opacity:1;fill:none;fill-opacity:1;stroke:#207ade;stroke-width:0.5291667;stroke-linecap:square;stroke-linejoin:miter;stroke-miterlimit:4;stroke-dasharray:none;stroke-dashoffset:0;stroke-opacity:1;paint-order:markers fill stroke"
       id="rect4546"
       width="11.628769"
       height="14.813072"
       x="137.24037"
       y="32.899948" />
    <rect
       y="32.899948"
       x="158.45428"
       height="14.813072"
       width="14.038363"
       id="rect4548"
       style="opacity:1;fill:none;fill-opacity:1;stroke:#ff8a2c;stroke-width:0.5291667;stroke-linecap:square;stroke-linejoin:miter;stroke-miterlimit:4;stroke-dasharray:none;stroke-dashoffset:0;stroke-opacity:1;paint-order:markers fill stroke" />
    <rect
       style="opacity:1;fill:none;fill-opacity:1;stroke:#ff8a2c;stroke-width:0.5291667;stroke-linecap:square;stroke-linejoin:miter;stroke-miterlimit:4;stroke-dasharray:none;stroke-dashoffset:0;stroke-opacity:1;paint-order:markers fill stroke"
       id="rect4550"
       width="15.629905"
       height="14.813072"
       x="198.58092"
       y="32.899948" />
    <rect
       y="32.899948"
       x="215.15242"
       height="14.813072"
       width="36.858677"
       id="rect4552"
       style="opacity:1;fill:none;fill-opacity:1;stroke:#41b700;stroke-width:0.5291667;stroke-linecap:square;stroke-linejoin:miter;stroke-miterlimit:4;stroke-dasharray:none;stroke-dashoffset:0;stroke-opacity:1;paint-order:markers fill stroke" />
    <path
       style="fill:none;fill-rule:evenodd;stroke:#207ade;stroke-width:0.39687499;stroke-linecap:butt;stroke-linejoin:miter;stroke-miterlimit:4;stroke-dasharray:none;stroke-opacity:1;marker-end:url(#marker4854)"
       d="M 143.05666,58.996476 V 48.973869"
       id="path4554" />
    <path
       id="path4904"
       d="M 165.47537,20.897969 V 30.920576"
       style="fill:none;fill-rule:evenodd;stroke:#ff8a2c;stroke-width:0.39687499;stroke-linecap:butt;stroke-linejoin:miter;stroke-miterlimit:4;stroke-dasharray:none;stroke-opacity:1;marker-end:url(#marker4908)" />
    <path
       style="fill:none;fill-rule:evenodd;stroke:#ff8a2c;stroke-width:0.39687499;stroke-linecap:butt;stroke-linejoin:miter;stroke-miterlimit:4;stroke-dasharray:none;stroke-opacity:1;marker-end:url(#marker4952)"
       d="M 206.39774,58.996476 V 48.973869"
       id="path4948"
       inkscape:connector-curvature="0" />
    <path
       id="path5006"
       d="M 233.97534,20.897969 V 30.920576"
       style="fill:none;fill-rule:evenodd;stroke:#41b700;stroke-width:0.39687499;stroke-linecap:butt;stroke-linejoin:miter;stroke-miterlimit:4;stroke-dasharray:none;stroke-opacity:1;marker-end:url(#marker5010)" />
    <text
       xml:space="preserve"
       style="font-style:normal;font-variant:normal;font-weight:normal;font-stretch:normal;font-size:10.58333302px;line-height:125%;font-family:'PT Sans';-inkscape-font-specification:'PT Sans';letter-spacing:0px;word-spacing:0px;fill:#207ade;fill-opacity:1;stroke:none;stroke-width:0.26458332px;stroke-linecap:butt;stroke-linejoin:miter;stroke-opacity:1"
       x="130.51262"
       y="63.860779"
       id="text5465"><tspan
         id="tspan5463"
         x="130.51262"
         y="63.860779"
         style="font-size:3.88055563px;fill:#207ade;fill-opacity:1;stroke-width:0.26458332px">total reflectiviy</tspan></text>
    <text
       id="text5481"
       y="63.860779"
       x="194.12869"
       style="font-style:normal;font-variant:normal;font-weight:normal;font-stretch:normal;font-size:10.58333302px;line-height:125%;font-family:'PT Sans';-inkscape-font-specification:'PT Sans';letter-spacing:0px;word-spacing:0px;fill:#ff8a2c;fill-opacity:1;stroke:none;stroke-width:0.26458332px;stroke-linecap:butt;stroke-linejoin:miter;stroke-opacity:1"
       xml:space="preserve"><tspan
         style="font-size:3.88055563px;fill:#ff8a2c;fill-opacity:1;stroke-width:0.26458332px"
         y="63.860779"
         x="194.12869"
         id="tspan5479"><tspan
   style="font-style:italic;font-variant:normal;font-weight:normal;font-stretch:normal;font-family:'PT Sans';-inkscape-font-specification:'PT Sans Italic'"
   id="tspan5497">relative</tspan> reflectiviy</tspan></text>
    <text
       xml:space="preserve"
       style="font-style:normal;font-variant:normal;font-weight:normal;font-stretch:normal;font-size:10.58333302px;line-height:125%;font-family:'PT Sans';-inkscape-font-specification:'PT Sans';letter-spacing:0px;word-spacing:0px;fill:#ff8a2c;fill-opacity:1;stroke:none;stroke-width:0.26458332px;stroke-linecap:butt;stroke-linejoin:miter;stroke-opacity:1"
       x="152.81084"
       y="18.366133"
       id="text5503"><tspan
         id="tspan5501"
         x="152.81084"
         y="18.366133"
         style="font-size:3.88055563px;fill:#ff8a2c;fill-opacity:1;stroke-width:0.26458332px"><tspan
   style="font-style:italic;font-variant:normal;font-weight:normal;font-stretch:normal;font-family:'PT Sans';-inkscape-font-specification:'PT Sans Italic'"
   id="tspan5517">main</tspan> reflectiviy</tspan></text>
    <text
       id="text5547"
       y="18.366133"
       x="220.24586"
       style="font-style:normal;font-variant:normal;font-weight:normal;font-stretch:normal;font-size:10.58333302px;line-height:125%;font-family:'PT Sans';-inkscape-font-specification:'PT Sans';letter-spacing:0px;word-spacing:0px;fill:#41b700;fill-opacity:0.90588235;stroke:none;stroke-width:0.26458332px;stroke-linecap:butt;stroke-linejoin:miter;stroke-opacity:1"
       xml:space="preserve"><tspan
         style="font-size:3.88055563px;fill:#41b700;fill-opacity:0.90588235;stroke-width:0.26458332px"
         y="18.366133"
         x="220.24586"
         id="tspan5545">phase difference</tspan></text>
    <g
       style="font-style:normal;font-variant:normal;font-weight:normal;font-stretch:normal;letter-spacing:normal;word-spacing:normal;text-anchor:start;fill:none;fill-opacity:1;fill-rule:evenodd;stroke:#000000;stroke-linecap:butt;stroke-linejoin:miter;stroke-miterlimit:10.43299961;stroke-dasharray:none;stroke-dashoffset:0;stroke-opacity:1"
       ns0:preamble=""
       ns0:text="$$R = C_0 + \\sum_{m} C_m \\cos(m \\Phi)$$"
       text-anchor="start"
       word-spacing="normal"
       letter-spacing="normal"
       font-size-adjust="none"
       font-stretch="normal"
       font-weight="normal"
       font-variant="normal"
       font-style="normal"
       fill-opacity="1"
       fill-rule="evenodd"
       fill="none"
       stroke-opacity="1"
       stroke-dashoffset="0"
       stroke-dasharray="none"
       stroke-miterlimit="10.433"
       stroke-linejoin="miter"
       stroke-linecap="butt"
       stroke="black"
       xml:space="preserve"
       transform="matrix(1,0,0,-1,-200,750)"
       id="content"><path
         id="path4600"
         fill="black"
         stroke-width="0"
         d="M343.4,710.02 L343.49,710.04 L343.59,710.06 L343.68,710.09 L343.78,710.12 L343.88,710.15 L343.97,710.19 L344.07,710.23 L344.16,710.27 L344.26,710.31 L344.35,710.36 L344.44,710.4 L344.53,710.45 L344.62,710.51 L344.71,710.56 L344.79,710.62 L344.87,710.68 L344.95,710.74 L345.02,710.81 L345.09,710.88 L345.16,710.94 L345.23,711.02 L345.28,711.09 L345.34,711.17 L345.39,711.24 L345.43,711.32 L345.47,711.41 L345.51,711.49 L345.54,711.58 L345.56,711.66 L345.58,711.75 L345.59,711.84 L345.59,711.94 C345.59,712.79,344.69,713.43,343.39,713.43 H340.55 C340.35,713.43,340.26,713.43,340.26,713.23 C340.26,713.12,340.35,713.12,340.54,713.12 C340.56,713.12,340.75,713.12,340.92,713.1 C341.1,713.08,341.19,713.07,341.19,712.94 C341.19,712.9,341.18,712.87,341.15,712.76 L339.81,707.41 C339.71,707.02,339.69,706.94,338.9,706.94 C338.73,706.94,338.64,706.94,338.64,706.74 C338.64,706.63,338.76,706.63,338.77,706.63 C339.05,706.63,339.75,706.66,340.03,706.66 C340.31,706.66,341.02,706.63,341.3,706.63 C341.38,706.63,341.49,706.63,341.49,706.83 C341.49,706.94,341.41,706.94,341.22,706.94 C340.85,706.94,340.57,706.94,340.57,707.12 C340.57,707.17,340.59,707.22,340.6,707.28 L341.26,709.92 H342.44 L342.43,710.14 H341.32 L341.96,712.74 C342.02,712.98,342.05,713.08,342.24,713.11 C342.33,713.12,342.65,713.12,342.85,713.12 C343.56,713.12,344.66,713.12,344.66,712.14 C344.66,711.8,344.5,711.11,344.11,710.72 C343.86,710.46,343.33,710.14,342.43,710.14 L342.44,709.92 C343.35,709.92,343.53,709.37,343.53,709.02 C343.53,708.87,343.45,708.56,343.39,708.33 C343.32,708.05,343.23,707.68,343.23,707.48 C343.23,706.41,344.42,706.41,344.55,706.41 C345.4,706.41,345.75,707.41,345.75,707.55 C345.75,707.67,345.64,707.67,345.63,707.67 C345.54,707.67,345.52,707.6,345.5,707.53 C345.25,706.8,344.82,706.63,344.59,706.63 C344.27,706.63,344.2,706.85,344.2,707.23 C344.2,707.54,344.26,708.05,344.3,708.37 C344.32,708.51,344.33,708.7,344.33,708.84 C344.33,709.61,343.67,709.91,343.4,710.02 Z " /><path
         id="path4602"
         fill="black"
         stroke-width="0"
         d="M355.48,709.89 L355.51,709.89 L355.54,709.89 L355.57,709.89 L355.58,709.89 L355.6,709.89 L355.61,709.89 L355.63,709.89 L355.64,709.89 L355.65,709.9 L355.67,709.9 L355.68,709.9 L355.69,709.91 L355.71,709.91 L355.72,709.91 L355.73,709.92 L355.74,709.93 L355.75,709.93 L355.76,709.94 L355.77,709.95 L355.78,709.96 L355.79,709.97 L355.79,709.97 L355.8,709.98 L355.8,709.99 L355.8,709.99 L355.81,710 L355.81,710.01 L355.81,710.01 L355.81,710.02 L355.81,710.03 L355.82,710.03 L355.82,710.04 L355.82,710.05 L355.82,710.06 L355.82,710.07 L355.82,710.08 L355.82,710.09 C355.82,710.28,355.63,710.28,355.49,710.28 H349.52 C349.39,710.28,349.2,710.28,349.2,710.09 C349.2,709.89,349.39,709.89,349.53,709.89 Z " /><path
         id="path4604"
         fill="black"
         stroke-width="0"
         d="M355.49,707.95 L355.51,707.95 L355.52,707.95 L355.55,707.95 L355.57,707.95 L355.59,707.96 L355.6,707.96 L355.62,707.96 L355.63,707.96 L355.64,707.96 L355.66,707.96 L355.67,707.97 L355.68,707.97 L355.7,707.97 L355.71,707.98 L355.72,707.98 L355.73,707.99 L355.74,707.99 L355.75,708 L355.76,708.01 L355.77,708.02 L355.78,708.03 L355.79,708.03 L355.79,708.04 L355.79,708.04 L355.8,708.05 L355.8,708.05 L355.8,708.06 L355.81,708.07 L355.81,708.07 L355.81,708.08 L355.81,708.09 L355.81,708.09 L355.82,708.1 L355.82,708.11 L355.82,708.12 L355.82,708.13 L355.82,708.13 L355.82,708.14 L355.82,708.15 C355.82,708.35,355.63,708.35,355.48,708.35 H349.53 C349.39,708.35,349.2,708.35,349.2,708.15 C349.2,707.95,349.39,707.95,349.52,707.95 Z " /><path
         id="path4606"
         fill="black"
         stroke-width="0"
         d="M366.72,713.55 L366.72,713.55 L366.72,713.56 L366.72,713.56 L366.72,713.56 L366.72,713.57 L366.72,713.57 L366.72,713.58 L366.72,713.58 L366.72,713.58 L366.72,713.59 L366.71,713.59 L366.71,713.6 L366.71,713.6 L366.71,713.6 L366.71,713.61 L366.7,713.61 L366.7,713.62 L366.7,713.62 L366.69,713.62 L366.69,713.63 L366.68,713.63 L366.68,713.63 L366.67,713.64 L366.67,713.64 L366.66,713.64 L366.66,713.64 L366.66,713.64 L366.65,713.65 L366.65,713.65 L366.65,713.65 L366.64,713.65 L366.64,713.65 L366.64,713.65 L366.63,713.65 L366.63,713.65 L366.63,713.65 L366.62,713.65 L366.62,713.65 L366.61,713.65 C366.58,713.65,366.58,713.64,366.46,713.53 L365.77,712.76 C365.68,712.9,365.22,713.65,364.11,713.65 C361.89,713.65,359.65,711.45,359.65,709.14 C359.65,707.49,360.83,706.41,362.35,706.41 C363.22,706.41,363.97,706.81,364.5,707.27 C365.43,708.08,365.6,708.99,365.6,709.02 C365.6,709.12,365.5,709.12,365.48,709.12 C365.42,709.12,365.37,709.1,365.35,709.02 C365.26,708.73,365.03,708.02,364.34,707.44 C363.66,706.89,363.03,706.72,362.51,706.72 C361.61,706.72,360.56,707.23,360.56,708.79 C360.56,709.36,360.77,710.97,361.76,712.14 C362.37,712.84,363.31,713.34,364.19,713.34 C365.21,713.34,365.8,712.58,365.8,711.42 C365.8,711.02,365.77,711.01,365.77,710.91 C365.77,710.81,365.88,710.81,365.92,710.81 C366.05,710.81,366.05,710.83,366.1,711.01 Z " /><path
         id="path4608"
         fill="black"
         stroke-width="0"
         d="M369.87,707.36 L369.87,707.5 L369.86,707.64 L369.86,707.77 L369.85,707.9 L369.84,708.02 L369.82,708.14 L369.8,708.26 L369.78,708.37 L369.76,708.48 L369.73,708.58 L369.69,708.69 L369.66,708.79 L369.61,708.88 L369.57,708.98 L369.51,709.07 L369.49,709.12 L369.46,709.17 C369.24,709.49,368.81,709.77,368.25,709.77 C366.63,709.77,366.63,707.86,366.63,707.36 C366.63,706.86,366.63,705,368.25,705 V705.19 C367.93,705.19,367.5,705.38,367.36,705.95 C367.27,706.36,367.27,706.93,367.27,707.45 C367.27,707.96,367.27,708.49,367.37,708.87 C367.52,709.42,367.96,709.57,368.25,709.57 C368.63,709.57,368.99,709.34,369.11,708.94 C369.23,708.56,369.23,708.06,369.23,707.45 C369.23,706.93,369.23,706.42,369.14,705.98 C369,705.34,368.53,705.19,368.25,705.19 H368.25 V705 C369.87,705,369.87,706.86,369.87,707.36 Z " /><path
         id="path4610"
         fill="black"
         stroke-width="0"
         d="M377.03,708.92 H379.81 C379.95,708.92,380.14,708.92,380.14,709.12 C380.14,709.32,379.95,709.32,379.81,709.32 H377.03 V712.11 C377.03,712.25,377.03,712.44,376.83,712.44 C376.63,712.44,376.63,712.25,376.63,712.11 V709.32 H373.84 C373.7,709.32,373.51,709.32,373.51,709.12 C373.51,708.92,373.7,708.92,373.84,708.92 H376.63 V706.13 C376.63,705.99,376.63,705.8,376.83,705.8 C377.03,705.8,377.03,705.99,377.03,706.13 Z " /><path
         id="path4612"
         fill="black"
         stroke-width="0"
         d="M395.53,702.15 L396.74,705.33 H396.49 C396.1,704.3,395.04,703.62,393.9,703.32 C393.69,703.27,392.71,703.01,390.8,703.01 H384.79 L389.86,708.96 C389.93,709.04,389.95,709.07,389.95,709.12 C389.95,709.14,389.95,709.17,389.88,709.27 L385.24,715.61 H390.7 C392.04,715.61,392.94,715.47,393.03,715.46 C393.57,715.38,394.44,715.21,395.22,714.71 C395.47,714.55,396.15,714.1,396.49,713.29 H396.74 L395.53,716.09 H383.76 C383.53,716.09,383.52,716.08,383.49,716.02 C383.48,715.99,383.48,715.8,383.48,715.69 L388.75,708.48 L383.59,702.43 C383.49,702.31,383.49,702.26,383.49,702.26 C383.49,702.15,383.58,702.15,383.76,702.15 Z " /><path
         id="path4614"
         fill="black"
         stroke-width="0"
         d="M389.61,695.73 L389.6,695.72 L389.6,695.7 L389.6,695.69 L389.59,695.68 L389.59,695.66 L389.58,695.65 L389.58,695.61 L389.57,695.58 L389.56,695.55 L389.55,695.52 L389.55,695.5 L389.54,695.49 L389.54,695.47 L389.54,695.46 L389.53,695.44 L389.53,695.43 L389.53,695.42 L389.52,695.4 L389.52,695.39 L389.52,695.38 L389.52,695.37 L389.52,695.36 L389.51,695.35 L389.51,695.34 L389.51,695.34 L389.51,695.33 L389.51,695.32 L389.51,695.32 C389.51,695.17,389.64,695.1,389.75,695.1 C389.87,695.1,389.98,695.19,390.02,695.25 C390.05,695.31,390.11,695.54,390.14,695.68 C390.18,695.82,390.26,696.14,390.3,696.31 C390.34,696.47,390.38,696.62,390.42,696.78 C390.49,697.08,390.49,697.09,390.63,697.31 C390.86,697.65,391.2,698.05,391.75,698.05 C392.14,698.05,392.16,697.73,392.16,697.56 C392.16,697.14,391.86,696.37,391.75,696.07 C391.67,695.88,391.64,695.82,391.64,695.7 C391.64,695.33,391.95,695.1,392.31,695.1 C393,695.1,393.31,696.06,393.31,696.16 C393.31,696.26,393.22,696.26,393.2,696.26 C393.1,696.26,393.09,696.21,393.07,696.14 C392.9,695.58,392.61,695.29,392.33,695.29 C392.18,695.29,392.15,695.39,392.15,695.54 C392.15,695.7,392.19,695.79,392.31,696.1 C392.4,696.32,392.68,697.06,392.68,697.45 C392.68,697.56,392.68,697.85,392.42,698.05 C392.31,698.15,392.1,698.24,391.77,698.24 C391.15,698.24,390.76,697.83,390.54,697.54 C390.48,698.13,389.99,698.24,389.64,698.24 C389.06,698.24,388.67,697.89,388.46,697.61 C388.41,698.09,388,698.24,387.71,698.24 C387.41,698.24,387.25,698.03,387.16,697.87 C387.01,697.61,386.91,697.21,386.91,697.18 C386.91,697.09,387.01,697.09,387.03,697.09 C387.12,697.09,387.13,697.11,387.18,697.29 C387.28,697.71,387.42,698.05,387.69,698.05 C387.87,698.05,387.92,697.89,387.92,697.71 C387.92,697.57,387.86,697.32,387.81,697.13 C387.76,696.94,387.69,696.65,387.65,696.5 L387.43,695.61 C387.4,695.52,387.36,695.34,387.36,695.32 C387.36,695.17,387.49,695.1,387.6,695.1 C387.72,695.1,387.83,695.19,387.87,695.25 C387.9,695.31,387.96,695.54,388,695.68 C388.03,695.82,388.11,696.14,388.15,696.31 C388.19,696.47,388.23,696.62,388.27,696.78 C388.34,697.06,388.36,697.12,388.56,697.41 C388.76,697.68,389.08,698.05,389.61,698.05 C390.01,698.05,390.02,697.69,390.02,697.56 C390.02,697.39,390,697.29,389.9,696.9 Z " /><path
         id="path4616"
         fill="black"
         stroke-width="0"
         d="M406.54,713.55 L406.54,713.55 L406.54,713.56 L406.54,713.56 L406.54,713.56 L406.54,713.57 L406.54,713.57 L406.54,713.58 L406.54,713.58 L406.54,713.58 L406.53,713.59 L406.53,713.59 L406.53,713.6 L406.53,713.6 L406.53,713.6 L406.52,713.61 L406.52,713.61 L406.52,713.62 L406.51,713.62 L406.51,713.62 L406.51,713.63 L406.5,713.63 L406.5,713.63 L406.49,713.64 L406.49,713.64 L406.48,713.64 L406.48,713.64 L406.48,713.64 L406.47,713.65 L406.47,713.65 L406.47,713.65 L406.46,713.65 L406.46,713.65 L406.46,713.65 L406.45,713.65 L406.45,713.65 L406.44,713.65 L406.44,713.65 L406.44,713.65 L406.43,713.65 C406.4,713.65,406.39,713.64,406.28,713.53 L405.58,712.76 C405.5,712.9,405.04,713.65,403.93,713.65 C401.71,713.65,399.47,711.45,399.47,709.14 C399.47,707.49,400.64,706.41,402.17,706.41 C403.04,706.41,403.79,706.81,404.32,707.27 C405.25,708.08,405.42,708.99,405.42,709.02 C405.42,709.12,405.32,709.12,405.3,709.12 C405.24,709.12,405.19,709.1,405.17,709.02 C405.08,708.73,404.85,708.02,404.16,707.44 C403.47,706.89,402.85,706.72,402.33,706.72 C401.43,706.72,400.38,707.23,400.38,708.79 C400.38,709.36,400.58,710.97,401.58,712.14 C402.19,712.84,403.12,713.34,404.01,713.34 C405.03,713.34,405.61,712.58,405.61,711.42 C405.61,711.02,405.58,711.01,405.58,710.91 C405.58,710.81,405.7,710.81,405.73,710.81 C405.86,710.81,405.86,710.83,405.91,711.01 Z " /><path
         id="path4618"
         fill="black"
         stroke-width="0"
         d="M409.11,705.7 L409.11,705.69 L409.11,705.67 L409.1,705.66 L409.1,705.64 L409.1,705.63 L409.09,705.61 L409.08,705.58 L409.08,705.55 L409.07,705.52 L409.06,705.49 L409.06,705.47 L409.05,705.45 L409.05,705.44 L409.05,705.42 L409.04,705.41 L409.04,705.4 L409.04,705.38 L409.03,705.37 L409.03,705.36 L409.03,705.35 L409.02,705.34 L409.02,705.33 L409.02,705.32 L409.02,705.31 L409.02,705.3 L409.02,705.3 L409.02,705.29 L409.02,705.29 C409.02,705.14,409.14,705.07,409.25,705.07 C409.38,705.07,409.49,705.16,409.53,705.22 C409.56,705.28,409.62,705.51,409.65,705.65 C409.69,705.78,409.76,706.1,409.8,706.28 C409.85,706.43,409.89,706.59,409.92,706.75 C410,707.05,410,707.06,410.14,707.28 C410.36,707.62,410.71,708.02,411.26,708.02 C411.65,708.02,411.67,707.69,411.67,707.53 C411.67,707.11,411.37,706.34,411.26,706.04 C411.18,705.85,411.15,705.78,411.15,705.66 C411.15,705.29,411.46,705.07,411.81,705.07 C412.51,705.07,412.82,706.03,412.82,706.13 C412.82,706.22,412.73,706.22,412.71,706.22 C412.61,706.22,412.6,706.18,412.57,706.1 C412.41,705.55,412.11,705.26,411.83,705.26 C411.69,705.26,411.66,705.36,411.66,705.51 C411.66,705.66,411.69,705.76,411.82,706.07 C411.9,706.29,412.19,707.03,412.19,707.41 C412.19,707.53,412.19,707.82,411.93,708.02 C411.81,708.11,411.61,708.21,411.28,708.21 C410.65,708.21,410.27,707.8,410.05,707.51 C409.99,708.1,409.5,708.21,409.14,708.21 C408.56,708.21,408.17,707.85,407.96,707.58 C407.92,708.06,407.5,708.21,407.22,708.21 C406.92,708.21,406.76,707.99,406.67,707.83 C406.51,707.58,406.42,707.18,406.42,707.14 C406.42,707.05,406.51,707.05,406.53,707.05 C406.63,707.05,406.64,707.07,406.69,707.26 C406.79,707.67,406.92,708.02,407.2,708.02 C407.38,708.02,407.43,707.86,407.43,707.67 C407.43,707.54,407.36,707.28,407.32,707.09 C407.27,706.91,407.2,706.62,407.16,706.47 L406.94,705.57 C406.91,705.48,406.87,705.31,406.87,705.29 C406.87,705.14,406.99,705.07,407.11,705.07 C407.23,705.07,407.34,705.16,407.38,705.22 C407.41,705.28,407.47,705.51,407.5,705.65 C407.54,705.78,407.61,706.1,407.66,706.28 C407.7,706.43,407.74,706.59,407.77,706.75 C407.85,707.03,407.87,707.09,408.07,707.37 C408.26,707.65,408.59,708.02,409.11,708.02 C409.52,708.02,409.53,707.66,409.53,707.53 C409.53,707.35,409.51,707.26,409.41,706.87 Z " /><path
         id="path4620"
         fill="black"
         stroke-width="0"
         d="M416.49,708.8 L416.49,708.87 L416.49,708.95 L416.49,709.02 L416.5,709.09 L416.5,709.16 L416.51,709.22 L416.51,709.29 L416.52,709.35 L416.53,709.41 L416.54,709.47 L416.55,709.53 L416.56,709.59 L416.59,709.7 L416.62,709.8 L416.66,709.9 L416.69,709.99 L416.73,710.08 L416.77,710.16 L416.82,710.23 L416.86,710.3 L416.91,710.37 L416.96,710.43 L417.01,710.48 L417.06,710.54 L417.12,710.58 L417.17,710.62 L417.23,710.66 L417.29,710.7 L417.34,710.73 L417.4,710.75 L417.45,710.77 L417.51,710.79 L417.57,710.81 L417.62,710.82 L417.68,710.83 L417.73,710.84 L417.78,710.84 L417.83,710.84 C417.92,710.84,418.55,710.83,418.9,710.47 C418.49,710.44,418.43,710.14,418.43,710.02 C418.43,709.76,418.61,709.56,418.89,709.56 C419.15,709.56,419.35,709.73,419.35,710.03 C419.35,710.7,418.59,711.09,417.82,711.09 C416.58,711.09,415.66,710.02,415.66,708.78 C415.66,707.5,416.64,706.52,417.8,706.52 C419.14,706.52,419.45,707.71,419.45,707.81 C419.45,707.91,419.36,707.91,419.33,707.91 C419.23,707.91,419.21,707.87,419.2,707.81 C418.91,706.89,418.26,706.77,417.89,706.77 C417.36,706.77,416.49,707.2,416.49,708.8 Z " /><path
         id="path4622"
         fill="black"
         stroke-width="0"
         d="M424.44,708.76 L424.43,708.88 L424.43,709 L424.41,709.11 L424.39,709.23 L424.37,709.34 L424.34,709.45 L424.3,709.56 L424.26,709.66 L424.22,709.77 L424.17,709.87 L424.12,709.96 L424.06,710.06 L424,710.15 L423.93,710.24 L423.86,710.32 L423.79,710.4 L423.71,710.48 L423.63,710.55 L423.55,710.62 L423.46,710.69 L423.37,710.75 L423.28,710.81 L423.19,710.86 L423.09,710.91 L422.99,710.95 L422.89,710.99 L422.78,711.02 L422.68,711.04 L422.57,711.06 L422.46,711.08 L422.35,711.09 L422.24,711.09 L422.23,710.87 C422.66,710.87,423.09,710.65,423.35,710.22 C423.61,709.8,423.61,709.22,423.61,708.84 C423.61,708.48,423.61,707.94,423.39,707.5 C423.17,707.06,422.73,706.77,422.24,706.77 H422.24 C421.81,706.77,421.37,706.98,421.1,707.43 C420.85,707.87,420.85,708.48,420.85,708.84 C420.85,709.23,420.85,709.77,421.09,710.2 C421.36,710.66,421.83,710.87,422.23,710.87 L422.24,711.09 C420.99,711.09,420.02,710.01,420.02,708.76 C420.02,707.47,421.06,706.52,422.23,706.52 C423.43,706.52,424.44,707.49,424.44,708.76 Z " /><path
         id="path4624"
         fill="black"
         stroke-width="0"
         d="M426.8,708.56 L426.82,708.56 L426.84,708.55 L426.87,708.55 L426.9,708.54 L426.94,708.53 L426.97,708.52 L427.01,708.51 L427.05,708.5 L427.09,708.49 L427.13,708.47 L427.18,708.46 L427.22,708.44 L427.27,708.42 L427.31,708.4 L427.35,708.38 L427.4,708.36 L427.44,708.33 L427.48,708.3 L427.52,708.27 L427.56,708.24 L427.6,708.2 L427.64,708.17 L427.67,708.13 L427.7,708.08 L427.73,708.04 L427.74,708.02 L427.76,707.99 L427.77,707.97 L427.78,707.94 L427.79,707.91 L427.8,707.89 L427.81,707.86 L427.81,707.83 L427.82,707.8 L427.82,707.77 L427.83,707.74 L427.83,707.71 L427.83,707.68 L427.83,707.64 C427.83,707.14,427.48,706.74,426.71,706.74 C425.87,706.74,425.51,707.3,425.32,708.15 C425.29,708.28,425.28,708.32,425.18,708.32 C425.05,708.32,425.05,708.25,425.05,708.07 V706.76 C425.05,706.59,425.05,706.52,425.16,706.52 C425.21,706.52,425.22,706.53,425.41,706.72 C425.43,706.74,425.43,706.76,425.61,706.95 C426.05,706.53,426.5,706.52,426.71,706.52 C427.85,706.52,428.31,707.18,428.31,707.9 C428.31,708.43,428.01,708.73,427.89,708.85 C427.56,709.17,427.18,709.25,426.76,709.33 C426.2,709.44,425.53,709.57,425.53,710.14 C425.53,710.49,425.79,710.9,426.65,710.9 C427.74,710.9,427.79,710.01,427.81,709.7 C427.82,709.61,427.91,709.61,427.93,709.61 C428.06,709.61,428.06,709.66,428.06,709.84 V710.85 C428.06,711.02,428.06,711.09,427.95,711.09 C427.9,711.09,427.88,711.09,427.75,710.97 C427.72,710.93,427.62,710.84,427.58,710.81 C427.21,711.09,426.8,711.09,426.65,711.09 C425.43,711.09,425.05,710.42,425.05,709.86 C425.05,709.52,425.21,709.24,425.48,709.02 C425.8,708.76,426.08,708.7,426.8,708.56 Z " /><path
         id="path4626"
         fill="black"
         stroke-width="0"
         d="M431.95,704.24 L431.95,704.24 L431.95,704.25 L431.95,704.25 L431.95,704.25 L431.95,704.26 L431.95,704.26 L431.95,704.26 L431.95,704.27 L431.95,704.27 L431.94,704.27 L431.94,704.28 L431.94,704.28 L431.94,704.29 L431.93,704.29 L431.93,704.3 L431.92,704.31 L431.92,704.31 L431.91,704.32 L431.91,704.32 L431.9,704.33 L431.9,704.33 L431.9,704.34 L431.89,704.34 L431.89,704.34 L431.89,704.35 L431.88,704.35 L431.88,704.36 L431.87,704.36 L431.87,704.37 L431.86,704.38 L431.86,704.38 L431.85,704.39 L431.85,704.39 L431.84,704.4 L431.83,704.41 L431.83,704.41 L431.82,704.42 L431.81,704.43 L431.81,704.43 L431.8,704.44 L431.79,704.45 L431.78,704.46 C430.54,705.71,430.22,707.59,430.22,709.12 C430.22,710.85,430.6,712.59,431.82,713.83 C431.95,713.95,431.95,713.97,431.95,714 C431.95,714.07,431.91,714.1,431.85,714.1 C431.75,714.1,430.86,713.42,430.27,712.16 C429.76,711.06,429.64,709.96,429.64,709.12 C429.64,708.34,429.75,707.14,430.3,706.01 C430.9,704.78,431.75,704.14,431.85,704.14 C431.91,704.14,431.95,704.17,431.95,704.24 Z " /><path
         id="path4628"
         fill="black"
         stroke-width="0"
         d="M433.41,707.22 L433.41,707.2 L433.4,707.19 L433.4,707.17 L433.4,707.16 L433.39,707.12 L433.38,707.09 L433.38,707.06 L433.37,707.03 L433.36,707 L433.35,706.96 L433.35,706.95 L433.35,706.93 L433.34,706.92 L433.34,706.91 L433.34,706.89 L433.33,706.88 L433.33,706.87 L433.33,706.85 L433.33,706.84 L433.33,706.83 L433.32,706.82 L433.32,706.81 L433.32,706.81 L433.32,706.8 L433.32,706.79 L433.32,706.79 C433.32,706.61,433.46,706.52,433.61,706.52 C433.73,706.52,433.91,706.6,433.98,706.8 C433.99,706.82,434.11,707.28,434.17,707.53 L434.39,708.43 C434.45,708.65,434.51,708.87,434.55,709.1 C434.6,709.27,434.67,709.56,434.68,709.6 C434.83,709.91,435.36,710.81,436.31,710.81 C436.76,710.81,436.85,710.44,436.85,710.11 C436.85,709.86,436.78,709.59,436.7,709.29 L436.42,708.13 L436.22,707.38 C436.18,707.17,436.09,706.84,436.09,706.79 C436.09,706.61,436.23,706.52,436.38,706.52 C436.69,706.52,436.75,706.77,436.83,707.09 C436.97,707.64,437.33,709.1,437.42,709.49 C437.45,709.62,437.98,710.81,439.07,710.81 C439.5,710.81,439.61,710.47,439.61,710.11 C439.61,709.55,439.19,708.41,438.99,707.88 C438.9,707.64,438.86,707.53,438.86,707.34 C438.86,706.87,439.21,706.52,439.68,706.52 C440.61,706.52,440.98,707.97,440.98,708.05 C440.98,708.15,440.89,708.15,440.86,708.15 C440.76,708.15,440.76,708.12,440.71,707.97 C440.56,707.44,440.24,706.74,439.7,706.74 C439.53,706.74,439.46,706.84,439.46,707.07 C439.46,707.32,439.55,707.55,439.64,707.77 C439.83,708.29,440.24,709.4,440.24,709.97 C440.24,710.61,439.85,711.03,439.1,711.03 C438.35,711.03,437.84,710.59,437.47,710.07 C437.46,710.19,437.43,710.53,437.15,710.77 C436.91,710.98,436.59,711.03,436.34,711.03 C435.44,711.03,434.95,710.39,434.78,710.16 C434.73,710.73,434.32,711.03,433.87,711.03 C433.41,711.03,433.22,710.64,433.13,710.46 C432.95,710.11,432.82,709.53,432.82,709.5 C432.82,709.4,432.92,709.4,432.94,709.4 C433.04,709.4,433.05,709.41,433.11,709.63 C433.28,710.33,433.48,710.81,433.84,710.81 C434,710.81,434.15,710.73,434.15,710.35 C434.15,710.14,434.12,710.03,433.99,709.52 Z " /><path
         id="path4630"
         fill="black"
         stroke-width="0"
         d="M445.25,707.97 L445.4,707.99 L445.54,708 L445.68,708.03 L445.81,708.05 L445.94,708.08 L446.07,708.12 L446.2,708.16 L446.32,708.2 L446.44,708.25 L446.55,708.3 L446.66,708.35 L446.77,708.41 L446.87,708.47 L446.97,708.53 L447.07,708.6 L447.16,708.67 L447.24,708.74 L447.32,708.81 L447.4,708.89 L447.47,708.96 L447.54,709.05 L447.6,709.13 L447.66,709.21 L447.71,709.3 L447.75,709.38 L447.79,709.47 L447.82,709.56 L447.85,709.65 L447.87,709.74 L447.89,709.84 L447.9,709.93 L447.9,710.03 C447.9,711.06,446.77,711.97,445.25,712.09 V711.87 C446.63,711.71,446.91,710.79,446.91,710.03 C446.91,709.44,446.76,708.37,445.25,708.19 V711.87 V712.09 V712.65 C445.25,712.98,445.25,713.12,446.2,713.12 H446.53 V713.43 C446.17,713.4,445.25,713.4,444.84,713.4 C444.44,713.4,443.51,713.4,443.15,713.43 V713.12 H443.48 C444.43,713.12,444.43,712.99,444.43,712.65 V712.09 V711.86 V708.2 C443.01,708.39,442.83,709.41,442.83,710.03 C442.83,710.54,442.93,711.66,444.43,711.86 V712.09 C442.9,711.94,441.83,711.02,441.83,710.03 C441.83,709.01,442.94,708.12,444.43,707.97 V707.41 C444.43,707.08,444.43,706.94,443.48,706.94 H443.15 V706.63 C443.51,706.66,444.43,706.66,444.83,706.66 C445.24,706.66,446.17,706.66,446.53,706.63 V706.94 H446.2 C445.25,706.94,445.25,707.07,445.25,707.41 Z " /><path
         id="path4632"
         fill="black"
         stroke-width="0"
         d="M451.36,709.12 L451.36,709.19 L451.36,709.27 L451.35,709.35 L451.35,709.43 L451.34,709.6 L451.33,709.77 L451.31,709.96 L451.29,710.15 L451.27,710.34 L451.23,710.54 L451.19,710.75 L451.15,710.95 L451.09,711.16 L451.03,711.38 L450.96,711.59 L450.88,711.8 L450.84,711.91 L450.8,712.02 L450.75,712.12 L450.7,712.23 C450.1,713.45,449.24,714.1,449.14,714.1 C449.08,714.1,449.05,714.06,449.05,714 C449.05,713.97,449.05,713.95,449.23,713.77 C450.21,712.78,450.78,711.2,450.78,709.12 C450.78,707.41,450.41,705.66,449.17,704.41 C449.05,704.29,449.05,704.27,449.05,704.24 C449.05,704.18,449.08,704.14,449.14,704.14 C449.24,704.14,450.14,704.81,450.73,706.08 C451.24,707.17,451.36,708.28,451.36,709.12 Z " /></g>  </g>
</svg>
