<?xml version="1.0" encoding="UTF-8" standalone="no"?>
<!-- Created with Inkscape (http://www.inkscape.org/) -->

<svg
   xmlns:dc="http://purl.org/dc/elements/1.1/"
   xmlns:cc="http://creativecommons.org/ns#"
   xmlns:rdf="http://www.w3.org/1999/02/22-rdf-syntax-ns#"
   xmlns:svg="http://www.w3.org/2000/svg"
   xmlns="http://www.w3.org/2000/svg"
   xmlns:sodipodi="http://sodipodi.sourceforge.net/DTD/sodipodi-0.dtd"
   xmlns:inkscape="http://www.inkscape.org/namespaces/inkscape"
   id="svg2"
   version="1.1"
   inkscape:version="0.92.1 unknown"
   width="2140"
   height="647"
   xml:space="preserve"
   sodipodi:docname="microfacets_film.svg"
   viewBox="0 0 2140 647.00001"><metadata
     id="metadata8"><rdf:RDF><cc:Work
         rdf:about=""><dc:format>image/svg+xml</dc:format><dc:type
           rdf:resource="http://purl.org/dc/dcmitype/StillImage" /><dc:title></dc:title></cc:Work></rdf:RDF></metadata><defs
     id="defs6"><clipPath
       clipPathUnits="userSpaceOnUse"
       id="clipPath48"><path
         d="m 0,2.410187 h 332 v 36 H 0 Z"
         id="path50"
         inkscape:connector-curvature="0" /></clipPath><mask
       maskUnits="userSpaceOnUse"
       x="0"
       y="0"
       width="1"
       height="1"
       id="mask52"><g
         id="g54"><g
           clip-path="url(#clipPath48)"
           id="g56"><path
             d="m 0,2.410187 h 332 v 36 H 0 Z"
             style="fill:#000000;fill-opacity:0.2;fill-rule:nonzero;stroke:none"
             id="path58"
             inkscape:connector-curvature="0" /></g></g></mask><clipPath
       clipPathUnits="userSpaceOnUse"
       id="clipPath64"><path
         d="m 0,2.410187 h 332 v 36 H 0 Z"
         id="path66"
         inkscape:connector-curvature="0" /></clipPath><clipPath
       clipPathUnits="userSpaceOnUse"
       id="clipPath68"><path
         d="M 0,3 H 332 V 39 H 0 Z"
         id="path70"
         inkscape:connector-curvature="0" /></clipPath><linearGradient
       x1="190.47649"
       y1="108.96654"
       x2="401.2677"
       y2="108.96654"
       gradientUnits="userSpaceOnUse"
       gradientTransform="matrix(0.8,0,0,0.8,-35.355819,-36.212409)"
       spreadMethod="pad"
       id="linearGradient108"><stop
         style="stop-opacity:1;stop-color:#a1a1a1"
         offset="0"
         id="stop110" /><stop
         style="stop-opacity:1;stop-color:#000000"
         offset="1"
         id="stop112" /></linearGradient><linearGradient
       x1="190.91025"
       y1="184.07297"
       x2="416.49133"
       y2="184.07297"
       gradientUnits="userSpaceOnUse"
       gradientTransform="matrix(0.8,0,0,0.8,-35.355819,-36.212409)"
       spreadMethod="pad"
       id="linearGradient120"><stop
         style="stop-opacity:1;stop-color:#a1a1a1"
         offset="0"
         id="stop122" /><stop
         style="stop-opacity:1;stop-color:#000000"
         offset="1"
         id="stop124" /></linearGradient><clipPath
       clipPathUnits="userSpaceOnUse"
       id="clipPath144"><path
         d="m 247.285,98.145 h 60.57 v -36.43 h -60.57 z"
         id="path146"
         inkscape:connector-curvature="0"
         style="clip-rule:evenodd" /></clipPath><clipPath
       clipPathUnits="userSpaceOnUse"
       id="clipPath152"><path
         d="m 352.94477,77.765511 h 76.25 v 46.249999 h -76.25 z"
         id="path154"
         inkscape:connector-curvature="0" /></clipPath><linearGradient
       x1="391.87332"
       y1="85.153244"
       x2="402.2305"
       y2="124.61753"
       gradientUnits="userSpaceOnUse"
       spreadMethod="pad"
       id="linearGradient156"><stop
         style="stop-opacity:1;stop-color:#ffffff"
         offset="0"
         id="stop158" /><stop
         style="stop-opacity:0;stop-color:#ffffff"
         offset="1"
         id="stop160" /></linearGradient><mask
       maskUnits="userSpaceOnUse"
       x="0"
       y="0"
       width="1"
       height="1"
       id="mask162"><g
         id="g164"><g
           clip-path="url(#clipPath152)"
           id="g166"><path
             d="m 352.94477,77.765511 h 76.25 v 46.249999 h -76.25 z"
             style="fill:url(#linearGradient156);stroke:none"
             id="path168"
             inkscape:connector-curvature="0" /></g></g></mask><linearGradient
       x1="391.87332"
       y1="85.153244"
       x2="402.2305"
       y2="124.61753"
       gradientUnits="userSpaceOnUse"
       spreadMethod="pad"
       id="linearGradient172"><stop
         style="stop-opacity:1;stop-color:#ffffff"
         offset="0"
         id="stop174" /><stop
         style="stop-opacity:1;stop-color:#ffffff"
         offset="1"
         id="stop176" /></linearGradient><clipPath
       clipPathUnits="userSpaceOnUse"
       id="clipPath196"><path
         d="m 312.012,116.246 38.949,-1.984 -2.543,-49.934 -38.949,1.981 z"
         id="path198"
         inkscape:connector-curvature="0"
         style="clip-rule:evenodd" /></clipPath><clipPath
       clipPathUnits="userSpaceOnUse"
       id="clipPath204"><path
         d="M 427.53809,53.250763 H 483.3386 V 122.08439 H 427.53809 Z"
         id="path206"
         inkscape:connector-curvature="0" /></clipPath><linearGradient
       x1="461.84274"
       y1="64.328003"
       x2="450.7713"
       y2="110.22086"
       gradientUnits="userSpaceOnUse"
       spreadMethod="pad"
       id="linearGradient208"><stop
         style="stop-opacity:1;stop-color:#ffffff"
         offset="0"
         id="stop210" /><stop
         style="stop-opacity:0;stop-color:#ffffff"
         offset="1"
         id="stop212" /></linearGradient><mask
       maskUnits="userSpaceOnUse"
       x="0"
       y="0"
       width="1"
       height="1"
       id="mask214"><g
         id="g216"><g
           clip-path="url(#clipPath204)"
           id="g218"><path
             d="M 427.53809,53.250763 H 483.3386 V 122.08439 H 427.53809 Z"
             style="fill:url(#linearGradient208);stroke:none"
             id="path220"
             inkscape:connector-curvature="0" /></g></g></mask><linearGradient
       x1="461.84274"
       y1="64.328003"
       x2="450.7713"
       y2="110.22086"
       gradientUnits="userSpaceOnUse"
       spreadMethod="pad"
       id="linearGradient224"><stop
         style="stop-opacity:1;stop-color:#ffffff"
         offset="0"
         id="stop226" /><stop
         style="stop-opacity:1;stop-color:#ffffff"
         offset="1"
         id="stop228" /></linearGradient><clipPath
       clipPathUnits="userSpaceOnUse"
       id="clipPath248"><path
         d="M 22,0 H 984 V 1000 H 22 Z"
         id="path250"
         inkscape:connector-curvature="0" /></clipPath><pattern
       patternTransform="matrix(0.0777272,-0.0189335,0.0189335,0.0777272,-21.553918,161.13721)"
       patternUnits="userSpaceOnUse"
       x="0"
       y="0"
       width="962"
       height="1000"
       id="pattern252"><g
         id="g254"><g
           clip-path="url(#clipPath248)"
           id="g256"><g
             id="g258"><path
               d="m 271.699,919 c 0,-8.285 -6.715,-15 -15,-15 -8.285,0 -15,6.715 -15,15 0,8.285 6.715,15 15,15 8.285,0 15,-6.715 15,-15 z"
               style="fill:#000000;fill-opacity:1;fill-rule:nonzero;stroke:none"
               id="path260" /><path
               d="m 130.102,990.699 c 0,-8.285 -6.719,-15 -15,-15 -8.286,0 -15,6.715 -15,15 0,8.285 6.714,15 15,15 8.281,0 15,-6.715 15,-15 z"
               style="fill:#000000;fill-opacity:1;fill-rule:nonzero;stroke:none"
               id="path262" /></g></g></g></pattern><filter
       inkscape:collect="always"
       style="color-interpolation-filters:sRGB"
       id="filter5941"
       x="-0.036"
       width="1.072"
       y="-0.036"
       height="1.072"><feGaussianBlur
         inkscape:collect="always"
         stdDeviation="1.80615"
         id="feGaussianBlur5943" /></filter></defs><sodipodi:namedview
     pagecolor="#ffffff"
     bordercolor="#666666"
     borderopacity="1"
     objecttolerance="10"
     gridtolerance="10"
     guidetolerance="10"
     inkscape:pageopacity="0"
     inkscape:pageshadow="2"
     inkscape:window-width="2495"
     inkscape:window-height="1416"
     id="namedview4"
     showgrid="false"
     inkscape:zoom="5.6568543"
     inkscape:cx="992.15919"
     inkscape:cy="427.32222"
     inkscape:window-x="65"
     inkscape:window-y="24"
     inkscape:window-maximized="1"
     inkscape:current-layer="g5843"
     fit-margin-top="0"
     fit-margin-left="0"
     fit-margin-right="0"
     fit-margin-bottom="0"
     viewbox-x="0"
     showguides="true"
     inkscape:guide-bbox="true"
     inkscape:measure-start="845.142,439.533"
     inkscape:measure-end="0,0"><inkscape:grid
       type="xygrid"
       id="grid5733"
       originx="-4.952547e-06"
       originy="2.2304688e-05" /><sodipodi:guide
       position="965.35565,376.12444"
       orientation="1,0"
       id="guide5735"
       inkscape:locked="false" /><sodipodi:guide
       position="942.88282,418.04688"
       orientation="0,1"
       id="guide5847"
       inkscape:locked="false" /><sodipodi:guide
       position="959.25665,425.14795"
       orientation="0,1"
       id="guide5858"
       inkscape:locked="false" /><sodipodi:guide
       position="934.95313,421.54688"
       orientation="0,1"
       id="guide5946"
       inkscape:locked="false" /></sodipodi:namedview><g
     id="g10"
     inkscape:groupmode="layer"
     inkscape:label="microfacets_film"
     transform="translate(965.73732,-525.91232)"><g
       id="g12"><g
         id="g140"><g
           id="g142"
           clip-path="url(#clipPath144)"><g
             id="g148"
             transform="matrix(0.8,0,0,-0.8,-35.355819,160.6226)"><g
               id="g150" /><g
               id="g170"
               mask="url(#mask162)"><path
                 d="m 247.285,98.145 h 60.57 v -36.43 h -60.57 z"
                 style="fill:url(#linearGradient172);fill-rule:evenodd;stroke:none"
                 id="path178"
                 inkscape:connector-curvature="0" /></g></g></g></g><g
         id="g192"><g
           id="g194"
           clip-path="url(#clipPath196)"><g
             id="g200"
             transform="matrix(0.798965,-0.0406752,-0.0406752,-0.798965,-30.313533,178.47859)"><g
               id="g202" /><g
               id="g222"
               mask="url(#mask214)"><path
                 d="m 312.012,116.246 38.949,-1.984 -2.543,-49.934 -38.949,1.981 z"
                 style="fill:url(#linearGradient224);fill-rule:evenodd;stroke:none"
                 id="path230"
                 inkscape:connector-curvature="0" /></g></g></g></g></g><g
       id="g1452"
       transform="matrix(1,0,0,-1,-259.95011,1020.0981)"><g
         id="coordinates"
         transform="translate(26.763997,13.458221)"><g
           transform="matrix(2.0091649,0.76673196,0.76673196,-2.0091649,-52.039141,376.9431)"
           style="fill:#888cff;fill-opacity:0.16129031"
           id="g14"
           inkscape:transform-center-x="33.66624"
           inkscape:transform-center-y="-62.399358"><path
             d="m 105.117,41.523 c 10.953,-2.398 22.363,-1.601 32.875,2.301 l -20.359,54.832 z"
             style="fill:#888cff;fill-opacity:0.16129031;fill-rule:nonzero;stroke:#888cff;stroke-width:0.80000001;stroke-linecap:round;stroke-linejoin:round;stroke-miterlimit:4;stroke-dasharray:none;stroke-opacity:1"
             id="path16"
             inkscape:connector-curvature="0" /></g><g
           id="g18"
           transform="matrix(2.0078775,0.7700974,0.7700974,-2.0078775,-51.93172,376.38531)"
           inkscape:transform-center-x="0.31366648"
           inkscape:transform-center-y="-86.307486"><path
             d="M 145.602,23.301 117.586,98.82"
             style="fill:none;stroke:#0900c9;stroke-width:0.80000001;stroke-linecap:butt;stroke-linejoin:miter;stroke-miterlimit:4;stroke-dasharray:none;stroke-opacity:1"
             id="path20"
             inkscape:connector-curvature="0" /></g><g
           id="g22"
           transform="matrix(0.02515481,-2.2935913,-2.2935913,-0.02515481,-51.93172,376.38531)"
           inkscape:transform-center-x="1.2197092"
           inkscape:transform-center-y="-172.13252"><path
             d="m -26.101,-135.586 0.749,-0.75 -2.627,0.752 2.625,0.748 z"
             style="fill:#0900c9;fill-opacity:1;fill-rule:evenodd;stroke:#0900c9;stroke-width:0.187511;stroke-linecap:butt;stroke-linejoin:miter;stroke-miterlimit:4;stroke-dasharray:none;stroke-opacity:1"
             id="path24"
             inkscape:connector-curvature="0" /></g><g
           id="g26"
           transform="matrix(2.0072873,0.77163447,0.77163447,-2.0072873,-51.961616,375.65768)"
           inkscape:transform-center-x="76.584242"
           inkscape:transform-center-y="-33.561602"><path
             d="M 117.75,98.555 62.934,44.02"
             style="fill:none;stroke:#c90b00;stroke-width:0.80000001;stroke-linecap:butt;stroke-linejoin:miter;stroke-miterlimit:4;stroke-dasharray:none;stroke-opacity:1"
             id="path28"
             inkscape:connector-curvature="0" /></g><g
           id="g30"
           transform="matrix(2.7750018,-1.2254556,-1.2254556,-2.7750018,-51.961616,375.65768)"
           inkscape:transform-center-x="151.58895"
           inkscape:transform-center-y="-66.050972"><path
             d="m 54.316,-9.345 0.567,-0.568 -1.985,0.569 1.984,0.565 z"
             style="fill:#c90b00;fill-opacity:1;fill-rule:evenodd;stroke:#c90b00;stroke-width:0.141781;stroke-linecap:butt;stroke-linejoin:miter;stroke-miterlimit:4;stroke-dasharray:none;stroke-opacity:1"
             id="path32"
             inkscape:connector-curvature="0" /></g><g
           id="g86"
           transform="matrix(2.0086786,0.76800538,0.76800538,-2.0086786,-51.905257,376.38353)"
           inkscape:transform-center-x="45.915174"
           inkscape:transform-center-y="-69.558221"><path
             d="M 117.66,98.691 101.055,23.172"
             style="fill:none;stroke:#000000;stroke-width:0.80000001;stroke-linecap:butt;stroke-linejoin:miter;stroke-miterlimit:4;stroke-dasharray:none;stroke-opacity:1"
             id="path88"
             inkscape:connector-curvature="0" /></g><g
           id="g90"
           transform="matrix(1.2096917,-1.8398026,-1.8398026,-1.2096917,-51.905257,376.38353)"
           inkscape:transform-center-x="90.44686"
           inkscape:transform-center-y="-137.90919"><path
             d="m 44.237,-91.535 0.781,-0.781 -2.734,0.782 2.734,0.781 z"
             style="fill:#000000;fill-opacity:1;fill-rule:evenodd;stroke:#000000;stroke-width:0.195333;stroke-linecap:butt;stroke-linejoin:miter;stroke-miterlimit:4;stroke-dasharray:none;stroke-opacity:1"
             id="path92"
             inkscape:connector-curvature="0" /></g><g
           id="g3527"
           transform="matrix(3.8566629,0,0,3.8566629,-174.27184,-116.47344)"><path
             style="font-style:normal;font-variant:normal;font-weight:normal;font-stretch:normal;letter-spacing:normal;word-spacing:normal;text-anchor:start;fill:#000000;stroke:#000000;stroke-width:0;stroke-linecap:butt;stroke-linejoin:miter;stroke-miterlimit:10.43299961;stroke-dasharray:none;stroke-dashoffset:0;stroke-opacity:1"
             inkscape:connector-curvature="0"
             id="path3309"
             d="m 69.28897,120.53307 v 0.032 0.032 0.032 l -0.008,0.032 v 0.024 l -0.008,0.032 v 0.024 l -0.008,0.032 -0.008,0.024 -0.008,0.024 -0.008,0.024 -0.008,0.024 -0.008,0.016 -0.008,0.024 -0.008,0.016 -0.016,0.024 -0.008,0.016 -0.008,0.016 -0.016,0.016 -0.008,0.008 -0.016,0.016 -0.016,0.008 -0.008,0.016 -0.016,0.008 -0.016,0.008 -0.016,0.008 -0.016,0.008 h -0.016 l -0.016,0.008 h -0.016 l -0.016,0.008 h -0.016 c -0.208,0 -0.416,-0.192 -0.416,-0.376 0,-0.08 0.04,-0.168 0.12,-0.24 0.128,-0.12 0.272,-0.336 0.272,-0.664 0,-0.32 -0.152,-0.776 -0.392,-1.136 -0.24,-0.344 -0.536,-0.616 -0.912,-0.616 -0.456,0 -0.696,0.288 -0.768,0.712 0.088,0.208 0.264,0.72 0.264,0.944 0,0.096 -0.04,0.176 -0.136,0.176 -0.064,0 -0.152,-0.016 -0.216,-0.136 -0.088,-0.16 -0.184,-0.68 -0.184,-0.96 -0.264,-0.376 -0.584,-0.736 -1.08,-0.736 -0.528,0 -0.696,0.472 -0.696,0.912 0,0.992 0.808,1.832 0.808,1.936 0,0.088 -0.064,0.152 -0.144,0.152 -0.104,0 -0.16,-0.104 -0.208,-0.176 -0.408,-0.592 -0.712,-1.536 -0.712,-2.256 0,-0.552 0.184,-1.136 0.84,-1.136 0.56,0 0.936,0.392 1.224,0.832 0.072,-0.464 0.384,-0.832 0.872,-0.832 0.624,0 1.008,0.48 1.288,1.08 0.192,0.384 0.496,1.464 0.496,1.96 z" /><path
             style="font-style:normal;font-variant:normal;font-weight:normal;font-stretch:normal;letter-spacing:normal;word-spacing:normal;text-anchor:start;fill:#000000;stroke:#000000;stroke-width:0;stroke-linecap:butt;stroke-linejoin:miter;stroke-miterlimit:10.43299961;stroke-dasharray:none;stroke-dashoffset:0;stroke-opacity:1"
             inkscape:connector-curvature="0"
             id="path3311"
             d="m 71.24097,119.86107 v 0.008 0.008 0.008 0.008 l -0.008,0.008 v 0.008 0.008 l -0.008,0.016 v 0.008 l -0.008,0.008 v 0.008 l -0.008,0.008 v 0.008 l -0.008,0.008 -0.008,0.008 -0.008,0.008 -0.008,0.008 v 0.008 l -0.008,0.008 -0.016,0.008 h -0.008 l -0.008,0.008 -0.008,0.008 -0.008,0.008 h -0.016 l -0.008,0.008 h -0.016 -0.008 l -0.016,0.008 h -0.008 -0.016 -0.016 c -0.152,0 -0.312,-0.144 -0.312,-0.304 0,-0.096 0.072,-0.208 0.224,-0.208 0.16,0 0.312,0.152 0.312,0.304 z" /><path
             style="font-style:normal;font-variant:normal;font-weight:normal;font-stretch:normal;letter-spacing:normal;word-spacing:normal;text-anchor:start;fill:#000000;stroke:#000000;stroke-width:0;stroke-linecap:butt;stroke-linejoin:miter;stroke-miterlimit:10.43299961;stroke-dasharray:none;stroke-dashoffset:0;stroke-opacity:1"
             inkscape:connector-curvature="0"
             id="path3313"
             d="m 70.10497,117.02907 -0.008,-0.008 v -0.016 l -0.008,-0.024 -0.008,-0.016 v -0.016 l -0.008,-0.008 v -0.016 l -0.008,-0.016 v -0.016 l -0.008,-0.016 v -0.008 -0.008 -0.008 -0.008 -0.008 -0.016 -0.008 -0.008 -0.008 c 0,-0.256 0.216,-0.472 0.528,-0.472 0.552,0 0.8,0.768 0.8,0.848 0,0.08 -0.072,0.08 -0.088,0.08 -0.08,0 -0.088,-0.04 -0.104,-0.096 -0.128,-0.448 -0.376,-0.672 -0.592,-0.672 -0.112,0 -0.144,0.072 -0.144,0.192 0,0.128 0.04,0.232 0.096,0.352 0.056,0.152 0.112,0.304 0.176,0.448 0.048,0.136 0.248,0.64 0.272,0.704 0.016,0.056 0.032,0.128 0.032,0.184 0,0.256 -0.224,0.472 -0.528,0.472 -0.552,0 -0.808,-0.76 -0.808,-0.856 0,-0.072 0.08,-0.072 0.096,-0.072 0.08,0 0.08,0.032 0.096,0.088 0.144,0.48 0.392,0.68 0.6,0.68 0.088,0 0.136,-0.04 0.136,-0.192 0,-0.128 -0.032,-0.216 -0.168,-0.56 z" /></g><g
           id="g3532"
           transform="matrix(3.8566629,0,0,3.8566629,-44.122857,-4.7594896)"><path
             style="font-style:normal;font-variant:normal;font-weight:normal;font-stretch:normal;letter-spacing:normal;word-spacing:normal;text-anchor:start;fill:#000000;stroke:#000000;stroke-width:0;stroke-linecap:butt;stroke-linejoin:miter;stroke-miterlimit:10.43299961;stroke-dasharray:none;stroke-dashoffset:0;stroke-opacity:1"
             inkscape:connector-curvature="0"
             id="path3315"
             d="m 79.56097,120.53307 v 0.032 0.032 0.032 l -0.008,0.032 v 0.024 l -0.008,0.032 v 0.024 l -0.008,0.032 -0.008,0.024 -0.008,0.024 -0.008,0.024 -0.008,0.024 -0.008,0.016 -0.008,0.024 -0.008,0.016 -0.016,0.024 -0.008,0.016 -0.016,0.016 -0.008,0.016 -0.016,0.008 -0.008,0.016 -0.016,0.008 -0.016,0.016 -0.008,0.008 -0.016,0.008 -0.016,0.008 -0.016,0.008 h -0.016 l -0.016,0.008 h -0.016 l -0.016,0.008 h -0.016 c -0.208,0 -0.416,-0.192 -0.416,-0.376 0,-0.08 0.032,-0.168 0.112,-0.24 0.136,-0.12 0.28,-0.336 0.28,-0.664 0,-0.32 -0.152,-0.776 -0.392,-1.136 -0.24,-0.344 -0.536,-0.616 -0.912,-0.616 -0.456,0 -0.704,0.288 -0.768,0.712 0.088,0.208 0.264,0.72 0.264,0.944 0,0.096 -0.04,0.176 -0.136,0.176 -0.064,0 -0.152,-0.016 -0.216,-0.136 -0.088,-0.16 -0.184,-0.68 -0.184,-0.96 -0.264,-0.376 -0.584,-0.736 -1.088,-0.736 -0.52,0 -0.688,0.472 -0.688,0.912 0,0.992 0.808,1.832 0.808,1.936 0,0.088 -0.064,0.152 -0.144,0.152 -0.112,0 -0.16,-0.104 -0.208,-0.176 -0.408,-0.592 -0.712,-1.536 -0.712,-2.256 0,-0.552 0.184,-1.136 0.832,-1.136 0.568,0 0.944,0.392 1.232,0.832 0.072,-0.464 0.384,-0.832 0.872,-0.832 0.624,0 1.008,0.48 1.288,1.08 0.192,0.384 0.496,1.464 0.496,1.96 z" /><path
             style="font-style:normal;font-variant:normal;font-weight:normal;font-stretch:normal;letter-spacing:normal;word-spacing:normal;text-anchor:start;fill:#000000;stroke:#000000;stroke-width:0;stroke-linecap:butt;stroke-linejoin:miter;stroke-miterlimit:10.43299961;stroke-dasharray:none;stroke-dashoffset:0;stroke-opacity:1"
             inkscape:connector-curvature="0"
             id="path3317"
             d="m 82.66497,117.86107 v 0.056 l -0.008,0.056 v 0.056 l -0.016,0.048 -0.008,0.056 -0.016,0.048 -0.016,0.048 -0.016,0.048 -0.024,0.04 -0.016,0.048 -0.032,0.04 -0.024,0.04 -0.024,0.032 -0.032,0.04 -0.032,0.032 -0.032,0.032 -0.04,0.032 -0.032,0.024 -0.04,0.024 -0.04,0.032 -0.04,0.016 -0.048,0.024 -0.04,0.016 -0.048,0.024 -0.04,0.008 -0.048,0.016 -0.048,0.008 -0.048,0.016 -0.048,0.008 h -0.048 l -0.056,0.008 h -0.048 l -0.008,-0.16 c 0.304,0 0.56,-0.2 0.56,-0.616 0,-0.136 -0.064,-0.68 -0.312,-1.072 -0.216,-0.328 -0.544,-0.504 -0.824,-0.504 v 0 c -0.28,0 -0.56,0.176 -0.56,0.616 0,0.224 0.104,0.768 0.328,1.088 0.232,0.344 0.56,0.488 0.808,0.488 l 0.008,0.16 c -0.824,0 -1.608,-0.776 -1.608,-1.536 0,-0.56 0.408,-0.976 1.016,-0.976 0.8,0 1.6,0.736 1.6,1.536 z" /></g><path
           d="m 161.36383,414.56875 h -2.12885 v -1.45012 c 0.86387,0.0307 2.71508,0.12345 3.88751,0.12345 1.17243,0 2.99275,-0.0925 3.85665,-0.12345 v 1.45012 h -2.12887 v 6.41748 c 0,3.33214 2.65338,4.84397 4.59715,4.84397 1.01815,0 1.66607,-0.64793 1.66607,-2.99278 v -8.26867 h -2.09802 v -1.45012 c 0.83303,0.0307 2.68425,0.12345 3.85667,0.12345 1.20328,0 2.99276,-0.0925 3.85665,-0.12345 v 1.45012 h -2.09802 v 7.96013 c 0,3.20876 -1.66607,4.41204 -4.75141,4.41204 -2.93105,0 -4.50459,-1.78949 -5.21422,-3.02363 v 10.49013 l -5.43016,-0.24684 v -1.4501 c 1.91288,0 2.12885,0 2.12885,-1.17242 z"
           id="path3319"
           inkscape:connector-curvature="0"
           style="font-style:normal;font-variant:normal;font-weight:normal;font-stretch:normal;letter-spacing:normal;word-spacing:normal;text-anchor:start;fill:#000000;stroke:#000000;stroke-width:0;stroke-linecap:butt;stroke-linejoin:miter;stroke-miterlimit:10.43299961;stroke-dasharray:none;stroke-dashoffset:0;stroke-opacity:1" /></g><path
         style="fill:#ffeed4;fill-opacity:1;fill-rule:evenodd;stroke:#e8f7ff;stroke-width:7;stroke-miterlimit:4;stroke-dasharray:none;stroke-opacity:1"
         d="m 306.80069,295.15389 -40.00392,-26.42123 -30.44727,0 -12.14257,-8.29947 -22.54687,19.62695 -23.86329,-15.98047 -17.27929,-16.20508 -13.3418,-2.30078 -19.36328,-12.49023 -39.47266,43.72265 -37.20507,-23.60351 -12.17188,21.72461 -30.47461,-17.7793 -30.47461,17.78125 -12.17187,-21.72461 -36.49219,22.58789 -39.70117,-44.1914 -20.25196,13.7832 -14.77734,2.60547 -17.37891,16.51367 -21.72461,14.76953 -31.27539,-29.54687 -11.29687,15.64453 -23.46289,3.47656 -39.10352,25.20117 -40.83398,-41.70898 -21.72266,-6.08203 -15.64062,-18.25196 -27.80664,42.58008 -81.68555,17.37891 -32.14844,-26.93946 -50.40039,-5.21679 -26.93359,15.64257 -26.06641,-8.68554 -34.75976,12.16406 c 0,0 -26.06641,1.73902 -30.40821,2.60352 -4.3526,0.8731 -26.07617,-11.28907 -26.07617,-11.28907 v -419.05664 l 711.8457,0.004 h 1.4961 l 711.84566,-0.006 v 0.002 l 711.74221,0.004 0.051,409.49219 -31.2734,18.24609 -12.1719,-21.72461 -36.4922,22.58789 -39.7012,-44.1914 -20.2519,13.7832 -14.7774,2.60547 -17.3789,16.51367 -21.7246,14.76953 -31.2754,-29.54687 -11.2968,15.64453 -23.4629,3.47656 -39.1035,25.20117 -40.834,-41.70898 -21.7227,-6.08203 -15.6406,-18.25196 -27.8067,42.58008 -81.68551,17.37891 -32.1484,-26.93946 -50.4004,-5.21679 -26.9336,15.64257 -26.0664,-8.68554 -34.7598,12.16406 c 0,0 -26.0664,1.73902 -30.4082,2.60352 -4.1019,0.82281 -23.0432,-9.61188 -25.2793,-10.85352 -2.2485,1.24843 -21.175,11.67406 -25.2754,10.85156 -4.3418,-0.8645 -30.4062,-2.60351 -30.4062,-2.60351 l -34.7618,-12.16407 -26.0664,8.68555 -26.9316,-15.64258 -50.4023,5.21875 -32.1465,26.9375 -81.6875,-17.3789 -28.0489,-41.64649 -16.1796,18.09766 -19.1016,4.98242 z"
         id="path42"
         inkscape:connector-curvature="0"
         sodipodi:nodetypes="cccccccccccccccccccccccccccccccccccccccccccccccccccccccccccccccccccccccccccccccc" /><g
         transform="matrix(2.1504934,0,0,2.1504934,17.451135,213.27906)"
         id="g44"><g
           id="g46" /><g
           mask="url(#mask52)"
           id="g60"><g
             id="g62" /><g
             id="g72"><g
               id="g74"
               clip-path="url(#clipPath64)"><g
                 id="g76"
                 transform="translate(0,-0.589813)"><g
                   id="g78"><g
                     id="g80"
                     clip-path="url(#clipPath68)"><g
                       id="g82" /></g></g></g></g></g></g></g><g
         transform="matrix(2.1504934,0,0,-2.1504934,44.859072,458.73041)"
         id="g304"><path
           inkscape:connector-curvature="0"
           id="path306"
           style="fill:none;stroke:#000000;stroke-width:0.80000001;stroke-linecap:butt;stroke-linejoin:miter;stroke-miterlimit:4;stroke-dasharray:none;stroke-opacity:1"
           d="m 2.715,123.41 v -5.008" /></g><g
         transform="matrix(2.1504934,0,0,-2.1504934,44.859072,458.73041)"
         id="g308"><path
           inkscape:connector-curvature="0"
           id="path310"
           style="fill:none;stroke:#000000;stroke-width:0.80000001;stroke-linecap:butt;stroke-linejoin:miter;stroke-miterlimit:4;stroke-dasharray:none;stroke-opacity:1"
           d="m 3.113,120.906 h 42.16" /></g><g
         transform="matrix(2.1504934,0,0,-2.1504934,44.859072,458.73041)"
         id="g312"><path
           inkscape:connector-curvature="0"
           id="path314"
           style="fill:none;stroke:#000000;stroke-width:0.80000001;stroke-linecap:butt;stroke-linejoin:miter;stroke-miterlimit:4;stroke-dasharray:none;stroke-opacity:1"
           d="m 2.715,123.41 v -5.008" /></g><g
         transform="matrix(2.1504934,0,0,-2.1504934,44.859072,458.73041)"
         id="g316"><path
           inkscape:connector-curvature="0"
           id="path318"
           style="fill:none;stroke:#000000;stroke-width:0.80000001;stroke-linecap:butt;stroke-linejoin:miter;stroke-miterlimit:4;stroke-dasharray:none;stroke-opacity:1"
           d="m 45.398,123.41 v -5.008" /></g><g
         transform="matrix(2.4075745,0,0,2.4075745,-331.25159,-79.891003)"
         id="g3540"><path
           d="m 169.00897,120.22907 -0.008,0.016 v 0.016 0.016 0.016 0.016 0.008 0.016 l -0.008,0.008 v 0.016 0.008 0.016 l -0.008,0.008 v 0.008 l -0.008,0.008 v 0.008 0.008 l -0.008,0.008 v 0.008 l -0.008,0.008 v 0.008 h -0.008 l -0.008,0.008 v 0.008 h -0.008 v 0.008 h -0.008 -0.008 l -0.008,0.008 v 0 h -0.008 -0.008 v 0 c -0.04,0 -0.104,-0.056 -0.112,-0.208 -0.032,-0.76 -0.56,-1.2 -1.12,-1.2 -0.496,0 -0.88,0.344 -1.272,0.688 -0.4,0.36 -0.816,0.728 -1.36,0.728 -0.864,0 -1.336,-0.872 -1.336,-1.6 0,-0.248 0.104,-0.248 0.112,-0.248 0.088,0 0.112,0.16 0.112,0.176 0.032,0.88 0.624,1.224 1.112,1.224 0.504,0 0.88,-0.336 1.272,-0.68 0.408,-0.368 0.824,-0.728 1.36,-0.728 0.872,0 1.344,0.872 1.344,1.592 z"
           id="path3349"
           inkscape:connector-curvature="0"
           style="font-style:normal;font-variant:normal;font-weight:normal;font-stretch:normal;letter-spacing:normal;word-spacing:normal;text-anchor:start;fill:#000000;stroke:#000000;stroke-width:0;stroke-linecap:butt;stroke-linejoin:miter;stroke-miterlimit:10.43299961;stroke-dasharray:none;stroke-dashoffset:0;stroke-opacity:1" /><path
           d="m 172.40897,122.66107 v 0.008 0.008 0.016 0.008 0 0.008 0.008 0.008 0.008 0.008 0.008 0.008 0 0.008 0.008 0 0.008 0.008 0.008 l -0.008,0.008 v 0.008 0.008 l -0.008,0.008 v 0 l -0.008,0.008 v 0.008 h -0.008 v 0.008 h -0.008 l -0.008,0.008 h -0.008 v 0 h -0.008 v 0 h -0.008 v 0 l -0.008,0.008 h -0.008 v 0 h -0.008 -0.008 v 0 h -0.008 -0.008 -0.008 -0.008 -0.008 -0.008 -0.008 -0.008 -0.008 -0.008 c -0.488,-0.504 -1.192,-0.504 -1.448,-0.504 v -0.248 c 0.16,0 0.632,0 1.048,0.2 v -4.112 c 0,-0.288 -0.024,-0.384 -0.744,-0.384 h -0.256 v -0.248 c 0.28,0.032 0.976,0.032 1.288,0.032 0.32,0 1.016,0 1.296,-0.032 v 0.248 h -0.256 c -0.72,0 -0.744,0.088 -0.744,0.384 z"
           id="path3351"
           inkscape:connector-curvature="0"
           style="font-style:normal;font-variant:normal;font-weight:normal;font-stretch:normal;letter-spacing:normal;word-spacing:normal;text-anchor:start;fill:#000000;stroke:#000000;stroke-width:0;stroke-linecap:butt;stroke-linejoin:miter;stroke-miterlimit:10.43299961;stroke-dasharray:none;stroke-dashoffset:0;stroke-opacity:1" /><path
           d="m 174.76097,118.04507 -0.008,-0.008 v -0.016 -0.008 l -0.008,-0.016 v -0.024 l -0.008,-0.024 -0.008,-0.024 -0.008,-0.032 v -0.024 l -0.008,-0.024 v -0.008 l -0.008,-0.016 v -0.008 -0.016 l -0.008,-0.008 v -0.008 -0.016 -0.008 l -0.008,-0.008 v -0.008 -0.008 -0.008 -0.008 0 -0.008 -0.008 c 0,-0.136 0.104,-0.208 0.224,-0.208 0.096,0 0.24,0.064 0.296,0.216 0.008,0.016 0.104,0.392 0.152,0.592 l 0.176,0.712 c 0.048,0.176 0.096,0.352 0.136,0.536 0.032,0.136 0.096,0.368 0.104,0.4 0.12,0.24 0.544,0.968 1.296,0.968 0.36,0 0.432,-0.296 0.432,-0.56 0,-0.2 -0.056,-0.424 -0.12,-0.656 l -0.224,-0.928 -0.16,-0.6 c -0.032,-0.16 -0.104,-0.432 -0.104,-0.472 0,-0.136 0.112,-0.208 0.232,-0.208 0.248,0 0.296,0.192 0.36,0.448 0.112,0.448 0.408,1.608 0.48,1.92 0.024,0.104 0.44,1.056 1.312,1.056 0.336,0 0.424,-0.272 0.424,-0.56 0,-0.448 -0.328,-1.36 -0.488,-1.776 -0.072,-0.192 -0.104,-0.28 -0.104,-0.44 0,-0.376 0.28,-0.648 0.648,-0.648 0.752,0 1.048,1.16 1.048,1.224 0,0.08 -0.072,0.08 -0.096,0.08 -0.08,0 -0.08,-0.032 -0.12,-0.144 -0.12,-0.424 -0.376,-0.992 -0.816,-0.992 -0.136,0 -0.184,0.08 -0.184,0.264 0,0.2 0.064,0.392 0.136,0.568 0.152,0.408 0.488,1.296 0.488,1.744 0,0.52 -0.32,0.856 -0.912,0.856 -0.6,0 -1.008,-0.352 -1.296,-0.776 -0.016,0.104 -0.04,0.376 -0.256,0.568 -0.2,0.168 -0.456,0.208 -0.656,0.208 -0.712,0 -1.104,-0.512 -1.24,-0.696 -0.04,0.456 -0.376,0.696 -0.736,0.696 -0.36,0 -0.512,-0.312 -0.584,-0.456 -0.144,-0.28 -0.248,-0.744 -0.248,-0.768 0,-0.08 0.08,-0.08 0.096,-0.08 0.08,0 0.088,0.008 0.136,0.176 0.136,0.568 0.296,0.952 0.576,0.952 0.128,0 0.248,-0.064 0.248,-0.368 0,-0.168 -0.024,-0.256 -0.128,-0.664 z"
           id="path3353"
           inkscape:connector-curvature="0"
           style="font-style:normal;font-variant:normal;font-weight:normal;font-stretch:normal;letter-spacing:normal;word-spacing:normal;text-anchor:start;fill:#000000;stroke:#000000;stroke-width:0;stroke-linecap:butt;stroke-linejoin:miter;stroke-miterlimit:10.43299961;stroke-dasharray:none;stroke-dashoffset:0;stroke-opacity:1" /><path
           d="m 181.75297,118.04507 v -0.008 -0.016 l -0.008,-0.008 v -0.016 l -0.008,-0.024 v -0.024 l -0.008,-0.024 -0.008,-0.032 -0.008,-0.024 v -0.024 l -0.008,-0.008 v -0.016 -0.008 l -0.008,-0.016 v -0.008 -0.008 -0.016 l -0.008,-0.008 v -0.008 -0.008 -0.008 -0.008 l -0.008,-0.008 v 0 -0.008 -0.008 c 0,-0.136 0.112,-0.208 0.232,-0.208 0.096,0 0.24,0.064 0.296,0.216 0.008,0.016 0.104,0.392 0.152,0.592 l 0.176,0.712 c 0.048,0.176 0.096,0.352 0.136,0.536 0.032,0.136 0.096,0.368 0.104,0.4 0.112,0.24 0.536,0.968 1.296,0.968 0.36,0 0.424,-0.296 0.424,-0.56 0,-0.2 -0.056,-0.424 -0.112,-0.656 l -0.224,-0.928 -0.16,-0.6 c -0.032,-0.16 -0.104,-0.432 -0.104,-0.472 0,-0.136 0.112,-0.208 0.232,-0.208 0.248,0 0.296,0.192 0.36,0.448 0.104,0.448 0.4,1.608 0.472,1.92 0.024,0.104 0.448,1.056 1.312,1.056 0.344,0 0.432,-0.272 0.432,-0.56 0,-0.448 -0.336,-1.36 -0.496,-1.776 -0.064,-0.192 -0.096,-0.28 -0.096,-0.44 0,-0.376 0.272,-0.648 0.648,-0.648 0.752,0 1.04,1.16 1.04,1.224 0,0.08 -0.064,0.08 -0.088,0.08 -0.08,0 -0.08,-0.032 -0.12,-0.144 -0.12,-0.424 -0.376,-0.992 -0.816,-0.992 -0.136,0 -0.192,0.08 -0.192,0.264 0,0.2 0.072,0.392 0.144,0.568 0.152,0.408 0.488,1.296 0.488,1.744 0,0.52 -0.32,0.856 -0.92,0.856 -0.592,0 -1,-0.352 -1.296,-0.776 -0.008,0.104 -0.032,0.376 -0.256,0.568 -0.2,0.168 -0.448,0.208 -0.648,0.208 -0.72,0 -1.104,-0.512 -1.24,-0.696 -0.04,0.456 -0.376,0.696 -0.736,0.696 -0.368,0 -0.52,-0.312 -0.592,-0.456 -0.136,-0.28 -0.24,-0.744 -0.24,-0.768 0,-0.08 0.08,-0.08 0.096,-0.08 0.08,0 0.08,0.008 0.128,0.176 0.136,0.568 0.296,0.952 0.584,0.952 0.128,0 0.248,-0.064 0.248,-0.368 0,-0.168 -0.024,-0.256 -0.128,-0.664 z"
           id="path3355"
           inkscape:connector-curvature="0"
           style="font-style:normal;font-variant:normal;font-weight:normal;font-stretch:normal;letter-spacing:normal;word-spacing:normal;text-anchor:start;fill:#000000;stroke:#000000;stroke-width:0;stroke-linecap:butt;stroke-linejoin:miter;stroke-miterlimit:10.43299961;stroke-dasharray:none;stroke-dashoffset:0;stroke-opacity:1" /></g><g
         transform="matrix(-2.1504934,0,0,-2.1504934,9.7242011,478.82231)"
         id="g4791"
         style="stroke:#e8f7ff;stroke-opacity:1"><path
           inkscape:connector-curvature="0"
           id="path4789"
           style="fill:none;stroke:#e8f7ff;stroke-width:3.20000005;stroke-linecap:butt;stroke-linejoin:miter;stroke-miterlimit:4;stroke-dasharray:none;stroke-opacity:1"
           d="M -0.04966329,103.68987 14.746,95 l 5.66,10.102 16.969,-10.508 18.453,20.379 9.426,-6.235 6.871,-1.215 8.082,-7.675 10.102,-6.868 14.543,13.739 5.253,-7.274 10.911,-1.617 18.183,-11.719 18.989,19.395 10.101,2.828 7.273,8.488 12.93,-19.8 37.985,-8.082 14.949,12.527 23.437,2.422 12.524,-7.27 12.121,4.039 L 305.672,95 c 0,0 12.121,-0.809 14.14,-1.215 2.024,-0.402 12.126,5.254 12.126,5.254"
           sodipodi:nodetypes="ccccccccccccccccccccccccc" /></g><g
         transform="matrix(2.1504934,0,0,-2.1504934,7.2511508,478.82231)"
         id="g38"
         style="stroke-width:0.09300191;stroke-miterlimit:4;stroke-dasharray:none" /><g
         style="fill:none;fill-opacity:1;stroke-width:0.09300191;stroke-miterlimit:4;stroke-dasharray:none"
         id="stroke"
         transform="matrix(2.1504934,0,0,-2.1504934,6.1367625,474.20916)"><path
           id="path5854"
           style="fill:none;fill-opacity:1;stroke:#000000;stroke-width:0.09300191;stroke-linecap:butt;stroke-linejoin:miter;stroke-miterlimit:4;stroke-dasharray:none;stroke-opacity:1"
           d="m 1.0342047,102.96972 13.5955463,-8.047229 5.689063,10.218249 17.562565,-11.266733 18.485784,20.346363 9.767474,-6.28779 6.532812,-1.13165 8.076101,-7.864814 10.048914,-6.641421 10.484346,9.127025 6.26567,-4.245647 h 14.15463 l 17.89379,-11.818743 19.14694,19.44141 8.89627,2.30917 8.51308,9.65991 13.84883,-20.624563 37.48724,-7.989216 14.55974,11.755918 22.82,2.235001 12.524,-7.270001 12.121,4.039 16.164,-5.656 c 0,0 12.121,-0.809 14.14,-1.215 2.024,-0.402 11.38198,5.435314 11.38198,5.435314 v -2.484 c 0,0 -9.35798,-5.656041 -11.38198,-5.254041 -2.019,0.406 -14.14,1.215 -14.14,1.215 l -16.164,5.656 -12.121,-4.039 -12.524,7.270001 -22.82,-2.235001 -15.141,-12.715 -38.8756,8.36314 -12.21394,18.105608 -6.43405,-7.10072 -9.00577,-2.39637 -20.33853,-20.683857 -10.04561,6.671199 -9.27902,6.022775 H 106.56342 L 101.55425,97.310535 91.121275,88.204056 79.305,96.181273 71.146696,103.69672 65.066,104.78727 56.875767,110.07213 38.54983,89.682011 21.547043,100.47314 15.907594,90.391693 0.94699204,99.439273"
           inkscape:connector-curvature="0"
           sodipodi:nodetypes="ccccccccccccccccccccccccccccccccccccccccccccccccccc" /></g><g
         id="zoom"
         transform="translate(26.118259,13.36828)"><path
           d="m 265.60497,268.84781 c 0,-2.7978 -2.26877,-5.06657 -5.05796,-5.06657 -2.79779,0 -5.06441,2.26877 -5.06441,5.06657 0,2.79778 2.26662,5.06441 5.06441,5.06441 2.78919,0 5.05796,-2.26663 5.05796,-5.06441 z"
           style="fill:#ffffff;fill-opacity:0.71100901;fill-rule:nonzero;stroke:none;stroke-width:2.15049338"
           id="path98"
           inkscape:connector-curvature="0" /><g
           id="g5843"><g
             id="g5883"
             transform="matrix(2.1504934,0,0,-2.1504934,-86.20781,475.05455)"
             style="fill:none;fill-opacity:1;stroke:#000000;stroke-opacity:0.1935484;filter:url(#filter5941)"><path
               d="m 367.898,62.207 c 0,33.25 -26.957,60.203 -60.207,60.203 -33.25,0 -60.203,-26.953 -60.203,-60.203 C 247.488,28.953 274.441,2 307.691,2 c 33.25,0 60.207,26.953 60.207,60.207 z"
               style="fill:none;fill-opacity:1;stroke:#000000;stroke-width:2.4000001;stroke-linecap:round;stroke-linejoin:round;stroke-miterlimit:4;stroke-dasharray:none;stroke-opacity:0.1935484"
               id="path5879"
               inkscape:connector-curvature="0" /><path
               inkscape:connector-curvature="0"
               id="path5881"
               style="fill:none;fill-opacity:1;stroke:#000000;stroke-width:2.4000001;stroke-linecap:round;stroke-linejoin:round;stroke-miterlimit:4;stroke-dasharray:none;stroke-opacity:0.1935484"
               d="m 367.898,62.207 c 0,33.25 -26.957,60.203 -60.207,60.203 -33.25,0 -60.203,-26.953 -60.203,-60.203 C 247.488,28.953 274.441,2 307.691,2 c 33.25,0 60.207,26.953 60.207,60.207 z" /></g><circle
             style="opacity:1;fill:#ffffff;fill-opacity:1;stroke:#e8f7ff;stroke-width:0.2;stroke-linecap:square;stroke-linejoin:miter;stroke-miterlimit:4;stroke-dasharray:none;stroke-dashoffset:0;stroke-opacity:1;paint-order:markers fill stroke"
             id="path5891"
             cx="573.76715"
             cy="-347.88412"
             r="130.4612"
             transform="scale(1,-1)" /><g
             transform="matrix(2.1504934,0,0,-2.1504934,7.2511444,480.82194)"
             id="g100"
             style="stroke-width:1.39502871;stroke-miterlimit:4;stroke-dasharray:none"><path
               inkscape:connector-curvature="0"
               id="path102"
               style="fill:none;stroke:#a1a1a1;stroke-width:1.39502871;stroke-linecap:round;stroke-linejoin:round;stroke-miterlimit:4;stroke-dasharray:none;stroke-opacity:1"
               d="m 120.137,98.57 c 0,1.301 -1.055,2.356 -2.352,2.356 -1.301,0 -2.355,-1.055 -2.355,-2.356 0,-1.3 1.054,-2.355 2.355,-2.355 1.297,0 2.352,1.055 2.352,2.355 z" /></g><g
             transform="matrix(2.1504934,0,0,2.1504934,7.2511508,213.27906)"
             id="g104"
             style="stroke-width:1.39502869;stroke-miterlimit:4;stroke-dasharray:none"><g
               transform="matrix(1,0,0,-1,0,124.41019)"
               id="g106"
               style="stroke-width:1.39502869;stroke-miterlimit:4;stroke-dasharray:none"><path
                 inkscape:connector-curvature="0"
                 id="path114"
                 style="fill:none;stroke:url(#linearGradient108);stroke-width:1.39502869;stroke-linecap:butt;stroke-linejoin:miter;stroke-miterlimit:4;stroke-dasharray:none;stroke-opacity:1"
                 d="M 117.215,96.285 229.17188,12.584305"
                 sodipodi:nodetypes="cc" /></g></g><g
             transform="matrix(2.1504934,0,0,2.1504934,7.2511508,213.27906)"
             id="g116"
             style="stroke-width:1.39502869;stroke-miterlimit:4;stroke-dasharray:none"><g
               transform="matrix(1,0,0,-1,0,124.41019)"
               id="g118"
               style="stroke-width:1.39502869;stroke-miterlimit:4;stroke-dasharray:none"><path
                 inkscape:connector-curvature="0"
                 id="path126"
                 style="fill:#000000;fill-opacity:1;fill-rule:evenodd;stroke:url(#linearGradient120);stroke-width:1.39502869;stroke-linecap:butt;stroke-linejoin:miter;stroke-miterlimit:4;stroke-dasharray:none;stroke-opacity:1"
                 d="m 117.418,100.895 142.76373,22.2205"
                 sodipodi:nodetypes="cc" /></g></g><g
             transform="matrix(2.1504934,0,0,-2.1504934,-88.571771,480.82231)"
             id="g128"><path
               inkscape:connector-curvature="0"
               id="path130"
               style="fill:none;stroke:#c90b00;stroke-width:0.80000001;stroke-linecap:butt;stroke-linejoin:miter;stroke-miterlimit:4;stroke-dasharray:none;stroke-opacity:1"
               d="m 252.754,35.301 c 0,0 4.391,0.109 6.019,1.562 1.684,1.5 0.5,4.707 2.336,6.004 2.184,1.543 5.016,-1.504 7.254,-0.055 2.008,1.297 1.078,4.981 3.098,6.258 2.125,1.348 4.746,-1.644 6.82,-0.207 1.938,1.344 0.578,4.864 2.449,6.309 2.262,1.75 5.633,-1.024 7.875,0.754 1.536,1.215 1.879,5.246 1.879,5.246" /></g><g
             transform="matrix(2.1504934,0,0,-2.1504934,-88.571771,480.82231)"
             id="g132"><path
               inkscape:connector-curvature="0"
               id="path134"
               style="fill:none;stroke:#c90b00;stroke-width:0.80000001;stroke-linecap:butt;stroke-linejoin:miter;stroke-miterlimit:4;stroke-dasharray:none;stroke-opacity:1"
               d="m 260.766,33.988 c 0,0 4.39,0.11 6.023,1.563 1.684,1.496 0.5,4.707 2.336,6.004 2.184,1.543 5.016,-1.504 7.254,-0.055 2.008,1.297 1.078,4.98 3.094,6.258 2.129,1.347 4.746,-1.645 6.82,-0.207 1.937,1.344 0.578,4.859 2.449,6.308 2.262,1.75 5.633,-1.027 7.875,0.754 1.535,1.215 1.879,5.246 1.879,5.246" /></g><g
             transform="matrix(2.1504934,0,0,-2.1504934,-88.571771,480.82231)"
             id="g136"><path
               inkscape:connector-curvature="0"
               id="path138"
               style="fill:none;stroke:#c90b00;stroke-width:0.80000001;stroke-linecap:butt;stroke-linejoin:miter;stroke-miterlimit:4;stroke-dasharray:none;stroke-opacity:1"
               d="m 266.938,32.07 c 0,0 4.39,0.11 6.023,1.559 1.684,1.5 0.5,4.711 2.336,6.008 2.183,1.543 5.015,-1.504 7.254,-0.055 2.008,1.297 1.078,4.977 3.094,6.258 2.128,1.344 4.746,-1.649 6.82,-0.207 1.941,1.344 0.578,4.859 2.449,6.308 2.266,1.75 5.633,-1.027 7.875,0.75 1.535,1.219 1.879,5.25 1.879,5.25" /></g><g
             transform="matrix(2.1504934,0,0,-2.1504934,-88.571771,480.82231)"
             id="g180"><path
               inkscape:connector-curvature="0"
               id="path182"
               style="fill:none;stroke:#0900c9;stroke-width:0.80000001;stroke-linecap:butt;stroke-linejoin:miter;stroke-miterlimit:4;stroke-dasharray:none;stroke-opacity:0.98039198"
               d="m 310.012,56.914 c 0,0 3.816,-1.086 4.371,-3.371 0.57,-2.359 -2.434,-6.387 -1.606,-8.508 0.989,-2.527 5.356,0.93 6.45,-1.48 0.98,-2.16 -2.09,-6.871 -1.086,-9.008 1.058,-2.254 5.199,1.176 6.156,-1.188 0.891,-2.207 -2.457,-6.605 -1.688,-8.937 0.93,-2.817 5.606,0.164 6.5,-2.688 0.614,-1.953 -1.543,-7.402 -1.543,-7.402" /></g><g
             transform="matrix(2.1504934,0,0,-2.1504934,-88.571771,480.82231)"
             id="g184"><path
               inkscape:connector-curvature="0"
               id="path186"
               style="fill:none;stroke:#0900c9;stroke-width:0.80000001;stroke-linecap:butt;stroke-linejoin:miter;stroke-miterlimit:4;stroke-dasharray:none;stroke-opacity:0.88627499"
               d="m 338.816,12.484 c 0,0 -3.816,1.086 -4.371,3.371 -0.574,2.36 2.434,6.387 1.602,8.508 -0.988,2.528 -5.352,-0.929 -6.445,1.481 -0.985,2.16 2.086,6.871 1.086,9.008 -1.059,2.253 -5.2,-1.176 -6.157,1.183 -0.894,2.211 2.457,6.61 1.688,8.942 -0.934,2.816 -5.606,-0.165 -6.504,2.687 -0.613,1.953 1.547,7.402 1.547,7.402" /></g><g
             transform="matrix(2.1504934,0,0,-2.1504934,-88.571771,480.82231)"
             id="g188"><path
               inkscape:connector-curvature="0"
               id="path190"
               style="fill:none;stroke:#0900c9;stroke-width:0.80000001;stroke-linecap:butt;stroke-linejoin:miter;stroke-miterlimit:4;stroke-dasharray:none;stroke-opacity:0.88627499"
               d="m 326.242,53.844 c 0,0 3.817,-1.086 4.371,-3.367 0.575,-2.364 -2.433,-6.391 -1.601,-8.512 0.988,-2.527 5.351,0.93 6.445,-1.481 0.981,-2.16 -2.086,-6.871 -1.086,-9.007 1.059,-2.254 5.199,1.179 6.156,-1.184 0.895,-2.207 -2.457,-6.609 -1.687,-8.938 0.93,-2.82 5.605,0.161 6.5,-2.691 0.613,-1.953 -1.543,-7.402 -1.543,-7.402" /></g><path
             inkscape:connector-curvature="0"
             id="path232"
             style="fill:#e8f7ff;fill-opacity:1;fill-rule:evenodd;stroke:none;stroke-width:2.15049338"
             d="m 445.47315,330.76696 249.00345,51.27635 0.89892,-0.21946 8.03854,-35.78634 -246.76912,-51.19035 z" /><g
             transform="matrix(2.1504934,-0.52383651,-0.52383651,-2.1504934,-88.571771,480.82231)"
             id="g234"><path
               inkscape:connector-curvature="0"
               id="path236"
               style="fill:#ffffff;fill-opacity:1;fill-rule:evenodd;stroke:#000000;stroke-width:0.77727199;stroke-linecap:butt;stroke-linejoin:miter;stroke-miterlimit:4;stroke-dasharray:none;stroke-opacity:1"
               d="m 257.966,23.756 103.821,-49.133 c 0,0 1.664,6.383 1.111,20.819 -0.555,14.432 -3.608,23.871 -25.537,40.806 -21.934,16.933 -43.03,8.603 -56.353,4.997 -13.325,-3.61 -23.042,-17.489 -23.042,-17.489 z" /></g><g
             transform="matrix(2.1504934,-0.52383651,-0.52383651,-2.1504934,-88.571771,480.82231)"
             id="g238"><path
               inkscape:connector-curvature="0"
               id="path240"
               style="fill:none;stroke:#000000;stroke-width:0.77727199;stroke-linecap:butt;stroke-linejoin:miter;stroke-miterlimit:4;stroke-dasharray:none;stroke-opacity:1"
               d="M 257.966,23.756 361.787,-25.377" /></g><g
             transform="matrix(2.1504934,-0.52383651,-0.52383651,-2.1504934,-88.571771,480.82231)"
             id="g242"><path
               inkscape:connector-curvature="0"
               id="path244"
               style="fill:none;stroke:#000000;stroke-width:0.77727199;stroke-linecap:butt;stroke-linejoin:miter;stroke-miterlimit:4;stroke-dasharray:none;stroke-opacity:1"
               d="M 250.471,8.765 354.292,-40.368" /></g><g
             transform="matrix(2.1504934,0,0,2.1504934,-88.571771,213.27906)"
             id="g246"><path
               inkscape:connector-curvature="0"
               id="path264"
               style="fill:url(#pattern252);fill-opacity:1;fill-rule:evenodd;stroke:none"
               d="M 252.18,37.816 367.969,61.66 c 0,0 0.109,-6.789 -3.961,-21.09 -4.07,-14.297 -9.422,-22.992 -35.477,-34.586 -26.058,-11.589 -45.125,1.879 -57.57,8.731 -12.445,6.855 -18.781,23.101 -18.781,23.101 z" /></g><g
             transform="matrix(2.1504934,-0.52383651,-0.52383651,-2.1504934,-88.571771,480.82231)"
             id="g266"><path
               inkscape:connector-curvature="0"
               id="path268"
               style="fill:none;stroke:#000000;stroke-width:0.77727199;stroke-linecap:butt;stroke-linejoin:miter;stroke-miterlimit:4;stroke-dasharray:none;stroke-opacity:1"
               d="m 257.966,23.756 103.821,-49.133 c 0,0 1.664,6.383 1.111,20.819 -0.555,14.432 -3.608,23.871 -25.537,40.806 -21.934,16.933 -43.03,8.603 -56.353,4.997 -13.325,-3.61 -23.042,-17.489 -23.042,-17.489 z" /></g><path
             inkscape:connector-curvature="0"
             id="path270"
             style="fill:#ffeed4;fill-opacity:1;fill-rule:evenodd;stroke:none;stroke-width:2.15049338"
             d="m 453.73964,294.60211 249.00348,51.27636 c 0,0 0.23432,-14.5997 -8.51814,-45.3539 -8.75248,-30.7456 -20.26192,-49.44414 -76.29304,-74.37696 -56.03755,-24.92207 -97.04101,4.04078 -123.80389,18.77595 -26.76288,14.74164 -40.38841,49.67855 -40.38841,49.67855 z" /><g
             transform="matrix(2.1504934,-0.52383651,-0.52383651,-2.1504934,-88.571771,480.82231)"
             id="g272"><path
               inkscape:connector-curvature="0"
               id="path274"
               style="fill:none;stroke:#000000;stroke-width:0.77727199;stroke-linecap:butt;stroke-linejoin:miter;stroke-miterlimit:4;stroke-dasharray:none;stroke-opacity:1"
               d="m 257.966,23.756 103.821,-49.133 c 0,0 1.664,6.383 1.111,20.819 -0.555,14.432 -3.608,23.871 -25.537,40.806 -21.934,16.933 -43.03,8.603 -56.353,4.997 -13.325,-3.61 -23.042,-17.489 -23.042,-17.489 z" /></g><g
             transform="matrix(2.1504934,0,0,-2.1504934,-88.419086,479.65423)"
             id="g276"><path
               inkscape:connector-curvature="0"
               id="path278"
               style="fill:none;stroke:#000000;stroke-width:2.4000001;stroke-linecap:round;stroke-linejoin:round;stroke-miterlimit:4;stroke-dasharray:none;stroke-opacity:1"
               d="m 367.898,62.207 c 0,33.25 -26.957,60.203 -60.207,60.203 -33.25,0 -60.203,-26.953 -60.203,-60.203 C 247.488,28.953 274.441,2 307.691,2 c 33.25,0 60.207,26.953 60.207,60.207 z" /><path
               d="m 367.898,62.207 c 0,33.25 -26.957,60.203 -60.207,60.203 -33.25,0 -60.203,-26.953 -60.203,-60.203 C 247.488,28.953 274.441,2 307.691,2 c 33.25,0 60.207,26.953 60.207,60.207 z"
               style="fill:none;stroke:#000000;stroke-width:2.4000001;stroke-linecap:round;stroke-linejoin:round;stroke-miterlimit:4;stroke-dasharray:none;stroke-opacity:1"
               id="path5861"
               inkscape:connector-curvature="0" /></g><g
             transform="matrix(2.1504934,0,0,-2.1504934,-88.571771,480.82231)"
             id="g280"><path
               inkscape:connector-curvature="0"
               id="path282"
               style="fill:none;stroke:#000000;stroke-width:0.80000001;stroke-linecap:butt;stroke-linejoin:miter;stroke-miterlimit:4;stroke-dasharray:none;stroke-opacity:1"
               d="m 281.414,106.391 h 52.555" /></g><g
             transform="matrix(2.1504934,0,0,-2.1504934,-88.571771,480.82231)"
             id="g284"><path
               inkscape:connector-curvature="0"
               id="path286"
               style="fill:none;stroke:#000000;stroke-width:0.80000001;stroke-linecap:butt;stroke-linejoin:miter;stroke-miterlimit:4;stroke-dasharray:none;stroke-opacity:1"
               d="m 281.016,108.895 v -5.008" /></g><g
             transform="matrix(2.1504934,0,0,-2.1504934,-88.571771,480.82231)"
             id="g288"><path
               inkscape:connector-curvature="0"
               id="path290"
               style="fill:none;stroke:#000000;stroke-width:0.80000001;stroke-linecap:butt;stroke-linejoin:miter;stroke-miterlimit:4;stroke-dasharray:none;stroke-opacity:1"
               d="m 334.371,108.895 v -5.008" /></g><g
             transform="matrix(2.1504934,0,0,-2.1504934,-88.571771,480.82231)"
             id="g292"><path
               inkscape:connector-curvature="0"
               id="path294"
               style="fill:none;stroke:#000000;stroke-width:0.80000001;stroke-linecap:butt;stroke-linejoin:miter;stroke-miterlimit:4;stroke-dasharray:none;stroke-opacity:1"
               d="m 281.414,106.391 h 52.555" /></g><g
             transform="matrix(2.1504934,0,0,-2.1504934,-88.571771,480.82231)"
             id="g296"><path
               inkscape:connector-curvature="0"
               id="path298"
               style="fill:none;stroke:#000000;stroke-width:0.80000001;stroke-linecap:butt;stroke-linejoin:miter;stroke-miterlimit:4;stroke-dasharray:none;stroke-opacity:1"
               d="m 281.016,108.895 v -5.008" /></g><g
             transform="matrix(2.1504934,0,0,-2.1504934,-88.571771,480.82231)"
             id="g300"><path
               inkscape:connector-curvature="0"
               id="path302"
               style="fill:none;stroke:#000000;stroke-width:0.80000001;stroke-linecap:butt;stroke-linejoin:miter;stroke-miterlimit:4;stroke-dasharray:none;stroke-opacity:1"
               d="m 334.371,108.895 v -5.008" /></g><path
             style="font-style:normal;font-variant:normal;font-weight:normal;font-stretch:normal;letter-spacing:normal;word-spacing:normal;text-anchor:start;fill:#000000;stroke:#000000;stroke-width:0;stroke-linecap:butt;stroke-linejoin:miter;stroke-miterlimit:10.43299961;stroke-dasharray:none;stroke-dashoffset:0;stroke-opacity:1"
             inkscape:connector-curvature="0"
             id="path3325"
             d="m 473.69672,325.235 v 0 0 0 0.0239 0 0 0 0.0239 0 0.0239 0 0 l -0.0239,0.0239 v 0 0.0239 0 l -0.0239,0.0239 v 0 0.0239 h -0.0239 v 0.0239 0 h -0.0239 v 0 0.0239 0 h -0.0239 v 0 0 l -0.0239,0.0239 v 0 0 h -0.0239 v 0 h -0.0239 v 0 h -0.0239 v 0.0239 h -0.0239 v 0 h -0.0239 v 0 h -0.0239 v 0 h -0.0239 c -0.35936,0 -2.61129,-0.2156 -3.01858,-0.26352 -0.1916,-0.0239 -0.33538,-0.14374 -0.33538,-0.45518 0,-0.28748 0.2156,-0.28748 0.57494,-0.28748 1.14994,0 1.1739,-0.1677 1.1739,-0.40727 l -0.0718,-0.47914 -1.41345,-5.62987 c -0.43122,0.8864 -1.12597,1.53324 -2.20405,1.53324 -2.77899,0 -5.74964,-3.52167 -5.74964,-6.97147 0,-2.25195 1.31763,-3.80914 3.18625,-3.80914 l 0.0479,0.50309 c -1.19784,0 -1.53324,1.31762 -1.53324,2.25195 0,1.19785 0.76664,4.12059 1.31763,5.19866 0.74267,1.41344 1.82075,2.29986 2.75504,2.29986 1.55722,0 1.89262,-1.96447 1.89262,-2.10821 0,-0.14374 -0.0479,-0.28749 -0.0719,-0.40726 l -1.19785,-4.64765 c -0.11978,-0.43123 -0.11978,-0.47915 -0.47915,-0.88641 -1.05409,-1.31763 -2.01236,-1.70094 -2.68317,-1.70094 l -0.048,-0.50309 c 0.47914,0 1.67701,0.0718 3.09045,1.77281 0.19162,-1.0062 1.03016,-1.77281 2.18008,-1.77281 0.81452,0 1.36554,0.52705 1.74885,1.29367 0.40726,0.86245 0.71872,2.32383 0.71872,2.37174 0,0.23956 -0.21564,0.23956 -0.2875,0.23956 -0.23957,0 -0.26353,-0.0959 -0.33539,-0.43122 -0.40726,-1.5572 -0.81454,-2.97066 -1.79676,-2.97066 -0.64684,0 -0.71872,0.62288 -0.71872,1.10202 0,0.57497 0.0479,0.74266 0.14366,1.14993 z" /><g
             transform="matrix(2.9946151,0,0,2.9946151,336.40907,40.858892)"
             id="g3552"><path
               d="m 114.31297,119.78107 0.008,0.024 0.008,0.024 0.008,0.024 0.008,0.024 0.008,0.032 v 0.024 l 0.008,0.024 v 0.024 l 0.008,0.024 v 0.032 0.016 l 0.008,0.016 v 0.016 0.008 0.016 0.024 0.016 0.016 0.016 0.016 0.024 l 0.008,0.016 c 0,0.52 -0.32,0.856 -0.92,0.856 -0.624,0 -1.04,-0.416 -1.232,-0.696 -0.04,0.456 -0.376,0.696 -0.736,0.696 -0.36,0 -0.512,-0.312 -0.584,-0.456 -0.144,-0.272 -0.248,-0.744 -0.248,-0.768 0,-0.08 0.08,-0.08 0.096,-0.08 0.08,0 0.088,0.008 0.136,0.176 0.136,0.568 0.296,0.952 0.576,0.952 0.136,0 0.248,-0.064 0.248,-0.368 0,-0.168 -0.024,-0.256 -0.128,-0.664 l -0.456,-1.84 c -0.024,-0.12 -0.072,-0.304 -0.072,-0.344 0,-0.136 0.104,-0.208 0.224,-0.208 0.096,0 0.24,0.064 0.296,0.216 0.008,0.016 0.104,0.392 0.152,0.592 l 0.176,0.712 c 0.048,0.176 0.096,0.352 0.136,0.536 0.016,0.048 0.08,0.312 0.088,0.36 0.024,0.064 0.272,0.512 0.544,0.728 0.168,0.128 0.416,0.28 0.76,0.28 0.344,0 0.432,-0.272 0.432,-0.56 0,-0.04 0,-0.184 -0.08,-0.496 l -0.912,-3.656 c -0.016,-0.096 -0.016,-0.112 -0.016,-0.128 0,-0.12 0.08,-0.216 0.216,-0.216 0.248,0 0.304,0.232 0.328,0.32 z"
               id="path3327"
               inkscape:connector-curvature="0"
               style="font-style:normal;font-variant:normal;font-weight:normal;font-stretch:normal;letter-spacing:normal;word-spacing:normal;text-anchor:start;fill:#000000;stroke:#000000;stroke-width:0;stroke-linecap:butt;stroke-linejoin:miter;stroke-miterlimit:10.43299961;stroke-dasharray:none;stroke-dashoffset:0;stroke-opacity:1" /><path
               d="m 116.25697,119.91707 v 0.008 0.008 0.008 0.008 0 0.008 0.008 0.008 0 0.008 0.008 0 0.008 0 0.008 0 0.008 0 l -0.008,0.008 v 0.008 0.008 h -0.008 v 0.008 0.008 h -0.008 v 0.008 h -0.008 -0.008 v 0.008 h -0.008 -0.008 -0.008 -0.008 v 0 h -0.008 v 0.008 h -0.008 v 0 h -0.008 -0.008 v 0 h -0.008 -0.008 -0.008 v 0 h -0.008 -0.008 -0.008 -0.008 -0.008 c -0.352,-0.352 -0.856,-0.36 -1.088,-0.36 v -0.2 c 0.136,0 0.504,0 0.808,0.16 v -2.84 c 0,-0.184 0,-0.256 -0.56,-0.256 h -0.208 v -0.2 c 0.096,0.008 0.784,0.024 0.992,0.024 0.168,0 0.872,-0.016 0.992,-0.024 v 0.2 h -0.208 c -0.56,0 -0.56,0.072 -0.56,0.256 z"
               id="path3329"
               inkscape:connector-curvature="0"
               style="font-style:normal;font-variant:normal;font-weight:normal;font-stretch:normal;letter-spacing:normal;word-spacing:normal;text-anchor:start;fill:#000000;stroke:#000000;stroke-width:0;stroke-linecap:butt;stroke-linejoin:miter;stroke-miterlimit:10.43299961;stroke-dasharray:none;stroke-dashoffset:0;stroke-opacity:1" /></g><g
             transform="matrix(2.9946151,0,0,2.9946151,305.21742,0.69025955)"
             id="g3556"><path
               d="m 124.51297,119.78107 v 0.024 l 0.008,0.024 0.008,0.024 0.008,0.024 0.008,0.032 v 0.024 l 0.008,0.024 v 0.024 l 0.008,0.024 v 0.032 0.016 l 0.008,0.016 v 0.016 0.008 0.016 0.024 0.016 0.016 0.016 0.016 0.024 0.016 c 0,0.52 -0.312,0.856 -0.912,0.856 -0.632,0 -1.04,-0.416 -1.232,-0.696 -0.04,0.456 -0.376,0.696 -0.736,0.696 -0.36,0 -0.512,-0.312 -0.584,-0.456 -0.144,-0.272 -0.248,-0.744 -0.248,-0.768 0,-0.08 0.08,-0.08 0.096,-0.08 0.08,0 0.088,0.008 0.136,0.176 0.136,0.568 0.296,0.952 0.576,0.952 0.136,0 0.248,-0.064 0.248,-0.368 0,-0.168 -0.024,-0.256 -0.128,-0.664 l -0.456,-1.84 c -0.024,-0.12 -0.072,-0.304 -0.072,-0.344 0,-0.136 0.112,-0.208 0.232,-0.208 0.088,0 0.232,0.064 0.288,0.216 0.008,0.016 0.104,0.392 0.152,0.592 l 0.176,0.712 c 0.048,0.176 0.096,0.352 0.136,0.536 0.016,0.048 0.08,0.312 0.088,0.36 0.024,0.064 0.272,0.512 0.544,0.728 0.168,0.128 0.416,0.28 0.76,0.28 0.344,0 0.432,-0.272 0.432,-0.56 0,-0.04 0,-0.184 -0.08,-0.496 l -0.912,-3.656 c -0.024,-0.096 -0.024,-0.112 -0.024,-0.128 0,-0.12 0.088,-0.216 0.224,-0.216 0.248,0 0.304,0.232 0.328,0.32 z"
               id="path3331"
               inkscape:connector-curvature="0"
               style="font-style:normal;font-variant:normal;font-weight:normal;font-stretch:normal;letter-spacing:normal;word-spacing:normal;text-anchor:start;fill:#000000;stroke:#000000;stroke-width:0;stroke-linecap:butt;stroke-linejoin:miter;stroke-miterlimit:10.43299961;stroke-dasharray:none;stroke-dashoffset:0;stroke-opacity:1" /><path
               d="m 127.39297,117.39707 h -0.184 c -0.016,-0.128 -0.072,-0.456 -0.144,-0.512 -0.048,-0.032 -0.48,-0.032 -0.552,-0.032 h -1.024 c 0.584,0.52 0.776,0.672 1.112,0.936 0.408,0.328 0.792,0.672 0.792,1.2 0,0.672 -0.584,1.088 -1.304,1.088 -0.688,0 -1.152,-0.488 -1.152,-1 0,-0.28 0.232,-0.312 0.296,-0.312 0.128,0 0.288,0.096 0.288,0.296 0,0.104 -0.032,0.296 -0.328,0.296 0.176,0.4 0.552,0.52 0.816,0.52 0.56,0 0.848,-0.432 0.848,-0.888 0,-0.48 -0.344,-0.864 -0.528,-1.064 l -1.336,-1.328 c -0.056,-0.048 -0.056,-0.056 -0.056,-0.216 h 2.296 z"
               id="path3333"
               inkscape:connector-curvature="0"
               style="font-style:normal;font-variant:normal;font-weight:normal;font-stretch:normal;letter-spacing:normal;word-spacing:normal;text-anchor:start;fill:#000000;stroke:#000000;stroke-width:0;stroke-linecap:butt;stroke-linejoin:miter;stroke-miterlimit:10.43299961;stroke-dasharray:none;stroke-dashoffset:0;stroke-opacity:1" /></g><g
             transform="matrix(2.9946151,0,0,2.9946151,218.43995,-45.866855)"
             id="g3560"><path
               d="m 136.29697,119.78107 0.008,0.024 0.008,0.024 0.008,0.024 0.008,0.024 v 0.032 l 0.008,0.024 0.008,0.024 v 0.024 l 0.008,0.024 v 0.032 0.016 0.016 l 0.008,0.016 v 0.008 0.016 0.024 0.016 0.016 0.016 0.016 0.024 0.016 c 0,0.52 -0.32,0.856 -0.912,0.856 -0.632,0 -1.048,-0.416 -1.232,-0.696 -0.04,0.456 -0.376,0.696 -0.736,0.696 -0.368,0 -0.52,-0.312 -0.592,-0.456 -0.144,-0.272 -0.24,-0.744 -0.24,-0.768 0,-0.08 0.072,-0.08 0.096,-0.08 0.072,0 0.08,0.008 0.128,0.176 0.136,0.568 0.296,0.952 0.584,0.952 0.136,0 0.248,-0.064 0.248,-0.368 0,-0.168 -0.024,-0.256 -0.128,-0.664 l -0.464,-1.84 c -0.024,-0.12 -0.072,-0.304 -0.072,-0.344 0,-0.136 0.112,-0.208 0.232,-0.208 0.096,0 0.24,0.064 0.296,0.216 0.008,0.016 0.104,0.392 0.152,0.592 l 0.176,0.712 c 0.048,0.176 0.096,0.352 0.136,0.536 0.016,0.048 0.08,0.312 0.088,0.36 0.024,0.064 0.264,0.512 0.536,0.728 0.176,0.128 0.424,0.28 0.768,0.28 0.344,0 0.424,-0.272 0.424,-0.56 0,-0.04 0,-0.184 -0.072,-0.496 l -0.912,-3.656 c -0.024,-0.096 -0.024,-0.112 -0.024,-0.128 0,-0.12 0.088,-0.216 0.224,-0.216 0.248,0 0.304,0.232 0.328,0.32 z"
               id="path3335"
               inkscape:connector-curvature="0"
               style="font-style:normal;font-variant:normal;font-weight:normal;font-stretch:normal;letter-spacing:normal;word-spacing:normal;text-anchor:start;fill:#000000;stroke:#000000;stroke-width:0;stroke-linecap:butt;stroke-linejoin:miter;stroke-miterlimit:10.43299961;stroke-dasharray:none;stroke-dashoffset:0;stroke-opacity:1" /><path
               d="m 137.88897,118.23707 h 0.048 0.04 l 0.032,-0.008 h 0.04 l 0.04,-0.008 0.032,-0.016 0.04,-0.008 0.032,-0.016 0.032,-0.016 0.032,-0.016 0.032,-0.016 0.032,-0.016 0.032,-0.024 0.024,-0.024 0.024,-0.024 0.032,-0.032 0.024,-0.024 0.016,-0.032 0.024,-0.032 0.024,-0.04 0.016,-0.032 0.016,-0.04 0.016,-0.04 0.016,-0.04 0.016,-0.04 0.008,-0.048 0.008,-0.04 0.008,-0.048 0.008,-0.056 v -0.048 l 0.008,-0.056 v -0.056 c 0,-0.688 -0.4,-0.896 -0.728,-0.896 -0.224,0 -0.712,0.064 -0.944,0.392 0.264,0.016 0.32,0.192 0.32,0.312 0,0.176 -0.128,0.304 -0.304,0.304 -0.152,0 -0.312,-0.088 -0.312,-0.32 0,-0.52 0.576,-0.864 1.256,-0.864 0.768,0 1.304,0.52 1.304,1.072 0,0.44 -0.352,0.872 -0.968,1 0.584,0.208 0.8,0.624 0.8,0.968 0,0.44 -0.512,0.768 -1.128,0.768 -0.616,0 -1.088,-0.304 -1.088,-0.744 0,-0.192 0.12,-0.296 0.288,-0.296 0.168,0 0.28,0.128 0.28,0.28 0,0.16 -0.112,0.28 -0.28,0.288 0.192,0.248 0.576,0.312 0.784,0.312 0.248,0 0.6,-0.128 0.6,-0.608 0,-0.232 -0.08,-0.488 -0.224,-0.664 -0.184,-0.208 -0.336,-0.224 -0.616,-0.24 -0.136,-0.008 -0.152,-0.008 -0.176,-0.016 -0.016,0 -0.056,-0.008 -0.056,-0.072 0,-0.08 0.048,-0.08 0.144,-0.08 z"
               id="path3337"
               inkscape:connector-curvature="0"
               style="font-style:normal;font-variant:normal;font-weight:normal;font-stretch:normal;letter-spacing:normal;word-spacing:normal;text-anchor:start;fill:#000000;stroke:#000000;stroke-width:0;stroke-linecap:butt;stroke-linejoin:miter;stroke-miterlimit:10.43299961;stroke-dasharray:none;stroke-dashoffset:0;stroke-opacity:1" /><path
               d="m 143.37697,119.40507 h 2.216 c 0.112,0 0.264,0 0.264,0.16 0,0.16 -0.152,0.16 -0.264,0.16 h -2.216 v 2.224 c 0,0.112 0,0.264 -0.16,0.264 -0.16,0 -0.16,-0.152 -0.16,-0.264 v -2.224 h -2.232 c -0.112,0 -0.264,0 -0.264,-0.16 0,-0.16 0.152,-0.16 0.264,-0.16 h 2.232 v -2.224 c 0,-0.112 0,-0.264 0.16,-0.264 0.16,0 0.16,0.152 0.16,0.264 z"
               id="path3339"
               inkscape:connector-curvature="0"
               style="font-style:normal;font-variant:normal;font-weight:normal;font-stretch:normal;letter-spacing:normal;word-spacing:normal;text-anchor:start;fill:#000000;stroke:#000000;stroke-width:0;stroke-linecap:butt;stroke-linejoin:miter;stroke-miterlimit:10.43299961;stroke-dasharray:none;stroke-dashoffset:0;stroke-opacity:1" /><path
               d="m 148.75297,122.54107 v 0.016 l -0.008,0.016 v 0.016 0.016 0.008 l -0.008,0.016 v 0.016 l -0.008,0.008 -0.008,0.016 v 0.008 l -0.008,0.016 -0.008,0.008 -0.008,0.016 -0.008,0.008 -0.008,0.008 -0.008,0.016 -0.008,0.008 -0.016,0.008 -0.008,0.008 -0.016,0.008 -0.008,0.008 -0.016,0.008 -0.008,0.008 h -0.016 l -0.016,0.008 -0.008,0.008 h -0.016 -0.016 l -0.016,0.008 h -0.016 -0.016 -0.016 c -0.216,0 -0.432,-0.208 -0.432,-0.416 0,-0.152 0.112,-0.288 0.304,-0.288 0.184,0 0.424,0.184 0.424,0.416 z"
               id="path3341"
               inkscape:connector-curvature="0"
               style="font-style:normal;font-variant:normal;font-weight:normal;font-stretch:normal;letter-spacing:normal;word-spacing:normal;text-anchor:start;fill:#000000;stroke:#000000;stroke-width:0;stroke-linecap:butt;stroke-linejoin:miter;stroke-miterlimit:10.43299961;stroke-dasharray:none;stroke-dashoffset:0;stroke-opacity:1" /><path
               d="m 148.14497,119.55707 0.008,0.016 0.008,0.024 0.008,0.016 0.008,0.016 0.008,0.024 0.008,0.016 v 0.008 l 0.008,0.016 0.008,0.016 v 0.016 l 0.008,0.008 v 0.016 l 0.008,0.008 0.008,0.016 0.008,0.016 0.008,0.024 0.008,0.024 v 0.016 l 0.008,0.008 v 0.016 l 0.008,0.008 v 0.016 l 0.008,0.016 0.008,0.016 0.008,0.008 v 0.024 l 0.008,0.016 0.008,0.016 0.008,0.016 c 0.064,0.16 0.104,0.272 0.104,0.424 0,0.36 -0.256,0.656 -0.656,0.656 -0.744,0 -1.048,-1.16 -1.048,-1.224 0,-0.08 0.08,-0.08 0.096,-0.08 0.08,0 0.088,0.016 0.128,0.136 0.216,0.752 0.528,0.992 0.8,0.992 0.064,0 0.2,0 0.2,-0.256 0,-0.168 -0.056,-0.336 -0.088,-0.416 -0.064,-0.208 -0.424,-1.128 -0.544,-1.472 -0.08,-0.2 -0.184,-0.464 -0.184,-0.632 0,-0.376 0.264,-0.648 0.648,-0.648 0.752,0 1.04,1.152 1.04,1.224 0,0.08 -0.064,0.08 -0.088,0.08 -0.08,0 -0.08,-0.032 -0.12,-0.144 -0.144,-0.504 -0.408,-0.992 -0.816,-0.992 -0.136,0 -0.192,0.08 -0.192,0.264 0,0.2 0.048,0.312 0.232,0.792 z"
               id="path3343"
               inkscape:connector-curvature="0"
               style="font-style:normal;font-variant:normal;font-weight:normal;font-stretch:normal;letter-spacing:normal;word-spacing:normal;text-anchor:start;fill:#000000;stroke:#000000;stroke-width:0;stroke-linecap:butt;stroke-linejoin:miter;stroke-miterlimit:10.43299961;stroke-dasharray:none;stroke-dashoffset:0;stroke-opacity:1" /><path
               d="m 149.70497,117.88507 v 0 -0.008 l -0.008,-0.008 v 0 -0.008 -0.008 l -0.008,-0.016 v 0 -0.008 -0.008 l -0.008,-0.008 v -0.008 -0.008 0 -0.008 -0.008 h -0.008 v -0.008 0 -0.008 -0.008 -0.008 -0.008 -0.008 -0.008 0 -0.008 0 -0.008 -0.008 c 0,-0.136 0.112,-0.208 0.232,-0.208 0.24,0 0.288,0.184 0.352,0.44 0.08,0.288 0.032,0.136 0.368,1.472 0.672,-0.024 1.368,-0.16 1.368,-0.68 0,-0.048 0,-0.088 -0.024,-0.168 -0.024,-0.128 -0.032,-0.216 -0.032,-0.28 0,-0.472 0.312,-0.784 0.728,-0.784 0.256,0 0.464,0.136 0.624,0.408 0.2,0.336 0.288,0.8 0.288,0.816 0,0.08 -0.064,0.08 -0.088,0.08 -0.08,0 -0.088,-0.032 -0.112,-0.144 -0.152,-0.552 -0.336,-0.992 -0.696,-0.992 -0.168,0 -0.256,0.104 -0.256,0.384 0,0.12 0.032,0.312 0.064,0.448 0.016,0.072 0.04,0.176 0.04,0.264 0,0.744 -1.096,0.8 -1.544,0.816 0.264,0.144 0.52,0.352 0.736,0.536 0.36,0.312 0.592,0.504 0.912,0.64 -0.016,-0.04 -0.04,-0.136 -0.04,-0.176 0,-0.096 0.056,-0.28 0.304,-0.28 0.256,0 0.432,0.232 0.432,0.432 0,0.072 -0.032,0.28 -0.32,0.28 -0.488,0 -0.96,-0.4 -1.304,-0.696 -0.544,-0.456 -0.736,-0.576 -1.024,-0.672 0.024,0.088 0.12,0.48 0.16,0.616 0.048,0.208 0.144,0.584 0.144,0.624 0,0.136 -0.096,0.216 -0.232,0.216 -0.024,0 -0.248,0 -0.32,-0.288 z"
               id="path3345"
               inkscape:connector-curvature="0"
               style="font-style:normal;font-variant:normal;font-weight:normal;font-stretch:normal;letter-spacing:normal;word-spacing:normal;text-anchor:start;fill:#000000;stroke:#000000;stroke-width:0;stroke-linecap:butt;stroke-linejoin:miter;stroke-miterlimit:10.43299961;stroke-dasharray:none;stroke-dashoffset:0;stroke-opacity:1" /><path
               d="m 155.34497,118.23707 h 0.04 0.04 l 0.04,-0.008 h 0.04 l 0.04,-0.008 0.032,-0.016 0.04,-0.008 0.032,-0.016 0.032,-0.016 0.032,-0.016 0.032,-0.016 0.032,-0.016 0.024,-0.024 0.032,-0.024 0.024,-0.024 0.024,-0.032 0.024,-0.024 0.024,-0.032 0.024,-0.032 0.016,-0.04 0.024,-0.032 0.016,-0.04 0.016,-0.04 0.016,-0.04 0.008,-0.04 0.016,-0.048 0.008,-0.04 0.008,-0.048 0.008,-0.056 v -0.048 l 0.008,-0.056 v -0.056 c 0,-0.688 -0.408,-0.896 -0.728,-0.896 -0.224,0 -0.712,0.064 -0.944,0.392 0.264,0.016 0.32,0.192 0.32,0.312 0,0.176 -0.136,0.304 -0.304,0.304 -0.16,0 -0.312,-0.088 -0.312,-0.32 0,-0.52 0.576,-0.864 1.256,-0.864 0.768,0 1.304,0.52 1.304,1.072 0,0.44 -0.352,0.872 -0.968,1 0.584,0.208 0.8,0.624 0.8,0.968 0,0.44 -0.512,0.768 -1.128,0.768 -0.616,0 -1.096,-0.304 -1.096,-0.744 0,-0.192 0.128,-0.296 0.296,-0.296 0.168,0 0.28,0.128 0.28,0.28 0,0.16 -0.112,0.28 -0.28,0.288 0.192,0.248 0.576,0.312 0.784,0.312 0.248,0 0.6,-0.128 0.6,-0.608 0,-0.232 -0.08,-0.488 -0.224,-0.664 -0.184,-0.208 -0.336,-0.224 -0.616,-0.24 -0.144,-0.008 -0.152,-0.008 -0.176,-0.016 -0.016,0 -0.056,-0.008 -0.056,-0.072 0,-0.08 0.048,-0.08 0.144,-0.08 z"
               id="path3347"
               inkscape:connector-curvature="0"
               style="font-style:normal;font-variant:normal;font-weight:normal;font-stretch:normal;letter-spacing:normal;word-spacing:normal;text-anchor:start;fill:#000000;stroke:#000000;stroke-width:0;stroke-linecap:butt;stroke-linejoin:miter;stroke-miterlimit:10.43299961;stroke-dasharray:none;stroke-dashoffset:0;stroke-opacity:1" /></g><g
             transform="matrix(2.4075745,0,0,2.4075745,81.144564,-23.912938)"
             id="g3546"><path
               d="m 198.05697,120.22907 v 0.016 0.016 0.016 0.016 l -0.008,0.016 v 0.008 0.016 0.008 l -0.008,0.016 v 0.008 0.016 0.008 l -0.008,0.008 v 0.008 l -0.008,0.008 v 0.008 l -0.008,0.008 v 0.008 l -0.008,0.008 v 0.008 h -0.008 v 0.008 l -0.008,0.008 h -0.008 v 0.008 h -0.008 -0.008 v 0.008 h -0.008 -0.008 v 0 h -0.008 c -0.04,0 -0.104,-0.056 -0.112,-0.208 -0.032,-0.76 -0.56,-1.2 -1.112,-1.2 -0.504,0 -0.888,0.344 -1.28,0.688 -0.4,0.36 -0.816,0.728 -1.36,0.728 -0.864,0 -1.336,-0.872 -1.336,-1.6 0,-0.248 0.104,-0.248 0.112,-0.248 0.088,0 0.112,0.16 0.112,0.176 0.032,0.88 0.632,1.224 1.112,1.224 0.504,0 0.888,-0.336 1.28,-0.68 0.4,-0.368 0.816,-0.728 1.36,-0.728 0.864,0 1.336,0.872 1.336,1.592 z"
               id="path3357"
               inkscape:connector-curvature="0"
               style="font-style:normal;font-variant:normal;font-weight:normal;font-stretch:normal;letter-spacing:normal;word-spacing:normal;text-anchor:start;fill:#000000;stroke:#000000;stroke-width:0;stroke-linecap:butt;stroke-linejoin:miter;stroke-miterlimit:10.43299961;stroke-dasharray:none;stroke-dashoffset:0;stroke-opacity:1" /><path
               d="m 201.46497,122.66107 v 0.008 0.008 0.016 0.008 0 0.008 0.008 0.008 0.008 0.008 l -0.008,0.008 v 0.008 0 0.008 0.008 0 0.008 0.008 0.008 0.008 l -0.008,0.008 v 0.008 0.008 h -0.008 v 0.008 l -0.008,0.008 v 0 l -0.008,0.008 h -0.008 l -0.008,0.008 v 0 h -0.008 v 0 h -0.008 v 0 h -0.008 l -0.008,0.008 v 0 h -0.008 -0.008 v 0 h -0.008 -0.008 -0.008 -0.008 v 0 h -0.008 -0.008 -0.008 -0.008 -0.008 -0.008 c -0.496,-0.504 -1.192,-0.504 -1.448,-0.504 v -0.248 c 0.16,0 0.624,0 1.04,0.2 v -4.112 c 0,-0.288 -0.024,-0.384 -0.736,-0.384 h -0.256 v -0.248 c 0.272,0.032 0.968,0.032 1.288,0.032 0.32,0 1.008,0 1.288,-0.032 v 0.248 h -0.256 c -0.712,0 -0.736,0.088 -0.736,0.384 z"
               id="path3359"
               inkscape:connector-curvature="0"
               style="font-style:normal;font-variant:normal;font-weight:normal;font-stretch:normal;letter-spacing:normal;word-spacing:normal;text-anchor:start;fill:#000000;stroke:#000000;stroke-width:0;stroke-linecap:butt;stroke-linejoin:miter;stroke-miterlimit:10.43299961;stroke-dasharray:none;stroke-dashoffset:0;stroke-opacity:1" /><path
               d="m 204.94497,120.36507 0.008,0.016 v 0.016 l 0.008,0.016 v 0.024 l 0.008,0.016 v 0.016 l 0.016,0.04 0.008,0.04 0.008,0.04 0.008,0.04 0.008,0.04 0.008,0.016 0.008,0.024 v 0.016 l 0.008,0.016 v 0.016 l 0.008,0.016 v 0.016 0.016 l 0.008,0.008 v 0.016 0.008 l 0.008,0.008 v 0.016 0 0.008 0.008 0 c 0,0.136 -0.096,0.216 -0.232,0.216 -0.024,0 -0.248,-0.008 -0.32,-0.288 l -1.144,-4.6 c -0.024,-0.096 -0.024,-0.112 -0.024,-0.128 0,-0.12 0.088,-0.216 0.224,-0.216 0.168,0 0.264,0.144 0.28,0.168 0.032,0.072 0.136,0.48 0.44,1.704 0.248,-0.216 0.608,-0.24 0.768,-0.24 0.56,0 0.864,0.352 1.056,0.576 0.072,-0.36 0.368,-0.576 0.72,-0.576 0.28,0 0.464,0.176 0.592,0.432 0.136,0.288 0.232,0.776 0.232,0.792 0,0.08 -0.072,0.08 -0.088,0.08 -0.08,0 -0.096,-0.032 -0.12,-0.144 -0.128,-0.52 -0.272,-0.992 -0.6,-0.992 -0.216,0 -0.24,0.208 -0.24,0.368 0,0.176 0.096,0.552 0.16,0.824 l 0.224,0.864 c 0.024,0.12 0.104,0.416 0.136,0.536 0.04,0.184 0.12,0.488 0.12,0.536 0,0.144 -0.112,0.216 -0.232,0.216 -0.04,0 -0.248,-0.008 -0.312,-0.28 l -0.376,-1.488 c -0.096,-0.4 -0.184,-0.728 -0.208,-0.808 -0.008,-0.04 -0.384,-0.768 -1.032,-0.768 -0.4,0 -0.592,0.264 -0.592,0.696 0,0.232 0.056,0.456 0.112,0.672 z"
               id="path3361"
               inkscape:connector-curvature="0"
               style="font-style:normal;font-variant:normal;font-weight:normal;font-stretch:normal;letter-spacing:normal;word-spacing:normal;text-anchor:start;fill:#000000;stroke:#000000;stroke-width:0;stroke-linecap:butt;stroke-linejoin:miter;stroke-miterlimit:10.43299961;stroke-dasharray:none;stroke-dashoffset:0;stroke-opacity:1" /><path
               d="m 208.60897,118.04507 v -0.008 -0.016 l -0.008,-0.008 v -0.016 l -0.008,-0.024 v -0.024 l -0.008,-0.024 -0.008,-0.032 -0.008,-0.024 v -0.024 l -0.008,-0.008 v -0.016 -0.008 l -0.008,-0.016 v -0.008 -0.008 l -0.008,-0.016 v -0.008 -0.008 -0.008 -0.008 l -0.008,-0.008 v -0.008 0 -0.008 -0.008 c 0,-0.136 0.112,-0.208 0.232,-0.208 0.096,0 0.24,0.064 0.296,0.216 0.008,0.016 0.104,0.392 0.152,0.592 l 0.176,0.712 c 0.048,0.176 0.096,0.352 0.136,0.536 0.032,0.136 0.096,0.368 0.104,0.4 0.112,0.24 0.536,0.968 1.296,0.968 0.36,0 0.432,-0.296 0.432,-0.56 0,-0.2 -0.064,-0.424 -0.12,-0.656 l -0.224,-0.928 -0.16,-0.6 c -0.032,-0.16 -0.104,-0.432 -0.104,-0.472 0,-0.136 0.112,-0.208 0.232,-0.208 0.248,0 0.288,0.192 0.36,0.448 0.104,0.448 0.4,1.608 0.472,1.92 0.024,0.104 0.448,1.056 1.312,1.056 0.344,0 0.432,-0.272 0.432,-0.56 0,-0.448 -0.336,-1.36 -0.496,-1.776 -0.072,-0.192 -0.104,-0.28 -0.104,-0.44 0,-0.376 0.28,-0.648 0.656,-0.648 0.752,0 1.04,1.16 1.04,1.224 0,0.08 -0.072,0.08 -0.096,0.08 -0.08,0 -0.08,-0.032 -0.12,-0.144 -0.112,-0.424 -0.368,-0.992 -0.808,-0.992 -0.136,0 -0.192,0.08 -0.192,0.264 0,0.2 0.072,0.392 0.144,0.568 0.152,0.408 0.488,1.296 0.488,1.744 0,0.52 -0.32,0.856 -0.92,0.856 -0.592,0 -1,-0.352 -1.296,-0.776 -0.008,0.104 -0.032,0.376 -0.256,0.568 -0.2,0.168 -0.448,0.208 -0.648,0.208 -0.72,0 -1.112,-0.512 -1.24,-0.696 -0.048,0.456 -0.376,0.696 -0.736,0.696 -0.368,0 -0.52,-0.312 -0.592,-0.456 -0.144,-0.28 -0.24,-0.744 -0.24,-0.768 0,-0.08 0.072,-0.08 0.088,-0.08 0.08,0 0.088,0.008 0.136,0.176 0.136,0.568 0.296,0.952 0.584,0.952 0.128,0 0.248,-0.064 0.248,-0.368 0,-0.168 -0.024,-0.256 -0.128,-0.664 z"
               id="path3363"
               inkscape:connector-curvature="0"
               style="font-style:normal;font-variant:normal;font-weight:normal;font-stretch:normal;letter-spacing:normal;word-spacing:normal;text-anchor:start;fill:#000000;stroke:#000000;stroke-width:0;stroke-linecap:butt;stroke-linejoin:miter;stroke-miterlimit:10.43299961;stroke-dasharray:none;stroke-dashoffset:0;stroke-opacity:1" /></g><path
             inkscape:connector-curvature="0"
             id="path3569"
             d="m 491.92232,339.797 7.05053,-35.64439"
             style="fill:none;stroke:#000000;stroke-width:1.72039461px;stroke-linecap:butt;stroke-linejoin:miter;stroke-opacity:1" /></g></g></g></g></svg>