<?xml version="1.0" encoding="UTF-8" standalone="no"?>
<svg
   xmlns:ns0="http://www.iki.fi/pav/software/textext/"
   xmlns:dc="http://purl.org/dc/elements/1.1/"
   xmlns:cc="http://creativecommons.org/ns#"
   xmlns:rdf="http://www.w3.org/1999/02/22-rdf-syntax-ns#"
   xmlns:svg="http://www.w3.org/2000/svg"
   xmlns="http://www.w3.org/2000/svg"
   xmlns:sodipodi="http://sodipodi.sourceforge.net/DTD/sodipodi-0.dtd"
   xmlns:inkscape="http://www.inkscape.org/namespaces/inkscape"
   id="svg8"
   version="1.1"
   viewBox="0 0 185.20833 105.83333"
   height="400"
   width="700"
   sodipodi:docname="thin_film.svg"
   inkscape:version="0.92.1 unknown">
  <sodipodi:namedview
     pagecolor="#ffffff"
     bordercolor="#666666"
     borderopacity="1"
     objecttolerance="10"
     gridtolerance="10"
     guidetolerance="10"
     inkscape:pageopacity="0"
     inkscape:pageshadow="2"
     inkscape:window-width="2495"
     inkscape:window-height="1416"
     id="namedview48"
     showgrid="false"
     inkscape:zoom="2.2203153"
     inkscape:cx="261.25054"
     inkscape:cy="239.774"
     inkscape:window-x="65"
     inkscape:window-y="24"
     inkscape:window-maximized="1"
     inkscape:current-layer="svg8" />
  <defs
     id="defs2">
    <marker
       orient="auto"
       refY="0"
       refX="0"
       id="marker6226"
       style="overflow:visible">
      <path
         id="path6224"
         style="fill:#7c7c7c;fill-opacity:1;fill-rule:evenodd;stroke:#7c7c7c;stroke-width:0.625;stroke-linejoin:round;stroke-opacity:1"
         d="M 8.7185878,4.0337352 -2.2072895,0.01601326 8.7185884,-4.0017078 c -1.7454984,2.3720609 -1.7354408,5.6174519 -6e-7,8.035443 z"
         transform="matrix(0.3,0,0,0.3,-0.69,0)"
         inkscape:connector-curvature="0" />
    </marker>
    <marker
       style="overflow:visible"
       id="marker6156"
       refX="0"
       refY="0"
       orient="auto">
      <path
         transform="matrix(-0.3,0,0,-0.3,0.69,0)"
         d="M 8.7185878,4.0337352 -2.2072895,0.01601326 8.7185884,-4.0017078 c -1.7454984,2.3720609 -1.7354408,5.6174519 -6e-7,8.035443 z"
         style="fill:#7c7c7c;fill-opacity:1;fill-rule:evenodd;stroke:#7c7c7c;stroke-width:0.625;stroke-linejoin:round;stroke-opacity:1"
         id="path6154"
         inkscape:connector-curvature="0" />
    </marker>
    <marker
       orient="auto"
       refY="0"
       refX="0"
       id="marker5988"
       style="overflow:visible">
      <path
         id="path5986"
         style="fill:#ffc8a8;fill-opacity:1;fill-rule:evenodd;stroke:#ffc8a8;stroke-width:0.625;stroke-linejoin:round;stroke-opacity:1"
         d="M 8.7185878,4.0337352 -2.2072895,0.01601326 8.7185884,-4.0017078 c -1.7454984,2.3720609 -1.7354408,5.6174519 -6e-7,8.035443 z"
         transform="matrix(0.3,0,0,0.3,-0.69,0)"
         inkscape:connector-curvature="0" />
    </marker>
    <marker
       orient="auto"
       refY="0"
       refX="0"
       id="marker5942"
       style="overflow:visible">
      <path
         id="path5940"
         style="fill:#ff7527;fill-opacity:1;fill-rule:evenodd;stroke:#ff7527;stroke-width:0.625;stroke-linejoin:round;stroke-opacity:1"
         d="M 8.7185878,4.0337352 -2.2072895,0.01601326 8.7185884,-4.0017078 c -1.7454984,2.3720609 -1.7354408,5.6174519 -6e-7,8.035443 z"
         transform="matrix(0.3,0,0,0.3,-0.69,0)"
         inkscape:connector-curvature="0" />
    </marker>
    <marker
       style="overflow:visible"
       id="marker5346"
       refX="0"
       refY="0"
       orient="auto">
      <path
         transform="matrix(0.3,0,0,0.3,-0.69,0)"
         d="M 8.7185878,4.0337352 -2.2072895,0.01601326 8.7185884,-4.0017078 c -1.7454984,2.3720609 -1.7354408,5.6174519 -6e-7,8.035443 z"
         style="fill:#ffc8a8;fill-opacity:1;fill-rule:evenodd;stroke:#ffc8a8;stroke-width:0.625;stroke-linejoin:round;stroke-opacity:1"
         id="path5344"
         inkscape:connector-curvature="0" />
    </marker>
    <marker
       style="overflow:visible"
       id="marker5312"
       refX="0"
       refY="0"
       orient="auto">
      <path
         transform="matrix(0.3,0,0,0.3,-0.69,0)"
         d="M 8.7185878,4.0337352 -2.2072895,0.01601326 8.7185884,-4.0017078 c -1.7454984,2.3720609 -1.7354408,5.6174519 -6e-7,8.035443 z"
         style="fill:#ff0500;fill-opacity:1;fill-rule:evenodd;stroke:#ff0500;stroke-width:0.625;stroke-linejoin:round;stroke-opacity:1"
         id="path5310"
         inkscape:connector-curvature="0" />
    </marker>
    <marker
       orient="auto"
       refY="0"
       refX="0"
       id="Arrow2Sstart"
       style="overflow:visible">
      <path
         id="path4539"
         style="fill:#ff7527;fill-opacity:1;fill-rule:evenodd;stroke:#ff7527;stroke-width:0.625;stroke-linejoin:round;stroke-opacity:1"
         d="M 8.7185878,4.0337352 -2.2072895,0.01601326 8.7185884,-4.0017078 c -1.7454984,2.3720609 -1.7354408,5.6174519 -6e-7,8.035443 z"
         transform="matrix(0.3,0,0,0.3,-0.69,0)"
         inkscape:connector-curvature="0" />
    </marker>
    <marker
       orient="auto"
       refY="0"
       refX="0"
       id="Arrow2Send"
       style="overflow:visible">
      <path
         id="path4542"
         style="fill:#ff7527;fill-opacity:1;fill-rule:evenodd;stroke:#ff7527;stroke-width:0.625;stroke-linejoin:round;stroke-opacity:1"
         d="M 8.7185878,4.0337352 -2.2072895,0.01601326 8.7185884,-4.0017078 c -1.7454984,2.3720609 -1.7354408,5.6174519 -6e-7,8.035443 z"
         transform="matrix(-0.3,0,0,-0.3,0.69,0)"
         inkscape:connector-curvature="0" />
    </marker>
    <marker
       orient="auto"
       refY="0"
       refX="0"
       id="Arrow1Send"
       style="overflow:visible">
      <path
         id="path4524"
         d="M 0,0 5,-5 -12.5,0 5,5 Z"
         style="fill:#fff165;fill-opacity:1;fill-rule:evenodd;stroke:#fff165;stroke-width:1.00000003pt;stroke-opacity:1"
         transform="matrix(-0.2,0,0,-0.2,-1.2,0)"
         inkscape:connector-curvature="0" />
    </marker>
    <filter
       style="color-interpolation-filters:sRGB"
       id="filter6616"
       x="-0.0099999998"
       width="1.02"
       y="-0.015"
       height="1.03">
      <feGaussianBlur
         stdDeviation="0.47010788"
         id="feGaussianBlur6618" />
    </filter>
  </defs>
  <metadata
     id="metadata5">
    <rdf:RDF>
      <cc:Work
         rdf:about="">
        <dc:format>image/svg+xml</dc:format>
        <dc:type
           rdf:resource="http://purl.org/dc/dcmitype/StillImage" />
        <dc:title />
      </cc:Work>
    </rdf:RDF>
  </metadata>
  <g
     id="layer1"
     transform="translate(-32.997406,-3.5336071)">
    <g
       id="topLayer"
       style="opacity:0">
      <g
         id="topLayerMath"
         style="opacity:1">
        <path
           inkscape:connector-curvature="0"
           id="path6146"
           d="M 197.70128,68.51338 V 30.904752"
           style="fill:none;fill-rule:evenodd;stroke:#7c7c7c;stroke-width:0.5291667;stroke-linecap:butt;stroke-linejoin:miter;stroke-miterlimit:4;stroke-dasharray:none;stroke-opacity:1;marker-start:url(#marker6226);marker-end:url(#marker6156)" />
        <g
           ns0:preamble=""
           ns0:text="$h$"
           word-spacing="normal"
           letter-spacing="normal"
           font-size-adjust="none"
           font-stretch="normal"
           font-weight="normal"
           font-variant="normal"
           font-style="normal"
           stroke-miterlimit="10.433"
           xml:space="preserve"
           transform="matrix(1,0,0,-1,-23.556885,760.08033)"
           id="content"
           style="font-style:normal;font-variant:normal;font-weight:normal;font-stretch:normal;letter-spacing:normal;word-spacing:normal;text-anchor:start;fill:#7c7c7c;fill-opacity:1;fill-rule:evenodd;stroke:#000000;stroke-linecap:butt;stroke-linejoin:miter;stroke-miterlimit:10.43299961;stroke-dasharray:none;stroke-dashoffset:0;stroke-opacity:1"><path
             inkscape:connector-curvature="0"
             id="path6663"
             d="m 226.29,713.93 v 0 0 0 0 0 0.01 0 0 0.01 0 0.01 0 0.01 h -0.01 v 0.01 0 0.01 h -0.01 V 714 h -0.01 v 0 0.01 0 h -0.01 v 0 0.01 h -0.01 v 0 0 h -0.01 v 0 0.01 h -0.01 v 0 h -0.01 v 0 h -0.01 v 0 0 l -0.01,0.01 h -0.01 v 0 h -0.01 v 0 h -0.01 c -0.23,0 -0.95,-0.08 -1.21,-0.1 -0.08,-0.01 -0.19,-0.02 -0.19,-0.2 0,-0.12 0.09,-0.12 0.24,-0.12 0.48,0 0.49,-0.07 0.49,-0.17 l -0.03,-0.2 -1.44,-5.74 c -0.04,-0.14 -0.04,-0.16 -0.04,-0.22 0,-0.23 0.2,-0.28 0.29,-0.28 0.16,0 0.32,0.12 0.37,0.26 l 0.19,0.76 0.22,0.9 c 0.06,0.22 0.12,0.43 0.17,0.66 0.02,0.06 0.1,0.39 0.1,0.45 0.03,0.09 0.34,0.65 0.68,0.92 0.22,0.16 0.53,0.35 0.96,0.35 0.43,0 0.54,-0.34 0.54,-0.7 0,-0.54 -0.38,-1.62 -0.62,-2.23 -0.08,-0.23 -0.13,-0.35 -0.13,-0.55 0,-0.47 0.35,-0.82 0.82,-0.82 0.93,0 1.3,1.46 1.3,1.54 0,0.1 -0.09,0.1 -0.12,0.1 -0.1,0 -0.1,-0.03 -0.15,-0.18 -0.15,-0.53 -0.47,-1.24 -1.01,-1.24 -0.17,0 -0.24,0.1 -0.24,0.33 0,0.25 0.09,0.49 0.18,0.71 0.16,0.43 0.6,1.61 0.6,2.19 0,0.65 -0.39,1.07 -1.14,1.07 -0.63,0 -1.11,-0.31 -1.48,-0.77 z"
             style="fill:#7c7c7c;fill-opacity:1;stroke-width:0" /></g>      </g>
      <rect
         y="32.492252"
         x="34.32024"
         height="37.084538"
         width="156.79469"
         id="rect4638"
         style="opacity:1;fill:#000000;fill-opacity:0.23605149;stroke:#000000;stroke-width:0.74811894;stroke-linecap:round;stroke-linejoin:round;stroke-miterlimit:4;stroke-dasharray:none;stroke-dashoffset:0;stroke-opacity:0;filter:url(#filter6616)" />
      <rect
         style="opacity:1;fill:#e8f7ff;fill-opacity:1;stroke:#000000;stroke-width:0.52899998;stroke-linecap:round;stroke-linejoin:round;stroke-miterlimit:4;stroke-dasharray:none;stroke-dashoffset:0;stroke-opacity:0"
         id="rect4564"
         width="156.98572"
         height="37.608627"
         x="33.261906"
         y="30.904753" />
    </g>
    <rect
       y="69.57679"
       x="34.32024"
       height="37.322868"
       width="156.79469"
       id="rect4640"
       style="opacity:1;fill:#000000;fill-opacity:0.23605149;stroke:#000000;stroke-width:0.74811894;stroke-linecap:round;stroke-linejoin:round;stroke-miterlimit:4;stroke-dasharray:none;stroke-dashoffset:0;stroke-opacity:0;filter:url(#filter6616)" />
    <rect
       style="opacity:1;fill:#ffeed4;fill-opacity:1;stroke:#000000;stroke-width:0.52899998;stroke-linecap:round;stroke-linejoin:round;stroke-miterlimit:4;stroke-dasharray:none;stroke-dashoffset:0;stroke-opacity:0"
       id="rect4485"
       width="156.96062"
       height="37.397972"
       x="33.261906"
       y="68.513382" />
    <g
       id="lightPaths"
       style="opacity:0">
      <path
         style="fill:none;fill-rule:evenodd;stroke:#ff7527;stroke-width:1.05833328;stroke-linecap:butt;stroke-linejoin:miter;stroke-miterlimit:4;stroke-dasharray:none;stroke-opacity:1"
         d="M 75.602753,30.828379 92.517184,68.513393"
         id="path4493"
         inkscape:connector-curvature="0" />
      <path
         inkscape:connector-curvature="0"
         style="fill:none;fill-rule:evenodd;stroke:#ff0500;stroke-width:1.05833328;stroke-linecap:butt;stroke-linejoin:miter;stroke-miterlimit:4;stroke-dasharray:none;stroke-opacity:1"
         d="m 39.141958,6.122358 36.460794,24.68791"
         id="path4495" />
      <path
         inkscape:connector-curvature="0"
         id="path4497"
         d="M 112.06354,6.122358 75.602752,30.810268"
         style="fill:none;fill-rule:evenodd;stroke:#ff0500;stroke-width:1.05833328;stroke-linecap:butt;stroke-linejoin:miter;stroke-miterlimit:4;stroke-dasharray:none;stroke-opacity:1;marker-start:url(#marker5312)" />
      <path
         inkscape:connector-curvature="0"
         style="fill:none;fill-rule:evenodd;stroke:#ff7527;stroke-width:1.05833328;stroke-linecap:butt;stroke-linejoin:miter;stroke-miterlimit:4;stroke-dasharray:none;stroke-opacity:1"
         d="M 109.43162,30.828379 92.517184,68.513393"
         id="path4499" />
      <path
         inkscape:connector-curvature="0"
         style="fill:none;fill-rule:evenodd;stroke:#ffc8a8;stroke-width:1.05833328;stroke-linecap:butt;stroke-linejoin:miter;stroke-miterlimit:4;stroke-dasharray:none;stroke-opacity:1"
         d="m 109.43162,30.828379 16.91443,37.685014"
         id="path4501" />
      <path
         inkscape:connector-curvature="0"
         id="path4503"
         d="M 143.26049,30.828379 126.34605,68.513393"
         style="fill:none;fill-rule:evenodd;stroke:#ffc8a8;stroke-width:1.05833328;stroke-linecap:butt;stroke-linejoin:miter;stroke-miterlimit:4;stroke-dasharray:none;stroke-opacity:1" />
      <path
         inkscape:connector-curvature="0"
         style="fill:none;fill-rule:evenodd;stroke:#ff7527;stroke-width:1.05833328;stroke-linecap:butt;stroke-linejoin:miter;stroke-miterlimit:4;stroke-dasharray:none;stroke-opacity:1;marker-start:url(#Arrow2Sstart)"
         d="m 146.00677,6.122358 -36.46079,24.68791"
         id="path4505" />
      <path
         inkscape:connector-curvature="0"
         id="path4507"
         d="m 179.81637,6.122358 -36.4608,24.68791"
         style="fill:none;fill-rule:evenodd;stroke:#ffc8a8;stroke-width:1.05833328;stroke-linecap:butt;stroke-linejoin:miter;stroke-miterlimit:4;stroke-dasharray:none;stroke-opacity:1;marker-start:url(#marker5346)" />
      <path
         style="fill:none;fill-rule:evenodd;stroke:#ff7527;stroke-width:1.05833328;stroke-linecap:butt;stroke-linejoin:miter;stroke-miterlimit:4;stroke-dasharray:none;stroke-opacity:1;marker-start:url(#marker5942)"
         d="M 104.21444,42.452166 92.517184,68.513393"
         id="path5390"
         inkscape:connector-curvature="0" />
      <path
         id="path5392"
         d="m 137.51301,43.633633 -11.16696,24.87976"
         style="fill:none;fill-rule:evenodd;stroke:#ffc8a8;stroke-width:1.05833328;stroke-linecap:butt;stroke-linejoin:miter;stroke-miterlimit:4;stroke-dasharray:none;stroke-opacity:1;marker-start:url(#marker5988)"
         inkscape:connector-curvature="0" />
      <path
         inkscape:connector-curvature="0"
         style="fill:none;fill-rule:evenodd;stroke:#ff7527;stroke-width:1.13770831;stroke-linecap:butt;stroke-linejoin:miter;stroke-miterlimit:4;stroke-dasharray:none;stroke-opacity:1;marker-end:url(#Arrow2Send)"
         d="M 75.602753,30.828379 84.40284,50.434793"
         id="path4920" />
    </g>
    <path
       id="topLayerBar"
       d="M 33.261905,30.828379 H 190.22612"
       style="fill:none;fill-rule:evenodd;stroke:#000000;stroke-width:0.79374999;stroke-linecap:butt;stroke-linejoin:miter;stroke-miterlimit:4;stroke-dasharray:none;stroke-opacity:0"
       inkscape:connector-curvature="0"
       sodipodi:nodetypes="cc" />
    <text
       xml:space="preserve"
       style="font-size:6.46577454px;fill:#b7b7b7;fill-opacity:1"
       x="156.94174"
       y="52.165302"
       id="text6488"><tspan
         id="tspan6486"
         x="156.94174"
         y="57.885998"
         style="fill:#b7b7b7;fill-opacity:1;stroke-width:0.16164435px" /><tspan
         x="156.94174"
         y="65.968216"
         style="fill:#b7b7b7;fill-opacity:1;stroke-width:0.16164435px"
         id="tspan6490" /></text>
    <path
       style="fill:none;fill-rule:evenodd;stroke:#000000;stroke-width:0.79374999;stroke-linecap:butt;stroke-linejoin:miter;stroke-miterlimit:4;stroke-dasharray:none;stroke-opacity:1"
       d="m 33.261905,68.513382 157.017505,0"
       id="path4489"
       inkscape:connector-curvature="0"
       sodipodi:nodetypes="cc" />
  </g>
</svg>
