<?xml version="1.0" encoding="UTF-8" standalone="no"?>
<svg
   xmlns:dc="http://purl.org/dc/elements/1.1/"
   xmlns:cc="http://creativecommons.org/ns#"
   xmlns:rdf="http://www.w3.org/1999/02/22-rdf-syntax-ns#"
   xmlns:svg="http://www.w3.org/2000/svg"
   xmlns="http://www.w3.org/2000/svg"
   xmlns:sodipodi="http://sodipodi.sourceforge.net/DTD/sodipodi-0.dtd"
   xmlns:inkscape="http://www.inkscape.org/namespaces/inkscape"
   id="svg363"
   width="288pt"
   viewBox="0 0 288 288"
   version="1.1"
   height="288pt"
   sodipodi:docname="microfacets.svg"
   inkscape:version="0.92.5 (2060ec1f9f, 2020-04-08)">
  <sodipodi:namedview
     pagecolor="#ffffff"
     bordercolor="#666666"
     borderopacity="1"
     objecttolerance="10"
     gridtolerance="10"
     guidetolerance="10"
     inkscape:pageopacity="0"
     inkscape:pageshadow="2"
     inkscape:window-width="2560"
     inkscape:window-height="1322"
     id="namedview224"
     showgrid="false"
     inkscape:zoom="0.86915208"
     inkscape:cx="-26.19111"
     inkscape:cy="426.26185"
     inkscape:window-x="0"
     inkscape:window-y="27"
     inkscape:window-maximized="1"
     inkscape:current-layer="g18" />
  <metadata
     id="metadata367">
    <rdf:RDF>
      <cc:Work
         rdf:about="">
        <dc:format>image/svg+xml</dc:format>
        <dc:type
           rdf:resource="http://purl.org/dc/dcmitype/StillImage" />
        <dc:title />
      </cc:Work>
    </rdf:RDF>
  </metadata>
  <defs
     id="defs4">
    <marker
       inkscape:isstock="true"
       style="overflow:visible;"
       id="marker2666"
       refX="0.0"
       refY="0.0"
       orient="auto"
       inkscape:stockid="Arrow2Mend">
      <path
         transform="scale(0.6) rotate(180) translate(0,0)"
         d="M 8.7185878,4.0337352 L -2.2072895,0.016013256 L 8.7185884,-4.0017078 C 6.9730900,-1.6296469 6.9831476,1.6157441 8.7185878,4.0337352 z "
         style="fill-rule:evenodd;stroke-width:0.625;stroke-linejoin:round;stroke:#db0000;stroke-opacity:1;fill:#db0000;fill-opacity:1"
         id="path2664" />
    </marker>
    <marker
       inkscape:stockid="Arrow2Mend"
       orient="auto"
       refY="0.0"
       refX="0.0"
       id="marker2584"
       style="overflow:visible;"
       inkscape:isstock="true"
       inkscape:collect="always">
      <path
         id="path2582"
         style="fill-rule:evenodd;stroke-width:0.625;stroke-linejoin:round;stroke:#0033b3;stroke-opacity:1;fill:#0033b3;fill-opacity:1"
         d="M 8.7185878,4.0337352 L -2.2072895,0.016013256 L 8.7185884,-4.0017078 C 6.9730900,-1.6296469 6.9831476,1.6157441 8.7185878,4.0337352 z "
         transform="scale(0.6) rotate(180) translate(0,0)" />
    </marker>
    <marker
       inkscape:stockid="Arrow2Mend"
       orient="auto"
       refY="0.0"
       refX="0.0"
       id="Arrow2Mend"
       style="overflow:visible;"
       inkscape:isstock="true"
       inkscape:collect="always">
      <path
         id="path1819"
         style="fill-rule:evenodd;stroke-width:0.625;stroke-linejoin:round;stroke:#198019;stroke-opacity:1;fill:#198019;fill-opacity:1"
         d="M 8.7185878,4.0337352 L -2.2072895,0.016013256 L 8.7185884,-4.0017078 C 6.9730900,-1.6296469 6.9831476,1.6157441 8.7185878,4.0337352 z "
         transform="scale(0.6) rotate(180) translate(0,0)" />
    </marker>
    <marker
       inkscape:stockid="Arrow2Lend"
       orient="auto"
       refY="0.0"
       refX="0.0"
       id="Arrow2Lend"
       style="overflow:visible;"
       inkscape:isstock="true">
      <path
         id="path1813"
         style="fill-rule:evenodd;stroke-width:0.625;stroke-linejoin:round;stroke:#198019;stroke-opacity:1;fill:#198019;fill-opacity:1"
         d="M 8.7185878,4.0337352 L -2.2072895,0.016013256 L 8.7185884,-4.0017078 C 6.9730900,-1.6296469 6.9831476,1.6157441 8.7185878,4.0337352 z "
         transform="scale(1.1) rotate(180) translate(1,0)" />
    </marker>
    <marker
       inkscape:stockid="Arrow1Mend"
       orient="auto"
       refY="0.0"
       refX="0.0"
       id="Arrow1Mend"
       style="overflow:visible;"
       inkscape:isstock="true">
      <path
         id="path1801"
         d="M 0.0,0.0 L 5.0,-5.0 L -12.5,0.0 L 5.0,5.0 L 0.0,0.0 z "
         style="fill-rule:evenodd;stroke:#db0000;stroke-width:1pt;stroke-opacity:1;fill:#db0000;fill-opacity:1"
         transform="scale(0.4) rotate(180) translate(10,0)" />
    </marker>
    <marker
       inkscape:stockid="Arrow1Mstart"
       orient="auto"
       refY="0.0"
       refX="0.0"
       id="Arrow1Mstart"
       style="overflow:visible"
       inkscape:isstock="true">
      <path
         id="path1798"
         d="M 0.0,0.0 L 5.0,-5.0 L -12.5,0.0 L 5.0,5.0 L 0.0,0.0 z "
         style="fill-rule:evenodd;stroke:#198019;stroke-width:1pt;stroke-opacity:1;fill:#198019;fill-opacity:1"
         transform="scale(0.4) translate(10,0)" />
    </marker>
    <marker
       inkscape:stockid="Arrow2Mstart"
       orient="auto"
       refY="0.0"
       refX="0.0"
       id="Arrow2Mstart"
       style="overflow:visible"
       inkscape:isstock="true">
      <path
         id="path1816"
         style="fill-rule:evenodd;stroke-width:0.625;stroke-linejoin:round;stroke:#198019;stroke-opacity:1;fill:#198019;fill-opacity:1"
         d="M 8.7185878,4.0337352 L -2.2072895,0.016013256 L 8.7185884,-4.0017078 C 6.9730900,-1.6296469 6.9831476,1.6157441 8.7185878,4.0337352 z "
         transform="scale(0.6) translate(0,0)" />
    </marker>
    <marker
       inkscape:stockid="Arrow1Sstart"
       orient="auto"
       refY="0.0"
       refX="0.0"
       id="Arrow1Sstart"
       style="overflow:visible"
       inkscape:isstock="true">
      <path
         id="path1804"
         d="M 0.0,0.0 L 5.0,-5.0 L -12.5,0.0 L 5.0,5.0 L 0.0,0.0 z "
         style="fill-rule:evenodd;stroke:#198019;stroke-width:1pt;stroke-opacity:1;fill:#198019;fill-opacity:1"
         transform="scale(0.2) translate(6,0)" />
    </marker>
    <style
       id="style2"
       type="text/css">
*{stroke-linecap:butt;stroke-linejoin:round;}
  </style>
    <clipPath
       clipPathUnits="userSpaceOnUse"
       id="clipPath1788">
      <rect
         style="opacity:1;fill:none;fill-opacity:0.13649854;stroke:none;stroke-width:1.27694786;stroke-linecap:round;stroke-linejoin:round;stroke-miterlimit:4;stroke-dasharray:none;stroke-dashoffset:0;stroke-opacity:1;paint-order:normal"
         id="rect1790"
         width="82.49839"
         height="84.074249"
         x="21.494415"
         y="-83.893791"
         transform="scale(1,-1)" />
    </clipPath>
  </defs>
  <g
     style="stroke-linecap:butt;stroke-linejoin:round"
     id="patch_2">
    <path
       inkscape:connector-curvature="0"
       id="path9"
       style="fill:#ffffff;stroke-linecap:butt;stroke-linejoin:round"
       d="M 33.8,261.2 H 276.0722 V 14.3 H 33.8 Z" />
  </g>
  <g
     transform="matrix(2.93669,0,0,-2.93669,-29.322436,260.67005)"
     id="g10"
     style="stroke-linecap:butt;stroke-linejoin:round"
     clip-path="url(#clipPath1788)">
    <g
       transform="translate(62.561,42.719)"
       id="g12"
       style="stroke-linecap:butt;stroke-linejoin:round">
      <g
         id="g14"
         style="stroke-linecap:butt;stroke-linejoin:round">
        <g
           id="g16"
           style="stroke-linecap:butt;stroke-linejoin:round" />
        <g
           id="g18"
           style="stroke-linecap:butt;stroke-linejoin:round">
          <g
             id="g20"
             style="stroke-linecap:butt;stroke-linejoin:round">
            <path
               inkscape:connector-curvature="0"
               id="path22"
               style="fill:#ffffff;fill-opacity:1;fill-rule:nonzero;stroke:#ffffff;stroke-width:0.3985;stroke-linecap:butt;stroke-linejoin:miter;stroke-miterlimit:10;stroke-dasharray:none;stroke-opacity:1"
               d="M -62.36288,-42.5202 V 42.5202 H 62.36288 v -85.0404 z" />
          </g>
          <g
             id="g24"
             style="stroke-linecap:butt;stroke-linejoin:round">
            <path
               inkscape:connector-curvature="0"
               id="path26"
               style="fill:#fafcff;fill-opacity:1;fill-rule:nonzero;stroke:#f0f2fa;stroke-width:0.3985;stroke-linecap:butt;stroke-linejoin:miter;stroke-miterlimit:10;stroke-dasharray:none;stroke-opacity:1"
               d="M 7.59671,28.75647 C 7.90329,29.4767 6.98407,30.55766 5.54356,31.17084 4.10306,31.78403 2.68675,31.69722 2.38019,30.97699 2.07361,30.25674 2.99283,29.1758 4.43333,28.5626 c 1.44051,-0.61318 2.8568,-0.52638 3.16338,0.19387 z" />
          </g>
          <g
             id="g28"
             style="stroke-linecap:butt;stroke-linejoin:round">
            <path
               inkscape:connector-curvature="0"
               id="path30"
               style="fill:#fafcff;fill-opacity:1;fill-rule:nonzero;stroke:#f0f2fa;stroke-width:0.3985;stroke-linecap:butt;stroke-linejoin:miter;stroke-miterlimit:10;stroke-dasharray:none;stroke-opacity:1"
               d="m 49.45935,19.09526 c -0.11548,0.7742 -1.46435,1.21454 -3.01279,0.98354 -1.54843,-0.231 -2.71,-1.0459 -2.59451,-1.8201 0.11548,-0.77422 1.46435,-1.21456 3.01279,-0.98354 1.54843,0.231 2.71,1.04588 2.59451,1.8201 z" />
          </g>
          <g
             id="g32"
             style="stroke-linecap:butt;stroke-linejoin:round">
            <path
               inkscape:connector-curvature="0"
               id="path34"
               style="fill:#fafcff;fill-opacity:1;fill-rule:nonzero;stroke:#f0f2fa;stroke-width:0.3985;stroke-linecap:butt;stroke-linejoin:miter;stroke-miterlimit:10;stroke-dasharray:none;stroke-opacity:1"
               d="m -16.9879,-11.1149 c -0.27878,0.73146 -1.6907,0.87244 -3.15366,0.31488 -1.46293,-0.55757 -2.42288,-1.60252 -2.1441,-2.33398 0.27876,-0.73146 1.69069,-0.87244 3.15364,-0.31488 1.46295,0.55757 2.4229,1.60252 2.14412,2.33398 z" />
          </g>
          <g
             id="g36"
             style="stroke-linecap:butt;stroke-linejoin:round">
            <path
               inkscape:connector-curvature="0"
               id="path38"
               style="fill:#fafcff;fill-opacity:1;fill-rule:nonzero;stroke:#f0f2fa;stroke-width:0.3985;stroke-linecap:butt;stroke-linejoin:miter;stroke-miterlimit:10;stroke-dasharray:none;stroke-opacity:1"
               d="m -31.8566,-32.60214 c 0.17462,0.76306 -0.92096,1.66476 -2.4471,2.01404 -1.52613,0.34925 -2.90487,0.01384 -3.0795,-0.74924 -0.17462,-0.76306 0.92097,-1.66476 2.4471,-2.01402 1.52614,-0.34928 2.90487,-0.01384 3.0795,0.74922 z" />
          </g>
          <g
             id="g40"
             style="stroke-linecap:butt;stroke-linejoin:round">
            <path
               inkscape:connector-curvature="0"
               id="path42"
               style="fill:#fafcff;fill-opacity:1;fill-rule:nonzero;stroke:#f0f2fa;stroke-width:0.3985;stroke-linecap:butt;stroke-linejoin:miter;stroke-miterlimit:10;stroke-dasharray:none;stroke-opacity:1"
               d="m -14.28482,31.74962 c -0.02867,0.78226 -1.32022,1.3699 -2.88477,1.31256 -1.56456,-0.05734 -2.80961,-0.73799 -2.78094,-1.52025 0.02867,-0.78227 1.3202,-1.36992 2.88476,-1.31258 1.56457,0.05735 2.80962,0.738 2.78095,1.52027 z" />
          </g>
          <g
             id="g44"
             style="stroke-linecap:butt;stroke-linejoin:round">
            <path
               inkscape:connector-curvature="0"
               id="path46"
               style="fill:#fafcff;fill-opacity:1;fill-rule:nonzero;stroke:#f0f2fa;stroke-width:0.3985;stroke-linecap:butt;stroke-linejoin:miter;stroke-miterlimit:10;stroke-dasharray:none;stroke-opacity:1"
               d="m 57.44757,30.31982 c -0.43184,0.65288 -1.84044,0.48198 -3.14622,-0.38171 -1.30578,-0.86368 -2.01423,-2.09309 -1.58239,-2.74597 0.43184,-0.65288 1.84044,-0.48198 3.14621,0.3817 1.30579,0.86369 2.01424,2.09311 1.5824,2.74598 z" />
          </g>
          <g
             id="g48"
             style="stroke-linecap:butt;stroke-linejoin:round">
            <path
               inkscape:connector-curvature="0"
               id="path50"
               style="fill:#fafcff;fill-opacity:1;fill-rule:nonzero;stroke:#f0f2fa;stroke-width:0.3985;stroke-linecap:butt;stroke-linejoin:miter;stroke-miterlimit:10;stroke-dasharray:none;stroke-opacity:1"
               d="m 4.10149,-32.39595 c 0.44676,0.64275 -0.2332,1.88815 -1.51874,2.78168 -1.28554,0.89354 -2.68982,1.09681 -3.13658,0.45405 -0.44675,-0.64274 0.2332,-1.88815 1.51872,-2.78169 1.28554,-0.89352 2.68983,-1.0968 3.1366,-0.45404 z" />
          </g>
          <g
             id="g52"
             style="stroke-linecap:butt;stroke-linejoin:round">
            <path
               inkscape:connector-curvature="0"
               id="path54"
               style="fill:#fafcff;fill-opacity:1;fill-rule:nonzero;stroke:#f0f2fa;stroke-width:0.3985;stroke-linecap:butt;stroke-linejoin:miter;stroke-miterlimit:10;stroke-dasharray:none;stroke-opacity:1"
               d="M 32.56093,2.7975 C 32.61566,3.57838 31.394,4.30017 29.8322,4.40965 28.27042,4.51912 26.95998,3.97485 26.90524,3.19397 26.85051,2.4131 28.07217,1.6913 29.63397,1.58183 31.19576,1.47237 32.5062,2.01663 32.56093,2.7975 Z" />
          </g>
          <g
             id="g56"
             style="stroke-linecap:butt;stroke-linejoin:round">
            <path
               inkscape:connector-curvature="0"
               id="path58"
               style="fill:#fafcff;fill-opacity:1;fill-rule:nonzero;stroke:#f0f2fa;stroke-width:0.3985;stroke-linecap:butt;stroke-linejoin:miter;stroke-miterlimit:10;stroke-dasharray:none;stroke-opacity:1"
               d="m -22.93626,-31.63972 c 0.51335,0.59097 -0.02863,1.90237 -1.21059,2.9291 -1.18195,1.02675 -2.55628,1.37999 -3.06963,0.78903 -0.51335,-0.59095 0.02863,-1.90235 1.21059,-2.92911 1.18195,-1.02673 2.55627,-1.37998 3.06963,-0.78902 z" />
          </g>
          <g
             id="g60"
             style="stroke-linecap:butt;stroke-linejoin:round">
            <path
               inkscape:connector-curvature="0"
               id="path62"
               style="fill:#fff5ed;fill-opacity:1;fill-rule:nonzero;stroke:#ffdebf;stroke-width:0.3985;stroke-linecap:butt;stroke-linejoin:miter;stroke-miterlimit:10;stroke-dasharray:none;stroke-opacity:1"
               d="m 50.78795,-30.61278 c 0.19026,1.07913 -0.96777,2.18531 -2.5866,2.47072 -1.6188,0.28542 -3.08532,-0.35799 -3.27558,-1.4371 -0.19028,-1.07914 0.96777,-2.18531 2.58657,-2.47072 1.61882,-0.28542 3.08535,0.35797 3.27561,1.4371 z" />
          </g>
          <g
             id="g64"
             style="stroke-linecap:butt;stroke-linejoin:round">
            <path
               inkscape:connector-curvature="0"
               id="path66"
               style="fill:none;stroke:#c7e0c7;stroke-width:0.3985;stroke-linecap:butt;stroke-linejoin:miter;stroke-miterlimit:10;stroke-dasharray:none;stroke-opacity:1"
               d="m 47.85686,-30.09598 7.13934,2.6043" />
            <g
               transform="matrix(0.94089,0.34322,-0.34322,0.94089,54.9962,-27.49168)"
               id="g68"
               style="stroke-linecap:butt;stroke-linejoin:round">
              <g
                 id="g70"
                 style="stroke-linecap:butt;stroke-linejoin:round">
                <path
                   inkscape:connector-curvature="0"
                   id="path72"
                   style="fill:#c7e0c7;fill-opacity:1;fill-rule:nonzero;stroke:none;stroke-linecap:butt;stroke-linejoin:round"
                   d="M 1.99252,0 -1.19551,1.59401 0,0 -1.19551,-1.59401" />
              </g>
            </g>
          </g>
          <g
             id="g74"
             style="stroke-linecap:butt;stroke-linejoin:round">
            <path
               inkscape:connector-curvature="0"
               id="path76"
               style="fill:none;stroke:#f7bfbf;stroke-width:0.3985;stroke-linecap:butt;stroke-linejoin:miter;stroke-miterlimit:10;stroke-dasharray:none;stroke-opacity:1"
               d="m 47.85686,-30.09598 -5.67723,5.67736" />
            <g
               transform="matrix(-0.70717,0.7071,-0.7071,-0.70717,42.17963,-24.41862)"
               id="g78"
               style="stroke-linecap:butt;stroke-linejoin:round">
              <g
                 id="g80"
                 style="stroke-linecap:butt;stroke-linejoin:round">
                <path
                   inkscape:connector-curvature="0"
                   id="path82"
                   style="fill:#f7bfbf;fill-opacity:1;fill-rule:nonzero;stroke:none;stroke-linecap:butt;stroke-linejoin:round"
                   d="M 1.99252,0 -1.19551,1.59401 0,0 -1.19551,-1.59401" />
              </g>
            </g>
          </g>
          <g
             id="g84"
             style="stroke-linecap:butt;stroke-linejoin:round">
            <path
               inkscape:connector-curvature="0"
               id="path86"
               style="fill:#fff5ed;fill-opacity:1;fill-rule:nonzero;stroke:#ffdebf;stroke-width:0.3985;stroke-linecap:butt;stroke-linejoin:miter;stroke-miterlimit:10;stroke-dasharray:none;stroke-opacity:1"
               d="m -41.10645,25.00291 c 0.19027,1.07914 -0.96777,2.18531 -2.58659,2.47072 -1.6188,0.28542 -3.08533,-0.35797 -3.27559,-1.4371 -0.19027,-1.07913 0.96778,-2.1853 2.58658,-2.47072 1.61882,-0.28541 3.08535,0.35797 3.2756,1.4371 z" />
          </g>
          <g
             id="g98"
             style="stroke-linecap:butt;stroke-linejoin:round">
            <path
               inkscape:connector-curvature="0"
               id="path100"
               style="fill:none;stroke:#f7bfbf;stroke-width:0.3985;stroke-linecap:butt;stroke-linejoin:miter;stroke-miterlimit:10;stroke-dasharray:none;stroke-opacity:1"
               d="m -44.03754,25.51971 -5.67724,5.67737" />
            <g
               transform="matrix(-0.70717,0.7071,-0.7071,-0.70717,-49.71478,31.19708)"
               id="g102"
               style="stroke-linecap:butt;stroke-linejoin:round">
              <g
                 id="g104"
                 style="stroke-linecap:butt;stroke-linejoin:round">
                <path
                   inkscape:connector-curvature="0"
                   id="path106"
                   style="fill:#f7bfbf;fill-opacity:1;fill-rule:nonzero;stroke:none;stroke-linecap:butt;stroke-linejoin:round"
                   d="M 1.99252,0 -1.19551,1.59401 0,0 -1.19551,-1.59401" />
              </g>
            </g>
          </g>
          <g
             id="g108"
             style="stroke-linecap:butt;stroke-linejoin:round">
            <path
               inkscape:connector-curvature="0"
               id="path110"
               style="fill:#fff5ed;fill-opacity:1;fill-rule:nonzero;stroke:#ffdebf;stroke-width:0.3985;stroke-linecap:butt;stroke-linejoin:miter;stroke-miterlimit:10;stroke-dasharray:none;stroke-opacity:1"
               d="m 0.0253,29.77382 c 0.19028,1.07912 -0.96776,2.18528 -2.58656,2.4707 -1.61882,0.28543 -3.08534,-0.35797 -3.27561,-1.4371 -0.19026,-1.07912 0.96777,-2.18529 2.5866,-2.4707 1.6188,-0.28544 3.08532,0.35797 3.27557,1.4371 z" />
          </g>
          <g
             id="g132"
             style="stroke-linecap:butt;stroke-linejoin:round">
            <path
               inkscape:connector-curvature="0"
               id="path134"
               style="fill:#fff5ed;fill-opacity:1;fill-rule:nonzero;stroke:#ffdebf;stroke-width:0.3985;stroke-linecap:butt;stroke-linejoin:miter;stroke-miterlimit:10;stroke-dasharray:none;stroke-opacity:1"
               d="m 49.23341,22.80562 c 0.19027,1.07913 -0.96777,2.1853 -2.58659,2.47072 -1.6188,0.28541 -3.08532,-0.35797 -3.2756,-1.43711 -0.19027,-1.07913 0.96777,-2.1853 2.58659,-2.47071 1.6188,-0.28542 3.08533,0.35797 3.2756,1.4371 z" />
          </g>
          <g
             id="g136"
             style="stroke-linecap:butt;stroke-linejoin:round">
            <path
               inkscape:connector-curvature="0"
               id="path138"
               style="fill:none;stroke:#c7e0c7;stroke-width:0.3985;stroke-linecap:butt;stroke-linejoin:miter;stroke-miterlimit:10;stroke-dasharray:none;stroke-opacity:1"
               d="m 46.30232,23.32243 7.13935,2.6043" />
            <g
               transform="matrix(0.94089,0.34322,-0.34322,0.94089,53.44167,25.92673)"
               id="g140"
               style="stroke-linecap:butt;stroke-linejoin:round">
              <g
                 id="g142"
                 style="stroke-linecap:butt;stroke-linejoin:round">
                <path
                   inkscape:connector-curvature="0"
                   id="path144"
                   style="fill:#c7e0c7;fill-opacity:1;fill-rule:nonzero;stroke:none;stroke-linecap:butt;stroke-linejoin:round"
                   d="M 1.99252,0 -1.19551,1.59401 0,0 -1.19551,-1.59401" />
              </g>
            </g>
          </g>
          <g
             id="g156"
             style="stroke-linecap:butt;stroke-linejoin:round">
            <path
               inkscape:connector-curvature="0"
               id="path158"
               style="fill:#fafcff;fill-opacity:1;fill-rule:nonzero;stroke:#f0f2fa;stroke-width:0.3985;stroke-linecap:butt;stroke-linejoin:miter;stroke-miterlimit:10;stroke-dasharray:none;stroke-opacity:1"
               d="m -6.14273,27.79243 c -0.55354,0.55353 -1.89972,0.10482 -3.00681,-1.00227 -1.10708,-1.10709 -1.5558,-2.45326 -1.00226,-3.00679 0.55353,-0.55354 1.89972,-0.10483 3.0068,1.00226 1.10708,1.10709 1.5558,2.45326 1.00227,3.0068 z" />
          </g>
          <g
             id="g160"
             style="stroke-linecap:butt;stroke-linejoin:round">
            <path
               inkscape:connector-curvature="0"
               id="path162"
               style="fill:#fafcff;fill-opacity:1;fill-rule:nonzero;stroke:#f0f2fa;stroke-width:0.3985;stroke-linecap:butt;stroke-linejoin:miter;stroke-miterlimit:10;stroke-dasharray:none;stroke-opacity:1"
               d="m -16.40082,26.69205 c -0.55353,0.55354 -1.8997,0.10483 -3.00679,-1.00226 -1.10709,-1.10709 -1.5558,-2.45326 -1.00227,-3.00681 0.55354,-0.55352 1.89972,-0.10481 3.0068,1.00228 1.10709,1.10708 1.55581,2.45326 1.00226,3.00679 z" />
          </g>
          <g
             id="g164"
             style="stroke-linecap:butt;stroke-linejoin:round">
            <path
               inkscape:connector-curvature="0"
               id="path166"
               style="fill:#fafcff;fill-opacity:1;fill-rule:nonzero;stroke:#f0f2fa;stroke-width:0.3985;stroke-linecap:butt;stroke-linejoin:miter;stroke-miterlimit:10;stroke-dasharray:none;stroke-opacity:1"
               d="m 16.1658,-31.26411 c -0.55353,0.55354 -1.8997,0.10482 -3.00679,-1.00226 -1.10708,-1.10709 -1.5558,-2.45327 -1.00227,-3.00681 0.55354,-0.55352 1.89972,-0.10481 3.0068,1.00228 1.10709,1.10708 1.55581,2.45326 1.00226,3.00679 z" />
          </g>
          <g
             id="g168"
             style="stroke-linecap:butt;stroke-linejoin:round">
            <path
               inkscape:connector-curvature="0"
               id="path170"
               style="fill:#fafcff;fill-opacity:1;fill-rule:nonzero;stroke:#f0f2fa;stroke-width:0.3985;stroke-linecap:butt;stroke-linejoin:miter;stroke-miterlimit:10;stroke-dasharray:none;stroke-opacity:1"
               d="m -15.11877,-7.31015 c -0.55353,0.55353 -1.89971,0.10481 -3.00679,-1.00227 -1.10709,-1.10709 -1.55581,-2.45327 -1.00228,-3.00679 0.55354,-0.55355 1.89972,-0.10483 3.00681,1.00225 1.10708,1.10709 1.5558,2.45326 1.00226,3.00681 z" />
          </g>
          <g
             id="g172"
             style="stroke-linecap:butt;stroke-linejoin:round">
            <path
               inkscape:connector-curvature="0"
               id="path174"
               style="fill:#f0f2fa;fill-opacity:1;fill-rule:nonzero;stroke:#bfcced;stroke-width:0.3985;stroke-linecap:butt;stroke-linejoin:miter;stroke-miterlimit:10;stroke-dasharray:none;stroke-opacity:1"
               d="m 32.35558,32.35558 c -1.10709,1.10708 -3.79931,0.20976 -6.01331,-2.00425 -2.214,-2.214 -3.11133,-4.90622 -2.00424,-6.0133 1.10708,-1.10709 3.7993,-0.20976 6.0133,2.00424 2.21401,2.214 3.11133,4.90622 2.00425,6.01331 z" />
          </g>
          <g
             id="g176"
             style="stroke-linecap:butt;stroke-linejoin:round">
            <path
               inkscape:connector-curvature="0"
               id="path178"
               style="fill:#f0f2fa;fill-opacity:1;fill-rule:nonzero;stroke:#bfcced;stroke-width:0.3985;stroke-linecap:butt;stroke-linejoin:miter;stroke-miterlimit:10;stroke-dasharray:none;stroke-opacity:1"
               d="m -43.69412,10.16461 c -1.10709,1.10709 -0.20976,3.79932 2.00424,6.01331 2.214,2.214 4.90622,3.11133 6.01331,2.00424 1.10708,-1.10707 0.20976,-3.7993 -2.00425,-6.01331 -2.214,-2.214 -4.90622,-3.11132 -6.0133,-2.00424 z" />
          </g>
          <g
             id="g180"
             style="stroke-linecap:butt;stroke-linejoin:round">
            <path
               inkscape:connector-curvature="0"
               id="path182"
               style="fill:#f0f2fa;fill-opacity:1;fill-rule:nonzero;stroke:#bfcced;stroke-width:0.3985;stroke-linecap:butt;stroke-linejoin:miter;stroke-miterlimit:10;stroke-dasharray:none;stroke-opacity:1"
               d="m 15.8339,-23.85144 c -1.1071,1.10709 -0.20977,3.79932 2.00423,6.01331 2.21399,2.214 4.90622,3.11133 6.01331,2.00423 1.10709,-1.10706 0.20976,-3.7993 -2.00424,-6.0133 -2.214,-2.214 -4.90624,-3.11133 -6.0133,-2.00424 z" />
          </g>
          <g
             id="g184"
             style="stroke-linecap:butt;stroke-linejoin:round">
            <path
               inkscape:connector-curvature="0"
               id="path186"
               style="fill:#f0f2fa;fill-opacity:1;fill-rule:nonzero;stroke:#bfcced;stroke-width:0.3985;stroke-linecap:butt;stroke-linejoin:miter;stroke-miterlimit:10;stroke-dasharray:none;stroke-opacity:1"
               d="m -33.8922,4.49054 c -0.32551,1.53145 1.89331,3.30063 4.95598,3.95163 3.06267,0.65098 5.8093,-0.06273 6.13482,-1.59418 0.32551,-1.53145 -1.89332,-3.30063 -4.95599,-3.95163 -3.06266,-0.65098 -5.80929,0.06273 -6.13481,1.59418 z" />
          </g>
          <g
             id="g188"
             style="stroke-linecap:butt;stroke-linejoin:round">
            <path
               inkscape:connector-curvature="0"
               id="path190"
               style="fill:#f0f2fa;fill-opacity:1;fill-rule:nonzero;stroke:#bfcced;stroke-width:0.3985;stroke-linecap:butt;stroke-linejoin:miter;stroke-miterlimit:10;stroke-dasharray:none;stroke-opacity:1"
               d="m -53.48218,-17.81097 c 0.56108,1.46165 3.38552,1.73692 6.30863,0.61485 2.92311,-1.12207 4.83785,-3.21657 4.27678,-4.67822 -0.56107,-1.46166 -3.3855,-1.73694 -6.30863,-0.61487 -2.92311,1.12208 -4.83786,3.21658 -4.27678,4.67824 z" />
          </g>
          <g
             id="g192"
             style="stroke-linecap:butt;stroke-linejoin:round">
            <path
               inkscape:connector-curvature="0"
               id="path194"
               style="fill:#f0f2fa;fill-opacity:1;fill-rule:nonzero;stroke:#bfcced;stroke-width:0.3985;stroke-linecap:butt;stroke-linejoin:miter;stroke-miterlimit:10;stroke-dasharray:none;stroke-opacity:1"
               d="m 42.62436,13.09163 c -0.29874,1.53689 1.95065,3.26709 5.0242,3.86453 3.07354,0.59743 5.8073,-0.16412 6.10602,-1.70102 0.29873,-1.53688 -1.95064,-3.26709 -5.02418,-3.86451 -3.07355,-0.59745 -5.8073,0.16412 -6.10604,1.701 z" />
          </g>
          <g
             id="g196"
             style="stroke-linecap:butt;stroke-linejoin:round">
            <path
               inkscape:connector-curvature="0"
               id="path198"
               style="fill:#ffdebf;fill-opacity:1;fill-rule:nonzero;stroke:#ff8000;stroke-width:0.3985;stroke-linecap:butt;stroke-linejoin:miter;stroke-miterlimit:10;stroke-dasharray:none;stroke-opacity:1"
               d="m 8.37498,-1.47668 c 0.54369,3.08352 -2.76512,6.2443 -7.39056,7.05986 -4.62541,0.81555 -8.81573,-1.02295 -9.3594,-4.1065 -0.54369,-3.08352 2.76512,-6.2443 7.39056,-7.05986 4.62541,-0.81555 8.81573,1.02295 9.3594,4.1065 z" />
          </g>
          <g
             id="g204"
             style="stroke-linecap:butt;stroke-linejoin:round">
            <path
               inkscape:connector-curvature="0"
               id="path206"
               style="fill:#ffdebf;fill-opacity:1;fill-rule:nonzero;stroke:#ff8000;stroke-width:0.3985;stroke-linecap:butt;stroke-linejoin:miter;stroke-miterlimit:10;stroke-dasharray:none;stroke-opacity:1"
               d="m -13.98047,-26.54556 c 0.38054,2.15825 -1.93552,4.3706 -5.17317,4.94146 -3.23764,0.57085 -6.17069,-0.71595 -6.55122,-2.8742 -0.38054,-2.15827 1.93553,-4.37062 5.17316,-4.94147 3.23765,-0.57085 6.1707,0.71594 6.55123,2.87421 z" />
          </g>
          <g
             id="g208"
             style="stroke-linecap:butt;stroke-linejoin:round">
            <path
               inkscape:connector-curvature="0"
               id="path210"
               style="fill:#ffdebf;fill-opacity:1;fill-rule:nonzero;stroke:#ff8000;stroke-width:0.3985;stroke-linecap:butt;stroke-linejoin:miter;stroke-miterlimit:10;stroke-dasharray:none;stroke-opacity:1"
               d="m 39.87828,-15.20702 c 0.38054,2.15825 -1.93553,4.37061 -5.17317,4.94147 -3.23764,0.57085 -6.1707,-0.71595 -6.55124,-2.87421 -0.38054,-2.15826 1.93553,-4.37062 5.17317,-4.94146 3.23764,-0.57085 6.1707,0.71594 6.55124,2.8742 z" />
          </g>
          <g
             id="g212"
             style="stroke-linecap:butt;stroke-linejoin:round">
            <path
               inkscape:connector-curvature="0"
               id="path214"
               style="fill:none;stroke:#198019;stroke-width:0.3985;stroke-linecap:round;stroke-linejoin:miter;stroke-miterlimit:10;stroke-dasharray:none;stroke-opacity:1;marker-end:url(#Arrow2Mend)"
               d="M 0,0 27.42105,10.00244" />
          </g>
          <g
             id="g222"
             style="stroke-linecap:butt;stroke-linejoin:round">
            <path
               inkscape:connector-curvature="0"
               id="path224"
               style="fill:none;stroke:#db0000;stroke-width:0.3985;stroke-linecap:round;stroke-linejoin:miter;stroke-miterlimit:10;stroke-dasharray:none;stroke-opacity:1;marker-end:url(#marker2666)"
               d="M 0,0 -19.572403,19.572485 -21.62233,21.62242"
               sodipodi:nodetypes="ccc" />
          </g>
          <g
             id="g272"
             style="stroke-linecap:butt;stroke-linejoin:round">
            <path
               inkscape:connector-curvature="0"
               id="path274"
               style="fill:#0033b3;fill-opacity:0.25;fill-rule:nonzero;stroke:none;stroke-linecap:butt;stroke-linejoin:round"
               d="M 0.7539,3.76999 4.15538,1.64406 3.40146,-2.12592 0,0" />
          </g>
          <g
             id="g276"
             style="stroke-linecap:butt;stroke-linejoin:round">
            <path
               inkscape:connector-curvature="0"
               id="path278"
               style="fill:none;stroke:#0033b3;stroke-width:0.3985;stroke-linecap:butt;stroke-linejoin:miter;stroke-miterlimit:10;stroke-dasharray:none;stroke-opacity:1"
               d="M 0.7539,3.76999 4.15538,1.64406 3.40146,-2.12592" />
          </g>
          <g
             id="g280"
             style="stroke-linecap:butt;stroke-linejoin:round">
            <path
               inkscape:connector-curvature="0"
               id="path282"
               style="fill:none;stroke:#0033b3;stroke-width:0.3985;stroke-linecap:round;stroke-linejoin:miter;stroke-miterlimit:10;stroke-dasharray:none;stroke-opacity:1;marker-end:url(#marker2584)"
               d="M 0,0 3.57669,17.88516" />
            <g
               transform="matrix(0.19644,0.98242,-0.98242,0.19644,3.57668,17.88516)"
               id="g284"
               style="stroke-linecap:butt;stroke-linejoin:round">
              <g
                 id="g286"
                 style="stroke-linecap:butt;stroke-linejoin:round" />
            </g>
          </g>
          <g
             id="g290"
             style="stroke-linecap:butt;stroke-linejoin:round">
            <path
               inkscape:connector-curvature="0"
               id="path292"
               style="fill:none;stroke:#000000;stroke-width:0.24907;stroke-linecap:butt;stroke-linejoin:miter;stroke-miterlimit:10;stroke-dasharray:none;stroke-opacity:1"
               d="M 12.29964,4.58618 11.86234,5.47852 11.35022,6.33624 10.76498,7.1533 10.11142,7.92451 9.39297,8.64511 8.61398,9.31079 7.78091,9.91635 6.89723,10.45831 5.9703,10.93411 5.00488,11.33896 4.00658,11.67245 2.9832,11.9307 1.94078,12.11235 0.88625,12.21701 -0.17256,12.24297 -1.23186,12.19151 -2.28336,12.06216 -3.32014,11.85411 -4.33618,11.5721 -5.3241,11.2144 -6.27785,10.78575 -7.19179,10.2879 -8.05904,9.7243 -8.8761,9.09929" />
          </g>
          <g
             id="g294"
             style="stroke-linecap:butt;stroke-linejoin:round">
            <path
               inkscape:connector-curvature="0"
               id="path296"
               style="fill:none;stroke:#000000;stroke-width:0.24907;stroke-linecap:butt;stroke-linejoin:miter;stroke-miterlimit:10;stroke-dasharray:none;stroke-opacity:1"
               d="m -2.48016,9.92111 -1.06317,4.25228" />
          </g>
          <g
             id="g298"
             style="stroke-linecap:butt;stroke-linejoin:round">
            <path
               inkscape:connector-curvature="0"
               id="path300-3"
               style="fill:none;stroke:#000000;stroke-width:0.24907;stroke-linecap:butt;stroke-linejoin:miter;stroke-miterlimit:10;stroke-dasharray:none;stroke-opacity:1"
               d="m 5.97809,8.07893 2.45509,3.96854" />
          </g>
        </g>
      </g>
    </g>
  </g>
  <g
     style="stroke-linecap:butt;stroke-linejoin:round"
     id="patch_3">
    <path
       inkscape:connector-curvature="0"
       id="path294"
       style="fill:none;stroke:#000000;stroke-width:0.69999999;stroke-linecap:square;stroke-linejoin:miter"
       d="M 33.8,261.2 V 14.3" />
  </g>
  <g
     style="stroke-linecap:butt;stroke-linejoin:round"
     id="patch_4">
    <path
       inkscape:connector-curvature="0"
       id="path297"
       style="fill:none;stroke:#000000;stroke-width:0.69999999;stroke-linecap:square;stroke-linejoin:miter"
       d="M 276.0722,261.2 V 14.3" />
  </g>
  <g
     style="stroke-linecap:butt;stroke-linejoin:round"
     id="patch_5">
    <path
       inkscape:connector-curvature="0"
       id="path300"
       style="fill:none;stroke:#000000;stroke-width:0.69999999;stroke-linecap:square;stroke-linejoin:miter"
       d="M 33.8,261.2 H 276.0722" />
  </g>
  <g
     style="stroke-linecap:butt;stroke-linejoin:round"
     id="patch_6">
    <path
       inkscape:connector-curvature="0"
       id="path303"
       style="fill:none;stroke:#000000;stroke-width:0.69999999;stroke-linecap:square;stroke-linejoin:miter"
       d="M 33.8,14.3 H 276.0722" />
  </g>
  <defs
     id="defs361">
    <clipPath
       id="p5bebfc9a9f">
      <rect
         id="rect358"
         y="14.3"
         x="33.8"
         width="242.2722"
         height="246.9" />
    </clipPath>
  </defs>
</svg>
