<?xml version="1.0" encoding="UTF-8" standalone="no"?>
<svg
   xmlns:dc="http://purl.org/dc/elements/1.1/"
   xmlns:cc="http://creativecommons.org/ns#"
   xmlns:rdf="http://www.w3.org/1999/02/22-rdf-syntax-ns#"
   xmlns:svg="http://www.w3.org/2000/svg"
   xmlns="http://www.w3.org/2000/svg"
   xmlns:xlink="http://www.w3.org/1999/xlink"
   version="1.1"
   viewBox="0 0 338 267"
   id="svg7173">
  <defs
     id="defs7175">
    <linearGradient
       id="linearGradient4717">
      <stop
         offset="0"
         style="stop-color:#dfe0db"
         id="stop4719" />
      <stop
         offset=".49415"
         style="stop-color:#787976"
         id="stop4725" />
      <stop
         offset=".60805"
         style="stop-color:#81817e"
         id="stop4727" />
      <stop
         offset="1"
         style="stop-color:#8a8a87"
         id="stop4721" />
    </linearGradient>
    <clipPath
       clipPathUnits="userSpaceOnUse"
       id="clipPath4834">
      <path
         d="m309.12 87.98-23.852-5.6221s-14.738 22.054-20.585 33.916c-2.9592 6.0026-6.1776 12.112-7.2702 18.715-0.89361 5.3999-0.48164 11.06 0.6982 16.405 1.2912 5.8489 2.3253 8.9411 6.865 16.606 2.6858 4.5349 10.643 11.693 10.643 11.693l-2.0928-35.262c-5.499-0.97776-4.8527-8.6815-2.8934-11.636l11.479-17.31c1.6564-2.4977 8.7188-3.4552 12.352-0.79614 3.6333 2.659 4.9655 8.5146 3.5422 12.606-1.4232 4.0915-8.9579 7.0185-8.9579 7.0185s1.4462 3.4093 7.5451 2.2673c5.7178-1.0707 9.7118-4.7838 12.302-11.233 0.92284-2.2978 1.9307-4.6288 2.225-7.0874 1.2022-10.044-1.9996-30.281-1.9996-30.281z"
         style="stroke:#000000;stroke-width:.1;fill:none"
         id="path4836" />
    </clipPath>
    <filter
       x="-.11238"
       y="-.083788"
       color-interpolation-filters="sRGB"
       width="1.2248"
       height="1.1676"
       id="filter4838">
      <feGaussianBlur
         stdDeviation="0.85637256"
         id="feGaussianBlur4840" />
    </filter>
    <filter
       x="-.16966"
       y="-.055818"
       color-interpolation-filters="sRGB"
       width="1.3393"
       height="1.1116"
       id="filter4842">
      <feGaussianBlur
         stdDeviation="1.4232833"
         id="feGaussianBlur4844" />
    </filter>
    <linearGradient
       id="linearGradient5625">
      <stop
         offset="0"
         style="stop-color:#dfe0db"
         id="stop5627" />
      <stop
         offset=".49415"
         style="stop-color:#787976"
         id="stop5629" />
      <stop
         offset=".60805"
         style="stop-color:#81817e"
         id="stop5631" />
      <stop
         offset="1"
         style="stop-color:#8a8a87;stop-opacity:.604"
         id="stop5633" />
    </linearGradient>
    <clipPath
       clipPathUnits="userSpaceOnUse"
       id="clipPath4611">
      <path
         style="stroke:#000000;stroke-width:.1;fill:none"
         d="m452.88-150.77 2.6722-114.7 5.7555-10.072h1.4389l6.1666 10.894v113.26z"
         id="path4613" />
    </clipPath>
    <filter
       x="-.15808"
       y="-.020313"
       color-interpolation-filters="sRGB"
       width="1.3162"
       height="1.0406"
       id="filter4603">
      <feGaussianBlur
         stdDeviation="1.0560352"
         id="feGaussianBlur4605" />
    </filter>
    <filter
       x="-.17018"
       y="-.020129"
       color-interpolation-filters="sRGB"
       width="1.3404"
       height="1.0403"
       id="filter4619">
      <feGaussianBlur
         stdDeviation="0.2267442"
         id="feGaussianBlur4621" />
    </filter>
    <filter
       x="-.15218"
       y="-.020415"
       color-interpolation-filters="sRGB"
       width="1.3044"
       height="1.0408"
       id="filter4633">
      <feGaussianBlur
         stdDeviation="0.20276152"
         id="feGaussianBlur4635" />
    </filter>
    <clipPath
       clipPathUnits="userSpaceOnUse"
       id="clipPath4688">
      <path
         d="m445.16-168.31s13.67-7.5451 17.162-11.321c3.492-3.7757 29.974-33.402 36.377-41.535 6.4031-8.1334 19.5-24.109 25.318-28.464 5.8181-4.3549 16.581-11.903 16.581-11.903s-7.8652 17.144-17.471 30.216c-9.6055 13.072-34.925 42.699-40.164 49.38-5.2389 6.681-17.173 22.658-17.173 22.658z"
         style="stroke:#3d3d3d;stroke-width:.1;fill:none"
         id="path4690" />
    </clipPath>
    <filter
       color-interpolation-filters="sRGB"
       id="filter4684">
      <feGaussianBlur
         stdDeviation="1.4826909"
         id="feGaussianBlur4686" />
    </filter>
    <filter
       x="-.25029"
       y="-.034086"
       color-interpolation-filters="sRGB"
       width="1.5006"
       height="1.0682"
       id="filter5285">
      <feGaussianBlur
         stdDeviation="0.37513656"
         id="feGaussianBlur5287" />
    </filter>
    <linearGradient
       id="linearGradient5275">
      <stop
         offset="0"
         style="stop-color:#2c2c2c"
         id="stop5277" />
      <stop
         offset="1"
         style="stop-color:#2c2c2c;stop-opacity:0"
         id="stop5279" />
    </linearGradient>
    <clipPath
       clipPathUnits="userSpaceOnUse"
       id="clipPath5373">
      <path
         style="opacity:.60153;stroke:#1f1f1f;stroke-width:.1;fill:none"
         d="m147.69-160.65c1.3741 0.27481 4.7696-9.625 27.085-17.953 25.514-9.5214 51.404-7.6287 74.659-8.2101 23.256-0.5814 33.14-0.5814 50.581-1.1628 17.442-0.5814 41.837-2.1909 41.837-2.1909l-2.302 30.098-41.743 3.194s0.18793-2.4423-4.4632-2.4423c-4.6512 0-4.8567 1.9145-4.8567 1.9145s-13.323 1.1261-31.495 3.7292c-8.5678 1.2273-28.817 4.5806-50.851 4.8214-16.288 0.17802-26.914 0.34058-39.705-4.892s-18.746-6.9062-18.746-6.9062z"
         id="path5375" />
    </clipPath>
    <filter
       color-interpolation-filters="sRGB"
       id="filter5359">
      <feGaussianBlur
         stdDeviation="1.1777015"
         id="feGaussianBlur5361" />
    </filter>
    <filter
       x="-.072127"
       y="-.35685"
       color-interpolation-filters="sRGB"
       width="1.1443"
       height="1.7137"
       id="filter4150">
      <feGaussianBlur
         stdDeviation="0.56316498"
         id="feGaussianBlur4152" />
    </filter>
    <filter
       color-interpolation-filters="sRGB"
       id="filter5719">
      <feGaussianBlur
         stdDeviation="3.205601"
         id="feGaussianBlur5721" />
    </filter>
    <linearGradient
       id="linearGradient3905">
      <stop
         offset="0"
         style="stop-color:#ffffff"
         id="stop3907" />
      <stop
         offset="1"
         style="stop-color:#ffffff;stop-opacity:0"
         id="stop3909" />
    </linearGradient>
    <filter
       x="-.020592"
       y="-.14299"
       color-interpolation-filters="sRGB"
       width="1.0412"
       height="1.286"
       id="filter3913">
      <feGaussianBlur
         stdDeviation="0.3821076"
         id="feGaussianBlur3915" />
    </filter>
    <filter
       x="-.012045"
       y="-3.21"
       color-interpolation-filters="sRGB"
       width="1.0241"
       height="7.4199"
       id="filter3923">
      <feGaussianBlur
         stdDeviation="0.7776163"
         id="feGaussianBlur3925" />
    </filter>
    <filter
       color-interpolation-filters="sRGB"
       id="filter3979">
      <feGaussianBlur
         stdDeviation="0.37963568"
         id="feGaussianBlur3981" />
    </filter>
    <filter
       color-interpolation-filters="sRGB"
       id="filter8490">
      <feGaussianBlur
         stdDeviation="0.52629456"
         id="feGaussianBlur8492" />
    </filter>
    <linearGradient
       x1="284.13"
       y1="-59.311"
       gradientTransform="rotate(-1.1450181,392.34626,2587.723)"
       x2="313.06"
       gradientUnits="userSpaceOnUse"
       xlink:href="#linearGradient4717"
       y2="4.9333"
       id="linearGradient8618" />
    <radialGradient
       r="2.5538"
       gradientTransform="matrix(0.99236,-0.12341,2.7888,22.424,111.49,871.3)"
       cx="229.37"
       cy="-39.348"
       gradientUnits="userSpaceOnUse"
       id="radialGradient8620">
      <stop
         offset="0"
         style="stop-color:#292a24"
         id="stop4737" />
      <stop
         offset="1"
         style="stop-color:#292a24;stop-opacity:0"
         id="stop4739" />
    </radialGradient>
    <linearGradient
       x1="1221.4"
       y1="629.02"
       gradientTransform="matrix(0.48302,-0.07789,0.07789,0.48302,-490.938,642.68)"
       x2="1277.1"
       gradientUnits="userSpaceOnUse"
       xlink:href="#linearGradient4717"
       y2="629.02"
       id="linearGradient8622" />
    <linearGradient
       x1="1267.6"
       y1="511.85"
       x2="1268.1"
       gradientUnits="userSpaceOnUse"
       xlink:href="#linearGradient5625"
       y2="682.36"
       id="linearGradient8624" />
    <linearGradient
       x1="378.54"
       y1="-160.54"
       gradientTransform="translate(66.382,-76.425)"
       x2="395.58"
       gradientUnits="userSpaceOnUse"
       y2="-160.54"
       id="linearGradient8628">
      <stop
         offset="0"
         style="stop-color:#2b2b29"
         id="stop4567" />
      <stop
         offset=".074279"
         style="stop-color:#393b3a"
         id="stop4581" />
      <stop
         offset=".17933"
         style="stop-color:#5f6160"
         id="stop4579" />
      <stop
         offset=".28942"
         style="stop-color:#f3f5f4"
         id="stop4577" />
      <stop
         offset=".57885"
         style="stop-color:#dde3e3"
         id="stop4575" />
      <stop
         offset=".69615"
         style="stop-color:#585d60"
         id="stop4573" />
      <stop
         offset=".88462"
         style="stop-color:#a8b0b2"
         id="stop4571" />
      <stop
         offset="1"
         style="stop-color:#6c7477"
         id="stop4569" />
    </linearGradient>
    <radialGradient
       r="2.643"
       gradientTransform="matrix(1.2552,-0.14751,0.70939,6.036,48.533,1104.3)"
       cx="390.26"
       cy="-207.77"
       gradientUnits="userSpaceOnUse"
       id="radialGradient8630">
      <stop
         offset="0"
         style="stop-color:#3d3d3d"
         id="stop4639" />
      <stop
         offset="1"
         style="stop-color:#3d3d3d;stop-opacity:0"
         id="stop4641" />
    </radialGradient>
    <radialGradient
       r="3.3762"
       gradientTransform="matrix(0.99912,0.041855,-0.25831,6.1662,-53.396,1059.7)"
       cx="386.63"
       cy="-208.02"
       gradientUnits="userSpaceOnUse"
       id="radialGradient8632">
      <stop
         offset="0"
         style="stop-color:#676767"
         id="stop4647" />
      <stop
         offset="1"
         style="stop-color:#676767;stop-opacity:0"
         id="stop4649" />
    </radialGradient>
    <linearGradient
       x1="402.33"
       y1="-140.99"
       gradientTransform="translate(18.605,2.3256)"
       x2="409.3"
       gradientUnits="userSpaceOnUse"
       y2="-134.88"
       id="linearGradient8634">
      <stop
         offset="0"
         style="stop-color:#ebebeb"
         id="stop4535" />
      <stop
         offset="1"
         style="stop-color:#b2b2b2"
         id="stop4537" />
    </linearGradient>
    <radialGradient
       r="12.044"
       gradientTransform="matrix(0.29896,0.24955,-1.4016,1.679,75.554,3.8169)"
       cx="448.67"
       cy="-170.51"
       gradientUnits="userSpaceOnUse"
       id="radialGradient8636">
      <stop
         offset="0"
         style="stop-color:#2b2b29"
         id="stop4745" />
      <stop
         offset="1"
         style="stop-color:#2b2b29;stop-opacity:0"
         id="stop4747" />
    </radialGradient>
    <linearGradient
       x1="1401.3"
       y1="838.13"
       gradientTransform="matrix(0.48302,-0.07789,0.07789,0.48302,-490.938,642.68)"
       x2="1414.6"
       gradientUnits="userSpaceOnUse"
       xlink:href="#linearGradient4717"
       y2="806.52"
       id="linearGradient8638" />
    <linearGradient
       x1="113.61"
       y1="-89.401"
       x2="270.36"
       gradientUnits="userSpaceOnUse"
       xlink:href="#linearGradient4717"
       y2="-81.178"
       id="linearGradient8640" />
    <radialGradient
       r="19.117"
       gradientTransform="matrix(-1.9166,0.23652,-0.021832,-0.17691,473.81,-157.82)"
       cx="163.21"
       cy="-101.3"
       gradientUnits="userSpaceOnUse"
       xlink:href="#linearGradient5275"
       id="radialGradient8642" />
    <radialGradient
       r="100.91"
       gradientTransform="matrix(1.056,-0.10851,0.031133,0.30297,-9.576,-99.122)"
       cx="220.1"
       cy="-88.253"
       gradientUnits="userSpaceOnUse"
       id="radialGradient8644">
      <stop
         offset="0"
         style="stop-color:#d9d9d9"
         id="stop5347" />
      <stop
         offset="1"
         style="stop-color:#d9d9d9;stop-opacity:0"
         id="stop5349" />
    </radialGradient>
    <linearGradient
       x1="509.22"
       y1="-94.138"
       x2="602.24"
       gradientUnits="userSpaceOnUse"
       y2="-95.93"
       id="linearGradient8646">
      <stop
         offset="0"
         style="stop-color:#d8d8d4"
         id="stop5559" />
      <stop
         offset=".32364"
         style="stop-color:#d9dad5"
         id="stop5569" />
      <stop
         offset=".64729"
         style="stop-color:#c0c1bc"
         id="stop5567" />
      <stop
         offset=".73216"
         style="stop-color:#787976"
         id="stop5561" />
      <stop
         offset=".91443"
         style="stop-color:#81817e"
         id="stop5563" />
      <stop
         offset="1"
         style="stop-color:#8a8a87"
         id="stop5565" />
    </linearGradient>
    <radialGradient
       r="17.113"
       gradientTransform="matrix(0.92336,-0.41186,0.35677,0.79984,64.973,199.26)"
       cx="526.36"
       cy="-69.049"
       gradientUnits="userSpaceOnUse"
       id="radialGradient8648">
      <stop
         offset="0"
         style="stop-color:#000000"
         id="stop4159" />
      <stop
         offset="1"
         style="stop-color:#000000;stop-opacity:0"
         id="stop4161" />
    </radialGradient>
    <linearGradient
       x1="933.84"
       y1="574.78"
       x2="989.59"
       gradientUnits="userSpaceOnUse"
       xlink:href="#linearGradient4717"
       y2="772.8"
       id="linearGradient8650" />
    <radialGradient
       r="19.117"
       gradientTransform="matrix(0.21974,-3.1429,-0.29011,-0.020283,882.19,1139.1)"
       cx="163.21"
       cy="-101.3"
       gradientUnits="userSpaceOnUse"
       xlink:href="#linearGradient5275"
       id="radialGradient8652" />
    <radialGradient
       r="67.27"
       gradientTransform="matrix(0.48302,-0.07789,0.08783,0.54466,-498.048,598.587)"
       cx="1410.3"
       cy="715.25"
       gradientUnits="userSpaceOnUse"
       id="radialGradient8654">
      <stop
         offset="0"
         style="stop-color:#4d4d4d"
         id="stop6049" />
      <stop
         offset="1"
         style="stop-color:#4d4d4d;stop-opacity:0"
         id="stop6051" />
    </radialGradient>
    <linearGradient
       x1="1342.5"
       y1="715.25"
       gradientTransform="matrix(0.48302,-0.07789,0.07789,0.48302,-490.938,642.68)"
       x2="1478.1"
       gradientUnits="userSpaceOnUse"
       y2="715.25"
       id="linearGradient8656">
      <stop
         offset="0"
         style="stop-color:#dfe0db"
         id="stop4719-4" />
      <stop
         offset=".49415"
         style="stop-color:#787976"
         id="stop4725-6" />
      <stop
         offset=".60805"
         style="stop-color:#81817e"
         id="stop4727-9" />
      <stop
         offset="1"
         style="stop-color:#8a8a87"
         id="stop4721-7" />
    </linearGradient>
    <linearGradient
       gradientTransform="translate(-62.558,510.63)"
       x1="334.33"
       y1="435.99"
       x2="335.85"
       gradientUnits="userSpaceOnUse"
       y2="430.99"
       id="linearGradient8658">
      <stop
         offset="0"
         style="stop-color:#414242"
         id="stop7675" />
      <stop
         offset="1"
         style="stop-color:#414242;stop-opacity:0"
         id="stop7677" />
    </linearGradient>
    <radialGradient
       r="22.767"
       gradientTransform="matrix(1.4467,0.14172,-0.022116,0.22577,-10.518,-41.382)"
       cx="186.57"
       cy="103.77"
       gradientUnits="userSpaceOnUse"
       xlink:href="#linearGradient3905"
       id="radialGradient8660" />
    <radialGradient
       r="22.767"
       gradientTransform="matrix(1.9968,8.2637e-8,0,0.09919,-172.42,122.86)"
       cx="188.9"
       cy="109.63"
       gradientUnits="userSpaceOnUse"
       xlink:href="#linearGradient3905"
       id="radialGradient8662" />
    <radialGradient
       r="80.337"
       gradientTransform="matrix(1,0,0,0.039297,68.605,-30.612)"
       cx="299.27"
       cy="121.8"
       gradientUnits="userSpaceOnUse"
       id="radialGradient8664">
      <stop
         offset="0"
         style="stop-color:#ffffff"
         id="stop3929-9" />
      <stop
         offset="1"
         style="stop-color:#ffffff;stop-opacity:0"
         id="stop3931-1" />
    </radialGradient>
    <radialGradient
       r="14.008"
       gradientTransform="matrix(0.69003,0.0017145,-0.0018106,0.72871,116.18,55.785)"
       cx="502.34"
       cy="-101.24"
       gradientUnits="userSpaceOnUse"
       id="radialGradient8666">
      <stop
         offset="0"
         style="stop-color:#fbfbfb"
         id="stop3961" />
      <stop
         offset="1"
         style="stop-color:#fbfbfb;stop-opacity:0"
         id="stop3963" />
    </radialGradient>
    <linearGradient
       x1="233.04"
       y1="620.35"
       x2="250.1"
       gradientUnits="userSpaceOnUse"
       xlink:href="#linearGradient4717"
       y2="620.35"
       id="linearGradient8668" />
    <linearGradient
       y2="682.36"
       x2="1268.1"
       y1="511.85"
       x1="1267.6"
       gradientUnits="userSpaceOnUse"
       id="linearGradient989"
       xlink:href="#linearGradient5625" />
  </defs>
  <g
     transform="translate(0 -785.36)"
     id="layer1">
    <g
       id="g8508">
      <g
         id="g4314"
         transform="matrix(-0.14045,-0.87097,-0.71284,0.11495,110.552,1252.85)">
        <g
           id="g4628">
          <g
             id="g4316"
             transform="matrix(0.83872,0.54456,-0.54456,0.83872,43.943,-152.57)">
            <g
               id="g4318">
              <path
                 id="path4320"
                 style="fill:url(#linearGradient8618)"
                 d="m 248.08,-86.729 -23.067,8.2737 c 0,0 -0.351,26.523 1.2038,39.656 0.7868,6.646 1.4145,13.523 4.0936,19.655 2.1911,5.0156 5.6191,9.5389 9.5192,13.379 4.268,4.2025 6.8193,6.2328 14.801,10.19 4.7222,2.3409 15.294,4.0118 15.294,4.0118 l -20.96,-28.436 c -5.1446,2.1745 -8.7977,-4.6388 -8.7633,-8.1837 l 0.20168,-20.769 c 0.0291,-2.9969 5.4311,-7.6458 9.9264,-7.3942 4.4953,0.25162 8.8014,4.4373 9.8358,8.644 1.0344,4.2067 -3.6912,10.765 -3.6912,10.765 0,0 3.0696,2.0719 7.5629,-2.2071 4.2126,-4.0117 5.5404,-9.3009 4.2009,-16.12 -0.47727,-2.4297 -0.90134,-4.9337 -1.9934,-7.156 -4.4613,-9.0787 -18.167,-24.308 -18.167,-24.308 z" />
              <path
                 id="path4322"
                 style="fill:url(#radialGradient8620)"
                 d="m 226.82,-57.662 3.4884,36.628 c 0,0 2.4709,-5.6686 1.3081,-17.587 -1.1628,-11.919 -4.7965,-19.041 -4.7965,-19.041 z" />
            </g>
          </g>
          <g
             id="g4324"
             transform="translate(-9.8837,-178.2)"
             clip-path="url(#clipPath4834)">
            <path
               id="path4326"
               style="fill:none;stroke:#000000;stroke-width:1px;filter:url(#filter4838)"
               d="m 270.93,137.5 c 0,0 -2.9716,0.0466 2.7616,-9.8837 7.1221,-10.756 11.195,-18.52 15.846,-12.996 4.6512,5.5233 -18.608,22.88 -18.608,22.88 z" />
            <path
               id="path4328"
               style="fill:none;stroke:#ffffff;stroke-width:1px;filter:url(#filter4842)"
               d="m 313.23,82.703 -4.1043,5.2767 c 0,0 2.2147,14.636 1.6333,24.084 -0.58139,9.4477 -1.3081,11.192 -3.7791,15.843 -2.4709,4.6512 -5.3779,16.279 -4.7965,15.988 0.5814,-0.2907 20.058,-21.657 20.058,-21.657 z" />
          </g>
        </g>
      </g>
      <path
         id="path2997"
         style="fill:url(#linearGradient8622)"
         d="m 142.982,794.81 c 0,0 -2.2652,4.5803 -1.1825,17.206 1.0827,12.6257 13.957,57.105 13.957,57.105 0,0 6.1341,-0.76434 11.408,4.4916 5.2743,5.256 11.98,30.12 11.98,30.12 l 4.6841,-1.4771 -16.086,-47.709 z" />
      <g
         id="g5635"
         style="fill:#ffffff"
         transform="matrix(0.48302,-0.07789,0.07789,0.48302,-490.938,642.68)">
        <path
           id="path5637"
           style="fill:#ffffff"
           d="m 1154,835.89 c 0,0 41.459,-93.325 42.039,-104.4 0.5795,-11.079 -7.5519,-33.471 -6.4006,-43.144 1.1514,-9.6721 0.062,-7.6068 5.0129,-13.317 4.9512,-5.7098 25.407,-15.809 25.407,-15.809 l 21.455,-47.427 9.0336,-1.1292 43.474,-90.901 c 0,0 3.9264,-0.10455 0,26.536 -3.9264,26.64055 -35.186,118.14 -40.651,125.91 -5.465,7.7683 -21.766,4.3211 -29.359,9.0336 -7.593,4.7125 -29.924,95.982 -29.924,95.982 l 5.6461,5.646 5.646,20.326 -49.685,39.522 z" />
      </g>
      <g
         id="g5614"
         style="fill:url(#linearGradient8624)"
         transform="matrix(0.48302,-0.07789,0.07789,0.48302,-490.938,642.68)">
        <path
           id="path2995"
           d="m 1154,835.89 c 0,0 41.459,-93.325 42.039,-104.4 0.5795,-11.079 -7.5519,-33.471 -6.4006,-43.144 1.1514,-9.6721 0.062,-7.6068 5.0129,-13.317 4.9512,-5.7098 25.407,-15.809 25.407,-15.809 l 21.455,-47.427 9.0336,-1.1292 43.474,-90.901 c 0,0 3.9264,-0.10455 0,26.536 -3.9264,26.64055 -35.186,118.14 -40.651,125.91 -5.465,7.7683 -21.766,4.3211 -29.359,9.0336 -7.593,4.7125 -29.924,95.982 -29.924,95.982 l 5.6461,5.646 5.646,20.326 -49.685,39.522 z"
           style="fill:url(#linearGradient989)" />
      </g>
      <g
         id="g4252"
         transform="matrix(0.54678,-0.53306,-0.53306,-0.54678,-46.96,1080.75)">
        <path
           id="path4254"
           style="fill:url(#linearGradient8628)"
           d="m 445.42,-174.58 2.6722,-114.7 5.7555,-10.072 h 1.4389 l 6.1666,10.894 v 113.26 z"
           transform="translate(-65.466,75.988)" />
        <path
           id="path4256"
           style="fill:none;stroke:#000000;filter:url(#filter4603)"
           d="m 452.88,-150.77 2.6722,-114.7 5.7555,-10.072 h 1.4389 l 6.1666,10.894 v 113.26 z"
           clip-path="url(#clipPath4611)"
           transform="translate(-72.92,52.18)" />
        <path
           id="path4258"
           style="fill:none;stroke:url(#radialGradient8630);stroke-width:2;stroke-linecap:round;stroke-linejoin:round;filter:url(#filter4619)"
           d="m 390.26,-225.29 c 0,0 0.5814,7.9942 0.43605,14.68 -0.14535,6.686 3.0523,16.279 3.0523,16.279" />
        <path
           id="path4260"
           style="fill:none;stroke:url(#radialGradient8632);stroke-width:2;stroke-linecap:round;stroke-linejoin:round;filter:url(#filter4633)"
           d="m 387.5,-220.2 c 0,0 -0.24664,8.1184 -0.87208,13.372 -0.72675,6.1047 -2.907,10.174 -2.907,10.174" />
      </g>
      <g
         id="g4300"
         transform="matrix(0.42573,0.24111,-0.24111,0.42573,118.822,796.37)">
        <g
           id="g4786"
           transform="matrix(0.99243,0.12282,-0.12282,0.99243,-103.66,177.4)">
          <g
             id="g4302"
             transform="matrix(1.6479,0.0015765,-0.0015765,1.6479,-266.02,62.761)">
            <path
               id="path4304"
               style="fill:url(#linearGradient8634)"
               d="m 387.79,-110.76 c 0,0 13.663,-7.5581 17.151,-11.337 3.4884,-3.7791 29.942,-33.43 36.337,-41.57 6.3954,-8.1395 19.477,-24.128 25.291,-28.488 5.814,-4.3605 16.57,-11.919 16.57,-11.919 0,0 -7.8488,17.151 -17.442,30.233 -9.593,13.081 -34.884,42.733 -40.116,49.419 -5.2326,6.686 -17.151,22.674 -17.151,22.674 z" />
            <path
               id="path4306"
               d="m 460.72,-184.99 -24.088,28.947 c 0,0 10.892,-8.8946 14.985,-14.029 4.093,-5.1348 9.1035,-14.918 9.1035,-14.918 z"
               style="fill:url(#radialGradient8636)" />
          </g>
          <path
             id="path4308"
             style="opacity:0.5;fill:none;stroke:#3d3d3d;filter:url(#filter4684)"
             d="m 445.16,-168.31 c 0,0 13.67,-7.5451 17.162,-11.321 3.492,-3.7757 29.974,-33.402 36.377,-41.535 6.4031,-8.1334 19.5,-24.109 25.318,-28.464 5.8181,-4.3549 16.581,-11.903 16.581,-11.903 0,0 -7.8652,17.144 -17.471,30.216 -9.6055,13.072 -34.925,42.699 -40.164,49.38 -5.2389,6.681 -17.173,22.658 -17.173,22.658 z"
             clip-path="url(#clipPath4688)"
             transform="matrix(1.6479,0,0,1.6479,-360.38,158.22)" />
        </g>
      </g>
      <path
         id="path4383"
         style="fill:url(#linearGradient8638)"
         d="m 208.772,928.44 c 0,0 27.693,9.9569 31.007,10.238 3.3136,0.28073 4.9816,-1.7324 7.0547,-3.248 2.0732,-1.5156 6.3467,-5.7565 6.3467,-5.7565 0,0 2.457,10.597 4.8582,12.775 2.4012,2.1782 1.8826,2.0925 4.6713,1.2054 2.7887,-0.88711 8.3815,-8.7546 8.3815,-8.7546 0,0 2.1577,10.416 3.6354,12.133 1.4777,1.7173 2.7337,1.9116 5.4674,0.93709 2.7338,-0.97453 7.946,-7.9849 7.946,-7.9849 l 2.718,9.9146 c 0,0 1.0592,2.3979 2.7296,3.0456 1.6703,0.64768 3.2235,0.67298 5.683,-1.1962 2.4595,-1.86918 6.0168,-10.332 6.0168,-10.332 l -1.3677,-0.74694 -8.6982,8.5259 c 0,0 -1.9358,-10.666 -4.1782,-12.897 -2.2425,-2.2311 -1.884,-2.0196 -4.6713,-1.2054 -2.7873,0.81419 -8.0146,8.4275 -8.0146,8.4275 0,0 -2.6235,-9.9044 -4.3526,-12.169 -1.7291,-2.2649 -2.3826,-2.1007 -3.7124,-2.1994 -1.3298,-0.0987 -2.4474,1.2341 -2.4474,1.2341 0,0 -4.7303,6.3404 -6.2199,8.278 -1.4896,1.9376 -4.0814,-12.178 -5.2867,-13.697 -1.2053,-1.5197 -1.6387,-1.9722 -4.6713,-1.2054 -3.0326,0.76684 -10.223,9.4831 -10.223,9.4831 l -5.485,-1.9136 1.1246,-11.246 -11.544,-2.1838 z" />
      <path
         id="path5665"
         d="m 103.782,808.44 c 0.53444,0.98259 -6.2102,5.9123 -7.2823,24.894 -1.2258,21.703 6.3393,40.993 11.395,58.861 5.056,17.867 7.3932,25.403 11.074,38.838 3.6812,13.435 8.2228,32.414 8.2228,32.414 l 22.402,-8.8722 -7.4358,-32.58 c 0,0 -1.8176,0.72081 -2.9174,-2.8252 -1.0998,-3.54601 0.31113,-4.1554 0.31113,-4.1554 0,0 -2.2919,-10.424 -4.6045,-24.893 -1.0902,-6.8222 -3.3221,-23.053 -8.349,-39.909 -3.716,-12.46 -6.1048,-20.6 -13.119,-29.114 -7.0138,-8.5142 -9.698,-12.658 -9.698,-12.658 z"
         style="fill:#ffffff" />
      <g
         id="g4268"
         transform="matrix(0.23647,0.76239,0.76239,-0.23647,139.162,703.2)">
        <path
           id="path4270"
           d="m 112.79,-81.395 c 1.3741,0.27481 4.7696,-9.6251 27.085,-17.953 25.514,-9.5214 51.404,-7.6287 74.659,-8.2101 23.256,-0.5814 33.14,-0.5814 50.581,-1.1628 17.442,-0.5814 41.837,-2.1909 41.837,-2.1909 l -2.302,30.098 -41.743,3.194 c 0,0 0.18793,-2.4423 -4.4632,-2.4423 -4.6512,0 -4.8567,1.9145 -4.8567,1.9145 0,0 -13.323,1.1261 -31.495,3.7292 -8.5678,1.2273 -28.817,4.5806 -50.851,4.8214 -16.288,0.17802 -26.914,0.34057 -39.705,-4.892 -12.791,-5.23257 -18.746,-6.9062 -18.746,-6.9062 z"
           style="opacity:0.60153001;fill:url(#linearGradient8640)" />
        <path
           id="path4272"
           d="m 255.92,-106.89 1.2333,26.414 2.3639,-0.30833 z"
           style="fill:#585856;filter:url(#filter5285)" />
        <path
           id="path4274"
           d="m 144.09,-98.981 38.233,-5.3444 c 0,0 -6.9888,4.3166 -15.828,5.55 -8.8388,1.2333 -22.405,-0.20556 -22.405,-0.20556 z"
           style="fill:url(#radialGradient8642)" />
        <path
           id="path4276"
           style="fill:none;stroke:url(#radialGradient8644);stroke-width:4;filter:url(#filter5359)"
           d="m 147.69,-160.65 c 1.3741,0.27481 4.7696,-9.625 27.085,-17.953 25.514,-9.5214 51.404,-7.6287 74.659,-8.2101 23.256,-0.5814 33.14,-0.5814 50.581,-1.1628 17.442,-0.5814 41.837,-2.1909 41.837,-2.1909 l -2.302,30.098 -41.743,3.194 c 0,0 0.18793,-2.4423 -4.4632,-2.4423 -4.6512,0 -4.8567,1.9145 -4.8567,1.9145 0,0 -13.323,1.1261 -31.495,3.7292 -8.5678,1.2273 -28.817,4.5806 -50.851,4.8214 -16.288,0.17802 -26.914,0.34058 -39.705,-4.892 -12.791,-5.23258 -18.746,-6.9062 -18.746,-6.9062 z"
           clip-path="url(#clipPath5373)"
           transform="translate(-35.332,78.78)" />
      </g>
      <g
         id="g4344"
         transform="matrix(-0.56331,-0.34413,-0.34413,0.56331,496.762,1058.42)">
        <path
           id="path4346"
           d="m 505.52,-104.65 68.605,-2.6163 27.326,4.3605 1.1628,14.826 -22.093,6.1047 -29.07,-7.5581 c 0,0 -11.628,-1.4535 -16.57,3.1977 -4.9419,4.6512 -5.5232,9.3023 -5.5232,13.372 v 3.4884 l 8.7209,-0.5814 -3.4884,7.5581 -9.0116,0.5814 c 0,0 0.29069,-9.593 -3.4884,-9.593 -3.77909,0 -4.6512,10.174 -4.6512,10.174 l -31.977,-0.5814 z"
           style="fill:url(#linearGradient8646)" />
        <path
           id="path4348"
           style="opacity:0.53256998;fill:none;stroke:url(#radialGradient8648);stroke-width:4;filter:url(#filter4150)"
           d="m 508.95,-71.034 c 0,0 7.6921,1.5784 13.198,0.15958 7.6463,-1.9704 12.175,-5.8566 16.326,-11.453"
           transform="matrix(0.85261,-0.52255,0.52255,0.85261,104.94,264.13)" />
      </g>
      <g
         id="g5605"
         transform="matrix(0.26931,-0.40847,0.40847,0.26931,-485.248,1120.87)">
        <path
           id="path5689"
           style="fill:#ffffff"
           d="m 976.34,564.92 c 0,0 -25.012,15.637 -29.157,29.184 -4.1445,13.547 -32.01,296.11 -32.01,296.11 l 58.709,1.0517 4.0294,-55.432 c 0,0 -12.039,-1.13 -12.604,-5.6966 -0.56482,-4.5665 12.604,-7.7211 12.604,-7.7211 l -12.604,1.2296 v -6.4915 l 12.604,-7.4562 -12.604,0.96462 v -6.4915 l 12.604,-7.1912 -12.604,0.69968 v -6.4915 l 12.604,-6.9263 -12.604,0.43475 v -6.4915 l 12.604,-6.6613 -12.604,0.16981 v -6.4915 l 12.604,-6.3964 -12.604,-0.0951 v -6.4915 l 12.604,-6.1315 -12.604,-0.36006 v -6.4915 l 12.604,-5.8665 -12.604,-0.62505 v -6.4915 l 12.604,-5.6016 -12.604,-0.88998 v -6.4915 l 12.604,-5.3366 -12.604,-1.155 v -6.4915 l 12.604,-5.0716 -12.604,-1.4199 v -6.4915 l 12.604,-4.8067 -12.604,-1.6848 v -6.4915 l 12.604,-4.5418 -12.604,-1.9498 v -6.4915 l 12.604,-4.2768 -12.604,-2.2147 v -6.4915 l 12.604,-4.0119 -12.604,-2.4796 v -6.4915 l 12.604,-3.747 -12.604,-2.7446 v -6.4915 l 12.604,-3.482 -12.604,-3.0095 v -6.4915 l 12.604,-3.2171 -12.604,-3.2744 v -6.4915 l 12.604,-2.6154 z" />
        <path
           id="path2989"
           d="m 976.34,564.92 c 0,0 -25.012,15.637 -29.157,29.184 -4.1445,13.547 -32.01,296.11 -32.01,296.11 l 58.709,1.0517 4.0294,-55.432 c 0,0 -12.039,-1.13 -12.604,-5.6966 -0.56482,-4.5665 12.604,-7.7211 12.604,-7.7211 l -12.604,1.2296 v -6.4915 l 12.604,-7.4562 -12.604,0.96462 v -6.4915 l 12.604,-7.1912 -12.604,0.69968 v -6.4915 l 12.604,-6.9263 -12.604,0.43475 v -6.4915 l 12.604,-6.6613 -12.604,0.16981 v -6.4915 l 12.604,-6.3964 -12.604,-0.0951 v -6.4915 l 12.604,-6.1315 -12.604,-0.36006 v -6.4915 l 12.604,-5.8665 -12.604,-0.62505 v -6.4915 l 12.604,-5.6016 -12.604,-0.88998 v -6.4915 l 12.604,-5.3366 -12.604,-1.155 v -6.4915 l 12.604,-5.0716 -12.604,-1.4199 v -6.4915 l 12.604,-4.8067 -12.604,-1.6848 v -6.4915 l 12.604,-4.5418 -12.604,-1.9498 v -6.4915 l 12.604,-4.2768 -12.604,-2.2147 v -6.4915 l 12.604,-4.0119 -12.604,-2.4796 v -6.4915 l 12.604,-3.747 -12.604,-2.7446 v -6.4915 l 12.604,-3.482 -12.604,-3.0095 v -6.4915 l 12.604,-3.2171 -12.604,-3.2744 v -6.4915 l 12.604,-2.6154 z"
           style="opacity:0.60199998;fill:url(#linearGradient8650)" />
        <path
           id="path4807"
           style="fill:#585856;filter:url(#filter5285)"
           d="m 255.92,-106.89 1.2333,26.414 2.3639,-0.30833 z"
           transform="matrix(0.22908,1.6153,1.6153,-0.22908,1045.7,408.6)" />
        <path
           id="path4809"
           style="fill:url(#radialGradient8652)"
           d="m 949.57,596.84 -5.4037,62.75 c 0,0 6.4288,-11.759 7.6744,-26.266 1.2456,-14.507 -2.2707,-36.485 -2.2707,-36.485 z" />
      </g>
      <path
         id="path6037"
         d="m 218.722,901.31 7.6134,17.766 c 0,0 36.507,-40.475 44.715,-51.53 8.2084,-11.055 0.54843,-30.954 0.54843,-30.954 l -56.808,55.063 z"
         style="fill:url(#radialGradient8654)" />
      <path
         id="path6027"
         style="fill:url(#linearGradient8656)"
         d="m 218.722,901.31 7.6134,17.766 c 0,0 36.507,-40.475 44.715,-51.53 8.2084,-11.055 0.54843,-30.954 0.54843,-30.954 l -56.808,55.063 z" />
      <path
         id="path7671"
         d="m 208.772,928.44 c 0,0 27.693,9.9569 31.007,10.238 3.3136,0.28073 4.9816,-1.7324 7.0547,-3.248 2.0732,-1.5156 6.3467,-5.7565 6.3467,-5.7565 0,0 2.457,10.597 4.8582,12.775 2.4012,2.1782 1.8826,2.0925 4.6713,1.2054 2.7887,-0.88711 8.3815,-8.7546 8.3815,-8.7546 0,0 2.1577,10.416 3.6354,12.133 1.4777,1.7173 2.7337,1.9116 5.4674,0.93709 2.7338,-0.97453 7.946,-7.9849 7.946,-7.9849 l 2.718,9.9146 c 0,0 1.0592,2.3979 2.7296,3.0456 1.6703,0.64768 3.2235,0.67298 5.683,-1.1962 2.4595,-1.86918 6.0168,-10.332 6.0168,-10.332 l -1.3677,-0.74694 -8.6982,8.5259 c 0,0 -1.9358,-10.666 -4.1782,-12.897 -2.2425,-2.2311 -1.884,-2.0196 -4.6713,-1.2054 -2.7873,0.81419 -8.0146,8.4275 -8.0146,8.4275 0,0 -2.6235,-9.9044 -4.3526,-12.169 -1.7291,-2.2649 -2.3826,-2.1007 -3.7124,-2.1994 -1.3298,-0.0987 -2.4474,1.2341 -2.4474,1.2341 0,0 -4.7303,6.3404 -6.2199,8.278 -1.4896,1.9376 -4.0814,-12.178 -5.2867,-13.697 -1.2053,-1.5197 -1.6387,-1.9722 -4.6713,-1.2054 -3.0326,0.76684 -10.223,9.4831 -10.223,9.4831 l -5.485,-1.9136 1.1246,-11.246 -11.544,-2.1838 z"
         style="fill:url(#linearGradient8658)" />
      <path
         id="path2987"
         style="fill:#c72d25"
         d="m 125.412,965.28 c 4.2375,-5.602 111.69,-129.65 120.88,-136.94 9.1929,-7.2957 9.2851,-5.9276 14.111,-6.1928 4.8259,-0.26518 9.1311,1.4937 12.967,4.0648 3.8359,2.5711 9.0256,10.856 9.0256,10.856 0,0 -60.812,63.889 -60.006,66.757 0.80595,2.8682 4.8978,14.879 4.8978,14.879 0,0 -62.481,77.495 -73.812,80.176 -11.33,2.6801 -11.808,2.1901 -16.715,0.45689 -4.9067,-1.7332 -8.1446,-3.8203 -11.031,-9.4134 -2.8868,-5.5931 -4.5534,-19.038 -0.31598,-24.64 z" />
      <path
         id="path5693"
         style="fill:#cf453a;filter:url(#filter5719)"
         d="m 1450.8,617.84 c -17.69,3.7903 -31.697,17.158 -45.446,28.386 -87.277,69.988 -173.59,141.38 -258.46,214.43 -8.0385,13.453 -7.7753,31.308 -0.3125,44.844 11.659,15.341 35.789,15.189 50.125,3.5625 32.746,-22.089 62.654,-48.072 93.019,-73.363 19.174,-16.323 38.207,-33.062 56.981,-49.887 -1.6686,-11.182 -6.5954,-23.43 -1.625,-34.375 21.879,-23.972 49.557,-41.658 74.276,-62.577 20.93,-16.406 41.938,-32.695 63.068,-48.86 -5.5302,-12.123 -17.685,-22.813 -31.625,-22.156 z"
         transform="matrix(0.48302,-0.07789,0.07789,0.48302,-490.938,642.68)" />
      <path
         id="path4388"
         style="opacity:0.50191997;fill:none;stroke:url(#radialGradient8660);stroke-width:3;filter:url(#filter3913)"
         d="m 248.84,2.0814 c 0,0 1.7442,5.5233 9.8837,7.2674 8.1395,1.7442 35.465,1.7442 35.465,1.7442"
         transform="matrix(0.62769,-0.7043,0.69679,0.62306,-15.767,1166.98)" />
      <path
         id="path4390"
         style="opacity:0.50191997;fill:none;stroke:url(#radialGradient8662);stroke-width:3;filter:url(#filter3913)"
         d="m 191.86,126.74 c 0,0 1.7442,5.5233 9.8837,7.2674 8.1395,1.7442 62.791,0.87209 62.791,0.87209"
         transform="matrix(0.62769,-0.7043,-0.69679,-0.62306,97.982,1192.21)" />
      <path
         id="path4392"
         style="opacity:0.61302999;fill:none;stroke:url(#radialGradient8664);stroke-width:2;stroke-linecap:round;filter:url(#filter3923)"
         d="m 290.41,-25.535 154.94,-0.5814"
         transform="matrix(0.62769,-0.7043,0.69679,0.62306,-15.767,1166.98)" />
      <path
         id="path4394"
         style="opacity:0.7;fill:none;stroke:url(#radialGradient8666);stroke-width:2;filter:url(#filter3979)"
         d="m 445.35,-26.116 c 14.451,-4.6356 29.353,8.6607 23.844,24.667"
         transform="matrix(0.62769,-0.7043,0.69679,0.62306,-15.767,1166.98)" />
      <g
         id="g8502"
         transform="matrix(0.44927,-0.21547,0.21547,0.44927,-81.221,634)">
        <circle
           id="path7687"
           style="fill:#4d4d4d;filter:url(#filter8490)"
           transform="translate(4.7384,15.992)"
           cx="236.83255"
           cy="604.36206"
           r="8.7715759" />
        <path
           id="path7681"
           d="m 241.57,611.59 c -4.1388,0 -7.6085,2.8627 -8.5312,6.7188 h 17.062 c -0.92279,-3.856 -4.3924,-6.7188 -8.5312,-6.7188 z m -8.4062,11.25 c 1.0719,3.6335 4.4254,6.2812 8.4062,6.2812 3.9808,0 7.3343,-2.6477 8.4062,-6.2812 h -16.812 z"
           style="fill:url(#linearGradient8668)" />
      </g>
      <path
         style="opacity:1;fill:#535353;fill-opacity:1;stroke:none;stroke-width:0.71351397;stroke-linecap:round;stroke-linejoin:round;stroke-miterlimit:4;stroke-dasharray:none;stroke-dashoffset:0;stroke-opacity:1;paint-order:normal"
         d="m 155.15226,963.37635 -5.91704,6.20888 -6.20888,-5.91703 -2.95876,3.10469 6.20888,5.91703 -5.91654,6.20838 3.10419,2.95828 5.91654,-6.20838 6.20889,5.91704 2.95876,-3.10469 -6.20889,-5.91704 5.91703,-6.20888 z"
         id="path1049" />
      <path
         id="rect1044"
         d="m 154.47316,963.44383 -5.91704,6.20888 -6.20888,-5.91703 -2.95876,3.10469 6.20888,5.91703 -5.91654,6.20838 3.10419,2.95828 5.91654,-6.20838 6.20889,5.91704 2.95876,-3.10469 -6.20889,-5.91704 5.91703,-6.20888 z"
         style="opacity:1;fill:#eeeeee;fill-opacity:1;stroke:none;stroke-width:0.71351397;stroke-linecap:round;stroke-linejoin:round;stroke-miterlimit:4;stroke-dasharray:none;stroke-dashoffset:0;stroke-opacity:1;paint-order:normal" />
    </g>
  </g>
  <metadata
     id="metadata179">
    <rdf:RDF>
      <cc:Work>
        <dc:format>image/svg+xml</dc:format>
        <dc:type
           rdf:resource="http://purl.org/dc/dcmitype/StillImage" />
        <cc:license
           rdf:resource="http://creativecommons.org/licenses/publicdomain/" />
        <dc:publisher>
          <cc:Agent
             rdf:about="http://openclipart.org/">
            <dc:title>Openclipart</dc:title>
          </cc:Agent>
        </dc:publisher>
        <dc:title></dc:title>
        <dc:date>2011-03-27T13:39:38</dc:date>
        <dc:description />
        <dc:source>https://openclipart.org/detail/129409/swiss-army-knife-by-gnokii</dc:source>
        <dc:creator>
          <cc:Agent>
            <dc:title>gnokii</dc:title>
          </cc:Agent>
        </dc:creator>
        <dc:subject>
          <rdf:Bag>
            <rdf:li>knife</rdf:li>
            <rdf:li>swiss knife</rdf:li>
            <rdf:li>tool</rdf:li>
          </rdf:Bag>
        </dc:subject>
      </cc:Work>
      <cc:License
         rdf:about="http://creativecommons.org/licenses/publicdomain/">
        <cc:permits
           rdf:resource="http://creativecommons.org/ns#Reproduction" />
        <cc:permits
           rdf:resource="http://creativecommons.org/ns#Distribution" />
        <cc:permits
           rdf:resource="http://creativecommons.org/ns#DerivativeWorks" />
      </cc:License>
    </rdf:RDF>
  </metadata>
</svg>
