<?xml version="1.0" encoding="UTF-8" standalone="no"?>
<!-- Created with Inkscape (http://www.inkscape.org/) -->

<svg
   xmlns:dc="http://purl.org/dc/elements/1.1/"
   xmlns:cc="http://creativecommons.org/ns#"
   xmlns:rdf="http://www.w3.org/1999/02/22-rdf-syntax-ns#"
   xmlns:svg="http://www.w3.org/2000/svg"
   xmlns="http://www.w3.org/2000/svg"
   xmlns:sodipodi="http://sodipodi.sourceforge.net/DTD/sodipodi-0.dtd"
   xmlns:inkscape="http://www.inkscape.org/namespaces/inkscape"
   width="1000mm"
   height="600mm"
   viewBox="0 0 1000 600.00003"
   version="1.1"
   id="svg5285"
   inkscape:version="0.92.1 r15371"
   sodipodi:docname="chaining.svg">
  <defs
     id="defs5279">
    <marker
       inkscape:isstock="true"
       style="overflow:visible"
       id="marker18316"
       refX="0"
       refY="0"
       orient="auto"
       inkscape:stockid="Arrow2Send">
      <path
         transform="matrix(-0.3,0,0,-0.3,0.69,0)"
         d="M 8.7185878,4.0337352 -2.2072895,0.01601326 8.7185884,-4.0017078 c -1.7454984,2.3720609 -1.7354408,5.6174519 -6e-7,8.035443 z"
         style="fill:#b7c4e4;fill-opacity:1;fill-rule:evenodd;stroke:#b7c4e4;stroke-width:0.625;stroke-linejoin:round;stroke-opacity:1"
         id="path18314"
         inkscape:connector-curvature="0" />
    </marker>
    <marker
       inkscape:stockid="Arrow2Send"
       orient="auto"
       refY="0"
       refX="0"
       id="marker11836"
       style="overflow:visible"
       inkscape:isstock="true"
       inkscape:collect="always">
      <path
         inkscape:connector-curvature="0"
         id="path11834"
         style="fill:#b7c4e4;fill-opacity:1;fill-rule:evenodd;stroke:#b7c4e4;stroke-width:0.625;stroke-linejoin:round;stroke-opacity:1"
         d="M 8.7185878,4.0337352 -2.2072895,0.01601326 8.7185884,-4.0017078 c -1.7454984,2.3720609 -1.7354408,5.6174519 -6e-7,8.035443 z"
         transform="matrix(-0.3,0,0,-0.3,0.69,0)" />
    </marker>
    <marker
       inkscape:isstock="true"
       style="overflow:visible"
       id="marker5854"
       refX="0"
       refY="0"
       orient="auto"
       inkscape:stockid="Arrow2Send"
       inkscape:collect="always">
      <path
         transform="matrix(-0.3,0,0,-0.3,0.69,0)"
         d="M 8.7185878,4.0337352 -2.2072895,0.01601326 8.7185884,-4.0017078 c -1.7454984,2.3720609 -1.7354408,5.6174519 -6e-7,8.035443 z"
         style="fill:#b7c4e4;fill-opacity:1;fill-rule:evenodd;stroke:#b7c4e4;stroke-width:0.625;stroke-linejoin:round;stroke-opacity:1"
         id="path5852"
         inkscape:connector-curvature="0" />
    </marker>
    <marker
       inkscape:stockid="Arrow2Send"
       orient="auto"
       refY="0.0"
       refX="0.0"
       id="marker4852"
       style="overflow:visible;"
       inkscape:isstock="true">
      <path
         id="path4608"
         style="fill-rule:evenodd;stroke-width:0.625;stroke-linejoin:round;stroke:#f59090;stroke-opacity:1;fill:#f59090;fill-opacity:1"
         d="M 8.7185878,4.0337352 L -2.2072895,0.016013256 L 8.7185884,-4.0017078 C 6.9730900,-1.6296469 6.9831476,1.6157441 8.7185878,4.0337352 z "
         transform="scale(0.3) rotate(180) translate(-2.3,0)" />
    </marker>
    <marker
       inkscape:stockid="Arrow1Send"
       orient="auto"
       refY="0.0"
       refX="0.0"
       id="Arrow1Send"
       style="overflow:visible;"
       inkscape:isstock="true">
      <path
         id="path4590"
         d="M 0.0,0.0 L 5.0,-5.0 L -12.5,0.0 L 5.0,5.0 L 0.0,0.0 z "
         style="fill-rule:evenodd;stroke:#f59090;stroke-width:1pt;stroke-opacity:1;fill:#f59090;fill-opacity:1"
         transform="scale(0.2) rotate(180) translate(6,0)" />
    </marker>
    <marker
       inkscape:isstock="true"
       style="overflow:visible"
       id="marker6976"
       refX="0"
       refY="0"
       orient="auto"
       inkscape:stockid="Arrow2Send">
      <path
         transform="matrix(-0.3,0,0,-0.3,0.69,0)"
         d="M 8.7185878,4.0337352 -2.2072895,0.01601326 8.7185884,-4.0017078 c -1.7454984,2.3720609 -1.7354408,5.6174519 -6e-7,8.035443 z"
         style="fill:#000000;fill-opacity:1;fill-rule:evenodd;stroke:#000000;stroke-width:0.625;stroke-linejoin:round;stroke-opacity:1"
         id="path6974"
         inkscape:connector-curvature="0" />
    </marker>
    <marker
       inkscape:stockid="Arrow2Send"
       orient="auto"
       refY="0"
       refX="0"
       id="Arrow2Send"
       style="overflow:visible"
       inkscape:isstock="true"
       inkscape:collect="always">
      <path
         inkscape:connector-curvature="0"
         id="path4993"
         style="fill:#000000;fill-opacity:1;fill-rule:evenodd;stroke:#000000;stroke-width:0.625;stroke-linejoin:round;stroke-opacity:1"
         d="M 8.7185878,4.0337352 -2.2072895,0.01601326 8.7185884,-4.0017078 c -1.7454984,2.3720609 -1.7354408,5.6174519 -6e-7,8.035443 z"
         transform="matrix(-0.3,0,0,-0.3,0.69,0)" />
    </marker>
    <marker
       inkscape:isstock="true"
       style="overflow:visible"
       id="marker5276"
       refX="0"
       refY="0"
       orient="auto"
       inkscape:stockid="Arrow2Send">
      <path
         inkscape:connector-curvature="0"
         transform="matrix(-0.3,0,0,-0.3,0.69,0)"
         d="M 8.7185878,4.0337352 -2.2072895,0.01601326 8.7185884,-4.0017078 c -1.7454984,2.3720609 -1.7354408,5.6174519 -6e-7,8.035443 z"
         style="fill:#e3b4b4;fill-opacity:1;fill-rule:evenodd;stroke:#e3b4b4;stroke-width:0.625;stroke-linejoin:round;stroke-opacity:1"
         id="path5274" />
    </marker>
    <marker
       inkscape:isstock="true"
       style="overflow:visible"
       id="marker5270"
       refX="0"
       refY="0"
       orient="auto"
       inkscape:stockid="Arrow2Send">
      <path
         inkscape:connector-curvature="0"
         transform="matrix(-0.3,0,0,-0.3,0.69,0)"
         d="M 8.7185878,4.0337352 -2.2072895,0.01601326 8.7185884,-4.0017078 c -1.7454984,2.3720609 -1.7354408,5.6174519 -6e-7,8.035443 z"
         style="fill:#d19696;fill-opacity:1;fill-rule:evenodd;stroke:#d19696;stroke-width:0.625;stroke-linejoin:round;stroke-opacity:1"
         id="path5268" />
    </marker>
    <marker
       inkscape:stockid="Arrow2Send"
       orient="auto"
       refY="0"
       refX="0"
       id="marker5258"
       style="overflow:visible"
       inkscape:isstock="true"
       inkscape:collect="always">
      <path
         inkscape:connector-curvature="0"
         id="path5256"
         style="fill:#b7c4e4;fill-opacity:1;fill-rule:evenodd;stroke:#b7c4e4;stroke-width:0.625;stroke-linejoin:round;stroke-opacity:1"
         d="M 8.7185878,4.0337352 -2.2072895,0.01601326 8.7185884,-4.0017078 c -1.7454984,2.3720609 -1.7354408,5.6174519 -6e-7,8.035443 z"
         transform="matrix(-0.3,0,0,-0.3,0.69,0)" />
    </marker>
    <marker
       inkscape:stockid="Arrow2Send"
       orient="auto"
       refY="0"
       refX="0"
       id="marker5282"
       style="overflow:visible"
       inkscape:isstock="true">
      <path
         inkscape:connector-curvature="0"
         id="path5280"
         style="fill:#9ca7c4;fill-opacity:1;fill-rule:evenodd;stroke:#9ca7c4;stroke-width:0.625;stroke-linejoin:round;stroke-opacity:1"
         d="M 8.7185878,4.0337352 -2.2072895,0.01601326 8.7185884,-4.0017078 c -1.7454984,2.3720609 -1.7354408,5.6174519 -6e-7,8.035443 z"
         transform="matrix(-0.3,0,0,-0.3,0.69,0)" />
    </marker>
    <marker
       inkscape:stockid="Arrow2Send"
       orient="auto"
       refY="0"
       refX="0"
       id="marker11818"
       style="overflow:visible"
       inkscape:isstock="true">
      <path
         inkscape:connector-curvature="0"
         id="path11820"
         style="fill:#767676;fill-opacity:1;fill-rule:evenodd;stroke:#767676;stroke-width:0.625;stroke-linejoin:round;stroke-opacity:1"
         d="M 8.7185878,4.0337352 -2.2072895,0.01601326 8.7185884,-4.0017078 c -1.7454984,2.3720609 -1.7354408,5.6174519 -6e-7,8.035443 z"
         transform="matrix(-0.3,0,0,-0.3,0.69,0)" />
    </marker>
    <marker
       inkscape:stockid="Arrow2Send"
       orient="auto"
       refY="0"
       refX="0"
       id="marker17063-5"
       style="overflow:visible"
       inkscape:isstock="true"
       inkscape:collect="always">
      <path
         inkscape:connector-curvature="0"
         id="path17061-3"
         style="fill:#ff0d0d;fill-opacity:1;fill-rule:evenodd;stroke:#ff0d0d;stroke-width:0.625;stroke-linejoin:round;stroke-opacity:1"
         d="M 8.7185878,4.0337352 -2.2072895,0.01601326 8.7185884,-4.0017078 c -1.7454984,2.3720609 -1.7354408,5.6174519 -6e-7,8.035443 z"
         transform="matrix(-0.3,0,0,-0.3,0.69,0)" />
    </marker>
    <marker
       inkscape:isstock="true"
       style="overflow:visible"
       id="marker966"
       refX="0"
       refY="0"
       orient="auto"
       inkscape:stockid="Arrow2Send">
      <path
         transform="matrix(-0.3,0,0,-0.3,0.69,0)"
         d="M 8.7185878,4.0337352 -2.2072895,0.01601326 8.7185884,-4.0017078 c -1.7454984,2.3720609 -1.7354408,5.6174519 -6e-7,8.035443 z"
         style="fill:#00d329;fill-opacity:1;fill-rule:evenodd;stroke:#00d329;stroke-width:0.625;stroke-linejoin:round;stroke-opacity:1"
         id="path964"
         inkscape:connector-curvature="0" />
    </marker>
    <marker
       inkscape:isstock="true"
       style="overflow:visible"
       id="marker5789"
       refX="0"
       refY="0"
       orient="auto"
       inkscape:stockid="Arrow2Send">
      <path
         transform="matrix(-0.3,0,0,-0.3,0.69,0)"
         d="M 8.7185878,4.0337352 -2.2072895,0.01601326 8.7185884,-4.0017078 c -1.7454984,2.3720609 -1.7354408,5.6174519 -6e-7,8.035443 z"
         style="fill:#767676;fill-opacity:1;fill-rule:evenodd;stroke:#767676;stroke-width:0.625;stroke-linejoin:round;stroke-opacity:1"
         id="path5787"
         inkscape:connector-curvature="0" />
    </marker>
    <marker
       inkscape:stockid="Arrow2Send"
       orient="auto"
       refY="0"
       refX="0"
       id="marker17063"
       style="overflow:visible"
       inkscape:isstock="true"
       inkscape:collect="always">
      <path
         inkscape:connector-curvature="0"
         id="path17061"
         style="fill:#ff0d0d;fill-opacity:1;fill-rule:evenodd;stroke:#ff0d0d;stroke-width:0.625;stroke-linejoin:round;stroke-opacity:1"
         d="M 8.7185878,4.0337352 -2.2072895,0.01601326 8.7185884,-4.0017078 c -1.7454984,2.3720609 -1.7354408,5.6174519 -6e-7,8.035443 z"
         transform="matrix(-0.3,0,0,-0.3,0.69,0)" />
    </marker>
    <marker
       inkscape:stockid="Arrow2Send"
       orient="auto"
       refY="0"
       refX="0"
       id="marker11818-6"
       style="overflow:visible"
       inkscape:isstock="true">
      <path
         inkscape:connector-curvature="0"
         id="path11820-7"
         style="fill:#767676;fill-opacity:1;fill-rule:evenodd;stroke:#767676;stroke-width:0.625;stroke-linejoin:round;stroke-opacity:1"
         d="M 8.7185878,4.0337352 -2.2072895,0.01601326 8.7185884,-4.0017078 c -1.7454984,2.3720609 -1.7354408,5.6174519 -6e-7,8.035443 z"
         transform="matrix(-0.3,0,0,-0.3,0.69,0)" />
    </marker>
    <clipPath
       clipPathUnits="userSpaceOnUse"
       id="clipPath6874">
      <rect
         style="opacity:1;fill:#ffffff;fill-opacity:1;stroke:#000000;stroke-width:2;stroke-linecap:round;stroke-linejoin:miter;stroke-miterlimit:4;stroke-dasharray:none;stroke-dashoffset:0;stroke-opacity:1"
         id="rect6876"
         width="172.81535"
         height="188.93831"
         x="-144.84511"
         y="86.467262" />
    </clipPath>
  </defs>
  <sodipodi:namedview
     id="base"
     pagecolor="#ffffff"
     bordercolor="#666666"
     borderopacity="1.0"
     inkscape:pageopacity="0.0"
     inkscape:pageshadow="2"
     inkscape:zoom="0.70000001"
     inkscape:cx="625.75973"
     inkscape:cy="800.5648"
     inkscape:document-units="mm"
     inkscape:current-layer="mlayers"
     showgrid="false"
     units="mm"
     inkscape:window-width="2560"
     inkscape:window-height="1376"
     inkscape:window-x="0"
     inkscape:window-y="27"
     inkscape:window-maximized="1"
     scale-x="1e-05"
     viewbox-width="800"
     viewbox-height="600" />
  <metadata
     id="metadata5282">
    <rdf:RDF>
      <cc:Work
         rdf:about="">
        <dc:format>image/svg+xml</dc:format>
        <dc:type
           rdf:resource="http://purl.org/dc/dcmitype/StillImage" />
        <dc:title />
      </cc:Work>
    </rdf:RDF>
  </metadata>
  <g
     inkscape:label="Layer 1"
     inkscape:groupmode="layer"
     id="layer1"
     transform="translate(0,303.00002)">
    <path
       sodipodi:nodetypes="cccccccc"
       inkscape:connector-curvature="0"
       id="arrow"
       d="m 780.60973,12.120827 v 16.68108 H 516.48299 V 92.291865 H 780.60973 V 108.97293 L 832.2754,60.546876 Z"
       style="opacity:1;fill:#a4a4a4;fill-opacity:1;stroke:none;stroke-width:1.5526228;stroke-linecap:square;stroke-linejoin:bevel;stroke-miterlimit:4;stroke-dasharray:1.55262281, 3.10524557;stroke-dashoffset:0;stroke-opacity:1" />
    <g
       id="reflection"
       transform="matrix(0.77631143,0,0,0.77631143,568.14936,130.40373)">
      <rect
         style="opacity:1;fill:#ffffff;fill-opacity:1;stroke:none;stroke-width:2.44564962;stroke-linecap:butt;stroke-linejoin:miter;stroke-miterlimit:3.79999995;stroke-dasharray:none;stroke-dashoffset:0;stroke-opacity:1"
         id="rect5095"
         width="232.53429"
         height="232.49316"
         x="17.976557"
         y="-205.52094" />
      <g
         transform="matrix(0.68142758,0,0,1.2251693,19.076019,-339.10104)"
         id="layer1-3-5">
        <path
           sodipodi:nodetypes="cccccccccccccccccccc"
           inkscape:connector-curvature="0"
           id="path5012-3"
           d="m -2.3231018,204.10178 21.3722298,-3.02267 21.372162,3.02267 h 21.372229 21.372227 l 21.372234,-2.30677 21.37216,4.21581 21.37223,-3.02266 21.37223,1.11362 21.37222,-1.43179 21.37217,4.21581 21.37223,-2.78402 21.37223,2.38631 21.37223,-5.56806 21.37216,3.18175 21.37223,-3.2613 21.37223,3.2613 v 94.81564 H -2.3231018 Z"
           style="opacity:1;fill:#fcf2e9;fill-opacity:1;stroke:none;stroke-width:3.59625506;stroke-linecap:square;stroke-linejoin:miter;stroke-miterlimit:4;stroke-dasharray:none;stroke-dashoffset:0;stroke-opacity:1" />
        <path
           inkscape:connector-curvature="0"
           id="path4994-5"
           d="m -1.5451438,203.71278 21.3734538,-3.82472 21.373387,3.82472 21.373454,-2.02485 21.373456,0.89993 21.373453,-1.12491 21.37339,4.27469 21.37345,-3.37476 21.37346,1.3499 21.37345,-1.12492 21.37345,4.49967 21.37339,-4.94963 21.37345,4.27468 21.37346,-6.07455 21.37345,3.37475 21.37339,-3.59974 21.37345,3.59974"
           style="fill:none;fill-opacity:1;fill-rule:evenodd;stroke:#f7e0ca;stroke-width:3.59973645;stroke-linecap:butt;stroke-linejoin:miter;stroke-miterlimit:4;stroke-dasharray:none;stroke-opacity:1"
           sodipodi:nodetypes="ccccccccccccccccc" />
      </g>
      <rect
         y="-205.52094"
         x="17.976557"
         height="232.49316"
         width="232.53429"
         id="rect4518"
         style="opacity:1;fill:none;fill-opacity:0.41960784;stroke:#100400;stroke-width:2.44564962;stroke-linecap:butt;stroke-linejoin:miter;stroke-miterlimit:3.79999995;stroke-dasharray:none;stroke-dashoffset:0;stroke-opacity:1" />
      <path
         inkscape:transform-center-y="-33.789798"
         inkscape:transform-center-x="-44.702888"
         sodipodi:nodetypes="zzz"
         inkscape:connector-curvature="0"
         id="lobe1"
         d="m 134.8548,-90.413767 c 0,0 37.10926,-71.281863 59.56184,-45.999203 22.45258,25.2826 -59.56184,45.999203 -59.56184,45.999203 z"
         style="display:inline;fill:#01b009;fill-opacity:0.1072797;fill-rule:evenodd;stroke:#01b009;stroke-width:3.3913517;stroke-linecap:round;stroke-linejoin:round;stroke-miterlimit:4;stroke-dasharray:none;stroke-opacity:1" />
      <g
         id="g11704"
         transform="matrix(6.7827033,0,0,6.7827033,176.46853,19.837778)"
         style="display:inline;stroke:#ff0d0d;stroke-width:0.5;stroke-miterlimit:4;stroke-dasharray:none;stroke-opacity:1">
        <path
           sodipodi:nodetypes="cc"
           inkscape:connector-curvature="0"
           id="path11706"
           d="m -6.1465219,-16.249246 -9.6730201,-7.176757"
           style="fill:none;fill-rule:evenodd;stroke:#ff0d0d;stroke-width:0.5;stroke-linecap:round;stroke-linejoin:miter;stroke-miterlimit:4;stroke-dasharray:none;stroke-opacity:1;marker-end:url(#marker17063)" />
      </g>
      <path
         style="display:inline;fill:none;stroke:#767676;stroke-width:3.3913517;stroke-linecap:round;stroke-linejoin:miter;stroke-miterlimit:4;stroke-dasharray:none;stroke-opacity:1;marker-end:url(#marker11818-6)"
         d="M 134.77844,-90.376055 V -147.20485"
         id="path11716"
         inkscape:connector-curvature="0"
         sodipodi:nodetypes="cc" />
    </g>
    <g
       id="refraction"
       transform="matrix(3.2593584,0,0,3.2593584,-113.5921,-671.24676)">
      <rect
         y="197.00266"
         x="213.44595"
         height="55.375042"
         width="55.384834"
         id="rect5095-6"
         style="opacity:1;fill:#ffffff;fill-opacity:1;stroke:none;stroke-width:0.5825029;stroke-linecap:butt;stroke-linejoin:miter;stroke-miterlimit:3.79999995;stroke-dasharray:none;stroke-dashoffset:0;stroke-opacity:1" />
      <g
         id="layer1-3-2"
         transform="matrix(0.16230189,0,0,0.29180987,213.70782,165.18665)">
        <path
           style="opacity:1;fill:#fcf2e9;fill-opacity:1;stroke:none;stroke-width:3.59625506;stroke-linecap:square;stroke-linejoin:miter;stroke-miterlimit:4;stroke-dasharray:none;stroke-dashoffset:0;stroke-opacity:1"
           d="m -2.3231018,204.10178 21.3722298,-3.02267 21.372162,3.02267 h 21.372229 21.372227 l 21.372234,-2.30677 21.37216,4.21581 21.37223,-3.02266 21.37223,1.11362 21.37222,-1.43179 21.37217,4.21581 21.37223,-2.78402 21.37223,2.38631 21.37223,-5.56806 21.37216,3.18175 21.37223,-3.2613 21.37223,3.2613 v 94.81564 H -2.3231018 Z"
           id="path5012-9"
           inkscape:connector-curvature="0"
           sodipodi:nodetypes="cccccccccccccccccccc" />
        <path
           sodipodi:nodetypes="ccccccccccccccccc"
           style="fill:none;fill-opacity:1;fill-rule:evenodd;stroke:#f7e0ca;stroke-width:3.59973645;stroke-linecap:butt;stroke-linejoin:miter;stroke-miterlimit:4;stroke-dasharray:none;stroke-opacity:1"
           d="m -1.5451438,203.71278 21.3734538,-3.82472 21.373387,3.82472 21.373454,-2.02485 21.373456,0.89993 21.373453,-1.12491 21.37339,4.27469 21.37345,-3.37476 21.37346,1.3499 21.37345,-1.12492 21.37345,4.49967 21.37339,-4.94963 21.37345,4.27468 21.37346,-6.07455 21.37345,3.37475 21.37339,-3.59974 21.37345,3.59974"
           id="path4994-1"
           inkscape:connector-curvature="0" />
      </g>
      <rect
         style="opacity:1;fill:none;fill-opacity:0.41960784;stroke:#100400;stroke-width:0.5825029;stroke-linecap:butt;stroke-linejoin:miter;stroke-miterlimit:3.79999995;stroke-dasharray:none;stroke-dashoffset:0;stroke-opacity:1"
         id="rect4518-2"
         width="55.384834"
         height="55.375042"
         x="213.44595"
         y="197.00266" />
      <path
         style="display:inline;opacity:1;fill:#fff9dd;fill-opacity:1;fill-rule:evenodd;stroke:#fc9501;stroke-width:0.80766577;stroke-linecap:round;stroke-linejoin:round;stroke-miterlimit:4;stroke-dasharray:none;stroke-opacity:1"
         d="m 241.86582,224.89977 c 0,0 13.31807,16.57256 16.62997,12.8432 3.31189,-3.72933 -16.62997,-12.8432 -16.62997,-12.8432 z"
         id="lobe2-0"
         inkscape:connector-curvature="0"
         sodipodi:nodetypes="zzz"
         inkscape:transform-center-x="-52.402854"
         inkscape:transform-center-y="39.61001" />
      <g
         id="real_refraction"
         transform="matrix(1.615499,0,0,1.615499,251.19545,250.67841)"
         style="display:inline;opacity:1;stroke:#ff0d0d;stroke-width:0.49994814;stroke-miterlimit:4;stroke-dasharray:none;stroke-opacity:1">
        <path
           sodipodi:nodetypes="cc"
           inkscape:connector-curvature="0"
           id="path11706-6"
           d="m -6.1465219,-16.249246 -9.6730201,-7.176757"
           style="fill:none;fill-rule:evenodd;stroke:#ff0d0d;stroke-width:0.49994814;stroke-linecap:round;stroke-linejoin:miter;stroke-miterlimit:4;stroke-dasharray:none;stroke-opacity:1;marker-end:url(#marker17063-5)" />
      </g>
      <path
         style="display:inline;opacity:1;fill:none;stroke:#767676;stroke-width:0.80774951;stroke-linecap:round;stroke-linejoin:miter;stroke-miterlimit:4;stroke-dasharray:none;stroke-opacity:1;marker-end:url(#marker5789)"
         d="M 241.26573,224.42777 V 210.89233"
         id="path11716-0"
         inkscape:connector-curvature="0"
         sodipodi:nodetypes="cc" />
    </g>
    <g
       id="window"
       transform="matrix(3.2593584,0,0,3.2593584,-89.370934,-671.43864)">
      <rect
         style="opacity:1;fill:#ffffff;fill-opacity:1;stroke:none;stroke-width:0.58944386;stroke-linecap:round;stroke-linejoin:miter;stroke-miterlimit:4;stroke-dasharray:none;stroke-dashoffset:0;stroke-opacity:1"
         id="rect6878"
         width="101.86494"
         height="111.36852"
         x="39.850613"
         y="168.50723" />
      <g
         transform="matrix(0.58944384,0,0,0.58944384,125.22867,117.53962)"
         clip-path="url(#clipPath6874)"
         id="g6719">
        <g
           transform="translate(-142.53482,-1.6554655)"
           id="layer2">
          <path
             sodipodi:nodetypes="cccccccccccccccccccc"
             inkscape:connector-curvature="0"
             id="path4990"
             d="m -1.7748422,170.18067 21.3722302,-3.02266 21.372161,3.02266 20.725325,-1.63589 22.019135,1.63589 21.372231,-2.30676 21.37216,4.21581 21.37223,-3.02266 21.37223,1.11361 21.37223,-1.43179 21.37216,4.21582 21.37223,-2.78403 21.37223,2.38631 21.37223,-5.56806 21.37216,3.18175 21.37223,-3.26129 21.37223,3.26129 v 98.99276 H -1.7748422 Z"
             style="opacity:1;fill:#fcf2e9;fill-opacity:1;stroke:none;stroke-width:3.59625506;stroke-linecap:square;stroke-linejoin:miter;stroke-miterlimit:4;stroke-dasharray:none;stroke-dashoffset:0;stroke-opacity:1" />
          <path
             inkscape:connector-curvature="0"
             id="path5016"
             d="m -2.4254205,170.56963 21.3734545,-3.82472 21.373386,3.82472 21.373454,-2.02485 21.373454,0.89993 21.373452,-1.12491 21.37339,4.27469 21.37345,-3.37475 21.37346,1.34989 21.37345,-1.12492 21.37346,4.49968 21.37338,-4.94964 21.37346,4.27469 21.37345,-6.07456 21.37345,3.37475 21.37339,-3.59973 21.37345,3.59973"
             style="fill:none;fill-opacity:1;fill-rule:evenodd;stroke:#f7e0ca;stroke-width:3.59981708;stroke-linecap:butt;stroke-linejoin:miter;stroke-miterlimit:4;stroke-dasharray:none;stroke-opacity:1"
             sodipodi:nodetypes="ccccccccccccccccc" />
        </g>
        <g
           transform="translate(-142.53482,-1.6554655)"
           id="layer1-3">
          <path
             style="opacity:1;fill:#fcf2e9;fill-opacity:1;stroke:none;stroke-width:3.59625506;stroke-linecap:square;stroke-linejoin:miter;stroke-miterlimit:4;stroke-dasharray:none;stroke-dashoffset:0;stroke-opacity:1"
             d="m -2.3231018,204.10178 21.3722298,-3.02267 21.372162,3.02267 h 21.372229 21.372227 l 21.372234,-2.30677 21.37216,4.21581 21.37223,-3.02266 21.37223,1.11362 21.37222,-1.43179 21.37217,4.21581 21.37223,-2.78402 21.37223,2.38631 21.37223,-5.56806 21.37216,3.18175 21.37223,-3.2613 21.37223,3.2613 v 91.95143 H -2.3231018 Z"
             id="path5012"
             inkscape:connector-curvature="0"
             sodipodi:nodetypes="cccccccccccccccccccc" />
          <path
             sodipodi:nodetypes="ccccccccccccccccc"
             style="fill:none;fill-opacity:1;fill-rule:evenodd;stroke:#f7e0ca;stroke-width:3.59973645;stroke-linecap:butt;stroke-linejoin:miter;stroke-miterlimit:4;stroke-dasharray:none;stroke-opacity:1"
             d="m -1.5451438,203.71278 21.3734538,-3.82472 21.373387,3.82472 21.373454,-2.02485 21.373456,0.89993 21.373453,-1.12491 21.37339,4.27469 21.37345,-3.37476 21.37346,1.3499 21.37345,-1.12492 21.37345,4.49967 21.37339,-4.94963 21.37345,4.27468 21.37346,-6.07455 21.37345,3.37475 21.37339,-3.59974 21.37345,3.59974"
             id="path4994"
             inkscape:connector-curvature="0" />
        </g>
        <g
           transform="translate(-142.53482,-1.6554655)"
           id="g7401">
          <path
             style="opacity:1;fill:#f8e4d2;fill-opacity:1;stroke:none;stroke-width:1.8811146;stroke-linecap:square;stroke-linejoin:miter;stroke-miterlimit:4;stroke-dasharray:none;stroke-dashoffset:0;stroke-opacity:1"
             d="m -2.3103001,238.30244 21.9135981,-4.13627 21.372162,4.13627 21.37223,-4.93171 21.372229,5.56806 21.372231,-3.42038 21.37223,3.57946 21.37216,-3.65899 20.41768,1.27269 20.65639,-1.43179 23.04255,3.02267 20.33816,-3.65901 22.00855,1.43178 20.49727,-1.35224 21.45169,2.14768 21.45182,-3.97719 22.48582,5.40898 v 60.30322 H -2.3103001 Z"
             id="path5014"
             inkscape:connector-curvature="0"
             sodipodi:nodetypes="cccccccccccccccccccc" />
          <path
             sodipodi:nodetypes="ccccccccccccccccc"
             style="fill:none;fill-opacity:1;fill-rule:evenodd;stroke:#edd1ba;stroke-width:3.59860253;stroke-linecap:butt;stroke-linejoin:miter;stroke-miterlimit:4;stroke-dasharray:none;stroke-opacity:1"
             d="m 340.34708,237.06887 -22.96432,-4.22244 -21.37339,3.82472 -21.37345,-2.02485 -21.37345,0.89993 -21.37346,-1.12491 -21.37338,4.27469 -21.37346,-3.37476 -21.37345,1.3499 -21.37346,-1.12492 -21.37345,4.49967 -21.37339,-4.94963 -21.373452,4.27468 -21.373454,-6.07455 -21.373454,3.37475 -21.373386,-3.59974 -20.1007465,3.63951"
             id="path5024"
             inkscape:connector-curvature="0" />
        </g>
        <g
           transform="translate(-148.44159,-1.6554655)"
           id="mlayers"
           style="opacity:1">
          <g
             id="planar"
             style="opacity:0">
            <rect
               y="170.27451"
               x="-4.2898312"
               height="33.831745"
               width="182.29495"
               id="rect7593"
               style="opacity:1;fill:#fcf2e9;fill-opacity:1;stroke:#f7e0ca;stroke-width:3.59981704;stroke-linecap:round;stroke-linejoin:miter;stroke-miterlimit:4;stroke-dasharray:none;stroke-dashoffset:0;stroke-opacity:1" />
            <rect
               style="opacity:1;fill:#fcf2e9;fill-opacity:1;stroke:#f7e0ca;stroke-width:3.59981704;stroke-linecap:round;stroke-linejoin:miter;stroke-miterlimit:4;stroke-dasharray:none;stroke-dashoffset:0;stroke-opacity:1"
               id="rect7595"
               width="182.29495"
               height="33.831745"
               x="-4.2898312"
               y="204.38168" />
            <rect
               y="238.44963"
               x="-4.2898312"
               height="40.520859"
               width="182.29495"
               id="rect7597"
               style="opacity:1;fill:#f8e4d2;fill-opacity:1;stroke:#edd1ba;stroke-width:3.59981704;stroke-linecap:round;stroke-linejoin:miter;stroke-miterlimit:4;stroke-dasharray:none;stroke-dashoffset:0;stroke-opacity:1" />
          </g>
          <path
             inkscape:connector-curvature="0"
             id="path5254"
             d="m 48.549509,169.68613 27.709842,32.18889 20.500543,36.34237 29.217066,-33.877 8.40945,-31.92678 14.91679,-24.66201"
             style="fill:none;stroke:#b7c4e4;stroke-width:2;stroke-linecap:round;stroke-linejoin:round;stroke-miterlimit:4;stroke-dasharray:none;stroke-opacity:1;marker-end:url(#marker5258)"
             sodipodi:nodetypes="cccccc" />
          <g
             id="otherPaths">
            <path
               inkscape:connector-curvature="0"
               id="path5684"
               d="m 48.549509,169.68613 22.588385,32.05098 29.999436,35.79169 21.36175,-35.27514 9.22286,-29.65917 11.32107,-26.37316"
               style="opacity:0.6;fill:none;stroke:#b7c4e4;stroke-width:2;stroke-linecap:round;stroke-linejoin:round;stroke-miterlimit:4;stroke-dasharray:none;stroke-opacity:1;marker-end:url(#marker5854)"
               sodipodi:nodetypes="cccccc" />
            <path
               sodipodi:nodetypes="cccccc"
               style="opacity:0.6;fill:none;stroke:#b7c4e4;stroke-width:2;stroke-linecap:round;stroke-linejoin:round;stroke-miterlimit:4;stroke-dasharray:none;stroke-opacity:1;marker-end:url(#marker11836)"
               d="m 48.549509,169.68613 32.72043,32.24772 8.35675,37.00494 42.190221,-32.92797 7.77458,-34.49839 17.91182,-23.0286"
               id="path11666"
               inkscape:connector-curvature="0" />
            <path
               inkscape:connector-curvature="0"
               id="path18146"
               d="m 48.549509,169.68613 18.751979,32.73957 29.458406,35.79169 21.632386,-35.05843 25.44223,-32.27255 -9.14611,-23.30683"
               style="opacity:0.6;fill:none;stroke:#b7c4e4;stroke-width:2;stroke-linecap:round;stroke-linejoin:round;stroke-miterlimit:4;stroke-dasharray:none;stroke-opacity:1;marker-end:url(#marker18316)"
               sodipodi:nodetypes="cccccc" />
          </g>
        </g>
        <g
           transform="translate(-62.604689,1.0720145)"
           id="fourthBounce"
           style="opacity:1;stroke:#f59090;stroke-opacity:1">
          <path
             sodipodi:nodetypes="cc"
             inkscape:connector-curvature="0"
             id="path4567"
             d="m 48.549509,169.68613 -8.40945,31.92678"
             style="fill:none;stroke:#f59090;stroke-width:2.0001905;stroke-linecap:round;stroke-linejoin:miter;stroke-miterlimit:4;stroke-dasharray:none;stroke-opacity:1" />
          <circle
             r="1.9197617"
             cy="169.68613"
             cx="48.549507"
             id="circle7130"
             style="opacity:1;fill:#ffffff;fill-opacity:1;stroke:#f59090;stroke-width:2;stroke-linecap:round;stroke-linejoin:miter;stroke-miterlimit:4;stroke-dasharray:none;stroke-dashoffset:0;stroke-opacity:1" />
        </g>
        <g
           style="opacity:1;stroke:#f59090;stroke-opacity:1"
           id="thirdBounce"
           transform="translate(-71.014139,32.998795)">
          <path
             style="fill:none;stroke:#f59090;stroke-width:2.0001905;stroke-linecap:round;stroke-linejoin:miter;stroke-miterlimit:4;stroke-dasharray:none;stroke-opacity:1"
             d="m 48.549509,169.68613 -29.217066,33.877"
             id="path7122"
             inkscape:connector-curvature="0"
             sodipodi:nodetypes="cc" />
          <circle
             style="opacity:1;fill:#ffffff;fill-opacity:1;stroke:#f59090;stroke-width:2;stroke-linecap:round;stroke-linejoin:miter;stroke-miterlimit:4;stroke-dasharray:none;stroke-dashoffset:0;stroke-opacity:1"
             id="circle7124"
             cx="48.549507"
             cy="169.68613"
             r="1.9197617" />
        </g>
        <g
           transform="translate(-100.23121,66.875795)"
           id="secondBounce"
           style="opacity:1;stroke:#f59090;stroke-opacity:1">
          <path
             sodipodi:nodetypes="cc"
             inkscape:connector-curvature="0"
             id="path7116"
             d="M 48.549509,169.68613 28.048971,133.34376"
             style="fill:none;stroke:#f59090;stroke-width:2.0001905;stroke-linecap:round;stroke-linejoin:miter;stroke-miterlimit:4;stroke-dasharray:none;stroke-opacity:1" />
          <circle
             r="1.9197617"
             cy="169.68613"
             cx="48.549507"
             id="circle7118"
             style="opacity:1;fill:#ffffff;fill-opacity:1;stroke:#f59090;stroke-width:2;stroke-linecap:round;stroke-linejoin:miter;stroke-miterlimit:4;stroke-dasharray:none;stroke-dashoffset:0;stroke-opacity:1" />
        </g>
        <g
           style="opacity:1;stroke:#f59090;stroke-opacity:1"
           id="firstBounce"
           transform="translate(-120.73175,30.533425)">
          <path
             style="fill:none;stroke:#f59090;stroke-width:2.0001905;stroke-linecap:round;stroke-linejoin:miter;stroke-miterlimit:4;stroke-dasharray:none;stroke-opacity:1"
             d="M 48.549509,169.68613 20.839669,137.49724"
             id="path6968"
             inkscape:connector-curvature="0"
             sodipodi:nodetypes="cc" />
          <circle
             style="opacity:1;fill:#ffffff;fill-opacity:1;stroke:#f59090;stroke-width:2;stroke-linecap:round;stroke-linejoin:miter;stroke-miterlimit:4;stroke-dasharray:none;stroke-dashoffset:0;stroke-opacity:1"
             id="circle6970"
             cx="48.549507"
             cy="169.68613"
             r="1.9197617" />
        </g>
        <g
           transform="translate(-148.44159,-1.6554655)"
           id="wi"
           style="opacity:1">
          <path
             sodipodi:nodetypes="cc"
             inkscape:connector-curvature="0"
             id="path4958"
             d="M 48.549509,169.68613 25.774765,139.98786"
             style="fill:none;stroke:#000000;stroke-width:2;stroke-linecap:round;stroke-linejoin:miter;stroke-miterlimit:4;stroke-dasharray:none;stroke-opacity:1;marker-end:url(#Arrow2Send)" />
          <circle
             r="1.9197617"
             cy="169.68613"
             cx="48.549507"
             id="path5226"
             style="opacity:1;fill:#ffffff;fill-opacity:1;stroke:#000000;stroke-width:2;stroke-linecap:round;stroke-linejoin:miter;stroke-miterlimit:4;stroke-dasharray:none;stroke-dashoffset:0;stroke-opacity:1" />
        </g>
        <g
           style="opacity:1;stroke:#f59090;stroke-opacity:1"
           id="lastBounce"
           transform="translate(-62.604689,1.0720145)">
          <path
             style="fill:none;stroke:#f59090;stroke-width:2.00030327;stroke-linecap:round;stroke-linejoin:miter;stroke-miterlimit:4;stroke-dasharray:none;stroke-opacity:1;marker-end:url(#marker4852)"
             d="m 48.549509,169.68613 14.91679,-24.66201"
             id="path4569"
             inkscape:connector-curvature="0"
             sodipodi:nodetypes="cc" />
          <circle
             style="opacity:1;fill:#ffffff;fill-opacity:1;stroke:#f59090;stroke-width:2;stroke-linecap:round;stroke-linejoin:miter;stroke-miterlimit:4;stroke-dasharray:none;stroke-dashoffset:0;stroke-opacity:1"
             id="circle4571"
             cx="48.549507"
             cy="169.68613"
             r="1.9197617" />
        </g>
      </g>
      <rect
         y="168.50723"
         x="39.850613"
         height="111.36852"
         width="101.86494"
         id="rect6721"
         style="opacity:1;fill:none;fill-opacity:1;stroke:#000000;stroke-width:0.58944386;stroke-linecap:round;stroke-linejoin:miter;stroke-miterlimit:4;stroke-dasharray:none;stroke-dashoffset:0;stroke-opacity:1" />
    </g>
  </g>
</svg>
