<?xml version="1.0" encoding="UTF-8" standalone="no"?>
<!-- Created with Inkscape (http://www.inkscape.org/) -->

<svg
   xmlns:dc="http://purl.org/dc/elements/1.1/"
   xmlns:cc="http://creativecommons.org/ns#"
   xmlns:rdf="http://www.w3.org/1999/02/22-rdf-syntax-ns#"
   xmlns:svg="http://www.w3.org/2000/svg"
   xmlns="http://www.w3.org/2000/svg"
   xmlns:sodipodi="http://sodipodi.sourceforge.net/DTD/sodipodi-0.dtd"
   xmlns:inkscape="http://www.inkscape.org/namespaces/inkscape"
   version="1.1"
   id="svg2"
   xml:space="preserve"
   width="768"
   height="576"
   viewBox="0 0 768 576"
   sodipodi:docname="variance_vs_alpha.svg"
   inkscape:version="0.92.1 r15371"><metadata
     id="metadata8"><rdf:RDF><cc:Work
         rdf:about=""><dc:format>image/svg+xml</dc:format><dc:type
           rdf:resource="http://purl.org/dc/dcmitype/StillImage" /><dc:title></dc:title></cc:Work></rdf:RDF></metadata><defs
     id="defs6" /><sodipodi:namedview
     pagecolor="#ffffff"
     bordercolor="#666666"
     borderopacity="1"
     objecttolerance="10"
     gridtolerance="10"
     guidetolerance="10"
     inkscape:pageopacity="0"
     inkscape:pageshadow="2"
     inkscape:window-width="2560"
     inkscape:window-height="1376"
     id="namedview4"
     showgrid="false"
     inkscape:zoom="1.1588694"
     inkscape:cx="262.74842"
     inkscape:cy="344.49333"
     inkscape:window-x="0"
     inkscape:window-y="27"
     inkscape:window-maximized="1"
     inkscape:current-layer="g12" /><g
     id="g10"
     inkscape:groupmode="layer"
     inkscape:label="variance_vs_alpha"
     transform="matrix(1.3333333,0,0,-1.3333333,0,576)"><g
       id="g12"><path
         d="m 64.148,416.102 h 489.301 v -372 H 64.148 Z"
         style="fill:#ffffff;fill-opacity:1;fill-rule:nonzero;stroke:none"
         id="path16"
         inkscape:connector-curvature="0" /><g
         id="g18"
         transform="matrix(1,0,0,-1,0,432)"><path
           d="M 64.148,387.898 H 553.5"
           style="fill:none;stroke:#262626;stroke-width:1;stroke-linecap:butt;stroke-linejoin:miter;stroke-miterlimit:3.79999995;stroke-dasharray:none;stroke-opacity:0.14902003"
           id="path20"
           inkscape:connector-curvature="0" /></g><g
         id="g22"
         transform="matrix(1,0,0,-1,0,432)"><path
           d="m 64.148,387.898 h 7.75"
           style="fill:none;stroke:#000000;stroke-width:0.5;stroke-linecap:butt;stroke-linejoin:miter;stroke-miterlimit:3.79999995;stroke-dasharray:none;stroke-opacity:1"
           id="path24"
           inkscape:connector-curvature="0" /></g><g
         id="g26"
         transform="matrix(1,0,0,-1,0,432)"><path
           d="m 553.5,387.898 h -7.75"
           style="fill:none;stroke:#000000;stroke-width:0.5;stroke-linecap:butt;stroke-linejoin:miter;stroke-miterlimit:3.79999995;stroke-dasharray:none;stroke-opacity:1"
           id="path28"
           inkscape:connector-curvature="0" /></g><text
         transform="matrix(1,0,0,-1,48.839844,39.587891)"
         style="font-variant:normal;font-weight:normal;font-size:12px;font-family:'DejaVu Sans';-inkscape-font-specification:DejaVuSans;writing-mode:lr-tb;fill:#262626;fill-opacity:1;fill-rule:nonzero;stroke:none"
         id="text32"><tspan
           x="0"
           y="0"
           id="tspan30">0</tspan></text>
<g
         id="g34"
         transform="matrix(1,0,0,-1,0,432)"><path
           d="M 64.148,334.75 H 553.5"
           style="fill:none;stroke:#262626;stroke-width:1;stroke-linecap:butt;stroke-linejoin:miter;stroke-miterlimit:3.79999995;stroke-dasharray:none;stroke-opacity:0.14902003"
           id="path36"
           inkscape:connector-curvature="0" /></g><g
         id="g38"
         transform="matrix(1,0,0,-1,0,432)"><path
           d="m 64.148,334.75 h 7.75"
           style="fill:none;stroke:#000000;stroke-width:0.5;stroke-linecap:butt;stroke-linejoin:miter;stroke-miterlimit:3.79999995;stroke-dasharray:none;stroke-opacity:1"
           id="path40"
           inkscape:connector-curvature="0" /></g><g
         id="g42"
         transform="matrix(1,0,0,-1,0,432)"><path
           d="m 553.5,334.75 h -7.75"
           style="fill:none;stroke:#000000;stroke-width:0.5;stroke-linecap:butt;stroke-linejoin:miter;stroke-miterlimit:3.79999995;stroke-dasharray:none;stroke-opacity:1"
           id="path44"
           inkscape:connector-curvature="0" /></g><text
         transform="matrix(1,0,0,-1,29.757812,92.736328)"
         style="font-variant:normal;font-weight:normal;font-size:12px;font-family:'DejaVu Sans';-inkscape-font-specification:DejaVuSans;writing-mode:lr-tb;fill:#262626;fill-opacity:1;fill-rule:nonzero;stroke:none"
         id="text48"><tspan
           x="0 7.632 11.436 19.068001"
           y="0"
           sodipodi:role="line"
           id="tspan46">0.05</tspan></text>
<g
         id="g50"
         transform="matrix(1,0,0,-1,0,432)"><path
           d="M 64.148,281.602 H 553.5"
           style="fill:none;stroke:#262626;stroke-width:1;stroke-linecap:butt;stroke-linejoin:miter;stroke-miterlimit:3.79999995;stroke-dasharray:none;stroke-opacity:0.14902003"
           id="path52"
           inkscape:connector-curvature="0" /></g><g
         id="g54"
         transform="matrix(1,0,0,-1,0,432)"><path
           d="m 64.148,281.602 h 7.75"
           style="fill:none;stroke:#000000;stroke-width:0.5;stroke-linecap:butt;stroke-linejoin:miter;stroke-miterlimit:3.79999995;stroke-dasharray:none;stroke-opacity:1"
           id="path56"
           inkscape:connector-curvature="0" /></g><g
         id="g58"
         transform="matrix(1,0,0,-1,0,432)"><path
           d="m 553.5,281.602 h -7.75"
           style="fill:none;stroke:#000000;stroke-width:0.5;stroke-linecap:butt;stroke-linejoin:miter;stroke-miterlimit:3.79999995;stroke-dasharray:none;stroke-opacity:1"
           id="path60"
           inkscape:connector-curvature="0" /></g><text
         transform="matrix(1,0,0,-1,37.390625,145.88477)"
         style="font-variant:normal;font-weight:normal;font-size:12px;font-family:'DejaVu Sans';-inkscape-font-specification:DejaVuSans;writing-mode:lr-tb;fill:#262626;fill-opacity:1;fill-rule:nonzero;stroke:none"
         id="text64"><tspan
           x="0 7.632 11.436"
           y="0"
           sodipodi:role="line"
           id="tspan62">0.1</tspan></text>
<g
         id="g66"
         transform="matrix(1,0,0,-1,0,432)"><path
           d="M 64.148,228.449 H 553.5"
           style="fill:none;stroke:#262626;stroke-width:1;stroke-linecap:butt;stroke-linejoin:miter;stroke-miterlimit:3.79999995;stroke-dasharray:none;stroke-opacity:0.14902003"
           id="path68"
           inkscape:connector-curvature="0" /></g><g
         id="g70"
         transform="matrix(1,0,0,-1,0,432)"><path
           d="m 64.148,228.449 h 7.75"
           style="fill:none;stroke:#000000;stroke-width:0.5;stroke-linecap:butt;stroke-linejoin:miter;stroke-miterlimit:3.79999995;stroke-dasharray:none;stroke-opacity:1"
           id="path72"
           inkscape:connector-curvature="0" /></g><g
         id="g74"
         transform="matrix(1,0,0,-1,0,432)"><path
           d="m 553.5,228.449 h -7.75"
           style="fill:none;stroke:#000000;stroke-width:0.5;stroke-linecap:butt;stroke-linejoin:miter;stroke-miterlimit:3.79999995;stroke-dasharray:none;stroke-opacity:1"
           id="path76"
           inkscape:connector-curvature="0" /></g><text
         transform="matrix(1,0,0,-1,29.757812,199.03711)"
         style="font-variant:normal;font-weight:normal;font-size:12px;font-family:'DejaVu Sans';-inkscape-font-specification:DejaVuSans;writing-mode:lr-tb;fill:#262626;fill-opacity:1;fill-rule:nonzero;stroke:none"
         id="text80"><tspan
           x="0 7.632 11.436 19.068001"
           y="0"
           sodipodi:role="line"
           id="tspan78">0.15</tspan></text>
<g
         id="g82"
         transform="matrix(1,0,0,-1,0,432)"><path
           d="M 64.148,175.301 H 553.5"
           style="fill:none;stroke:#262626;stroke-width:1;stroke-linecap:butt;stroke-linejoin:miter;stroke-miterlimit:3.79999995;stroke-dasharray:none;stroke-opacity:0.14902003"
           id="path84"
           inkscape:connector-curvature="0" /></g><g
         id="g86"
         transform="matrix(1,0,0,-1,0,432)"><path
           d="m 64.148,175.301 h 7.75"
           style="fill:none;stroke:#000000;stroke-width:0.5;stroke-linecap:butt;stroke-linejoin:miter;stroke-miterlimit:3.79999995;stroke-dasharray:none;stroke-opacity:1"
           id="path88"
           inkscape:connector-curvature="0" /></g><g
         id="g90"
         transform="matrix(1,0,0,-1,0,432)"><path
           d="m 553.5,175.301 h -7.75"
           style="fill:none;stroke:#000000;stroke-width:0.5;stroke-linecap:butt;stroke-linejoin:miter;stroke-miterlimit:3.79999995;stroke-dasharray:none;stroke-opacity:1"
           id="path92"
           inkscape:connector-curvature="0" /></g><text
         transform="matrix(1,0,0,-1,37.390625,252.18555)"
         style="font-variant:normal;font-weight:normal;font-size:12px;font-family:'DejaVu Sans';-inkscape-font-specification:DejaVuSans;writing-mode:lr-tb;fill:#262626;fill-opacity:1;fill-rule:nonzero;stroke:none"
         id="text96"><tspan
           x="0 7.632 11.436"
           y="0"
           sodipodi:role="line"
           id="tspan94">0.2</tspan></text>
<g
         id="g98"
         transform="matrix(1,0,0,-1,0,432)"><path
           d="M 64.148,122.148 H 553.5"
           style="fill:none;stroke:#262626;stroke-width:1;stroke-linecap:butt;stroke-linejoin:miter;stroke-miterlimit:3.79999995;stroke-dasharray:none;stroke-opacity:0.14902003"
           id="path100"
           inkscape:connector-curvature="0" /></g><g
         id="g102"
         transform="matrix(1,0,0,-1,0,432)"><path
           d="m 64.148,122.148 h 7.75"
           style="fill:none;stroke:#000000;stroke-width:0.5;stroke-linecap:butt;stroke-linejoin:miter;stroke-miterlimit:3.79999995;stroke-dasharray:none;stroke-opacity:1"
           id="path104"
           inkscape:connector-curvature="0" /></g><g
         id="g106"
         transform="matrix(1,0,0,-1,0,432)"><path
           d="m 553.5,122.148 h -7.75"
           style="fill:none;stroke:#000000;stroke-width:0.5;stroke-linecap:butt;stroke-linejoin:miter;stroke-miterlimit:3.79999995;stroke-dasharray:none;stroke-opacity:1"
           id="path108"
           inkscape:connector-curvature="0" /></g><text
         transform="matrix(1,0,0,-1,29.757812,305.33789)"
         style="font-variant:normal;font-weight:normal;font-size:12px;font-family:'DejaVu Sans';-inkscape-font-specification:DejaVuSans;writing-mode:lr-tb;fill:#262626;fill-opacity:1;fill-rule:nonzero;stroke:none"
         id="text112"><tspan
           x="0 7.632 11.436 19.068001"
           y="0"
           sodipodi:role="line"
           id="tspan110">0.25</tspan></text>
<g
         id="g114"
         transform="matrix(1,0,0,-1,0,432)"><path
           d="M 64.148,69 H 553.5"
           style="fill:none;stroke:#262626;stroke-width:1;stroke-linecap:butt;stroke-linejoin:miter;stroke-miterlimit:3.79999995;stroke-dasharray:none;stroke-opacity:0.14902003"
           id="path116"
           inkscape:connector-curvature="0" /></g><g
         id="g118"
         transform="matrix(1,0,0,-1,0,432)"><path
           d="m 64.148,69 h 7.75"
           style="fill:none;stroke:#000000;stroke-width:0.5;stroke-linecap:butt;stroke-linejoin:miter;stroke-miterlimit:3.79999995;stroke-dasharray:none;stroke-opacity:1"
           id="path120"
           inkscape:connector-curvature="0" /></g><g
         id="g122"
         transform="matrix(1,0,0,-1,0,432)"><path
           d="m 553.5,69 h -7.75"
           style="fill:none;stroke:#000000;stroke-width:0.5;stroke-linecap:butt;stroke-linejoin:miter;stroke-miterlimit:3.79999995;stroke-dasharray:none;stroke-opacity:1"
           id="path124"
           inkscape:connector-curvature="0" /></g><text
         transform="matrix(1,0,0,-1,37.390625,358.48633)"
         style="font-variant:normal;font-weight:normal;font-size:12px;font-family:'DejaVu Sans';-inkscape-font-specification:DejaVuSans;writing-mode:lr-tb;fill:#262626;fill-opacity:1;fill-rule:nonzero;stroke:none"
         id="text128"><tspan
           x="0 7.632 11.436"
           y="0"
           sodipodi:role="line"
           id="tspan126">0.3</tspan></text>
<g
         id="g130"
         transform="matrix(1,0,0,-1,0,432)"><path
           d="M 64.148,15.852 H 553.5"
           style="fill:none;stroke:#262626;stroke-width:1;stroke-linecap:butt;stroke-linejoin:miter;stroke-miterlimit:3.79999995;stroke-dasharray:none;stroke-opacity:0.14902003"
           id="path132"
           inkscape:connector-curvature="0" /></g><g
         id="g134"
         transform="matrix(1,0,0,-1,0,432)"><path
           d="m 64.148,15.852 h 7.75"
           style="fill:none;stroke:#000000;stroke-width:0.5;stroke-linecap:butt;stroke-linejoin:miter;stroke-miterlimit:3.79999995;stroke-dasharray:none;stroke-opacity:1"
           id="path136"
           inkscape:connector-curvature="0" /></g><g
         id="g138"
         transform="matrix(1,0,0,-1,0,432)"><path
           d="m 553.5,15.852 h -7.75"
           style="fill:none;stroke:#000000;stroke-width:0.5;stroke-linecap:butt;stroke-linejoin:miter;stroke-miterlimit:3.79999995;stroke-dasharray:none;stroke-opacity:1"
           id="path140"
           inkscape:connector-curvature="0" /></g><text
         transform="matrix(1,0,0,-1,29.757812,411.63477)"
         style="font-variant:normal;font-weight:normal;font-size:12px;font-family:'DejaVu Sans';-inkscape-font-specification:DejaVuSans;writing-mode:lr-tb;fill:#262626;fill-opacity:1;fill-rule:nonzero;stroke:none"
         id="text144"><tspan
           x="0 7.632 11.436 19.068001"
           y="0"
           sodipodi:role="line"
           id="tspan142">0.35</tspan></text>
<g
         id="g146"
         transform="matrix(1,0,0,-1,0,432)"><path
           d="M 64.148,387.898 V 15.852"
           style="fill:none;stroke:#262626;stroke-width:1;stroke-linecap:butt;stroke-linejoin:miter;stroke-miterlimit:3.79999995;stroke-dasharray:none;stroke-opacity:0.14902003"
           id="path148"
           inkscape:connector-curvature="0" /></g><g
         id="g150"
         transform="matrix(1,0,0,-1,0,432)"><path
           d="m 64.148,387.898 v -7.75"
           style="fill:none;stroke:#000000;stroke-width:0.5;stroke-linecap:butt;stroke-linejoin:miter;stroke-miterlimit:3.79999995;stroke-dasharray:none;stroke-opacity:1"
           id="path152"
           inkscape:connector-curvature="0" /></g><g
         id="g154"
         transform="matrix(1,0,0,-1,0,432)"><path
           d="m 64.148,15.852 v 7.75"
           style="fill:none;stroke:#000000;stroke-width:0.5;stroke-linecap:butt;stroke-linejoin:miter;stroke-miterlimit:3.79999995;stroke-dasharray:none;stroke-opacity:1"
           id="path156"
           inkscape:connector-curvature="0" /></g><text
         transform="matrix(1,0,0,-1,60.308594,25.634766)"
         style="font-variant:normal;font-weight:normal;font-size:12px;font-family:'DejaVu Sans';-inkscape-font-specification:DejaVuSans;writing-mode:lr-tb;fill:#262626;fill-opacity:1;fill-rule:nonzero;stroke:none"
         id="text160"><tspan
           x="0"
           y="0"
           id="tspan158">0</tspan></text>
<g
         id="g162"
         transform="matrix(1,0,0,-1,0,432)"><path
           d="M 162,387.898 V 15.852"
           style="fill:none;stroke:#262626;stroke-width:1;stroke-linecap:butt;stroke-linejoin:miter;stroke-miterlimit:3.79999995;stroke-dasharray:none;stroke-opacity:0.14902003"
           id="path164"
           inkscape:connector-curvature="0" /></g><g
         id="g166"
         transform="matrix(1,0,0,-1,0,432)"><path
           d="m 162,387.898 v -7.75"
           style="fill:none;stroke:#000000;stroke-width:0.5;stroke-linecap:butt;stroke-linejoin:miter;stroke-miterlimit:3.79999995;stroke-dasharray:none;stroke-opacity:1"
           id="path168"
           inkscape:connector-curvature="0" /></g><g
         id="g170"
         transform="matrix(1,0,0,-1,0,432)"><path
           d="m 162,15.852 v 7.75"
           style="fill:none;stroke:#000000;stroke-width:0.5;stroke-linecap:butt;stroke-linejoin:miter;stroke-miterlimit:3.79999995;stroke-dasharray:none;stroke-opacity:1"
           id="path172"
           inkscape:connector-curvature="0" /></g><text
         transform="matrix(1,0,0,-1,152.43359,25.634766)"
         style="font-variant:normal;font-weight:normal;font-size:12px;font-family:'DejaVu Sans';-inkscape-font-specification:DejaVuSans;writing-mode:lr-tb;fill:#262626;fill-opacity:1;fill-rule:nonzero;stroke:none"
         id="text176"><tspan
           x="0 7.632 11.436"
           y="0"
           sodipodi:role="line"
           id="tspan174">0.2</tspan></text>
<g
         id="g178"
         transform="matrix(1,0,0,-1,0,432)"><path
           d="M 259.898,387.898 V 15.852"
           style="fill:none;stroke:#262626;stroke-width:1;stroke-linecap:butt;stroke-linejoin:miter;stroke-miterlimit:3.79999995;stroke-dasharray:none;stroke-opacity:0.14902003"
           id="path180"
           inkscape:connector-curvature="0" /></g><g
         id="g182"
         transform="matrix(1,0,0,-1,0,432)"><path
           d="m 259.898,387.898 v -7.75"
           style="fill:none;stroke:#000000;stroke-width:0.5;stroke-linecap:butt;stroke-linejoin:miter;stroke-miterlimit:3.79999995;stroke-dasharray:none;stroke-opacity:1"
           id="path184"
           inkscape:connector-curvature="0" /></g><g
         id="g186"
         transform="matrix(1,0,0,-1,0,432)"><path
           d="m 259.898,15.852 v 7.75"
           style="fill:none;stroke:#000000;stroke-width:0.5;stroke-linecap:butt;stroke-linejoin:miter;stroke-miterlimit:3.79999995;stroke-dasharray:none;stroke-opacity:1"
           id="path188"
           inkscape:connector-curvature="0" /></g><text
         transform="matrix(1,0,0,-1,250.33203,25.634766)"
         style="font-variant:normal;font-weight:normal;font-size:12px;font-family:'DejaVu Sans';-inkscape-font-specification:DejaVuSans;writing-mode:lr-tb;fill:#262626;fill-opacity:1;fill-rule:nonzero;stroke:none"
         id="text192"><tspan
           x="0 7.632 11.436"
           y="0"
           sodipodi:role="line"
           id="tspan190">0.4</tspan></text>
<g
         id="g194"
         transform="matrix(1,0,0,-1,0,432)"><path
           d="m 357.75,387.898 v -5.546"
           style="fill:none;stroke:#262626;stroke-width:1;stroke-linecap:butt;stroke-linejoin:miter;stroke-miterlimit:3.79999995;stroke-dasharray:none;stroke-opacity:0.14902003"
           id="path196"
           inkscape:connector-curvature="0" /></g><g
         id="g198"
         transform="matrix(1,0,0,-1,0,432)"><path
           d="M 357.75,351.148 V 15.852"
           style="fill:none;stroke:#262626;stroke-width:1;stroke-linecap:butt;stroke-linejoin:miter;stroke-miterlimit:3.79999995;stroke-dasharray:none;stroke-opacity:0.14902003"
           id="path200"
           inkscape:connector-curvature="0" /></g><g
         id="g202"
         transform="matrix(1,0,0,-1,0,432)"><path
           d="m 357.75,387.898 v -7.75"
           style="fill:none;stroke:#000000;stroke-width:0.5;stroke-linecap:butt;stroke-linejoin:miter;stroke-miterlimit:3.79999995;stroke-dasharray:none;stroke-opacity:1"
           id="path204"
           inkscape:connector-curvature="0" /></g><g
         id="g206"
         transform="matrix(1,0,0,-1,0,432)"><path
           d="m 357.75,15.852 v 7.75"
           style="fill:none;stroke:#000000;stroke-width:0.5;stroke-linecap:butt;stroke-linejoin:miter;stroke-miterlimit:3.79999995;stroke-dasharray:none;stroke-opacity:1"
           id="path208"
           inkscape:connector-curvature="0" /></g><text
         transform="matrix(1,0,0,-1,348.18359,25.634766)"
         style="font-variant:normal;font-weight:normal;font-size:12px;font-family:'DejaVu Sans';-inkscape-font-specification:DejaVuSans;writing-mode:lr-tb;fill:#262626;fill-opacity:1;fill-rule:nonzero;stroke:none"
         id="text212"><tspan
           x="0 7.632 11.436"
           y="0"
           sodipodi:role="line"
           id="tspan210">0.6</tspan></text>
<g
         id="g214"
         transform="matrix(1,0,0,-1,0,432)"><path
           d="m 455.648,387.898 v -5.546"
           style="fill:none;stroke:#262626;stroke-width:1;stroke-linecap:butt;stroke-linejoin:miter;stroke-miterlimit:3.79999995;stroke-dasharray:none;stroke-opacity:0.14902003"
           id="path216"
           inkscape:connector-curvature="0" /></g><g
         id="g218"
         transform="matrix(1,0,0,-1,0,432)"><path
           d="M 455.648,351.148 V 15.852"
           style="fill:none;stroke:#262626;stroke-width:1;stroke-linecap:butt;stroke-linejoin:miter;stroke-miterlimit:3.79999995;stroke-dasharray:none;stroke-opacity:0.14902003"
           id="path220"
           inkscape:connector-curvature="0" /></g><g
         id="g222"
         transform="matrix(1,0,0,-1,0,432)"><path
           d="m 455.648,387.898 v -7.75"
           style="fill:none;stroke:#000000;stroke-width:0.5;stroke-linecap:butt;stroke-linejoin:miter;stroke-miterlimit:3.79999995;stroke-dasharray:none;stroke-opacity:1"
           id="path224"
           inkscape:connector-curvature="0" /></g><g
         id="g226"
         transform="matrix(1,0,0,-1,0,432)"><path
           d="m 455.648,15.852 v 7.75"
           style="fill:none;stroke:#000000;stroke-width:0.5;stroke-linecap:butt;stroke-linejoin:miter;stroke-miterlimit:3.79999995;stroke-dasharray:none;stroke-opacity:1"
           id="path228"
           inkscape:connector-curvature="0" /></g><text
         transform="matrix(1,0,0,-1,446.08203,25.634766)"
         style="font-variant:normal;font-weight:normal;font-size:12px;font-family:'DejaVu Sans';-inkscape-font-specification:DejaVuSans;writing-mode:lr-tb;fill:#262626;fill-opacity:1;fill-rule:nonzero;stroke:none"
         id="text232"><tspan
           x="0 7.632 11.436"
           y="0"
           sodipodi:role="line"
           id="tspan230">0.8</tspan></text>
<g
         id="g234"
         transform="matrix(1,0,0,-1,0,432)"><path
           d="M 553.5,387.898 V 15.852"
           style="fill:none;stroke:#262626;stroke-width:1;stroke-linecap:butt;stroke-linejoin:miter;stroke-miterlimit:3.79999995;stroke-dasharray:none;stroke-opacity:0.14902003"
           id="path236"
           inkscape:connector-curvature="0" /></g><g
         id="g238"
         transform="matrix(1,0,0,-1,0,432)"><path
           d="m 553.5,387.898 v -7.75"
           style="fill:none;stroke:#000000;stroke-width:0.5;stroke-linecap:butt;stroke-linejoin:miter;stroke-miterlimit:3.79999995;stroke-dasharray:none;stroke-opacity:1"
           id="path240"
           inkscape:connector-curvature="0" /></g><g
         id="g242"
         transform="matrix(1,0,0,-1,0,432)"><path
           d="m 553.5,15.852 v 7.75"
           style="fill:none;stroke:#000000;stroke-width:0.5;stroke-linecap:butt;stroke-linejoin:miter;stroke-miterlimit:3.79999995;stroke-dasharray:none;stroke-opacity:1"
           id="path244"
           inkscape:connector-curvature="0" /></g><text
         transform="matrix(1,0,0,-1,549.65625,25.634766)"
         style="font-variant:normal;font-weight:normal;font-size:12px;font-family:'DejaVu Sans';-inkscape-font-specification:DejaVuSans;writing-mode:lr-tb;fill:#262626;fill-opacity:1;fill-rule:nonzero;stroke:none"
         id="text248"><tspan
           x="0"
           y="0"
           id="tspan246">1</tspan></text>
<text
         transform="matrix(0,1,1,0,15.763672,204.29297)"
         style="font-variant:normal;font-weight:normal;font-size:12px;font-family:'DejaVu Sans';-inkscape-font-specification:DejaVuSans;writing-mode:lr-tb;fill:#262626;fill-opacity:1;fill-rule:nonzero;stroke:none"
         id="text252"><tspan
           x="0 7.092 14.436 19.368 22.691999 30.035999 37.632 44.220001"
           y="0"
           sodipodi:role="line"
           id="tspan250">variance</tspan></text>
<text
         transform="matrix(1,0,0,-1,277.60937,4.736328)"
         style="font-variant:normal;font-weight:normal;font-size:12px;font-family:'DejaVu Sans';-inkscape-font-specification:DejaVuSans;writing-mode:lr-tb;fill:#262626;fill-opacity:1;fill-rule:nonzero;stroke:none"
         id="text256"><tspan
           x="0 4.6680002 12 19.596001 27.204 34.799999 42.396 49.776001 56.015999"
           y="0"
           sodipodi:role="line"
           id="tspan254">roughness</tspan></text>
<g
         id="g258"
         transform="matrix(1,0,0,-1,0,432)"><path
           d="m 341.398,351.148 h 204.453 v 31.203 H 341.398 Z"
           style="fill:none;stroke:#000000;stroke-width:0.5;stroke-linecap:butt;stroke-linejoin:miter;stroke-miterlimit:3.79999995;stroke-dasharray:none;stroke-opacity:1"
           id="path260"
           inkscape:connector-curvature="0" /></g><text
         transform="scale(1,-1)"
         style="font-variant:normal;font-weight:normal;font-size:12px;font-family:'DejaVu Sans';-inkscape-font-specification:DejaVuSans;writing-mode:lr-tb;fill:#000000;fill-opacity:1;fill-rule:nonzero;stroke:none"
         id="text264"
         x="401.23758"
         y="-60.447327"><tspan
           x="401.23758 408.32959 415.67358 420.60559 423.92957 431.27359 438.86957 445.45758 452.83759 456.64157 463.97357 471.56958 478.94958 482.75357 490.36157 497.69357 505.28958 512.88562 519.47357"
           y="-60.447327"
           sodipodi:role="line"
           id="tspan262">variance one bounce</tspan></text>
<g
         id="g266"
         transform="matrix(1,0,0,-1,8.4133724,423.91022)"
         style="stroke-width:2.25000006;stroke-miterlimit:3.79999995;stroke-dasharray:none"><path
           d="m 349.051,358.949 h 36.148"
           style="fill:none;stroke:#1a00ff;stroke-width:2.25000006;stroke-linecap:butt;stroke-linejoin:miter;stroke-miterlimit:3.79999995;stroke-dasharray:none;stroke-opacity:1"
           id="path268"
           inkscape:connector-curvature="0" /></g><g
         id="g270"
         transform="matrix(1,0,0,-1,0,432)"><path
           d="m 64.148,387.898 3.301,-0.75 3.25,-1.699 3.301,-2.347 3.301,-2.903 3.25,-3.301 3.301,-3.699 3.296,-3.898 3.25,-4.153 3.301,-4.296 3.301,-4.5 3.301,-4.653 3.25,-4.699 3.301,-4.801 3.296,-4.847 3.25,-4.903 3.301,-4.898 3.301,-4.903 3.25,-5 3.301,-4.847 3.301,-4.903 3.25,-4.949 3.296,-4.898 3.301,-4.75 3.25,-4.801 3.301,-4.75 3.301,-4.699 3.25,-4.653 3.301,-4.597 3.296,-4.5 3.301,-4.602 3.25,-4.449 3.301,-4.352 3.301,-4.296 3.25,-4.301 3.301,-4.199 3.296,-4.204 3.25,-4.097 3.301,-3.949 3.301,-4 3.25,-3.852 3.301,-3.898 3.301,-3.75 3.25,-3.75 3.296,-3.653 3.301,-3.551 3.25,-3.449 3.301,-3.449 3.301,-3.352 3.301,-3.347 3.25,-3.25 3.296,-3.25 3.301,-3.051 3.25,-3.051 3.301,-3.051 3.301,-3.046 3.25,-2.954 3.301,-2.898 3.296,-2.852 3.25,-2.847 3.301,-2.75 3.301,-2.653 3.25,-2.648 3.301,-2.602 3.301,-2.546 3.296,-2.5 3.25,-2.352 3.301,-2.398 3.301,-2.352 3.25,-2.25 3.301,-2.199 3.301,-2.25 3.25,-2.199 3.296,-2.204 3.301,-2.097 3.25,-2.102 3.301,-2 3.301,-2.051 3.25,-1.898 3.301,-1.898 3.296,-1.903 3.25,-1.847 3.301,-1.801 3.301,-1.903 3.25,-1.75 3.301,-1.699 3.301,-1.648 3.296,-1.699 3.25,-1.704 3.301,-1.546 3.301,-1.551 3.25,-1.602 3.301,-1.398 3.301,-1.5 3.25,-1.449 3.296,-1.454 3.301,-1.347 3.25,-1.352 3.301,-1.398 3.301,-1.352 3.25,-1.199 3.301,-1.352 3.296,-1.296 3.301,-1.25 3.25,-1.301 3.301,-1.199 3.301,-1.301 3.25,-1.199 3.301,-1.153 3.296,-1.097 3.25,-1.102 3.301,-1.102 3.301,-1.046 3.25,-1.102 3.301,-1.051 3.301,-1 3.25,-1 3.296,-1 3.301,-0.949 3.25,-1.051 3.301,-0.898 3.301,-0.852 3.301,-0.898 3.25,-0.852 3.296,-0.949 3.301,-0.949 3.25,-0.903 3.301,-0.847 3.301,-0.801 3.25,-0.852 3.301,-0.847 3.296,-0.699 3.25,-0.801 3.301,-0.75 3.301,-0.699 3.25,-0.75 3.301,-0.75 3.301,-0.704 3.25,-0.75 3.296,-0.648 3.301,-0.699 3.301,-0.75 3.25,-0.75 3.301,-0.653 3.301,-0.699 3.25,-0.648 3.296,-0.602 3.301,-0.551 3.25,-0.597 3.301,-0.602"
           style="fill:none;stroke:#1a00ff;stroke-width:2.25000006;stroke-linecap:butt;stroke-linejoin:miter;stroke-miterlimit:3.79999995;stroke-dasharray:none;stroke-opacity:1"
           id="path272"
           inkscape:connector-curvature="0" /></g><g
         id="g278"
         transform="matrix(1,0,0,-1,0,432)" /><g
         id="g282"
         transform="matrix(1,0,0,-1,0,432)" /><g
         id="g286"
         transform="matrix(1,0,0,-1,0,432)"><path
           d="M 64.148,387.898 H 553.5"
           style="fill:none;stroke:#262626;stroke-width:1;stroke-linecap:butt;stroke-linejoin:miter;stroke-miterlimit:3.79999995;stroke-dasharray:none;stroke-opacity:1"
           id="path288"
           inkscape:connector-curvature="0" /></g><g
         id="g290"
         transform="matrix(1,0,0,-1,0,432)"><path
           d="M 64.148,15.852 H 553.5"
           style="fill:none;stroke:#262626;stroke-width:1;stroke-linecap:butt;stroke-linejoin:miter;stroke-miterlimit:3.79999995;stroke-dasharray:none;stroke-opacity:1"
           id="path292"
           inkscape:connector-curvature="0" /></g><g
         id="g294"
         transform="matrix(1,0,0,-1,0,432)"><path
           d="M 64.148,387.898 V 15.852"
           style="fill:none;stroke:#262626;stroke-width:1;stroke-linecap:butt;stroke-linejoin:miter;stroke-miterlimit:3.79999995;stroke-dasharray:none;stroke-opacity:1"
           id="path296"
           inkscape:connector-curvature="0" /></g><g
         id="g298"
         transform="matrix(1,0,0,-1,0,432)"><path
           d="M 553.5,387.898 V 15.852"
           style="fill:none;stroke:#262626;stroke-width:1;stroke-linecap:butt;stroke-linejoin:miter;stroke-miterlimit:3.79999995;stroke-dasharray:none;stroke-opacity:1"
           id="path300"
           inkscape:connector-curvature="0" /></g></g></g></svg>