<?xml version="1.0" encoding="UTF-8" standalone="no"?>
<!-- Created with Inkscape (http://www.inkscape.org/) -->

<svg
   xmlns:ns0="http://www.iki.fi/pav/software/textext/"
   xmlns:dc="http://purl.org/dc/elements/1.1/"
   xmlns:cc="http://creativecommons.org/ns#"
   xmlns:rdf="http://www.w3.org/1999/02/22-rdf-syntax-ns#"
   xmlns:svg="http://www.w3.org/2000/svg"
   xmlns="http://www.w3.org/2000/svg"
   xmlns:sodipodi="http://sodipodi.sourceforge.net/DTD/sodipodi-0.dtd"
   xmlns:inkscape="http://www.inkscape.org/namespaces/inkscape"
   width="900"
   height="400"
   viewBox="0 0 900 400.00001"
   id="svg2"
   version="1.1"
   inkscape:version="0.91 r13725"
   sodipodi:docname="course-volume-01.svg">
  <sodipodi:namedview
     id="base"
     pagecolor="#ffffff"
     bordercolor="#666666"
     borderopacity="1.0"
     inkscape:pageopacity="0.0"
     inkscape:pageshadow="2"
     inkscape:zoom="0.88444444"
     inkscape:cx="454.25804"
     inkscape:cy="200"
     inkscape:document-units="px"
     inkscape:current-layer="layer1"
     showgrid="false"
     inkscape:window-width="1280"
     inkscape:window-height="704"
     inkscape:window-x="0"
     inkscape:window-y="1"
     inkscape:window-maximized="1"
     showguides="false"
     units="px"
     fit-margin-top="0"
     fit-margin-left="0"
     fit-margin-right="0"
     fit-margin-bottom="0" />
  <defs
     id="defs4">
    <marker
       inkscape:isstock="true"
       style="overflow:visible"
       id="marker5619"
       refX="0"
       refY="0"
       orient="auto"
       inkscape:stockid="Arrow1Mend">
      <path
         transform="matrix(-0.4,0,0,-0.4,-4,0)"
         style="fill:#000000;fill-opacity:1;fill-rule:evenodd;stroke:#000000;stroke-width:1pt;stroke-opacity:1"
         d="M 0,0 5,-5 -12.5,0 5,5 0,0 Z"
         id="path5621"
         inkscape:connector-curvature="0" />
    </marker>
    <marker
       inkscape:stockid="Arrow1Mend"
       orient="auto"
       refY="0"
       refX="0"
       id="marker5269"
       style="overflow:visible"
       inkscape:isstock="true">
      <path
         id="path5271"
         d="M 0,0 5,-5 -12.5,0 5,5 0,0 Z"
         style="fill:#000000;fill-opacity:1;fill-rule:evenodd;stroke:#000000;stroke-width:1pt;stroke-opacity:1"
         transform="matrix(-0.4,0,0,-0.4,-4,0)"
         inkscape:connector-curvature="0" />
    </marker>
    <marker
       inkscape:isstock="true"
       style="overflow:visible"
       id="marker5147"
       refX="0"
       refY="0"
       orient="auto"
       inkscape:stockid="Arrow1Mend">
      <path
         transform="matrix(-0.4,0,0,-0.4,-4,0)"
         style="fill:#000000;fill-opacity:1;fill-rule:evenodd;stroke:#000000;stroke-width:1pt;stroke-opacity:1"
         d="M 0,0 5,-5 -12.5,0 5,5 0,0 Z"
         id="path5149"
         inkscape:connector-curvature="0" />
    </marker>
    <marker
       inkscape:isstock="true"
       style="overflow:visible"
       id="marker5095"
       refX="0"
       refY="0"
       orient="auto"
       inkscape:stockid="Arrow1Mend"
       inkscape:collect="always">
      <path
         transform="matrix(-0.4,0,0,-0.4,-4,0)"
         style="fill:#000000;fill-opacity:1;fill-rule:evenodd;stroke:#000000;stroke-width:1pt;stroke-opacity:1"
         d="M 0,0 5,-5 -12.5,0 5,5 0,0 Z"
         id="path5097"
         inkscape:connector-curvature="0" />
    </marker>
    <marker
       inkscape:stockid="Arrow1Mend"
       orient="auto"
       refY="0"
       refX="0"
       id="Arrow1Mend"
       style="overflow:visible"
       inkscape:isstock="true"
       inkscape:collect="always">
      <path
         id="path4784"
         d="M 0,0 5,-5 -12.5,0 5,5 0,0 Z"
         style="fill:#000000;fill-opacity:1;fill-rule:evenodd;stroke:#000000;stroke-width:1pt;stroke-opacity:1"
         transform="matrix(-0.4,0,0,-0.4,-4,0)"
         inkscape:connector-curvature="0" />
    </marker>
    <marker
       inkscape:stockid="Arrow1Lend"
       orient="auto"
       refY="0"
       refX="0"
       id="Arrow1Lend"
       style="overflow:visible"
       inkscape:isstock="true">
      <path
         id="path4778"
         d="M 0,0 5,-5 -12.5,0 5,5 0,0 Z"
         style="fill:#000000;fill-opacity:1;fill-rule:evenodd;stroke:#000000;stroke-width:1pt;stroke-opacity:1"
         transform="matrix(-0.8,0,0,-0.8,-10,0)"
         inkscape:connector-curvature="0" />
    </marker>
  </defs>
  <metadata
     id="metadata7">
    <rdf:RDF>
      <cc:Work
         rdf:about="">
        <dc:format>image/svg+xml</dc:format>
        <dc:type
           rdf:resource="http://purl.org/dc/dcmitype/StillImage" />
        <dc:title />
      </cc:Work>
    </rdf:RDF>
  </metadata>
  <g
     inkscape:label="Layer 1"
     inkscape:groupmode="layer"
     id="layer1"
     transform="translate(6.9226633,-650.49643)">
    <ellipse
       style="fill:none;fill-opacity:1;stroke:#000000;stroke-width:2.15619969;stroke-miterlimit:4;stroke-dasharray:2.1561997, 2.1561997;stroke-dashoffset:0;stroke-opacity:1"
       id="ellipse4143"
       cx="215.74413"
       cy="905.55798"
       rx="31.380407"
       ry="94.14122" />
    <path
       inkscape:connector-curvature="0"
       id="path5611"
       d="m 161.79303,910.69241 521.65271,0"
       style="fill:none;fill-rule:evenodd;stroke:#000000;stroke-width:1.07809985px;stroke-linecap:butt;stroke-linejoin:miter;stroke-opacity:1"
       sodipodi:nodetypes="cc" />
    <circle
       r="1.8083966"
       cy="956.88177"
       cx="518.17438"
       id="circle5603"
       style="fill:#000000;fill-opacity:1;stroke:none;stroke-width:2;stroke-linecap:round;stroke-miterlimit:4;stroke-dasharray:none;stroke-opacity:1" />
    <path
       inkscape:connector-curvature="0"
       id="path5265"
       d="m 167.78278,903.02659 265.18253,0 71.88549,-53.00555"
       style="fill:none;fill-rule:evenodd;stroke:#000000;stroke-width:1.07809985px;stroke-linecap:butt;stroke-linejoin:miter;stroke-opacity:1"
       sodipodi:nodetypes="ccc" />
    <path
       style="fill:none;fill-rule:evenodd;stroke:#000000;stroke-width:1.07809985px;stroke-linecap:butt;stroke-linejoin:miter;stroke-opacity:1"
       d="m 160.78139,874.75392 342.42734,0"
       id="path4761"
       inkscape:connector-curvature="0"
       sodipodi:nodetypes="cc" />
    <path
       style="fill:none;fill-rule:evenodd;stroke:#000000;stroke-width:1.07809985px;stroke-linecap:butt;stroke-linejoin:miter;stroke-opacity:1"
       d="m 166.69374,934.10689 537.44386,0"
       id="path4763"
       inkscape:connector-curvature="0" />
    <path
       style="fill:none;fill-rule:evenodd;stroke:#000000;stroke-width:1.07809985px;stroke-linecap:butt;stroke-linejoin:miter;stroke-opacity:1"
       d="m 167.78278,974.94609 265.18253,0 89.30172,107.81551"
       id="path4765"
       inkscape:connector-curvature="0" />
    <circle
       style="fill:#000000;fill-opacity:1;stroke:none;stroke-width:2;stroke-linecap:round;stroke-miterlimit:4;stroke-dasharray:none;stroke-opacity:1"
       id="path5129"
       cx="503.19998"
       cy="874.65894"
       r="1.8083966" />
    <path
       inkscape:connector-curvature="0"
       id="path5143"
       d="m 229.85837,775.10628 138.58101,77.86674 335.69822,0"
       style="fill:none;fill-rule:evenodd;stroke:#000000;stroke-width:1.07809985px;stroke-linecap:butt;stroke-linejoin:miter;stroke-opacity:1"
       sodipodi:nodetypes="ccc" />
    <path
       sodipodi:nodetypes="cc"
       inkscape:connector-curvature="0"
       id="path5601"
       d="m 174.93897,956.97684 342.42735,0"
       style="fill:none;fill-rule:evenodd;stroke:#000000;stroke-width:1.07809985px;stroke-linecap:butt;stroke-linejoin:miter;stroke-opacity:1" />
    <path
       style="fill:#cbdfe8;fill-opacity:0.83944953;stroke:#000000;stroke-width:2.15619969;stroke-miterlimit:4;stroke-dasharray:none;stroke-opacity:1"
       d="m 215.46016,811.96158 0,0.0294 a 31.380407,94.141216 0 0 0 -31.09644,94.11054 31.380407,94.141216 0 0 0 31.09644,94.09998 l 0,0 0.0316,0 a 31.380407,94.141216 0 0 0 0.25269,0.038 31.380407,94.141216 0 0 0 0.35584,-0.038 l 407.6123,0 0,-188.24421 -407.96814,0 -0.28428,0 z"
       id="path4136"
       inkscape:connector-curvature="0" />
    <ellipse
       ry="94.14122"
       rx="31.380407"
       cy="905.55798"
       cx="626.21887"
       id="ellipse4138"
       style="fill:#bbd6e1;fill-opacity:1;stroke:#000000;stroke-width:2.15619969;stroke-miterlimit:4;stroke-dasharray:none;stroke-opacity:1" />
    <path
       inkscape:connector-curvature="0"
       id="path4767"
       d="m 620.82563,934.10689 83.31197,0"
       style="fill:none;fill-rule:evenodd;stroke:#000000;stroke-width:1.07809985px;stroke-linecap:round;stroke-linejoin:miter;stroke-opacity:1;marker-end:url(#Arrow1Mend)"
       sodipodi:nodetypes="cc" />
    <path
       inkscape:connector-curvature="0"
       id="path4769"
       d="m 440.66603,984.2832 81.601,98.4784"
       style="fill:none;fill-rule:evenodd;stroke:#000000;stroke-width:1.07809985px;stroke-linecap:round;stroke-linejoin:miter;stroke-opacity:1;marker-end:url(#marker5095)"
       sodipodi:nodetypes="cc" />
    <path
       sodipodi:nodetypes="cc"
       style="fill:none;fill-rule:evenodd;stroke:#000000;stroke-width:1.07809985px;stroke-linecap:round;stroke-linejoin:miter;stroke-opacity:1;marker-end:url(#marker5147)"
       d="m 635.52774,852.97302 83.31197,0"
       id="path5145"
       inkscape:connector-curvature="0" />
    <path
       sodipodi:nodetypes="cc"
       style="fill:none;fill-rule:evenodd;stroke:#000000;stroke-width:1.07809985px;stroke-linecap:round;stroke-linejoin:miter;stroke-opacity:1;marker-end:url(#marker5269)"
       d="m 440.54691,897.43773 71.91871,-53.18089"
       id="path5267"
       inkscape:connector-curvature="0" />
    <path
       sodipodi:nodetypes="cc"
       style="fill:none;fill-rule:evenodd;stroke:#000000;stroke-width:1.07809985px;stroke-linecap:round;stroke-linejoin:miter;stroke-opacity:1;marker-end:url(#marker5619)"
       d="m 600.13377,910.69241 83.31197,0"
       id="path5613"
       inkscape:connector-curvature="0" />
    <g
       id="Equation">
      <g
         style="font-style:normal;font-variant:normal;font-weight:normal;font-stretch:normal;letter-spacing:normal;word-spacing:normal;text-anchor:start;fill:none;fill-opacity:1;fill-rule:evenodd;stroke:#000000;stroke-linecap:butt;stroke-linejoin:miter;stroke-miterlimit:10.43299961;stroke-dasharray:none;stroke-dashoffset:0;stroke-opacity:1"
         ns0:preamble=""
         ns0:text="$$\\frac{dL}{dt}(\\mathbf{x} + t \\mathbf{\\omega})$$"
         word-spacing="normal"
         letter-spacing="normal"
         font-size-adjust="none"
         font-stretch="normal"
         font-weight="normal"
         font-variant="normal"
         font-style="normal"
         stroke-miterlimit="10.433"
         xml:space="preserve"
         transform="matrix(3.8286293,0,0,-3.8286293,-1423.5833,3395.8552)"
         id="Eq01"><path
           id="path4990"
           d="m 376.39,716.95 0,0 0,0.01 0,0 0,0 0,0 0,0 0,0.01 0,0 -0.01,0.01 0,0 0,0 0,0.01 0,0 0,0.01 0,0 -0.01,0.01 0,0 0,0.01 -0.01,0 0,0.01 0,0 -0.01,0 0,0.01 0,0 -0.01,0 0,0 0,0 0,0.01 -0.01,0 0,0 0,0 -0.01,0 0,0 -0.01,0.01 0,0 -0.01,0 0,0 0,0 -0.01,0 0,0 -0.01,0 -0.01,0 0,0 -0.01,0 0,0 c -0.15,0 -1.1,-0.09 -1.27,-0.11 -0.08,-0.01 -0.14,-0.06 -0.14,-0.18 0,-0.12 0.09,-0.12 0.24,-0.12 0.48,0 0.5,-0.07 0.5,-0.17 l -0.03,-0.2 -0.6,-2.36 c -0.18,0.37 -0.47,0.64 -0.92,0.64 -1.16,0 -2.4,-1.46 -2.4,-2.91 0,-0.93 0.55,-1.59 1.33,-1.59 l 0.02,0.22 c -0.5,0 -0.64,0.55 -0.64,0.93 0,0.5 0.32,1.72 0.55,2.18 0.31,0.58 0.75,0.95 1.15,0.95 0.65,0 0.79,-0.81 0.79,-0.87 0,-0.06 -0.02,-0.12 -0.03,-0.17 l -0.5,-1.95 c -0.05,-0.18 -0.05,-0.2 -0.2,-0.37 -0.44,-0.54 -0.84,-0.7 -1.12,-0.7 l -0.02,-0.22 c 0.2,0 0.69,0.04 1.29,0.74 0.08,-0.41 0.43,-0.74 0.91,-0.74 0.35,0 0.58,0.23 0.74,0.55 0.17,0.35 0.3,0.96 0.3,0.98 0,0.1 -0.09,0.1 -0.12,0.1 -0.1,0 -0.11,-0.04 -0.14,-0.18 -0.17,-0.65 -0.35,-1.23 -0.76,-1.23 -0.27,0 -0.3,0.26 -0.3,0.45 0,0.24 0.02,0.31 0.06,0.48 z"
           inkscape:connector-curvature="0"
           style="fill:#000000;stroke-width:0" /><path
           id="path4992"
           d="m 380.16,716.18 0,0.03 0.01,0.03 0.01,0.03 0.01,0.03 0.01,0.03 0.01,0.03 0.01,0.02 0.01,0.02 0.01,0.03 0.01,0.02 0.02,0.02 0.01,0.01 0.02,0.02 0.02,0.02 0.02,0.01 0.03,0.02 0.02,0.01 0.03,0.01 0.04,0.01 0.03,0.01 0.02,0.01 0.02,0 0.02,0.01 0.02,0 0.02,0 0.03,0.01 0.02,0 0.03,0 0.02,0.01 0.03,0 0.03,0 0.03,0 0.03,0.01 0.03,0 0.03,0 0.03,0 0.04,0 0.03,0 0.04,0 0.04,0 0.04,0.01 0.04,0 0.04,0 0.04,0 c 0.3,0 0.38,0 0.38,0.19 0,0.11 -0.11,0.11 -0.16,0.11 -0.33,0 -1.14,-0.03 -1.47,-0.03 -0.3,0 -1.03,0.03 -1.33,0.03 -0.07,0 -0.19,0 -0.19,-0.19 0,-0.11 0.09,-0.11 0.28,-0.11 0.02,0 0.21,0 0.38,-0.02 0.18,-0.02 0.27,-0.03 0.27,-0.16 0,-0.04 -0.01,-0.07 -0.04,-0.19 l -1.34,-5.34 c -0.1,-0.38 -0.12,-0.46 -0.91,-0.46 -0.16,0 -0.26,0 -0.26,-0.2 0,-0.11 0.08,-0.11 0.26,-0.11 l 4.62,0 c 0.24,0 0.25,0 0.31,0.17 l 0.79,2.14 c 0.04,0.11 0.04,0.13 0.04,0.14 0,0.04 -0.03,0.11 -0.12,0.11 -0.09,0 -0.1,-0.05 -0.17,-0.21 -0.34,-0.91 -0.78,-2.04 -2.5,-2.04 l -0.94,0 c -0.14,0 -0.16,0 -0.22,0.01 -0.1,0.01 -0.13,0.02 -0.13,0.1 0,0.03 0,0.05 0.05,0.23 z"
           inkscape:connector-curvature="0"
           style="fill:#000000;stroke-width:0" /><line
           id="line4994"
           y2="705.91998"
           x2="383.20999"
           y1="705.91998"
           x1="371.23999"
           style="stroke-width:0.398" /><path
           id="path4996"
           d="m 377.98,703.38 0,0 0,0 0,0 0,0.01 0,0 0,0 0,0 0,0.01 0,0 0,0.01 -0.01,0 0,0.01 0,0 0,0 0,0.01 -0.01,0 0,0.01 0,0 -0.01,0.01 0,0 0,0.01 -0.01,0 0,0 0,0 0,0.01 -0.01,0 0,0 0,0 -0.01,0 0,0.01 0,0 -0.01,0 0,0 -0.01,0 0,0 0,0 -0.01,0.01 0,0 -0.01,0 0,0 -0.01,0 0,0 -0.01,0 -0.01,0 0,0 c -0.15,0 -1.1,-0.09 -1.27,-0.11 -0.08,-0.01 -0.14,-0.06 -0.14,-0.19 0,-0.12 0.09,-0.12 0.24,-0.12 0.48,0 0.5,-0.07 0.5,-0.17 l -0.03,-0.19 -0.6,-2.36 c -0.18,0.37 -0.47,0.64 -0.92,0.64 -1.16,0 -2.4,-1.46 -2.4,-2.91 0,-0.94 0.55,-1.59 1.33,-1.59 l 0.02,0.22 c -0.5,0 -0.64,0.54 -0.64,0.93 0,0.5 0.32,1.72 0.55,2.18 0.31,0.58 0.75,0.95 1.15,0.95 0.65,0 0.79,-0.82 0.79,-0.88 0,-0.06 -0.02,-0.11 -0.03,-0.17 l -0.5,-1.94 c -0.05,-0.18 -0.05,-0.2 -0.2,-0.37 -0.43,-0.55 -0.84,-0.7 -1.12,-0.7 l -0.02,-0.22 c 0.2,0 0.7,0.04 1.29,0.74 0.08,-0.41 0.43,-0.74 0.91,-0.74 0.35,0 0.58,0.23 0.74,0.54 0.17,0.36 0.3,0.97 0.3,0.99 0,0.1 -0.09,0.1 -0.12,0.1 -0.1,0 -0.11,-0.04 -0.14,-0.18 -0.17,-0.65 -0.35,-1.23 -0.76,-1.23 -0.27,0 -0.3,0.25 -0.3,0.45 0,0.24 0.02,0.31 0.06,0.48 z"
           inkscape:connector-curvature="0"
           style="fill:#000000;stroke-width:0" /><path
           id="path4998"
           d="m 380.07,700.57 0.94,0 c 0.2,0 0.3,0 0.3,0.2 0,0.11 -0.1,0.11 -0.28,0.11 l -0.88,0 c 0.36,1.41 0.41,1.61 0.41,1.67 0,0.17 -0.12,0.27 -0.29,0.27 -0.03,0 -0.31,-0.02 -0.4,-0.36 l -0.39,-1.58 -0.93,0 c -0.2,0 -0.3,0 -0.3,-0.19 0,-0.12 0.08,-0.12 0.28,-0.12 l 0.87,0 c -0.71,-2.82 -0.75,-2.99 -0.75,-3.17 0,-0.54 0.37,-0.91 0.91,-0.91 1.02,0 1.59,1.45 1.59,1.53 0,0.1 -0.08,0.1 -0.12,0.1 -0.09,0 -0.1,-0.03 -0.15,-0.14 -0.43,-1.04 -0.96,-1.27 -1.3,-1.27 -0.21,0 -0.31,0.12 -0.31,0.45 0,0.24 0.02,0.31 0.06,0.48 z"
           inkscape:connector-curvature="0"
           style="fill:#000000;stroke-width:0" /><path
           id="path5000"
           d="m 387.7,701.04 0,0.01 0,0.01 0,0 0,0 0,0 0,0.01 0,0 0,0.01 0,0 -0.01,0 0,0.01 0,0 0,0.01 -0.01,0 0,0.01 -0.01,0 0,0.01 -0.01,0.01 0,0 -0.01,0.01 0,0 0,0 -0.01,0.01 0,0 0,0.01 -0.01,0 0,0.01 -0.01,0 0,0.01 -0.01,0 0,0.01 -0.01,0 0,0.01 -0.01,0.01 -0.01,0 0,0.01 -0.01,0.01 -0.01,0 0,0.01 -0.01,0.01 -0.01,0.01 -0.01,0 c -1.24,1.26 -1.56,3.13 -1.56,4.65 0,1.73 0.38,3.46 1.6,4.7 0.13,0.12 0.13,0.14 0.13,0.17 0,0.07 -0.04,0.1 -0.1,0.1 -0.1,0 -0.99,-0.68 -1.58,-1.94 -0.51,-1.09 -0.63,-2.19 -0.63,-3.03 0,-0.77 0.11,-1.97 0.66,-3.1 0.6,-1.22 1.45,-1.86 1.55,-1.86 0.06,0 0.1,0.02 0.1,0.09 z"
           inkscape:connector-curvature="0"
           style="fill:#000000;stroke-width:0" /><path
           id="path5002"
           d="m 391.73,705.87 1.16,1.29 c 0.13,0.14 0.19,0.21 1.02,0.21 l 0,0.47 c -0.35,-0.02 -0.87,-0.03 -0.92,-0.03 -0.25,0 -0.75,0.02 -1.02,0.03 l 0,-0.47 c 0.14,0 0.26,-0.02 0.38,-0.09 -0.05,-0.06 -0.05,-0.08 -0.08,-0.12 l -0.84,-0.93 -0.98,1.14 0.4,0 0,0.47 c -0.26,-0.01 -0.89,-0.03 -1.21,-0.03 -0.32,0 -0.77,0.02 -1.09,0.03 l 0,-0.47 0.7,0 1.56,-1.83 -1.31,-1.45 c -0.17,-0.19 -0.53,-0.19 -1.01,-0.19 l 0,-0.47 c 0.35,0.02 0.87,0.03 0.92,0.03 0.25,0 0.83,-0.02 1.03,-0.03 l 0,0.47 c -0.18,0 -0.37,0.05 -0.37,0.11 0,0.01 0,0.02 0.07,0.09 l 0.97,1.09 1.09,-1.29 -0.38,0 0,-0.47 c 0.26,0.01 0.86,0.03 1.19,0.03 0.32,0 0.77,-0.02 1.1,-0.03 l 0,0.47 -0.71,0 z"
           inkscape:connector-curvature="0"
           style="fill:#000000;stroke-width:0" /><path
           id="path5004"
           d="m 400.62,705.71 2.78,0 c 0.14,0 0.33,0 0.33,0.2 0,0.2 -0.19,0.2 -0.33,0.2 l -2.78,0 0,2.78 c 0,0.14 0,0.33 -0.2,0.33 -0.2,0 -0.2,-0.19 -0.2,-0.33 l 0,-2.78 -2.8,0 c -0.13,0 -0.32,0 -0.32,-0.2 0,-0.2 0.19,-0.2 0.32,-0.2 l 2.8,0 0,-2.78 c 0,-0.14 0,-0.33 0.2,-0.33 0.2,0 0.2,0.19 0.2,0.33 z"
           inkscape:connector-curvature="0"
           style="fill:#000000;stroke-width:0" /><path
           id="path5006"
           d="m 408.55,707.4 0.94,0 c 0.2,0 0.3,0 0.3,0.2 0,0.11 -0.1,0.11 -0.28,0.11 l -0.88,0 c 0.36,1.41 0.41,1.61 0.41,1.67 0,0.17 -0.12,0.27 -0.29,0.27 -0.03,0 -0.31,-0.01 -0.4,-0.36 l -0.39,-1.58 -0.93,0 c -0.2,0 -0.3,0 -0.3,-0.19 0,-0.12 0.08,-0.12 0.28,-0.12 l 0.88,0 c -0.72,-2.82 -0.76,-2.99 -0.76,-3.17 0,-0.53 0.38,-0.91 0.92,-0.91 1.01,0 1.58,1.45 1.58,1.53 0,0.1 -0.08,0.1 -0.12,0.1 -0.09,0 -0.1,-0.03 -0.15,-0.14 -0.43,-1.03 -0.96,-1.27 -1.29,-1.27 -0.21,0 -0.31,0.13 -0.31,0.45 0,0.24 0.01,0.31 0.06,0.48 z"
           inkscape:connector-curvature="0"
           style="fill:#000000;stroke-width:0" /><path
           id="path5008"
           d="m 416.13,707.12 0,0.05 0,0.04 0,0.03 -0.01,0.04 0,0.04 -0.01,0.03 0,0.04 -0.01,0.03 -0.01,0.03 -0.01,0.03 -0.01,0.03 -0.01,0.03 -0.01,0.03 -0.01,0.02 -0.01,0.03 -0.02,0.02 -0.01,0.02 -0.02,0.02 -0.01,0.02 -0.02,0.02 -0.01,0.01 -0.02,0.02 -0.02,0.01 -0.01,0.01 -0.02,0.01 -0.02,0.01 -0.02,0.01 -0.02,0.01 -0.02,0 -0.02,0.01 -0.02,0 -0.02,0 c -0.26,0 -0.53,-0.24 -0.53,-0.47 0,-0.1 0.05,-0.21 0.15,-0.3 0.17,-0.14 0.35,-0.41 0.35,-0.83 0,-0.4 -0.19,-0.96 -0.5,-1.42 -0.3,-0.43 -0.67,-0.77 -1.13,-0.77 -0.57,0 -0.88,0.36 -0.97,0.9 0.11,0.26 0.34,0.89 0.34,1.17 0,0.12 -0.05,0.22 -0.18,0.22 -0.08,0 -0.19,-0.02 -0.27,-0.17 -0.11,-0.2 -0.23,-0.84 -0.23,-1.2 -0.33,-0.47 -0.73,-0.92 -1.36,-0.92 -0.66,0 -0.86,0.59 -0.86,1.15 0,1.24 1.01,2.28 1.01,2.41 0,0.11 -0.08,0.19 -0.19,0.19 -0.13,0 -0.2,-0.13 -0.26,-0.22 -0.5,-0.73 -0.88,-1.92 -0.88,-2.82 0,-0.69 0.23,-1.42 1.04,-1.42 0.71,0 1.18,0.5 1.54,1.04 0.09,-0.57 0.48,-1.04 1.1,-1.04 0.77,0 1.25,0.61 1.61,1.35 0.24,0.49 0.62,1.84 0.62,2.45 z"
           inkscape:connector-curvature="0"
           style="fill:#000000;stroke-width:0" /><path
           id="path5010"
           d="m 419.54,705.91 0,0.08 0,0.07 -0.01,0.08 0,0.08 -0.01,0.17 -0.01,0.18 -0.01,0.18 -0.03,0.19 -0.02,0.19 -0.04,0.2 -0.03,0.21 -0.05,0.2 -0.05,0.21 -0.07,0.21 -0.07,0.22 -0.07,0.21 -0.05,0.1 -0.04,0.11 -0.05,0.11 -0.05,0.1 c -0.6,1.22 -1.46,1.87 -1.56,1.87 -0.06,0 -0.1,-0.04 -0.1,-0.1 0,-0.03 0,-0.05 0.19,-0.23 0.98,-0.98 1.55,-2.56 1.55,-4.64 0,-1.7 -0.37,-3.44 -1.61,-4.7 -0.13,-0.12 -0.13,-0.13 -0.13,-0.17 0,-0.06 0.04,-0.09 0.1,-0.09 0.1,0 1,0.67 1.59,1.93 0.51,1.09 0.63,2.2 0.63,3.03 z"
           inkscape:connector-curvature="0"
           style="fill:#000000;stroke-width:0" /></g>      <g
         style="font-style:normal;font-variant:normal;font-weight:normal;font-stretch:normal;letter-spacing:normal;word-spacing:normal;text-anchor:start;fill:none;fill-opacity:1;fill-rule:evenodd;stroke:#000000;stroke-linecap:butt;stroke-linejoin:miter;stroke-miterlimit:10.43299961;stroke-dasharray:none;stroke-dashoffset:0;stroke-opacity:1"
         ns0:preamble=""
         ns0:text="$$= - \\sigma_a L(\\mathbf{x}, \\mathbf{\\omega}) $$"
         word-spacing="normal"
         letter-spacing="normal"
         font-size-adjust="none"
         font-stretch="normal"
         font-weight="normal"
         font-variant="normal"
         font-style="normal"
         stroke-miterlimit="10.433"
         xml:space="preserve"
         transform="matrix(3.8286293,0,0,-3.8286293,-1200.7458,3408.8656)"
         id="Eq02"><path
           id="path5332"
           d="m 371.97,710.37 0.03,0 0.03,0 0.03,0 0.01,0.01 0.01,0 0.02,0 0.01,0 0.02,0 0.01,0 0.02,0.01 0.01,0 0.01,0 0.01,0.01 0.02,0 0.01,0.01 0.01,0 0.01,0.01 0.01,0.01 0.01,0.01 0.01,0.01 0.01,0.01 0,0 0,0.01 0.01,0 0,0.01 0,0.01 0,0 0.01,0.01 0,0.01 0,0 0,0.01 0,0.01 0.01,0.01 0,0.01 0,0 0,0.01 0,0.01 c 0,0.2 -0.19,0.2 -0.33,0.2 l -5.97,0 c -0.14,0 -0.33,0 -0.33,-0.2 0,-0.2 0.19,-0.2 0.34,-0.2 z"
           inkscape:connector-curvature="0"
           style="fill:#000000;stroke-width:0" /><path
           id="path5334"
           d="m 371.98,708.45 0.01,0 0.02,0 0.02,0 0.03,0 0.02,0 0.01,0 0.01,0 0.02,0 0.01,0 0.01,0.01 0.02,0 0.01,0 0.01,0.01 0.02,0 0.01,0.01 0.01,0 0.01,0.01 0.01,0 0.01,0.01 0.01,0.01 0.01,0.01 0,0 0.01,0.01 0,0.01 0,0 0.01,0.01 0,0 0,0.01 0.01,0.01 0,0 0,0.01 0,0.01 0,0 0,0.01 0.01,0.01 0,0.01 0,0.01 0,0.01 0,0.01 c 0,0.19 -0.19,0.19 -0.34,0.19 l -5.95,0 c -0.15,0 -0.34,0 -0.34,-0.19 0,-0.2 0.19,-0.2 0.33,-0.2 z"
           inkscape:connector-curvature="0"
           style="fill:#000000;stroke-width:0" /><path
           id="path5336"
           d="m 382.21,709.41 0.03,0 0.03,0 0.03,0 0.02,0 0.01,0 0.02,0 0.01,0.01 0.02,0 0.01,0 0.01,0 0.02,0.01 0.01,0 0.01,0 0.02,0.01 0.01,0.01 0.01,0 0.01,0.01 0.01,0.01 0.01,0 0.01,0.01 0,0.01 0.01,0.01 0,0 0,0.01 0.01,0.01 0,0 0,0.01 0,0.01 0.01,0 0,0.01 0,0.01 0,0.01 0,0 0,0.01 0,0.01 0,0.01 0,0.01 c 0,0.2 -0.17,0.2 -0.34,0.2 l -5.4,0 c -0.17,0 -0.35,0 -0.35,-0.2 0,-0.2 0.18,-0.2 0.35,-0.2 z"
           inkscape:connector-curvature="0"
           style="fill:#000000;stroke-width:0" /><path
           id="path5338"
           d="m 388.55,710.83 0.01,0 0.01,0 0.02,0 0.02,0 0.01,0 0.02,0 0.02,0 0.02,0.01 0.02,0 0.02,0 0.02,0 0.02,0.01 0.02,0 0.02,0.01 0.02,0 0.02,0.01 0.02,0.01 0.02,0.01 0.02,0.01 0.02,0.01 0.01,0.02 0.02,0.01 0.01,0.01 0,0.01 0.01,0 0.01,0.01 0.01,0.01 0,0.01 0.01,0.01 0,0.01 0.01,0.01 0,0.01 0.01,0.01 0,0.02 0,0.01 0.01,0.01 0,0.01 0,0.02 0,0.01 0.01,0.02 0,0.01 0,0.02 c 0,0.24 -0.21,0.24 -0.39,0.24 l -2.27,0 c -1.51,0 -2.62,-1.64 -2.62,-2.82 0,-0.88 0.59,-1.57 1.5,-1.57 l 0.01,0.21 c -0.49,0 -0.89,0.36 -0.89,1.08 0,0.29 0.12,1.11 0.47,1.7 0.42,0.68 1.02,0.82 1.35,0.82 0.84,0 0.92,-0.66 0.92,-0.96 0,-0.47 -0.2,-1.28 -0.54,-1.79 -0.38,-0.59 -0.92,-0.85 -1.31,-0.85 l 0,0 -0.01,-0.21 c 1.17,0 2.5,1.2 2.5,2.73 0,0.17 0,0.64 -0.31,1.08 z"
           inkscape:connector-curvature="0"
           style="fill:#000000;stroke-width:0" /><path
           id="path5340"
           d="m 392.03,708.29 -0.02,0.02 -0.01,0.02 -0.02,0.02 -0.01,0.02 -0.02,0.02 -0.02,0.02 -0.01,0.02 -0.02,0.02 -0.02,0.02 -0.02,0.01 -0.02,0.02 -0.02,0.02 -0.02,0.01 -0.02,0.02 -0.02,0.01 -0.02,0.02 -0.03,0.01 -0.02,0.02 -0.02,0.01 -0.03,0.01 -0.02,0.01 -0.03,0.01 -0.02,0.01 -0.03,0.01 -0.03,0 -0.03,0.01 -0.02,0.01 -0.03,0 -0.03,0 -0.03,0.01 -0.03,0 -0.03,0 0,-0.2 c 0.49,0 0.62,-0.53 0.62,-0.6 0,-0.03 -0.01,-0.08 -0.02,-0.1 l -0.33,-1.3 c -0.05,-0.2 -0.2,-0.33 -0.36,-0.47 -0.06,-0.05 -0.34,-0.27 -0.64,-0.27 -0.26,0 -0.51,0.18 -0.51,0.67 0,0.37 0.2,1.13 0.36,1.41 0.32,0.56 0.68,0.66 0.88,0.66 l 0,0.2 c -0.9,0 -1.81,-0.98 -1.81,-1.98 0,-0.68 0.46,-1.16 1.06,-1.16 0.38,0 0.71,0.22 0.99,0.49 0.13,-0.42 0.54,-0.49 0.72,-0.49 0.25,0 0.43,0.15 0.55,0.37 0.16,0.27 0.25,0.67 0.25,0.69 0,0.1 -0.09,0.1 -0.11,0.1 -0.1,0 -0.11,-0.03 -0.16,-0.22 -0.08,-0.33 -0.21,-0.74 -0.51,-0.74 -0.18,0 -0.23,0.15 -0.23,0.34 0,0.12 0.06,0.37 0.11,0.55 0.04,0.18 0.12,0.47 0.15,0.62 l 0.14,0.53 c 0.04,0.18 0.13,0.51 0.13,0.54 0,0.16 -0.13,0.23 -0.24,0.23 -0.12,0 -0.28,-0.09 -0.32,-0.28 z"
           inkscape:connector-curvature="0"
           style="fill:#000000;stroke-width:0" /><path
           id="path5342"
           d="m 397.62,713.14 0.01,0.03 0.01,0.03 0.01,0.03 0.01,0.03 0.01,0.03 0.01,0.02 0.01,0.03 0.01,0.02 0.01,0.02 0.01,0.02 0.02,0.02 0.01,0.02 0.02,0.02 0.02,0.01 0.02,0.02 0.03,0.01 0.02,0.02 0.03,0.01 0.03,0.01 0.04,0.01 0.02,0 0.02,0.01 0.02,0 0.02,0.01 0.02,0 0.02,0 0.03,0.01 0.02,0 0.03,0 0.03,0 0.02,0.01 0.03,0 0.03,0 0.04,0 0.03,0.01 0.03,0 0.04,0 0.03,0 0.04,0 0.04,0 0.04,0 0.04,0 0.04,0 0.04,0 c 0.3,0 0.38,0 0.38,0.19 0,0.12 -0.11,0.12 -0.16,0.12 -0.33,0 -1.15,-0.03 -1.48,-0.03 -0.29,0 -1.02,0.03 -1.32,0.03 -0.07,0 -0.19,0 -0.19,-0.2 0,-0.11 0.09,-0.11 0.28,-0.11 0.02,0 0.21,0 0.38,-0.02 0.18,-0.02 0.27,-0.03 0.27,-0.16 0,-0.04 -0.01,-0.07 -0.04,-0.19 l -1.34,-5.33 c -0.1,-0.39 -0.12,-0.47 -0.91,-0.47 -0.17,0 -0.27,0 -0.27,-0.2 0,-0.11 0.09,-0.11 0.27,-0.11 l 4.62,0 c 0.24,0 0.25,0 0.31,0.17 l 0.79,2.15 c 0.04,0.11 0.04,0.13 0.04,0.14 0,0.04 -0.03,0.11 -0.12,0.11 -0.09,0 -0.1,-0.05 -0.17,-0.21 -0.34,-0.91 -0.78,-2.05 -2.5,-2.05 l -0.94,0 c -0.14,0 -0.16,0 -0.22,0.01 -0.1,0.01 -0.13,0.02 -0.13,0.1 0,0.03 0,0.05 0.05,0.23 z"
           inkscape:connector-curvature="0"
           style="fill:#000000;stroke-width:0" /><path
           id="path5344"
           d="m 403.98,704.74 0,0.01 0,0 0,0 -0.01,0.01 0,0 0,0 0,0.01 0,0 0,0 0,0.01 -0.01,0 0,0.01 0,0 -0.01,0.01 0,0 0,0.01 -0.01,0.01 -0.01,0 0,0.01 0,0 -0.01,0.01 0,0 0,0 -0.01,0.01 0,0 -0.01,0.01 0,0 -0.01,0.01 0,0 -0.01,0.01 0,0 -0.01,0.01 0,0.01 -0.01,0 0,0.01 -0.01,0.01 -0.01,0 0,0.01 -0.01,0.01 -0.01,0 -0.01,0.01 0,0.01 c -1.25,1.25 -1.57,3.13 -1.57,4.65 0,1.73 0.38,3.46 1.61,4.7 0.13,0.12 0.13,0.14 0.13,0.17 0,0.07 -0.04,0.1 -0.1,0.1 -0.1,0 -1,-0.68 -1.59,-1.94 -0.51,-1.09 -0.63,-2.2 -0.63,-3.03 0,-0.78 0.11,-1.98 0.66,-3.1 0.6,-1.22 1.46,-1.87 1.56,-1.87 0.06,0 0.1,0.03 0.1,0.1 z"
           inkscape:connector-curvature="0"
           style="fill:#000000;stroke-width:0" /><path
           id="path5346"
           d="m 408,709.57 1.17,1.29 c 0.13,0.14 0.19,0.21 1.01,0.21 l 0,0.47 c -0.35,-0.02 -0.86,-0.03 -0.91,-0.03 -0.25,0 -0.75,0.02 -1.03,0.03 l 0,-0.47 c 0.14,0 0.26,-0.02 0.38,-0.09 -0.04,-0.06 -0.04,-0.08 -0.08,-0.12 l -0.84,-0.93 -0.98,1.14 0.4,0 0,0.47 c -0.26,-0.01 -0.89,-0.03 -1.2,-0.03 -0.32,0 -0.77,0.02 -1.1,0.03 l 0,-0.47 0.71,0 1.55,-1.83 -1.3,-1.46 c -0.17,-0.19 -0.53,-0.19 -1.01,-0.19 l 0,-0.47 c 0.35,0.03 0.87,0.04 0.92,0.04 0.25,0 0.83,-0.02 1.02,-0.04 l 0,0.47 c -0.18,0 -0.36,0.05 -0.36,0.11 0,0.01 0,0.02 0.07,0.1 l 0.96,1.08 1.1,-1.29 -0.39,0 0,-0.47 c 0.26,0.02 0.87,0.04 1.2,0.04 0.32,0 0.76,-0.02 1.09,-0.04 l 0,0.47 -0.7,0 z"
           inkscape:connector-curvature="0"
           style="fill:#000000;stroke-width:0" /><path
           id="path5348"
           d="m 412.62,707.14 0,0.06 0,0.05 -0.01,0.06 0,0.06 -0.01,0.05 -0.01,0.05 0,0.06 -0.01,0.04 -0.02,0.05 -0.01,0.05 -0.01,0.04 -0.02,0.04 -0.02,0.04 -0.01,0.04 -0.02,0.04 -0.02,0.03 -0.02,0.04 -0.03,0.03 -0.02,0.02 -0.03,0.03 -0.02,0.03 -0.03,0.02 -0.03,0.02 -0.02,0.02 -0.03,0.01 -0.03,0.02 -0.04,0.01 -0.03,0.01 -0.03,0.01 -0.04,0 -0.03,0.01 -0.04,0 c -0.33,0 -0.53,-0.25 -0.53,-0.53 0,-0.27 0.2,-0.53 0.53,-0.53 0.12,0 0.25,0.04 0.35,0.13 0.03,0.02 0.04,0.03 0.05,0.03 0.01,0 0.02,-0.01 0.02,-0.14 0,-0.74 -0.35,-1.34 -0.68,-1.66 -0.11,-0.11 -0.11,-0.13 -0.11,-0.16 0,-0.07 0.05,-0.11 0.1,-0.11 0.11,0 0.91,0.76 0.91,1.93 z"
           inkscape:connector-curvature="0"
           style="fill:#000000;stroke-width:0" /><path
           id="path5350"
           d="m 421.05,710.82 0,0.04 0,0.04 0,0.04 -0.01,0.04 0,0.03 -0.01,0.04 0,0.03 -0.01,0.04 -0.01,0.03 -0.01,0.03 -0.01,0.03 -0.01,0.03 -0.01,0.02 -0.01,0.03 -0.01,0.02 -0.02,0.03 -0.01,0.02 -0.02,0.02 -0.01,0.02 -0.02,0.01 -0.01,0.02 -0.02,0.01 -0.02,0.02 -0.01,0.01 -0.02,0.01 -0.02,0.01 -0.02,0.01 -0.02,0 -0.02,0.01 -0.02,0 -0.02,0.01 -0.02,0 c -0.26,0 -0.53,-0.24 -0.53,-0.47 0,-0.1 0.05,-0.21 0.15,-0.3 0.17,-0.15 0.35,-0.42 0.35,-0.83 0,-0.4 -0.19,-0.97 -0.5,-1.42 -0.3,-0.43 -0.67,-0.77 -1.13,-0.77 -0.57,0 -0.88,0.36 -0.97,0.89 0.11,0.26 0.34,0.9 0.34,1.18 0,0.12 -0.05,0.22 -0.18,0.22 -0.08,0 -0.19,-0.02 -0.27,-0.17 -0.11,-0.2 -0.23,-0.85 -0.23,-1.2 -0.33,-0.47 -0.73,-0.92 -1.36,-0.92 -0.65,0 -0.86,0.59 -0.86,1.14 0,1.24 1.01,2.29 1.01,2.42 0,0.11 -0.08,0.19 -0.19,0.19 -0.13,0 -0.2,-0.13 -0.26,-0.22 -0.5,-0.74 -0.88,-1.92 -0.88,-2.82 0,-0.69 0.23,-1.42 1.04,-1.42 0.71,0 1.18,0.49 1.54,1.04 0.09,-0.58 0.48,-1.04 1.1,-1.04 0.78,0 1.25,0.6 1.61,1.35 0.24,0.48 0.62,1.83 0.62,2.45 z"
           inkscape:connector-curvature="0"
           style="fill:#000000;stroke-width:0" /><path
           id="path5352"
           d="m 424.46,709.61 0,0.07 0,0.08 0,0.08 0,0.08 -0.01,0.17 -0.01,0.17 -0.02,0.18 -0.02,0.19 -0.03,0.2 -0.03,0.2 -0.04,0.2 -0.04,0.21 -0.06,0.21 -0.06,0.21 -0.07,0.21 -0.08,0.21 -0.04,0.11 -0.05,0.11 -0.04,0.1 -0.05,0.11 c -0.6,1.22 -1.46,1.87 -1.56,1.87 -0.06,0 -0.1,-0.04 -0.1,-0.1 0,-0.03 0,-0.05 0.19,-0.23 0.98,-0.99 1.55,-2.57 1.55,-4.64 0,-1.7 -0.37,-3.45 -1.61,-4.7 -0.13,-0.12 -0.13,-0.14 -0.13,-0.17 0,-0.06 0.04,-0.1 0.1,-0.1 0.1,0 1,0.68 1.59,1.94 0.51,1.09 0.62,2.19 0.62,3.03 z"
           inkscape:connector-curvature="0"
           style="fill:#000000;stroke-width:0" /></g>      <g
         id="Eq03"
         transform="matrix(3.8286293,0,0,-3.8286293,-848.6592,3396.08)"
         xml:space="preserve"
         stroke-miterlimit="10.433"
         font-style="normal"
         font-variant="normal"
         font-weight="normal"
         font-stretch="normal"
         font-size-adjust="none"
         letter-spacing="normal"
         word-spacing="normal"
         ns0:text="$$ + \\; \\sigma_s \\int_{\\mathcal{S}} \\rho(\\mathbf{\\omega}, \\mathbf{\\omega}^\\prime) L(\\mathbf{x}, \\mathbf{\\omega}^\\prime) \\mbox{d}\\mathbf{\\omega}^\\prime $$"
         ns0:preamble=""
         style="font-style:normal;font-variant:normal;font-weight:normal;font-stretch:normal;letter-spacing:normal;word-spacing:normal;text-anchor:start;fill:none;fill-opacity:1;fill-rule:evenodd;stroke:#000000;stroke-linecap:butt;stroke-linejoin:miter;stroke-miterlimit:10.43299961;stroke-dasharray:none;stroke-dashoffset:0;stroke-opacity:1"><path
           style="fill:#000000;stroke-width:0"
           inkscape:connector-curvature="0"
           d="m 340.51,705.81 2.79,0 c 0.13,0 0.32,0 0.32,0.2 0,0.2 -0.19,0.2 -0.32,0.2 l -2.79,0 0,2.78 c 0,0.14 0,0.33 -0.2,0.33 -0.2,0 -0.2,-0.19 -0.2,-0.33 l 0,-2.78 -2.79,0 c -0.14,0 -0.33,0 -0.33,-0.2 0,-0.2 0.19,-0.2 0.33,-0.2 l 2.79,0 0,-2.78 c 0,-0.14 0,-0.33 0.2,-0.33 0.2,0 0.2,0.19 0.2,0.33 z"
           id="path4280" /><path
           style="fill:#000000;stroke-width:0"
           inkscape:connector-curvature="0"
           d="m 352.12,707.23 0.01,0 0.01,0 0.02,0 0.01,0 0.02,0 0.02,0 0.02,0.01 0.02,0 0.02,0 0.02,0 0.02,0.01 0.02,0 0.02,0 0.02,0.01 0.02,0.01 0.02,0 0.02,0.01 0.02,0.01 0.02,0.01 0.01,0.01 0.02,0.02 0.02,0.01 0.01,0.01 0,0.01 0.01,0.01 0.01,0 0,0.01 0.01,0.01 0.01,0.01 0,0.01 0.01,0.01 0,0.02 0.01,0.01 0,0.01 0,0.01 0.01,0.01 0,0.02 0,0.01 0,0.01 0,0.02 0,0.01 0.01,0.02 c 0,0.24 -0.21,0.24 -0.39,0.24 l -2.28,0 c -1.5,0 -2.61,-1.64 -2.61,-2.82 0,-0.88 0.59,-1.57 1.5,-1.57 l 0.01,0.22 c -0.49,0 -0.89,0.35 -0.89,1.07 0,0.3 0.12,1.11 0.47,1.7 0.42,0.68 1.01,0.82 1.35,0.82 0.84,0 0.92,-0.65 0.92,-0.96 0,-0.47 -0.2,-1.28 -0.54,-1.79 -0.39,-0.59 -0.92,-0.84 -1.31,-0.84 l 0,0 -0.01,-0.22 c 1.17,0 2.5,1.2 2.5,2.73 0,0.17 0,0.64 -0.31,1.08 z"
           id="path4282" /><path
           style="fill:#000000;stroke-width:0"
           inkscape:connector-curvature="0"
           d="m 355.66,704.65 -0.02,-0.01 -0.02,0 -0.01,-0.01 -0.02,0 -0.01,-0.01 -0.02,-0.01 -0.01,0 -0.02,-0.01 -0.01,-0.01 -0.01,-0.01 -0.01,-0.01 -0.02,-0.01 -0.01,-0.01 -0.01,-0.01 -0.01,-0.01 -0.01,-0.01 -0.01,-0.01 -0.01,-0.01 0,-0.01 -0.01,-0.02 -0.01,-0.01 -0.01,-0.01 0,-0.01 -0.01,-0.02 0,-0.01 -0.01,-0.01 0,-0.01 0,-0.02 0,-0.01 -0.01,-0.01 0,-0.02 0,-0.01 c 0,-0.16 0.14,-0.22 0.23,-0.22 0.07,0 0.34,0.04 0.34,0.39 0,0.46 -0.5,0.61 -0.93,0.61 -1.09,0 -1.29,-0.8 -1.29,-1.02 0,-0.25 0.15,-0.42 0.25,-0.5 0.18,-0.14 0.31,-0.17 0.79,-0.25 0.14,-0.03 0.59,-0.11 0.59,-0.46 0,-0.12 -0.07,-0.39 -0.37,-0.56 -0.27,-0.15 -0.61,-0.15 -0.7,-0.15 -0.28,0 -0.68,0.06 -0.84,0.29 0.23,0.03 0.39,0.2 0.39,0.4 0,0.17 -0.13,0.25 -0.27,0.25 -0.21,0 -0.41,-0.16 -0.41,-0.46 0,-0.42 0.45,-0.68 1.13,-0.68 1.28,0 1.52,0.88 1.52,1.15 0,0.64 -0.71,0.77 -0.97,0.81 -0.06,0.02 -0.23,0.05 -0.27,0.06 -0.26,0.05 -0.39,0.19 -0.39,0.35 0,0.16 0.13,0.34 0.28,0.44 0.19,0.12 0.43,0.14 0.55,0.14 0.15,0 0.51,-0.03 0.67,-0.26 z"
           id="path4284" /><path
           style="fill:#000000;stroke-width:0"
           inkscape:connector-curvature="0"
           d="m 359.6,695.46 0.03,0 0.03,0.01 0.02,0 0.03,0.01 0.03,0.01 0.02,0 0.03,0.01 0.02,0.01 0.02,0.01 0.02,0.01 0.02,0.02 0.02,0.01 0.02,0.01 0.02,0.02 0.02,0.01 0.01,0.02 0.02,0.02 0.01,0.01 0.02,0.02 0.01,0.02 0.01,0.02 0.01,0.02 0.01,0.02 0.01,0.02 0,0.02 0.01,0.02 0.01,0.03 0,0.02 0,0.02 0.01,0.02 0,0.03 0,0.02 c 0,0.33 -0.25,0.48 -0.48,0.48 -0.24,0 -0.49,-0.14 -0.49,-0.49 0,-0.51 0.5,-0.92 1.11,-0.92 1.51,0 2.08,2.32 2.79,5.2 0.77,3.14 1.42,6.31 1.95,9.5 0.37,2.11 0.74,4.1 1.08,5.38 0.12,0.49 0.46,1.77 0.85,1.77 0.31,0 0.56,-0.19 0.6,-0.23 -0.33,-0.02 -0.5,-0.24 -0.5,-0.49 0,-0.32 0.25,-0.48 0.48,-0.48 0.24,0 0.49,0.15 0.49,0.49 0,0.54 -0.54,0.93 -1.09,0.93 -0.76,0 -1.32,-1.08 -1.87,-3.11 -0.03,-0.11 -1.38,-5.1 -2.48,-11.59 -0.26,-1.52 -0.55,-3.18 -0.88,-4.56 -0.18,-0.73 -0.63,-2.6 -1.44,-2.6 -0.36,0 -0.6,0.23 -0.61,0.23 z"
           id="path4286" /><path
           style="fill:#000000;stroke-width:0"
           inkscape:connector-curvature="0"
           d="m 365.09,695.96 0.02,0.01 0.01,0 0.02,0.01 0.02,0.01 0.01,0.01 0.02,0.01 0.02,0.01 0.01,0.01 0.02,0.01 0.01,0.01 0.02,0.01 0.01,0.01 0.02,0.01 0.01,0.01 0.01,0.01 0.02,0.01 0.01,0.01 0.01,0.01 0.01,0.01 0.01,0.01 0.01,0.01 0.01,0.01 0.01,0.01 0.01,0.02 0,0.01 0.01,0.01 0,0.01 0.01,0.01 0,0.01 0,0 0.01,0.01 0,0.01 c 0,0.06 -0.07,0.06 -0.09,0.06 -0.34,0 -0.99,-0.38 -0.99,-0.98 0,-0.55 0.73,-1.04 1.61,-1.04 1.38,0 2.68,0.81 2.68,1.75 0,0.68 -0.79,1 -1.39,1.19 -0.29,0.1 -1,0.34 -1,0.9 0,0.29 0.18,0.52 0.3,0.6 0.24,0.13 0.59,0.16 0.76,0.16 0.07,0 0.36,0 0.72,-0.11 0.18,-0.07 0.4,-0.14 0.4,-0.47 0,-0.12 -0.03,-0.2 -0.03,-0.24 0,0 0,-0.05 0.09,-0.05 0.06,0 0.24,0.05 0.4,0.18 0.09,0.06 0.19,0.14 0.19,0.42 0,0.39 -0.28,0.5 -0.46,0.57 -0.37,0.13 -0.7,0.13 -0.81,0.13 -1.08,0 -2.21,-0.71 -2.21,-1.5 0,-0.64 0.78,-0.91 1.11,-1.01 0.52,-0.18 1.28,-0.45 1.28,-1.09 0,-0.25 -0.12,-0.61 -0.45,-0.78 -0.38,-0.2 -0.91,-0.23 -1.09,-0.23 -0.74,0 -1.45,0.43 -1.45,0.93 0,0.1 0.02,0.21 0.07,0.3 z"
           id="path4288" /><path
           style="fill:#000000;stroke-width:0"
           inkscape:connector-curvature="0"
           d="m 371.98,701.81 0,-0.01 0,0 0,-0.01 0,0 0,-0.01 0,0 0,-0.01 -0.01,0 0,-0.01 0,0 0,-0.01 0,0 0,0 0,-0.01 0,0 0,-0.01 -0.01,-0.01 0,0 0,-0.01 0,0 0,-0.01 0,0 0,-0.01 0,0 0,-0.01 0,0 0,0 0,-0.01 -0.01,0 0,0 0,0 0,-0.01 0,0 0,0 0,-0.01 0,0 c 0,-0.15 0.11,-0.27 0.28,-0.27 0.21,0 0.33,0.18 0.35,0.21 0.05,0.09 0.37,1.42 0.64,2.49 0.2,-0.39 0.52,-0.66 0.99,-0.66 l -0.01,0.22 c -0.7,0 -0.86,0.79 -0.86,0.88 0,0.04 0.05,0.24 0.08,0.37 0.28,1.11 0.38,1.47 0.6,1.87 0.43,0.72 0.93,0.94 1.24,0.94 0.36,0 0.68,-0.29 0.68,-0.97 0,-0.55 -0.29,-1.66 -0.55,-2.15 -0.34,-0.63 -0.81,-0.94 -1.19,-0.94 l 0,0 0.01,-0.22 c 1.17,0 2.45,1.4 2.45,2.88 0,1.05 -0.66,1.62 -1.39,1.62 -0.96,0 -2.01,-1 -2.31,-2.21 z"
           id="path4290" /><path
           style="fill:#000000;stroke-width:0"
           inkscape:connector-curvature="0"
           d="m 380.11,701.14 0,0.01 0,0 0,0.01 0,0 0,0 -0.01,0.01 0,0 0,0 0,0.01 0,0 0,0.01 -0.01,0 0,0 0,0.01 -0.01,0.01 0,0 -0.01,0.01 0,0.01 -0.01,0 0,0 0,0.01 -0.01,0 0,0.01 -0.01,0 0,0.01 0,0 -0.01,0.01 0,0 -0.01,0.01 0,0 -0.01,0.01 -0.01,0 0,0.01 -0.01,0 0,0.01 -0.01,0.01 -0.01,0 0,0.01 -0.01,0.01 -0.01,0.01 -0.01,0 0,0.01 c -1.25,1.25 -1.57,3.13 -1.57,4.65 0,1.73 0.38,3.46 1.61,4.7 0.13,0.12 0.13,0.14 0.13,0.17 0,0.07 -0.04,0.1 -0.1,0.1 -0.1,0 -1,-0.68 -1.59,-1.94 -0.51,-1.09 -0.63,-2.2 -0.63,-3.03 0,-0.77 0.11,-1.98 0.66,-3.1 0.6,-1.22 1.46,-1.87 1.56,-1.87 0.06,0 0.1,0.03 0.1,0.1 z"
           id="path4292" /><path
           style="fill:#000000;stroke-width:0"
           inkscape:connector-curvature="0"
           d="m 386.71,707.22 0,0.04 0,0.04 0,0.04 -0.01,0.04 0,0.04 0,0.03 -0.01,0.04 -0.01,0.03 -0.01,0.03 -0.01,0.03 0,0.03 -0.02,0.03 -0.01,0.03 -0.01,0.02 -0.01,0.02 -0.01,0.03 -0.02,0.02 -0.01,0.02 -0.02,0.02 -0.01,0.02 -0.02,0.01 -0.02,0.02 -0.01,0.01 -0.02,0.01 -0.02,0.01 -0.02,0.01 -0.02,0.01 -0.02,0.01 -0.02,0 -0.02,0.01 -0.02,0 -0.02,0 c -0.26,0 -0.52,-0.24 -0.52,-0.47 0,-0.1 0.05,-0.21 0.14,-0.3 0.18,-0.15 0.35,-0.41 0.35,-0.83 0,-0.4 -0.18,-0.97 -0.49,-1.42 -0.3,-0.43 -0.67,-0.77 -1.14,-0.77 -0.57,0 -0.88,0.36 -0.97,0.9 0.11,0.25 0.34,0.89 0.34,1.17 0,0.12 -0.05,0.22 -0.18,0.22 -0.08,0 -0.19,-0.02 -0.27,-0.17 -0.11,-0.2 -0.23,-0.85 -0.23,-1.2 -0.33,-0.47 -0.73,-0.92 -1.35,-0.92 -0.66,0 -0.87,0.59 -0.87,1.15 0,1.24 1.02,2.28 1.02,2.41 0,0.11 -0.08,0.19 -0.19,0.19 -0.13,0 -0.2,-0.13 -0.26,-0.22 -0.51,-0.74 -0.89,-1.92 -0.89,-2.82 0,-0.69 0.23,-1.42 1.05,-1.42 0.7,0 1.17,0.49 1.53,1.04 0.09,-0.57 0.48,-1.04 1.1,-1.04 0.78,0 1.26,0.6 1.62,1.35 0.23,0.49 0.61,1.84 0.61,2.45 z"
           id="path4294" /><path
           style="fill:#000000;stroke-width:0"
           inkscape:connector-curvature="0"
           d="m 389.26,703.54 -0.01,0.06 0,0.06 0,0.05 -0.01,0.06 0,0.05 -0.01,0.06 -0.01,0.05 -0.01,0.05 -0.01,0.04 -0.01,0.05 -0.02,0.04 -0.01,0.05 -0.02,0.04 -0.02,0.03 -0.02,0.04 -0.02,0.03 -0.02,0.04 -0.02,0.03 -0.03,0.03 -0.02,0.02 -0.03,0.03 -0.02,0.02 -0.03,0.02 -0.03,0.02 -0.03,0.02 -0.03,0.01 -0.03,0.01 -0.03,0.01 -0.04,0.01 -0.03,0.01 -0.04,0 -0.03,0 c -0.33,0 -0.53,-0.25 -0.53,-0.53 0,-0.27 0.2,-0.52 0.53,-0.52 0.12,0 0.25,0.04 0.35,0.13 0.03,0.02 0.04,0.03 0.05,0.03 0,0 0.02,-0.01 0.02,-0.15 0,-0.74 -0.35,-1.33 -0.68,-1.66 -0.11,-0.11 -0.11,-0.13 -0.11,-0.16 0,-0.07 0.05,-0.11 0.1,-0.11 0.11,0 0.91,0.77 0.91,1.93 z"
           id="path4296" /><path
           style="fill:#000000;stroke-width:0"
           inkscape:connector-curvature="0"
           d="m 397.7,707.22 -0.01,0.04 0,0.04 0,0.04 0,0.04 -0.01,0.04 0,0.03 -0.01,0.04 -0.01,0.03 0,0.03 -0.01,0.03 -0.01,0.03 -0.01,0.03 -0.01,0.03 -0.02,0.02 -0.01,0.02 -0.01,0.03 -0.02,0.02 -0.01,0.02 -0.02,0.02 -0.01,0.02 -0.02,0.01 -0.01,0.02 -0.02,0.01 -0.02,0.01 -0.02,0.01 -0.02,0.01 -0.01,0.01 -0.02,0.01 -0.02,0 -0.02,0.01 -0.02,0 -0.02,0 c -0.26,0 -0.53,-0.24 -0.53,-0.47 0,-0.1 0.05,-0.21 0.15,-0.3 0.17,-0.15 0.35,-0.41 0.35,-0.83 0,-0.4 -0.19,-0.97 -0.5,-1.42 -0.3,-0.43 -0.67,-0.77 -1.14,-0.77 -0.57,0 -0.88,0.36 -0.97,0.9 0.11,0.25 0.34,0.89 0.34,1.17 0,0.12 -0.05,0.22 -0.18,0.22 -0.08,0 -0.19,-0.02 -0.27,-0.17 -0.11,-0.2 -0.23,-0.85 -0.23,-1.2 -0.33,-0.47 -0.72,-0.92 -1.35,-0.92 -0.66,0 -0.87,0.59 -0.87,1.15 0,1.24 1.02,2.28 1.02,2.41 0,0.11 -0.08,0.19 -0.19,0.19 -0.13,0 -0.2,-0.13 -0.26,-0.22 -0.51,-0.74 -0.89,-1.92 -0.89,-2.82 0,-0.69 0.23,-1.42 1.05,-1.42 0.71,0 1.18,0.49 1.53,1.04 0.09,-0.57 0.48,-1.04 1.1,-1.04 0.78,0 1.26,0.6 1.62,1.35 0.24,0.49 0.62,1.84 0.62,2.45 z"
           id="path4298" /><path
           style="fill:#000000;stroke-width:0"
           inkscape:connector-curvature="0"
           d="m 400.25,710.92 0.01,0.01 0,0.01 0.01,0.01 0,0.01 0.01,0.01 0,0.01 0,0.01 0.01,0.01 0,0.01 0,0.01 0.01,0 0,0.01 0,0.01 0,0.01 0,0 0.01,0.01 0,0.01 0,0 0,0.01 0,0.01 0,0 0,0.01 0,0 0,0.01 0,0.01 0.01,0.01 0,0.01 0,0.01 c 0,0.21 -0.2,0.38 -0.42,0.38 -0.26,0 -0.35,-0.22 -0.38,-0.33 l -0.92,-3.01 c -0.01,-0.01 -0.04,-0.1 -0.04,-0.11 0,-0.08 0.22,-0.15 0.27,-0.15 0.05,0 0.06,0.01 0.11,0.11 z"
           id="path4300" /><path
           style="fill:#000000;stroke-width:0"
           inkscape:connector-curvature="0"
           d="m 403.9,706.01 0,0.07 0,0.08 0,0.08 0,0.08 -0.01,0.17 -0.01,0.17 -0.02,0.19 -0.02,0.19 -0.03,0.19 -0.03,0.2 -0.04,0.2 -0.05,0.21 -0.05,0.21 -0.06,0.21 -0.07,0.21 -0.08,0.22 -0.04,0.1 -0.05,0.11 -0.04,0.1 -0.06,0.11 c -0.59,1.22 -1.45,1.87 -1.55,1.87 -0.06,0 -0.1,-0.04 -0.1,-0.1 0,-0.03 0,-0.05 0.19,-0.23 0.98,-0.98 1.55,-2.56 1.55,-4.64 0,-1.7 -0.37,-3.45 -1.61,-4.7 -0.13,-0.12 -0.13,-0.14 -0.13,-0.17 0,-0.06 0.04,-0.1 0.1,-0.1 0.1,0 1,0.68 1.58,1.94 0.51,1.09 0.63,2.2 0.63,3.03 z"
           id="path4302" /><path
           style="fill:#000000;stroke-width:0"
           inkscape:connector-curvature="0"
           d="m 408.62,709.54 0.01,0.03 0.01,0.03 0.01,0.03 0.01,0.03 0.01,0.03 0.01,0.02 0.01,0.03 0.01,0.02 0.01,0.02 0.01,0.02 0.02,0.02 0.01,0.02 0.02,0.02 0.02,0.02 0.02,0.01 0.03,0.01 0.02,0.02 0.03,0.01 0.03,0.01 0.04,0.01 0.02,0.01 0.02,0 0.02,0 0.02,0.01 0.02,0 0.02,0.01 0.03,0 0.02,0 0.03,0 0.03,0.01 0.02,0 0.03,0 0.03,0 0.04,0.01 0.03,0 0.03,0 0.04,0 0.03,0 0.04,0 0.04,0 0.04,0 0.04,0 0.04,0 0.04,0 c 0.3,0 0.38,0 0.38,0.19 0,0.12 -0.11,0.12 -0.16,0.12 -0.33,0 -1.15,-0.03 -1.48,-0.03 -0.29,0 -1.02,0.03 -1.32,0.03 -0.07,0 -0.19,0 -0.19,-0.2 0,-0.11 0.09,-0.11 0.28,-0.11 0.02,0 0.21,0 0.38,-0.02 0.18,-0.02 0.27,-0.03 0.27,-0.15 0,-0.05 -0.01,-0.07 -0.04,-0.19 l -1.34,-5.34 c -0.1,-0.39 -0.12,-0.46 -0.91,-0.46 -0.17,0 -0.27,0 -0.27,-0.2 0,-0.11 0.09,-0.11 0.27,-0.11 l 4.62,0 c 0.24,0 0.25,0 0.31,0.17 l 0.79,2.14 c 0.04,0.11 0.04,0.13 0.04,0.14 0,0.04 -0.03,0.11 -0.12,0.11 -0.09,0 -0.1,-0.05 -0.17,-0.21 -0.34,-0.91 -0.78,-2.04 -2.5,-2.04 l -0.94,0 c -0.14,0 -0.16,0 -0.22,0 -0.1,0.01 -0.13,0.02 -0.13,0.1 0,0.03 0,0.05 0.05,0.23 z"
           id="path4304" /><path
           style="fill:#000000;stroke-width:0"
           inkscape:connector-curvature="0"
           d="m 414.98,701.14 0,0.01 0,0 0,0.01 -0.01,0 0,0 0,0.01 0,0 0,0 0,0.01 0,0 -0.01,0.01 0,0 0,0 -0.01,0.01 0,0.01 0,0 -0.01,0.01 -0.01,0.01 0,0 0,0 -0.01,0.01 0,0 0,0.01 -0.01,0 0,0.01 -0.01,0 0,0.01 -0.01,0 0,0.01 -0.01,0 0,0.01 -0.01,0 0,0.01 -0.01,0 0,0.01 -0.01,0.01 -0.01,0 0,0.01 -0.01,0.01 -0.01,0.01 -0.01,0 0,0.01 c -1.25,1.25 -1.57,3.13 -1.57,4.65 0,1.73 0.38,3.46 1.61,4.7 0.13,0.12 0.13,0.14 0.13,0.17 0,0.07 -0.04,0.1 -0.1,0.1 -0.1,0 -1,-0.68 -1.59,-1.94 -0.51,-1.09 -0.63,-2.2 -0.63,-3.03 0,-0.77 0.11,-1.98 0.66,-3.1 0.6,-1.22 1.46,-1.87 1.56,-1.87 0.06,0 0.1,0.03 0.1,0.1 z"
           id="path4306" /><path
           style="fill:#000000;stroke-width:0"
           inkscape:connector-curvature="0"
           d="m 419,705.97 1.17,1.29 c 0.13,0.14 0.19,0.21 1.01,0.21 l 0,0.47 c -0.35,-0.02 -0.86,-0.03 -0.91,-0.03 -0.25,0 -0.75,0.02 -1.03,0.03 l 0,-0.47 c 0.14,0 0.26,-0.02 0.38,-0.09 -0.04,-0.06 -0.04,-0.08 -0.08,-0.12 l -0.84,-0.93 -0.98,1.14 0.4,0 0,0.47 c -0.26,-0.01 -0.89,-0.03 -1.2,-0.03 -0.32,0 -0.77,0.02 -1.1,0.03 l 0,-0.47 0.71,0 1.55,-1.83 -1.3,-1.46 c -0.17,-0.19 -0.53,-0.19 -1.01,-0.19 l 0,-0.46 c 0.35,0.02 0.87,0.03 0.92,0.03 0.24,0 0.82,-0.02 1.02,-0.03 l 0,0.46 c -0.18,0 -0.37,0.05 -0.37,0.11 0,0.01 0,0.02 0.07,0.1 l 0.97,1.08 1.1,-1.29 -0.39,0 0,-0.46 c 0.26,0.01 0.87,0.03 1.2,0.03 0.32,0 0.76,-0.02 1.09,-0.03 l 0,0.46 -0.71,0 z"
           id="path4308" /><path
           style="fill:#000000;stroke-width:0"
           inkscape:connector-curvature="0"
           d="m 423.62,703.54 0,0.06 0,0.06 -0.01,0.05 0,0.06 -0.01,0.05 -0.01,0.06 0,0.05 -0.01,0.05 -0.02,0.04 -0.01,0.05 -0.01,0.04 -0.02,0.05 -0.02,0.04 -0.01,0.03 -0.02,0.04 -0.02,0.03 -0.02,0.04 -0.03,0.03 -0.02,0.03 -0.03,0.02 -0.02,0.03 -0.03,0.02 -0.03,0.02 -0.02,0.02 -0.03,0.02 -0.03,0.01 -0.04,0.01 -0.03,0.01 -0.03,0.01 -0.04,0.01 -0.03,0 -0.04,0 c -0.33,0 -0.53,-0.25 -0.53,-0.53 0,-0.27 0.2,-0.52 0.53,-0.52 0.12,0 0.25,0.04 0.35,0.13 0.03,0.02 0.04,0.03 0.05,0.03 0.01,0 0.02,-0.01 0.02,-0.15 0,-0.74 -0.35,-1.33 -0.68,-1.66 -0.11,-0.11 -0.11,-0.13 -0.11,-0.16 0,-0.07 0.05,-0.11 0.1,-0.11 0.11,0 0.91,0.77 0.91,1.93 z"
           id="path4310" /><path
           style="fill:#000000;stroke-width:0"
           inkscape:connector-curvature="0"
           d="m 432.05,707.22 0,0.04 0,0.04 0,0.04 -0.01,0.04 0,0.04 -0.01,0.03 0,0.04 -0.01,0.03 -0.01,0.03 -0.01,0.03 -0.01,0.03 -0.01,0.03 -0.01,0.03 -0.01,0.02 -0.01,0.02 -0.02,0.03 -0.01,0.02 -0.01,0.02 -0.02,0.02 -0.02,0.02 -0.01,0.01 -0.02,0.02 -0.02,0.01 -0.01,0.01 -0.02,0.01 -0.02,0.01 -0.02,0.01 -0.02,0.01 -0.02,0 -0.02,0.01 -0.02,0 -0.02,0 c -0.26,0 -0.53,-0.24 -0.53,-0.47 0,-0.1 0.05,-0.21 0.15,-0.3 0.17,-0.15 0.35,-0.41 0.35,-0.83 0,-0.4 -0.19,-0.97 -0.5,-1.42 -0.3,-0.43 -0.67,-0.77 -1.13,-0.77 -0.57,0 -0.88,0.36 -0.97,0.9 0.11,0.25 0.34,0.89 0.34,1.17 0,0.12 -0.05,0.22 -0.18,0.22 -0.08,0 -0.19,-0.02 -0.27,-0.17 -0.11,-0.2 -0.23,-0.85 -0.23,-1.2 -0.33,-0.47 -0.73,-0.92 -1.36,-0.92 -0.65,0 -0.86,0.59 -0.86,1.15 0,1.24 1.01,2.28 1.01,2.41 0,0.11 -0.08,0.19 -0.19,0.19 -0.13,0 -0.2,-0.13 -0.26,-0.22 -0.5,-0.74 -0.88,-1.92 -0.88,-2.82 0,-0.69 0.23,-1.42 1.04,-1.42 0.71,0 1.18,0.49 1.54,1.04 0.09,-0.57 0.48,-1.04 1.1,-1.04 0.78,0 1.25,0.6 1.61,1.35 0.24,0.49 0.62,1.84 0.62,2.45 z"
           id="path4312" /><path
           style="fill:#000000;stroke-width:0"
           inkscape:connector-curvature="0"
           d="m 434.61,710.92 0.01,0.01 0,0.01 0.01,0.01 0,0.01 0,0.01 0.01,0.01 0,0.01 0,0.01 0.01,0.01 0,0.01 0,0 0.01,0.01 0,0.01 0,0.01 0,0 0,0.01 0.01,0.01 0,0 0,0.01 0,0.01 0,0 0,0.01 0,0 0,0.01 0,0.01 0,0.01 0,0.01 0,0.01 c 0,0.21 -0.19,0.38 -0.41,0.38 -0.27,0 -0.35,-0.22 -0.38,-0.33 l -0.93,-3.01 c 0,-0.01 -0.03,-0.1 -0.03,-0.11 0,-0.08 0.22,-0.15 0.27,-0.15 0.05,0 0.06,0.01 0.11,0.11 z"
           id="path4314" /><path
           style="fill:#000000;stroke-width:0"
           inkscape:connector-curvature="0"
           d="m 438.26,706.01 0,0.07 0,0.08 0,0.08 -0.01,0.08 0,0.17 -0.02,0.17 -0.01,0.19 -0.02,0.19 -0.03,0.19 -0.03,0.2 -0.04,0.2 -0.05,0.21 -0.05,0.21 -0.06,0.21 -0.07,0.21 -0.08,0.22 -0.05,0.1 -0.04,0.11 -0.05,0.1 -0.05,0.11 c -0.6,1.22 -1.45,1.87 -1.55,1.87 -0.06,0 -0.1,-0.04 -0.1,-0.1 0,-0.03 0,-0.05 0.19,-0.23 0.97,-0.98 1.54,-2.56 1.54,-4.64 0,-1.7 -0.37,-3.45 -1.6,-4.7 -0.13,-0.12 -0.13,-0.14 -0.13,-0.17 0,-0.06 0.04,-0.1 0.1,-0.1 0.1,0 0.99,0.68 1.58,1.94 0.51,1.09 0.63,2.2 0.63,3.03 z"
           id="path4316" /><path
           style="fill:#000000;stroke-width:0"
           inkscape:connector-curvature="0"
           d="m 443.04,704.07 0,-0.65 1.47,0.11 0,0.31 c -0.7,0 -0.78,0.06 -0.78,0.55 l 0,6.03 -1.44,-0.11 0,-0.31 c 0.7,0 0.78,-0.07 0.78,-0.55 l 0,-2.15 c -0.29,0.36 -0.72,0.62 -1.25,0.62 l 0.04,-0.22 c 0.34,0 0.76,-0.15 1.07,-0.6 0.11,-0.17 0.11,-0.19 0.11,-0.36 l 0,0 0,-2.04 c 0,-0.18 0,-0.2 -0.11,-0.37 -0.3,-0.48 -0.75,-0.69 -1.17,-0.69 -0.45,0 -0.81,0.25 -1.05,0.63 -0.26,0.41 -0.29,0.98 -0.29,1.38 0,0.37 0.02,0.97 0.31,1.41 0.21,0.31 0.59,0.64 1.13,0.64 l -0.04,0.22 c -1.18,0 -2.23,-0.98 -2.23,-2.26 0,-1.26 0.98,-2.24 2.12,-2.24 0.63,0 1.08,0.34 1.33,0.65 z"
           id="path4318" /><path
           style="fill:#000000;stroke-width:0"
           inkscape:connector-curvature="0"
           d="m 450.82,707.22 0,0.04 0,0.04 0,0.04 -0.01,0.04 0,0.04 -0.01,0.03 0,0.04 -0.01,0.03 -0.01,0.03 -0.01,0.03 -0.01,0.03 -0.01,0.03 -0.01,0.03 -0.01,0.02 -0.01,0.02 -0.02,0.03 -0.01,0.02 -0.02,0.02 -0.01,0.02 -0.02,0.02 -0.01,0.01 -0.02,0.02 -0.02,0.01 -0.01,0.01 -0.02,0.01 -0.02,0.01 -0.02,0.01 -0.02,0.01 -0.02,0 -0.02,0.01 -0.02,0 -0.02,0 c -0.26,0 -0.53,-0.24 -0.53,-0.47 0,-0.1 0.05,-0.21 0.15,-0.3 0.17,-0.15 0.35,-0.41 0.35,-0.83 0,-0.4 -0.19,-0.97 -0.5,-1.42 -0.3,-0.43 -0.66,-0.77 -1.13,-0.77 -0.57,0 -0.88,0.36 -0.97,0.9 0.11,0.25 0.34,0.89 0.34,1.17 0,0.12 -0.05,0.22 -0.18,0.22 -0.08,0 -0.19,-0.02 -0.27,-0.17 -0.11,-0.2 -0.23,-0.85 -0.23,-1.2 -0.33,-0.47 -0.73,-0.92 -1.36,-0.92 -0.66,0 -0.86,0.59 -0.86,1.15 0,1.24 1.01,2.28 1.01,2.41 0,0.11 -0.08,0.19 -0.19,0.19 -0.13,0 -0.2,-0.13 -0.26,-0.22 -0.5,-0.74 -0.88,-1.92 -0.88,-2.82 0,-0.69 0.23,-1.42 1.04,-1.42 0.71,0 1.18,0.49 1.54,1.04 0.09,-0.57 0.48,-1.04 1.1,-1.04 0.77,0 1.25,0.6 1.61,1.35 0.24,0.49 0.62,1.84 0.62,2.45 z"
           id="path4320" /><path
           style="fill:#000000;stroke-width:0"
           inkscape:connector-curvature="0"
           d="m 453.37,710.92 0.01,0.01 0,0.01 0.01,0.01 0,0.01 0.01,0.01 0,0.01 0,0.01 0.01,0.01 0,0.01 0,0.01 0.01,0 0,0.01 0,0.01 0,0.01 0,0 0.01,0.01 0,0.01 0,0 0,0.01 0,0.01 0,0 0,0.01 0,0 0.01,0.01 0,0.01 0,0.01 0,0.01 0,0.01 c 0,0.21 -0.2,0.38 -0.42,0.38 -0.26,0 -0.35,-0.22 -0.38,-0.33 l -0.92,-3.01 c -0.01,-0.01 -0.04,-0.1 -0.04,-0.11 0,-0.08 0.22,-0.15 0.27,-0.15 0.05,0 0.06,0.01 0.11,0.11 z"
           id="path4322" /></g>      <g
         id="absorption">
        <path
           sodipodi:nodetypes="cccc"
           inkscape:connector-curvature="0"
           id="rect4217"
           d="m 431.7708,724.28781 0,20.64065 -196.32603,0 0,-20.64065"
           style="opacity:1;fill:none;fill-opacity:1;fill-rule:evenodd;stroke:#f2d400;stroke-width:2;stroke-linecap:round;stroke-linejoin:miter;stroke-miterlimit:4;stroke-dasharray:none;stroke-dashoffset:0;stroke-opacity:1" />
        <text
           xml:space="preserve"
           style="font-size:20px;text-anchor:middle;fill:#f2d400;fill-opacity:0.89803922"
           x="333.86658"
           y="767.65723"
           id="text4406"><tspan
             sodipodi:role="line"
             id="tspan4408"
             x="333.86658"
             y="767.65723">absorption</tspan></text>
      </g>
      <g
         id="scattering">
        <path
           style="opacity:1;fill:none;fill-opacity:1;fill-rule:evenodd;stroke:#f24c00;stroke-width:2;stroke-linecap:round;stroke-linejoin:miter;stroke-miterlimit:4;stroke-dasharray:none;stroke-dashoffset:0;stroke-opacity:1"
           d="m 887.42407,724.28781 0,20.64065 -411.15015,0 0,-20.64065"
           id="path4404"
           inkscape:connector-curvature="0"
           sodipodi:nodetypes="cccc" />
        <text
           id="text4410"
           y="767.65723"
           x="682.21521"
           style="font-size:20px;text-anchor:middle;fill:#f24c00;fill-opacity:1"
           xml:space="preserve"><tspan
             y="767.65723"
             x="682.21521"
             id="tspan4412"
             sodipodi:role="line">scattering</tspan></text>
      </g>
    </g>
  </g>
</svg>
