<?xml version="1.0" encoding="UTF-8" standalone="no"?>
<!-- Created with Inkscape (http://www.inkscape.org/) -->

<svg
   xmlns:ns0="http://www.iki.fi/pav/software/textext/"
   xmlns:dc="http://purl.org/dc/elements/1.1/"
   xmlns:cc="http://creativecommons.org/ns#"
   xmlns:rdf="http://www.w3.org/1999/02/22-rdf-syntax-ns#"
   xmlns:svg="http://www.w3.org/2000/svg"
   xmlns="http://www.w3.org/2000/svg"
   xmlns:xlink="http://www.w3.org/1999/xlink"
   xmlns:sodipodi="http://sodipodi.sourceforge.net/DTD/sodipodi-0.dtd"
   xmlns:inkscape="http://www.inkscape.org/namespaces/inkscape"
   width="164.40039mm"
   height="52.343899mm"
   viewBox="0 0 582.52107 185.47051"
   id="svg5065"
   version="1.1"
   inkscape:version="0.91 r13725"
   sodipodi:docname="cov-operator.svg">
  <sodipodi:namedview
     id="base"
     pagecolor="#ffffff"
     bordercolor="#666666"
     borderopacity="1.0"
     inkscape:pageopacity="0.0"
     inkscape:pageshadow="2"
     inkscape:zoom="1.2517297"
     inkscape:cx="286.05995"
     inkscape:cy="84.656325"
     inkscape:document-units="px"
     inkscape:current-layer="layer1"
     showgrid="false"
     inkscape:window-width="1280"
     inkscape:window-height="703"
     inkscape:window-x="0"
     inkscape:window-y="1"
     inkscape:window-maximized="1"
     fit-margin-top="0"
     fit-margin-left="0"
     fit-margin-right="0"
     fit-margin-bottom="0" />
  <defs
     id="defs5067">
    <linearGradient
       id="linearGradient6265"
       inkscape:collect="always">
      <stop
         id="stop6267"
         offset="0"
         style="stop-color:#2520ff;stop-opacity:1" />
      <stop
         id="stop6269"
         offset="1"
         style="stop-color:#3722ff;stop-opacity:0" />
    </linearGradient>
    <marker
       inkscape:stockid="Arrow1Mend"
       orient="auto"
       refY="0"
       refX="0"
       id="marker6091"
       style="overflow:visible"
       inkscape:isstock="true">
      <path
         id="path6093"
         d="M 0,0 5,-5 -12.5,0 5,5 0,0 Z"
         style="fill:#000000;fill-opacity:1;fill-rule:evenodd;stroke:#000000;stroke-width:1pt;stroke-opacity:1"
         transform="matrix(-0.4,0,0,-0.4,-4,0)"
         inkscape:connector-curvature="0" />
    </marker>
    <marker
       inkscape:collect="always"
       inkscape:isstock="true"
       style="overflow:visible"
       id="Arrow1Mend"
       refX="0"
       refY="0"
       orient="auto"
       inkscape:stockid="Arrow1Mend">
      <path
         transform="matrix(-0.4,0,0,-0.4,-4,0)"
         style="fill:#000000;fill-opacity:1;fill-rule:evenodd;stroke:#000000;stroke-width:1pt;stroke-opacity:1"
         d="M 0,0 5,-5 -12.5,0 5,5 0,0 Z"
         id="path5658"
         inkscape:connector-curvature="0" />
    </marker>
    <marker
       inkscape:isstock="true"
       style="overflow:visible"
       id="Arrow1Lend"
       refX="0"
       refY="0"
       orient="auto"
       inkscape:stockid="Arrow1Lend">
      <path
         transform="matrix(-0.8,0,0,-0.8,-10,0)"
         style="fill:#000000;fill-opacity:1;fill-rule:evenodd;stroke:#000000;stroke-width:1pt;stroke-opacity:1"
         d="M 0,0 5,-5 -12.5,0 5,5 0,0 Z"
         id="path5652"
         inkscape:connector-curvature="0" />
    </marker>
    <radialGradient
       gradientTransform="matrix(1.2334833,0,0,0.41809861,-28.165801,86.594211)"
       gradientUnits="userSpaceOnUse"
       r="52.428143"
       fy="148.81252"
       fx="120.63307"
       cy="148.81252"
       cx="120.63307"
       id="radialGradient6271"
       xlink:href="#linearGradient6265"
       inkscape:collect="always" />
    <radialGradient
       r="52.428143"
       fy="148.81252"
       fx="120.63307"
       cy="148.81252"
       cx="120.63307"
       gradientTransform="matrix(1.4243038,0,0,0.41809861,425.95144,385.47901)"
       gradientUnits="userSpaceOnUse"
       id="radialGradient6281"
       xlink:href="#linearGradient6265"
       inkscape:collect="always" />
  </defs>
  <metadata
     id="metadata5070">
    <rdf:RDF>
      <cc:Work
         rdf:about="">
        <dc:format>image/svg+xml</dc:format>
        <dc:type
           rdf:resource="http://purl.org/dc/dcmitype/StillImage" />
        <dc:title></dc:title>
      </cc:Work>
    </rdf:RDF>
  </metadata>
  <g
     id="layer1"
     inkscape:groupmode="layer"
     inkscape:label="Calque 1"
     transform="translate(-39.095105,-48.603471)">
    <path
       sodipodi:nodetypes="cccccccc"
       inkscape:connector-curvature="0"
       id="rect5633"
       d="m 398.91521,80.171582 0.54074,29.464338 -330.190569,0 0,80.47468 330.190569,0 -0.54074,29.45987 88.8377,-69.69722 z"
       style="opacity:1;fill:#e5e5e5;fill-opacity:1;fill-rule:evenodd;stroke:none;stroke-width:1.5;stroke-linecap:round;stroke-linejoin:miter;stroke-miterlimit:4;stroke-dasharray:none;stroke-dashoffset:0;stroke-opacity:1" />
    <rect
       y="75.618843"
       x="48.312038"
       height="147.03664"
       width="147.03664"
       id="rect5641"
       style="opacity:1;fill:#ffffff;fill-opacity:1;fill-rule:evenodd;stroke:#000000;stroke-width:1.5;stroke-linecap:round;stroke-linejoin:miter;stroke-miterlimit:4;stroke-dasharray:none;stroke-dashoffset:0;stroke-opacity:1" />
    <path
       sodipodi:nodetypes="cc"
       inkscape:connector-curvature="0"
       id="path5643"
       d="m 121.83036,234.07398 0,-181.650482"
       style="fill:none;fill-rule:evenodd;stroke:#000000;stroke-width:2;stroke-linecap:butt;stroke-linejoin:miter;stroke-miterlimit:4;stroke-dasharray:none;stroke-opacity:1;marker-end:url(#Arrow1Mend)" />
    <path
       style="fill:none;fill-rule:evenodd;stroke:#000000;stroke-width:2;stroke-linecap:butt;stroke-linejoin:miter;stroke-miterlimit:4;stroke-dasharray:none;stroke-opacity:1;marker-end:url(#marker6091)"
       d="m 39.095105,149.13716 181.650485,0"
       id="path6089"
       inkscape:connector-curvature="0"
       sodipodi:nodetypes="cc" />
    <ellipse
       ry="21.711082"
       rx="64.05249"
       cy="148.81252"
       cx="120.63307"
       id="path6263"
       style="opacity:1;fill:url(#radialGradient6271);fill-opacity:1;fill-rule:evenodd;stroke:#f80000;stroke-width:1;stroke-linecap:round;stroke-linejoin:miter;stroke-miterlimit:4;stroke-dasharray:none;stroke-dashoffset:0;stroke-opacity:1" />
    <rect
       style="opacity:1;fill:#ffffff;fill-opacity:1;fill-rule:evenodd;stroke:#000000;stroke-width:1.5;stroke-linecap:round;stroke-linejoin:miter;stroke-miterlimit:4;stroke-dasharray:none;stroke-dashoffset:0;stroke-opacity:1"
       id="rect6273"
       width="147.03664"
       height="147.03664"
       x="445.36261"
       y="75.618843" />
    <path
       style="fill:none;fill-rule:evenodd;stroke:#000000;stroke-width:2;stroke-linecap:butt;stroke-linejoin:miter;stroke-miterlimit:4;stroke-dasharray:none;stroke-opacity:1;marker-end:url(#Arrow1Mend)"
       d="m 518.88093,234.07398 0,-181.650482"
       id="path6275"
       inkscape:connector-curvature="0"
       sodipodi:nodetypes="cc" />
    <path
       sodipodi:nodetypes="cc"
       inkscape:connector-curvature="0"
       id="path6277"
       d="m 436.14567,149.13716 181.65049,0"
       style="fill:none;fill-rule:evenodd;stroke:#000000;stroke-width:2;stroke-linecap:butt;stroke-linejoin:miter;stroke-miterlimit:4;stroke-dasharray:none;stroke-opacity:1;marker-end:url(#marker6091)" />
    <ellipse
       transform="matrix(0.8660254,-0.5,0,1,0,0)"
       style="opacity:1;fill:url(#radialGradient6281);fill-opacity:1;fill-rule:evenodd;stroke:#f80000;stroke-width:1.07456994;stroke-linecap:round;stroke-linejoin:miter;stroke-miterlimit:4;stroke-dasharray:none;stroke-dashoffset:0;stroke-opacity:1"
       id="ellipse6279"
       cx="597.76959"
       cy="447.69733"
       rx="73.961449"
       ry="21.711082" />
    <g
       ns0:preamble=""
       ns0:text="\\textbf{Op}"
       word-spacing="normal"
       letter-spacing="normal"
       font-size-adjust="none"
       font-stretch="normal"
       font-weight="normal"
       font-variant="normal"
       font-style="normal"
       stroke-miterlimit="10.433"
       xml:space="preserve"
       transform="matrix(4.2907353,0,0,-4.2907353,-677.61117,3195.8658)"
       id="content"
       style="font-style:normal;font-variant:normal;font-weight:normal;font-stretch:normal;letter-spacing:normal;word-spacing:normal;text-anchor:start;fill:none;fill-opacity:1;fill-rule:evenodd;stroke:#000000;stroke-linecap:butt;stroke-linejoin:miter;stroke-miterlimit:10.43299961;stroke-dasharray:none;stroke-dashoffset:0;stroke-opacity:1"><path
         id="path6309"
         d="m 231.4,710.49 0,0.2 -0.02,0.2 -0.02,0.19 -0.03,0.18 -0.03,0.18 -0.05,0.18 -0.05,0.17 -0.06,0.16 -0.07,0.16 -0.07,0.16 -0.09,0.15 -0.08,0.14 -0.1,0.14 -0.1,0.13 -0.11,0.13 -0.12,0.12 -0.12,0.11 -0.13,0.11 -0.14,0.1 -0.14,0.09 -0.15,0.09 -0.15,0.08 -0.16,0.07 -0.16,0.07 -0.17,0.05 -0.18,0.05 -0.18,0.05 -0.19,0.03 -0.19,0.03 -0.19,0.02 -0.2,0.01 -0.21,0.01 -0.01,-0.4 c 0.64,0 1.33,-0.28 1.73,-0.93 0.37,-0.64 0.41,-1.4 0.41,-2.08 0,-0.69 -0.04,-1.58 -0.46,-2.26 -0.44,-0.73 -1.14,-0.95 -1.68,-0.95 l 0,0 c -0.59,0 -1.32,0.28 -1.72,1.04 -0.33,0.61 -0.41,1.32 -0.41,2.17 0,0.64 0.03,1.48 0.47,2.16 0.4,0.6 1.07,0.85 1.66,0.85 l 0.01,0.4 c -2.28,0 -3.67,-1.47 -3.67,-3.56 0,-2.05 1.4,-3.47 3.66,-3.47 2.29,0 3.67,1.44 3.67,3.47 z"
         inkscape:connector-curvature="0"
         style="fill:#000000;stroke-width:0" /><path
         id="path6311"
         d="m 234.23,707.51 0.04,-0.03 0.04,-0.03 0.04,-0.03 0.04,-0.03 0.04,-0.02 0.04,-0.03 0.05,-0.02 0.04,-0.02 0.04,-0.03 0.04,-0.02 0.04,-0.01 0.04,-0.02 0.04,-0.02 0.04,-0.01 0.04,-0.02 0.04,-0.01 0.04,-0.01 0.04,-0.02 0.08,-0.02 0.08,-0.01 0.08,-0.01 0.08,-0.01 0.07,-0.01 0.08,0 0.08,0 -0.11,0.35 c -0.14,0 -0.61,0 -1.06,0.54 -0.11,0.13 -0.11,0.14 -0.11,0.33 l 0,2.1 c 0,0.19 0.01,0.2 0.15,0.34 0.4,0.41 0.92,0.47 1.14,0.47 0.67,0 1.23,-0.61 1.23,-1.86 0,-1.4 -0.7,-1.92 -1.35,-1.92 l 0.11,-0.35 c 1.5,0 2.51,0.89 2.51,2.27 0,1.32 -0.91,2.25 -2.34,2.25 -0.75,0 -1.28,-0.3 -1.51,-0.48 l 0,0.48 -1.76,-0.07 0,-0.47 c 0.62,0 0.69,0 0.69,-0.38 l 0,-5.01 -0.69,0 0,-0.46 c 0.28,0.01 0.88,0.03 1.25,0.03 0.39,0 0.98,-0.02 1.26,-0.03 l 0,0.46 -0.69,0 z"
         inkscape:connector-curvature="0"
         style="fill:#000000;stroke-width:0" /></g>  </g>
</svg>
