<?xml version="1.0" encoding="UTF-8" standalone="no"?>
<svg
   xmlns:ns0="http://www.iki.fi/pav/software/textext/"
   xmlns:dc="http://purl.org/dc/elements/1.1/"
   xmlns:cc="http://creativecommons.org/ns#"
   xmlns:rdf="http://www.w3.org/1999/02/22-rdf-syntax-ns#"
   xmlns:svg="http://www.w3.org/2000/svg"
   xmlns="http://www.w3.org/2000/svg"
   xmlns:xlink="http://www.w3.org/1999/xlink"
   xmlns:sodipodi="http://sodipodi.sourceforge.net/DTD/sodipodi-0.dtd"
   xmlns:inkscape="http://www.inkscape.org/namespaces/inkscape"
   version="1.1"
   id="svg2"
   viewBox="0 0 631.77101 274.52896"
   height="274.52896"
   width="631.771"
   inkscape:version="0.91 r13725"
   sodipodi:docname="cov_occlusion.svg">
  <sodipodi:namedview
     pagecolor="#ffffff"
     bordercolor="#666666"
     borderopacity="1"
     objecttolerance="10"
     gridtolerance="10"
     guidetolerance="10"
     inkscape:pageopacity="0"
     inkscape:pageshadow="2"
     inkscape:window-width="1280"
     inkscape:window-height="706"
     id="namedview28"
     showgrid="false"
     inkscape:zoom="1.1285735"
     inkscape:cx="315.88551"
     inkscape:cy="137.26448"
     inkscape:window-x="0"
     inkscape:window-y="1"
     inkscape:window-maximized="1"
     inkscape:current-layer="layer1"
     fit-margin-top="0"
     fit-margin-left="0"
     fit-margin-right="0"
     fit-margin-bottom="0" />
  <defs
     id="defs4">
    <linearGradient
       inkscape:collect="always"
       id="linearGradient8509">
      <stop
         style="stop-color:#f1f1f1;stop-opacity:1;"
         offset="0"
         id="stop8511" />
      <stop
         style="stop-color:#f1f1f1;stop-opacity:0;"
         offset="1"
         id="stop8513" />
    </linearGradient>
    <marker
       orient="auto"
       refY="0"
       refX="0"
       id="marker4564"
       style="overflow:visible">
      <path
         id="path4566"
         d="M 0,0 5,-5 -12.5,0 5,5 0,0 Z"
         style="fill:#000000;fill-opacity:1;fill-rule:evenodd;stroke:#000000;stroke-width:1pt;stroke-opacity:1"
         transform="matrix(-0.4,0,0,-0.4,-4,0)"
         inkscape:connector-curvature="0" />
    </marker>
    <marker
       style="overflow:visible"
       id="Arrow1Mend"
       refX="0"
       refY="0"
       orient="auto">
      <path
         transform="matrix(-0.4,0,0,-0.4,-4,0)"
         style="fill:#000000;fill-opacity:1;fill-rule:evenodd;stroke:#000000;stroke-width:1pt;stroke-opacity:1"
         d="M 0,0 5,-5 -12.5,0 5,5 0,0 Z"
         id="path4155"
         inkscape:connector-curvature="0" />
    </marker>
    <marker
       style="overflow:visible"
       id="Arrow1Lend"
       refX="0"
       refY="0"
       orient="auto">
      <path
         transform="matrix(-0.8,0,0,-0.8,-10,0)"
         style="fill:#000000;fill-opacity:1;fill-rule:evenodd;stroke:#000000;stroke-width:1pt;stroke-opacity:1"
         d="M 0,0 5,-5 -12.5,0 5,5 0,0 Z"
         id="path4149"
         inkscape:connector-curvature="0" />
    </marker>
    <marker
       style="overflow:visible"
       id="Arrow1Mstart"
       refX="0"
       refY="0"
       orient="auto">
      <path
         transform="matrix(0.4,0,0,0.4,4,0)"
         style="fill-rule:evenodd;stroke:#000000;stroke-width:1pt"
         d="M 0,0 5,-5 -12.5,0 5,5 0,0 Z"
         id="path3790"
         inkscape:connector-curvature="0" />
    </marker>
    <marker
       style="overflow:visible"
       id="marker5248"
       refX="0"
       refY="0"
       orient="auto">
      <path
         transform="matrix(0.4,0,0,0.4,4,0)"
         style="fill-rule:evenodd;stroke:#000000;stroke-width:1pt"
         d="M 0,0 5,-5 -12.5,0 5,5 0,0 Z"
         id="path5250"
         inkscape:connector-curvature="0" />
    </marker>
    <linearGradient
       inkscape:collect="always"
       xlink:href="#linearGradient8509"
       id="linearGradient8515"
       x1="161.85466"
       y1="913.27905"
       x2="194.05092"
       y2="994.43127"
       gradientUnits="userSpaceOnUse" />
  </defs>
  <metadata
     id="metadata7">
    <rdf:RDF>
      <cc:Work
         rdf:about="">
        <dc:format>image/svg+xml</dc:format>
        <dc:type
           rdf:resource="http://purl.org/dc/dcmitype/StillImage" />
        <dc:title></dc:title>
      </cc:Work>
    </rdf:RDF>
  </metadata>
  <g
     transform="translate(35.733418,-762.24264)"
     id="layer1">
    <path
       style="fill:url(#linearGradient8515);fill-rule:evenodd;stroke:none;stroke-width:1px;stroke-linecap:butt;stroke-linejoin:miter;stroke-opacity:1;fill-opacity:1"
       d="m 72.322562,917.6895 199.352248,0 0,115.5537 -212.142549,-32.1962 z"
       id="path8507"
       inkscape:connector-curvature="0" />
    <rect
       y="781.28778"
       x="335.68726"
       height="239.66942"
       width="239.66942"
       id="rect4136"
       style="opacity:1;fill:none;fill-opacity:1;fill-rule:evenodd;stroke:#000000;stroke-width:2;stroke-linecap:round;stroke-linejoin:miter;stroke-miterlimit:4;stroke-dasharray:none;stroke-dashoffset:0;stroke-opacity:1" />
    <path
       d="m -0.67346851,913.10154 -9.76275949,-1.13842 2.4641375,9.51501 -7.2290915,-6.6594 -3.599255,9.14619 -1.934162,-9.63673 -8.28785,5.28384 4.099555,-8.93314 -9.810769,-0.59677 8.567375,-4.81741 -7.586309,-6.24942 9.762757,1.13842 -2.464134,-9.51501 7.229091,6.6594 3.59925,-9.14619 1.934159,9.63672 8.2878525,-5.28383 -4.099556,8.93315 9.81077599,0.59676 -8.56738199,4.81741 z"
       id="sun"
       style="opacity:1;fill:#ffe700;fill-opacity:1;fill-rule:evenodd;stroke:#ffb400;stroke-width:2;stroke-linecap:round;stroke-linejoin:round;stroke-miterlimit:4;stroke-dasharray:none;stroke-dashoffset:0;stroke-opacity:1"
       inkscape:connector-curvature="0" />
    <path
       id="ray"
       d="M 15.077718,904.92078 274.91153,903.96889"
       style="fill:#000000;fill-opacity:1;fill-rule:evenodd;stroke:#000000;stroke-width:2;stroke-linecap:butt;stroke-linejoin:miter;stroke-miterlimit:4;stroke-dasharray:none;stroke-opacity:1;marker-end:url(#Arrow1Mend)"
       inkscape:connector-curvature="0" />
    <path
       style="fill:#000000;fill-opacity:1;fill-rule:evenodd;stroke:#ff0000;stroke-width:1;stroke-linecap:butt;stroke-linejoin:miter;stroke-miterlimit:4;stroke-dasharray:none;stroke-opacity:1"
       d="M 133.50488,968.71195 133.02893,838.79502"
       id="cursor"
       inkscape:connector-curvature="0" />
    <path
       id="path5350"
       d="m 455.33375,765.10766 0,271.66394"
       style="fill:none;stroke:#000000;stroke-width:1.5;stroke-linecap:butt;stroke-linejoin:miter;stroke-miterlimit:4;stroke-dasharray:none;stroke-opacity:1;marker-start:url(#Arrow1Mstart);marker-end:none"
       inkscape:connector-curvature="0" />
    <path
       style="fill:none;stroke:#000000;stroke-width:1.5;stroke-linecap:butt;stroke-linejoin:miter;stroke-miterlimit:4;stroke-dasharray:none;stroke-opacity:1;marker-start:url(#Arrow1Mstart);marker-end:none"
       d="m 592.75665,903.91735 -271.66395,0"
       id="path5544"
       inkscape:connector-curvature="0" />
    <g
       ns0:preamble=""
       ns0:text="$$\n\\delta x\n$$\n"
       word-spacing="normal"
       letter-spacing="normal"
       font-size-adjust="none"
       font-stretch="normal"
       font-weight="normal"
       font-variant="normal"
       font-style="normal"
       stroke-miterlimit="10.433"
       xml:space="preserve"
       transform="matrix(1.3263301,0,0,-1.3263301,65.372919,1831.2526)"
       id="g4315"
       style="font-style:normal;font-variant:normal;font-weight:normal;font-stretch:normal;letter-spacing:normal;word-spacing:normal;text-anchor:start;fill:none;fill-opacity:1;fill-rule:evenodd;stroke:#000000;stroke-linecap:butt;stroke-linejoin:miter;stroke-miterlimit:10.43299961;stroke-dasharray:none;stroke-dashoffset:0;stroke-opacity:1"><path
         id="path4317"
         d="m 392.67,711.47 -0.12,-0.03 -0.11,-0.04 -0.11,-0.04 -0.11,-0.05 -0.11,-0.05 -0.11,-0.06 -0.1,-0.06 -0.1,-0.07 -0.1,-0.07 -0.1,-0.07 -0.09,-0.08 -0.09,-0.08 -0.08,-0.09 -0.09,-0.08 -0.08,-0.1 -0.07,-0.09 -0.08,-0.1 -0.07,-0.1 -0.06,-0.1 -0.06,-0.1 -0.06,-0.11 -0.05,-0.11 -0.05,-0.1 -0.04,-0.11 -0.04,-0.11 -0.04,-0.12 -0.02,-0.11 -0.03,-0.11 -0.02,-0.12 -0.01,-0.11 -0.01,-0.11 0,-0.12 c 0,-0.95 0.64,-1.66 1.57,-1.66 l 0,0.21 c -0.55,0 -0.95,0.42 -0.95,1.18 0,0.62 0.36,2.49 1.71,2.85 l 0,0 c 0.25,-0.46 0.55,-1 0.55,-1.71 0,-0.66 -0.38,-2.32 -1.31,-2.32 l 0,-0.21 c 1.17,0 2,1.56 2,2.93 0,0.9 -0.4,1.4 -0.74,1.84 -0.36,0.45 -0.95,1.2 -0.95,1.63 0,0.22 0.2,0.46 0.55,0.46 0.3,0 0.5,-0.13 0.71,-0.27 0.2,-0.12 0.4,-0.25 0.55,-0.25 0.25,0 0.4,0.24 0.4,0.4 0,0.22 -0.16,0.25 -0.52,0.33 -0.52,0.11 -0.66,0.11 -0.82,0.11 -0.78,0 -1.14,-0.43 -1.14,-1.03 0,-0.53 0.29,-1.09 0.6,-1.69 z"
         style="fill:#000000;stroke-width:0"
         inkscape:connector-curvature="0" /><path
         id="path4319"
         d="m 398.17,710.12 0.01,0.03 0.01,0.03 0.01,0.03 0.01,0.04 0.01,0.04 0.01,0.04 0.01,0.04 0.02,0.05 0.01,0.04 0.02,0.05 0.02,0.05 0.02,0.05 0.02,0.05 0.03,0.05 0.02,0.05 0.03,0.05 0.03,0.05 0.03,0.04 0.03,0.05 0.04,0.04 0.04,0.05 0.04,0.04 0.04,0.04 0.04,0.03 0.05,0.03 0.05,0.03 0.02,0.01 0.03,0.02 0.02,0.01 0.03,0.01 0.03,0.01 0.03,0 0.03,0.01 0.03,0.01 0.03,0 0.03,0 0.03,0.01 0.03,0 c 0.05,0 0.29,0 0.5,-0.13 -0.28,-0.05 -0.48,-0.3 -0.48,-0.54 0,-0.16 0.11,-0.35 0.38,-0.35 0.22,0 0.54,0.18 0.54,0.58 0,0.52 -0.59,0.66 -0.93,0.66 -0.58,0 -0.93,-0.53 -1.05,-0.76 -0.24,0.66 -0.78,0.76 -1.07,0.76 -1.04,0 -1.61,-1.29 -1.61,-1.53 0,-0.1 0.1,-0.1 0.12,-0.1 0.08,0 0.11,0.02 0.13,0.11 0.34,1.05 1,1.3 1.34,1.3 0.19,0 0.54,-0.09 0.54,-0.67 0,-0.31 -0.17,-0.97 -0.54,-2.36 -0.16,-0.62 -0.51,-1.04 -0.95,-1.04 -0.06,0 -0.29,0 -0.5,0.13 0.25,0.05 0.47,0.26 0.47,0.54 0,0.27 -0.22,0.35 -0.37,0.35 -0.3,0 -0.55,-0.26 -0.55,-0.58 0,-0.46 0.5,-0.65 0.94,-0.65 0.66,0 1.02,0.69 1.05,0.75 0.12,-0.37 0.48,-0.75 1.08,-0.75 1.02,0 1.59,1.28 1.59,1.53 0,0.1 -0.09,0.1 -0.12,0.1 -0.09,0 -0.11,-0.05 -0.13,-0.11 -0.33,-1.07 -1.01,-1.31 -1.33,-1.31 -0.38,0 -0.54,0.32 -0.54,0.66 0,0.22 0.06,0.44 0.17,0.87 z"
         style="fill:#000000;stroke-width:0"
         inkscape:connector-curvature="0" /></g>    <g
       id="g4321"
       transform="matrix(1.32633,0,0,-1.32633,-52.549104,1710.6582)"
       xml:space="preserve"
       stroke-miterlimit="10.433"
       font-style="normal"
       font-variant="normal"
       font-weight="normal"
       font-stretch="normal"
       font-size-adjust="none"
       letter-spacing="normal"
       word-spacing="normal"
       ns0:text="$$\n\\delta u\n$$\n\n"
       ns0:preamble=""
       style="font-style:normal;font-variant:normal;font-weight:normal;font-stretch:normal;letter-spacing:normal;word-spacing:normal;text-anchor:start;fill:none;fill-opacity:1;fill-rule:evenodd;stroke:#000000;stroke-linecap:butt;stroke-linejoin:miter;stroke-miterlimit:10.43299961;stroke-dasharray:none;stroke-dashoffset:0;stroke-opacity:1"><path
         d="m 392.67,711.47 -0.12,-0.03 -0.11,-0.04 -0.12,-0.04 -0.11,-0.05 -0.1,-0.05 -0.11,-0.06 -0.1,-0.06 -0.11,-0.07 -0.09,-0.07 -0.1,-0.07 -0.09,-0.08 -0.09,-0.08 -0.09,-0.09 -0.08,-0.08 -0.08,-0.1 -0.08,-0.09 -0.07,-0.1 -0.07,-0.1 -0.06,-0.1 -0.07,-0.1 -0.05,-0.11 -0.05,-0.11 -0.05,-0.1 -0.05,-0.11 -0.04,-0.11 -0.03,-0.12 -0.03,-0.11 -0.02,-0.11 -0.02,-0.12 -0.02,-0.11 0,-0.11 -0.01,-0.12 c 0,-0.95 0.64,-1.66 1.58,-1.66 l 0,0.21 c -0.55,0 -0.96,0.42 -0.96,1.18 0,0.62 0.37,2.49 1.72,2.85 l 0,0 c 0.25,-0.46 0.54,-1 0.54,-1.71 0,-0.66 -0.37,-2.32 -1.3,-2.32 l 0,-0.21 c 1.17,0 1.99,1.56 1.99,2.93 0,0.9 -0.4,1.4 -0.73,1.84 -0.36,0.45 -0.95,1.2 -0.95,1.63 0,0.22 0.2,0.46 0.55,0.46 0.29,0 0.5,-0.13 0.7,-0.27 0.2,-0.12 0.4,-0.25 0.55,-0.25 0.25,0 0.4,0.24 0.4,0.4 0,0.22 -0.16,0.25 -0.52,0.33 -0.52,0.11 -0.66,0.11 -0.82,0.11 -0.77,0 -1.13,-0.43 -1.13,-1.03 0,-0.53 0.29,-1.09 0.6,-1.69 z"
         id="path4323"
         style="fill:#000000;stroke-width:0"
         inkscape:connector-curvature="0" /><path
         d="m 398.33,707.68 0.01,-0.04 0.01,-0.03 0.02,-0.04 0.01,-0.03 0.02,-0.04 0.02,-0.03 0.01,-0.03 0.02,-0.03 0.03,-0.03 0.02,-0.03 0.02,-0.03 0.03,-0.03 0.02,-0.02 0.03,-0.03 0.03,-0.02 0.02,-0.02 0.03,-0.03 0.03,-0.01 0.04,-0.02 0.03,-0.02 0.03,-0.02 0.03,-0.01 0.04,-0.02 0.03,-0.01 0.04,-0.01 0.04,-0.01 0.03,-0.01 0.04,0 0.04,-0.01 0.04,0 0.04,0 0.04,0 c 0.35,0 0.58,0.22 0.74,0.54 0.16,0.36 0.3,0.97 0.3,0.99 0,0.1 -0.09,0.1 -0.12,0.1 -0.1,0 -0.12,-0.05 -0.15,-0.18 -0.13,-0.56 -0.32,-1.24 -0.74,-1.24 -0.21,0 -0.31,0.13 -0.31,0.46 0,0.22 0.12,0.69 0.2,1.03 l 0.28,1.08 c 0.03,0.15 0.13,0.52 0.17,0.67 0.05,0.23 0.15,0.61 0.15,0.67 0,0.18 -0.14,0.27 -0.29,0.27 -0.05,0 -0.31,-0.01 -0.39,-0.35 -0.19,-0.73 -0.63,-2.47 -0.75,-2.99 -0.01,-0.04 -0.41,-0.84 -1.14,-0.84 -0.52,0 -0.62,0.45 -0.62,0.82 0,0.55 0.28,1.34 0.54,2.03 0.12,0.29 0.17,0.43 0.17,0.62 0,0.45 -0.32,0.82 -0.81,0.82 -0.95,0 -1.32,-1.44 -1.32,-1.53 0,-0.1 0.1,-0.1 0.12,-0.1 0.1,0 0.11,0.02 0.16,0.18 0.25,0.86 0.63,1.23 1.01,1.23 0.09,0 0.25,-0.01 0.25,-0.33 0,-0.24 -0.12,-0.53 -0.18,-0.68 -0.36,-0.98 -0.57,-1.6 -0.57,-2.08 0,-0.95 0.69,-1.19 1.22,-1.19 0.66,0 1.02,0.44 1.19,0.66 z"
         id="path4325"
         style="fill:#000000;stroke-width:0"
         inkscape:connector-curvature="0" /></g>    <rect
       style="opacity:1;fill:#000000;fill-opacity:1;fill-rule:evenodd;stroke:#000000;stroke-width:0.53442132;stroke-linecap:round;stroke-linejoin:round;stroke-miterlimit:4;stroke-dasharray:none;stroke-dashoffset:0;stroke-opacity:1"
       id="rect8505"
       width="59.963127"
       height="59.963127"
       x="-553.22284"
       y="777.36371"
       transform="matrix(0.79956438,-0.60058038,0.60058038,0.79956438,0,0)" />
  </g>
</svg>
