<?xml version="1.0" encoding="UTF-8" standalone="no"?>
<!-- Created with Inkscape (http://www.inkscape.org/) -->

<svg
   xmlns:dc="http://purl.org/dc/elements/1.1/"
   xmlns:cc="http://creativecommons.org/ns#"
   xmlns:rdf="http://www.w3.org/1999/02/22-rdf-syntax-ns#"
   xmlns:svg="http://www.w3.org/2000/svg"
   xmlns="http://www.w3.org/2000/svg"
   xmlns:sodipodi="http://sodipodi.sourceforge.net/DTD/sodipodi-0.dtd"
   xmlns:inkscape="http://www.inkscape.org/namespaces/inkscape"
   width="247.68044mm"
   height="63.250954mm"
   viewBox="0 0 247.68043 63.250953"
   version="1.1"
   id="svg8"
   inkscape:version="0.92.1 r15371"
   sodipodi:docname="teaser.svg">
  <defs
     id="defs2">
    <marker
       style="overflow:visible"
       id="Arrow2Mend"
       refX="0"
       refY="0"
       orient="auto"
       inkscape:stockid="Arrow2Mend">
      <path
         inkscape:connector-curvature="0"
         transform="scale(-0.6)"
         d="M 8.7185878,4.0337352 -2.2072895,0.01601326 8.7185884,-4.0017078 c -1.7454984,2.3720609 -1.7354408,5.6174519 -6e-7,8.035443 z"
         style="fill-rule:evenodd;stroke-width:0.625;stroke-linejoin:round"
         id="path3890" />
    </marker>
    <marker
       style="overflow:visible"
       id="Arrow1Send"
       refX="0"
       refY="0"
       orient="auto"
       inkscape:stockid="Arrow1Send">
      <path
         inkscape:connector-curvature="0"
         transform="matrix(-0.2,0,0,-0.2,-1.2,0)"
         style="fill-rule:evenodd;stroke:#000000;stroke-width:1.00000003pt"
         d="M 0,0 5,-5 -12.5,0 5,5 Z"
         id="path3878" />
    </marker>
    <marker
       style="overflow:visible"
       id="Arrow1Lend"
       refX="0"
       refY="0"
       orient="auto"
       inkscape:stockid="Arrow1Lend">
      <path
         inkscape:connector-curvature="0"
         transform="matrix(-0.8,0,0,-0.8,-10,0)"
         style="fill-rule:evenodd;stroke:#000000;stroke-width:1.00000003pt"
         d="M 0,0 5,-5 -12.5,0 5,5 Z"
         id="path3866" />
    </marker>
    <inkscape:path-effect
       fuse_tolerance="0"
       vertical_pattern="false"
       prop_units="false"
       tang_offset="0"
       normal_offset="0"
       spacing="0"
       scale_y_rel="false"
       prop_scale="1"
       copytype="single_stretched"
       pattern="M 0,0 V 10 L 10,5 Z"
       is_visible="true"
       id="path-effect3771"
       effect="skeletal" />
    <inkscape:path-effect
       is_visible="true"
       id="path-effect3769"
       effect="spiro" />
    <clipPath
       clipPathUnits="userSpaceOnUse"
       id="clipPath4744">
      <path
         sodipodi:nodetypes="sssssssssss"
         inkscape:connector-curvature="0"
         id="path4746"
         d="m 53.146595,100.40261 c 0.42645,-0.799595 -1.599187,-7.462878 2.345478,-7.462878 3.944663,0 6.929813,-2.238861 9.595128,-0.319836 2.665312,1.919026 5.117402,4.690949 6.396752,4.797563 1.27935,0.106614 1.385964,1.7058 1.385964,3.624821 0,1.91903 0.746287,6.71659 -2.87854,6.71659 -3.624826,0 -2.771925,5.75708 -3.944665,6.29014 -1.172736,0.53307 -4.797562,1.7058 -6.823202,1.06613 -2.025639,-0.63968 1.385965,-5.65046 0.533062,-5.86369 -0.8529,-0.21322 -3.107899,0.21292 -4.584338,-1.27935 -1.476438,-1.49227 -2.452089,-6.7699 -2.025639,-7.56949 z"
         style="fill:#f4f4f4;fill-opacity:1;stroke:#000000;stroke-width:0.1337966px;stroke-linecap:butt;stroke-linejoin:miter;stroke-opacity:1" />
    </clipPath>
  </defs>
  <sodipodi:namedview
     id="base"
     pagecolor="#ffffff"
     bordercolor="#666666"
     borderopacity="1.0"
     inkscape:pageopacity="0.0"
     inkscape:pageshadow="2"
     inkscape:zoom="0.98994949"
     inkscape:cx="300.31553"
     inkscape:cy="289.08274"
     inkscape:document-units="mm"
     inkscape:current-layer="layer1"
     showgrid="false"
     inkscape:window-width="2560"
     inkscape:window-height="1376"
     inkscape:window-x="0"
     inkscape:window-y="27"
     inkscape:window-maximized="1"
     fit-margin-top="0"
     fit-margin-left="0"
     fit-margin-right="0"
     fit-margin-bottom="0" />
  <metadata
     id="metadata5">
    <rdf:RDF>
      <cc:Work
         rdf:about="">
        <dc:format>image/svg+xml</dc:format>
        <dc:type
           rdf:resource="http://purl.org/dc/dcmitype/StillImage" />
        <dc:title></dc:title>
      </cc:Work>
    </rdf:RDF>
  </metadata>
  <g
     inkscape:label="Layer 1"
     inkscape:groupmode="layer"
     id="layer1"
     transform="translate(-22.471274,-75.032515)">
    <g
       id="g5097"
       transform="matrix(1.671983,0,0,1.671983,-54.448209,-69.059779)">
      <circle
         r="16.437868"
         cy="102.75446"
         cx="62.509811"
         id="path2985"
         style="fill:none;stroke:#848484;stroke-width:0.134;stroke-miterlimit:4;stroke-dasharray:0.80400006, 0.13400001;stroke-dashoffset:0;stroke-opacity:1" />
      <path
         d="M 47.590729,95.853414 A 16.437868,16.437868 0 0 1 66.027458,86.697388 L 62.509811,102.75446 Z"
         sodipodi:ry="16.437868"
         sodipodi:rx="16.437868"
         sodipodi:cy="102.75446"
         sodipodi:cx="62.509811"
         id="path4774"
         style="fill:#fff7e9;fill-opacity:0.23966944;stroke:#ff4400;stroke-width:0.134;stroke-miterlimit:4;stroke-dasharray:0.13400001, 0.40200003;stroke-dashoffset:0;stroke-opacity:1"
         sodipodi:type="arc"
         sodipodi:start="3.5748466"
         sodipodi:end="4.9280534" />
      <path
         sodipodi:nodetypes="sssssssssss"
         inkscape:connector-curvature="0"
         id="path3765"
         d="m 53.146596,100.40261 c 0.42645,-0.799594 -1.599188,-7.462878 2.345476,-7.462878 3.944664,0 6.929814,-2.238862 9.595128,-0.319836 2.665312,1.919026 5.117402,4.69095 6.396752,4.797563 1.27935,0.106613 1.385964,1.705801 1.385964,3.624821 0,1.91903 0.746287,6.71659 -2.878539,6.71659 -3.624826,0 -2.771926,5.75708 -3.944665,6.29014 -1.172737,0.53307 -4.797562,1.7058 -6.823201,1.06613 -2.025639,-0.63968 1.385963,-5.65046 0.533062,-5.86369 -0.852901,-0.21322 -3.107901,0.21292 -4.584339,-1.27935 -1.476437,-1.49227 -2.452088,-6.7699 -2.025638,-7.56949 z"
         style="fill:#f4f4f4;fill-opacity:1;stroke:#000000;stroke-width:0.1337966px;stroke-linecap:butt;stroke-linejoin:miter;stroke-opacity:1" />
      <path
         clip-path="url(#clipPath4744)"
         sodipodi:end="4.9280534"
         sodipodi:start="3.5748466"
         sodipodi:type="arc"
         style="fill:#ffeac7;fill-opacity:0.23966944;stroke:#ff4400;stroke-width:0.134;stroke-miterlimit:4;stroke-dasharray:0.134, 1.072;stroke-dashoffset:0;stroke-opacity:1"
         id="path4740"
         sodipodi:cx="62.509811"
         sodipodi:cy="102.75446"
         sodipodi:rx="16.437868"
         sodipodi:ry="16.437868"
         d="M 47.590729,95.853414 A 16.437868,16.437868 0 0 1 66.027458,86.697388 L 62.509811,102.75446 Z" />
      <path
         inkscape:connector-curvature="0"
         transform="scale(0.26458333)"
         id="path4750"
         d="m 236.12695,347.125 c -7.60735,0.14284 -16.14266,4.14258 -26.39257,4.14258 -10.41237,0 -9.81296,12.19957 -9.05665,20.63867 l 35.58008,16.45703 8.56055,-39.07226 c -2.78334,-1.66062 -5.66341,-2.22287 -8.69141,-2.16602 z"
         style="fill:#ffeac7;fill-opacity:0.23966944;stroke:#ff4400;stroke-width:0.50645667;stroke-miterlimit:4;stroke-dasharray:1.01291336, 0.50645668;stroke-dashoffset:0;stroke-opacity:1" />
      <path
         sodipodi:nodetypes="ccsc"
         inkscape:connector-curvature="0"
         style="fill:none;fill-opacity:0.23966944;stroke:#ff4400;stroke-width:0.75590551;stroke-miterlimit:4;stroke-dasharray:none;stroke-dashoffset:0;stroke-opacity:1"
         d="m 244.81836,349.29102 c -2.78334,-1.66062 -5.66341,-2.22287 -8.69141,-2.16602 -7.60735,0.14284 -16.14266,4.14258 -26.39257,4.14258 -10.41237,0 -9.81296,12.19957 -9.05665,20.63867"
         transform="scale(0.26458333)"
         id="path4755" />
      <path
         sodipodi:open="true"
         sodipodi:end="4.9280534"
         sodipodi:start="3.5748466"
         sodipodi:type="arc"
         style="fill:none;stroke:#ffc6b1;stroke-width:0.2675932;stroke-miterlimit:4;stroke-dasharray:none;stroke-dashoffset:0;stroke-opacity:1"
         id="path4716"
         sodipodi:cx="62.509811"
         sodipodi:cy="102.75446"
         sodipodi:rx="16.437868"
         sodipodi:ry="16.437868"
         d="M 47.590729,95.853414 A 16.437868,16.437868 0 0 1 66.027458,86.697388" />
    </g>
    <g
       transform="matrix(0.22256382,0,0,0.22256382,43.603944,51.486867)"
       id="g4773"
       style="color:#000000;fill:#f9f0e0;fill-opacity:1;stroke:#ff4400;stroke-width:0.5943988;stroke-linecap:butt;stroke-linejoin:miter;stroke-miterlimit:4;stroke-dasharray:none;stroke-opacity:1" />
    <g
       id="g5109"
       transform="matrix(1.671983,0,0,1.671983,-75.651629,-69.060433)">
      <path
         d="M 98.645416,95.853414 A 16.437868,16.437868 0 0 1 117.08215,86.697388 L 113.5645,102.75446 Z"
         sodipodi:ry="16.437868"
         sodipodi:rx="16.437868"
         sodipodi:cy="102.75446"
         sodipodi:cx="113.5645"
         id="path4757"
         style="fill:#fff7ea;fill-opacity:0.23921569;stroke:#ff4400;stroke-width:0.134;stroke-miterlimit:4;stroke-dasharray:0.13400001, 0.40200003;stroke-dashoffset:0;stroke-opacity:1"
         sodipodi:type="arc"
         sodipodi:start="3.5748466"
         sodipodi:end="4.9280534" />
      <path
         sodipodi:end="4.9280534"
         sodipodi:start="3.5748466"
         sodipodi:type="arc"
         style="fill:#fff7ea;fill-opacity:0.23921569;stroke:#ff4400;stroke-width:0.134;stroke-miterlimit:4;stroke-dasharray:0.13400001, 0.40200003;stroke-dashoffset:0;stroke-opacity:1"
         id="path4776"
         sodipodi:cx="113.5645"
         sodipodi:cy="102.75446"
         sodipodi:rx="16.437868"
         sodipodi:ry="16.437868"
         d="M 98.645416,95.853414 A 16.437868,16.437868 0 0 1 117.08215,86.697388 L 113.5645,102.75446 Z" />
      <circle
         style="fill:none;stroke:#848484;stroke-width:0.134;stroke-miterlimit:4;stroke-dasharray:0.80400006, 0.13400001;stroke-dashoffset:0;stroke-opacity:1"
         id="path3755"
         cx="113.56675"
         cy="102.75446"
         r="16.437868" />
      <path
         sodipodi:open="true"
         d="M 98.645416,95.853414 A 16.437868,16.437868 0 0 1 117.08215,86.697388"
         sodipodi:ry="16.437868"
         sodipodi:rx="16.437868"
         sodipodi:cy="102.75446"
         sodipodi:cx="113.5645"
         id="path4718"
         style="fill:none;stroke:#ffc6b1;stroke-width:0.2675932;stroke-miterlimit:4;stroke-dasharray:none;stroke-dashoffset:0;stroke-opacity:1"
         sodipodi:type="arc"
         sodipodi:start="3.5748466"
         sodipodi:end="4.9280534" />
      <g
         style="color:#000000;fill:#efefef;fill-opacity:1;stroke:#000000;stroke-width:0.5943988;stroke-linecap:butt;stroke-linejoin:miter;stroke-miterlimit:4;stroke-dasharray:none;stroke-opacity:1"
         id="g238"
         transform="matrix(0.22256382,0,0,0.22256382,43.603944,51.486867)">
        <path
           sodipodi:nodetypes="czzzzzzzzzzzzzzzzzzzzzzzzczzzzzzzzzzzzzzzzzzzzzzzzcszzzzzzzzzzzzzzzzzzzzzzzczzzzzzzzzzzzzzzzzzzzzzzzc"
           style="fill:#efefef;fill-opacity:1;stroke:#000000;stroke-width:0.5943988;stroke-miterlimit:4;stroke-dasharray:none;stroke-opacity:1"
           inkscape:connector-curvature="0"
           id="path240"
           d="m 314.38157,230.33932 c 0,0 6.05692,-0.15853 9.03256,-0.46978 2.97564,-0.31125 5.94326,-0.77584 8.79767,-1.38798 2.85441,-0.61214 5.65926,-1.37514 8.30653,-2.26347 2.64727,-0.88833 5.19023,-1.90373 7.55916,-3.03221 2.36893,-1.12848 4.60784,-2.36786 6.64096,-3.69417 2.03312,-1.32631 3.90874,-2.73916 5.55193,-4.20665 1.64319,-1.46749 3.0995,-2.97895 4.31342,-4.52695 1.21392,-1.548 2.2271,-3.11238 2.9895,-4.67644 0.7624,-1.56406 1.31821,-3.09694 1.62287,-4.61237 0.30466,-1.51543 0.39811,-2.97615 0.25624,-4.37748 -0.14187,-1.40133 -0.48871,-2.70623 -1.04632,-3.92905 -0.55761,-1.22282 -1.3042,-2.32163 -2.24212,-3.30981 -0.93792,-0.98818 -2.05884,-1.81802 -3.33116,-2.51972 -1.27232,-0.7017 -2.70647,-1.22352 -4.24936,-1.60152 -1.54289,-0.378 -3.21489,-0.57198 -4.95403,-0.5979 -1.73914,-0.0259 -3.56716,0.14407 -5.4238,0.49114 -1.85664,0.34707 -3.76036,0.90319 -5.6587,1.62287 -1.89834,0.71968 -3.81721,1.62687 -5.68005,2.7119 -1.86284,1.08503 -3.69741,2.36873 -5.44516,3.80093 -1.74775,1.4322 -3.43868,3.04283 -4.99673,4.7832 -1.55805,1.74037 -3.00868,3.62892 -4.31342,5.63734 -1.30474,2.00842 -2.47672,4.16174 -3.48063,6.38472 -1.00391,2.22298 -1.86214,4.54465 -2.51972,6.91856 -0.65758,2.37391 -1.14214,5.44255 -1.40934,7.28156 -0.2672,1.83901 -0.36301,5.53558 -0.36301,5.53558 0,0 -0.37389,-6.47951 -0.8755,-9.20839 -0.50161,-2.72888 -1.13171,-4.82642 -1.96452,-7.13209 -0.83281,-2.30567 -1.84943,-4.54281 -3.01086,-6.66232 -1.16143,-2.11951 -2.48895,-4.1421 -3.92905,-6.0217 -1.4401,-1.8796 -3.01824,-3.63834 -4.67643,-5.23162 -1.65819,-1.59328 -3.41907,-3.04924 -5.23163,-4.31343 -1.81256,-1.26419 -3.70342,-2.36115 -5.59463,-3.26709 -1.89121,-0.90594 -3.81296,-1.64473 -5.70141,-2.17806 -1.88845,-0.53333 -3.76298,-0.88905 -5.57327,-1.04633 -1.81029,-0.15728 -3.58175,-0.14196 -5.23163,0.0641 -1.64988,0.20606 -3.1977,0.5675 -4.61237,1.11039 -1.41467,0.54289 -2.70979,1.2185 -3.82229,2.07129 -1.1125,0.85279 -2.04489,1.83456 -2.79731,2.9468 -0.75242,1.11224 -1.31039,2.31426 -1.66558,3.6301 -0.35519,1.31584 -0.48459,2.69822 -0.40572,4.16395 0.0789,1.46573 0.40273,2.97606 0.93956,4.52696 0.53683,1.5509 1.3353,3.11375 2.32753,4.67642 0.99223,1.56267 2.22305,3.09768 3.65147,4.61238 1.42842,1.5147 3.09241,2.99635 4.93267,4.39883 1.84026,1.40248 3.89923,2.71763 6.10712,3.95041 2.20789,1.23278 4.61321,2.37794 7.13209,3.39522 2.51888,1.01728 5.20682,1.91385 7.96488,2.66919 2.75806,0.75534 5.63709,1.3708 8.56278,1.83641 2.92569,0.46561 7.8372,0.93955 8.9685,0.93955 1.1313,0 4.56427,0.11745 4.56427,0.11745 0,0 -3.98812,0.11745 -4.56427,0.11745 -1.54208,0 -6.04281,0.47394 -8.9685,0.93955 -2.92569,0.46561 -5.80472,1.08107 -8.56278,1.83641 -2.75806,0.75534 -5.446,1.65191 -7.96488,2.66919 -2.51888,1.01728 -4.9242,2.16244 -7.13209,3.39522 -2.20789,1.23278 -4.26686,2.54793 -6.10712,3.95041 -1.84026,1.40248 -3.50425,2.88413 -4.93267,4.39883 -1.42842,1.5147 -2.65924,3.04971 -3.65147,4.61238 -0.99223,1.56267 -1.7907,3.12552 -2.32753,4.67642 -0.53683,1.5509 -0.86069,3.06123 -0.93956,4.52696 -0.0789,1.46573 0.0505,2.84811 0.40572,4.16395 0.35519,1.31584 0.91316,2.51786 1.66558,3.6301 0.75242,1.11224 1.68481,2.09401 2.79731,2.9468 1.1125,0.85279 2.40762,1.5284 3.82229,2.07129 1.41467,0.54289 2.96249,0.90433 4.61237,1.11039 1.64988,0.20606 3.42134,0.22138 5.23163,0.0641 1.81029,-0.15728 3.68482,-0.513 5.57327,-1.04633 1.88845,-0.53333 3.8102,-1.27212 5.70141,-2.17806 1.89121,-0.90594 3.78207,-2.0029 5.59463,-3.26709 1.81256,-1.26419 3.57344,-2.72015 5.23163,-4.31343 1.65819,-1.59328 3.23633,-3.35202 4.67643,-5.23162 1.4401,-1.8796 2.76762,-3.90219 3.92905,-6.0217 1.16143,-2.11951 2.17805,-4.35665 3.01086,-6.66232 0.83281,-2.30567 1.48931,-4.70522 1.96452,-7.13209 0.47521,-2.42687 0.8755,-9.30523 0.8755,-9.30523 0,0 0.0958,3.79341 0.36301,5.63242 0.2672,1.83901 0.75176,4.90765 1.40934,7.28156 0.65758,2.37391 1.51581,4.69558 2.51972,6.91856 1.00391,2.22298 2.17589,4.3763 3.48063,6.38472 1.30474,2.00842 2.75537,3.89697 4.31342,5.63734 1.55805,1.74037 3.24898,3.351 4.99673,4.7832 1.74775,1.4322 3.58232,2.7159 5.44516,3.80093 1.86284,1.08503 3.78171,1.99222 5.68005,2.7119 1.89834,0.71968 3.80206,1.2758 5.6587,1.62287 1.85664,0.34707 3.68466,0.51706 5.4238,0.49114 1.73914,-0.0259 3.41114,-0.2199 4.95403,-0.5979 1.54289,-0.378 2.97704,-0.89982 4.24936,-1.60152 1.27232,-0.7017 2.39324,-1.53154 3.33116,-2.51972 0.93792,-0.98818 1.68451,-2.08699 2.24212,-3.30981 0.55761,-1.22282 0.90445,-2.52772 1.04632,-3.92905 0.14187,-1.40133 0.0484,-2.86205 -0.25624,-4.37748 -0.30466,-1.51543 -0.86047,-3.04831 -1.62287,-4.61237 -0.7624,-1.56406 -1.77558,-3.12844 -2.9895,-4.67644 -1.21392,-1.548 -2.67023,-3.05946 -4.31342,-4.52695 -1.64319,-1.46749 -3.51881,-2.88034 -5.55193,-4.20665 -2.03312,-1.32631 -4.27203,-2.56569 -6.64096,-3.69417 -2.36893,-1.12848 -4.91189,-2.14388 -7.55916,-3.03221 -2.64727,-0.88833 -5.45212,-1.65133 -8.30653,-2.26347 -2.85441,-0.61214 -5.82221,-1.0732 -8.79767,-1.38798 -2.97546,-0.31478 -8.95751,-0.49114 -8.95751,-0.49114" />
      </g>
      <g
         transform="matrix(0.22256382,0,0,0.22256382,43.603944,51.486867)"
         id="g5054"
         style="color:#000000;fill:#f9f0e0;fill-opacity:1;stroke:#ff4400;stroke-width:0.59308833;stroke-linecap:butt;stroke-linejoin:miter;stroke-miterlimit:4;stroke-dasharray:1.18617663, 0.59308831;stroke-dashoffset:0;stroke-opacity:1">
        <path
           inkscape:connector-curvature="0"
           id="path5052"
           transform="matrix(1.1887976,0,0,1.1887976,-195.91659,-231.3353)"
           d="m 396.2168,350.33008 c -0.73637,0.008 -1.45451,0.0559 -2.14844,0.14258 -1.38786,0.17333 -2.69086,0.47692 -3.88086,0.93359 -1.19,0.45667 -2.27902,1.02483 -3.21484,1.74219 -0.93582,0.71735 -1.72059,1.54291 -2.35352,2.47851 -0.63292,0.9356 -1.10161,1.94587 -1.40039,3.05274 -0.29878,1.10686 -0.40814,2.27095 -0.3418,3.5039 0.0664,1.23296 0.33944,2.504 0.79102,3.8086 0.18548,0.53587 0.41608,1.07277 0.67187,1.61133 l 44.87696,20.75781 c 4e-5,0 0.002,0 0.002,0 3e-5,-4.4e-4 0.002,-0.0391 0.002,-0.0391 0,0 -0.31633,-5.4506 -0.73828,-7.7461 -0.42195,-2.29549 -0.95179,-4.05855 -1.65234,-5.99805 -0.70055,-1.93949 -1.55427,-3.82256 -2.53125,-5.60546 -0.97698,-1.78291 -2.09525,-3.48336 -3.30664,-5.06446 -1.21139,-1.58109 -2.53875,-3.0621 -3.9336,-4.40234 -1.39484,-1.34025 -2.87569,-2.56353 -4.40039,-3.62695 -1.5247,-1.06342 -3.11422,-1.98599 -4.70508,-2.74805 -1.59085,-0.76206 -3.20833,-1.3834 -4.79687,-1.83203 -1.58854,-0.44863 -3.16471,-0.74856 -4.6875,-0.88086 -0.7614,-0.0662 -1.51559,-0.0962 -2.25195,-0.0879 z m 33.0039,37.99219 c 0,0 0.002,0.0326 0.002,0.0332 l 3.67578,-16.77735 c -0.0219,0.0479 -0.0467,0.0946 -0.0684,0.14258 -0.84448,1.86994 -1.566,3.82342 -2.11914,5.82032 -0.55315,1.9969 -0.96078,4.57805 -1.18555,6.125 -0.22476,1.54695 -0.30469,4.65625 -0.30469,4.65625 z m -0.002,0.0391 0.002,0.002 v -0.002 c -3e-5,0 -0.002,0 -0.002,0 z"
           style="fill:#f9f0e0;fill-opacity:1;stroke:#ff4400;stroke-width:0.49889764;stroke-miterlimit:4;stroke-dasharray:0.99779527, 0.49889764;stroke-dashoffset:0;stroke-opacity:1" />
      </g>
      <g
         style="color:#000000;fill:none;fill-opacity:1;stroke:#ff4400;stroke-width:0.89861864;stroke-linecap:butt;stroke-linejoin:miter;stroke-miterlimit:4;stroke-dasharray:none;stroke-dashoffset:0;stroke-opacity:1"
         id="g5062"
         transform="matrix(0.22256382,0,0,0.22256382,43.603944,51.486867)">
        <path
           transform="matrix(1.1887976,0,0,1.1887976,-195.91659,-231.3353)"
           sodipodi:nodetypes="ccsccccscssscscccccccccccccccc"
           inkscape:connector-curvature="0"
           style="fill:none;fill-opacity:1;stroke:#ff4400;stroke-width:0.75590551;stroke-linejoin:bevel;stroke-miterlimit:4;stroke-dasharray:none;stroke-dashoffset:0;stroke-opacity:1"
           d="m 429.2188,388.36133 c 3e-5,-4.4e-4 0.002,-0.0391 0.002,-0.0391 0,0 -0.31633,-5.4506 -0.73828,-7.7461 -0.42195,-2.29549 -0.95179,-4.05855 -1.65234,-5.99805 -0.70055,-1.93949 -1.55427,-3.82256 -2.53125,-5.60546 -0.97698,-1.78291 -2.09525,-3.48336 -3.30664,-5.06446 -1.21139,-1.58109 -2.53875,-3.0621 -3.9336,-4.40234 -1.39484,-1.34025 -2.87569,-2.56353 -4.40039,-3.62695 -1.5247,-1.06342 -3.11422,-1.98599 -4.70508,-2.74805 -1.59085,-0.76206 -3.20833,-1.3834 -4.79687,-1.83203 -1.58854,-0.44863 -3.16471,-0.74856 -4.6875,-0.88086 -0.7614,-0.0662 -1.51559,-0.0962 -2.25195,-0.0879 -0.73637,0.008 -1.45451,0.0559 -2.14844,0.14258 -1.38786,0.17333 -2.69086,0.47692 -3.88086,0.93359 -1.19,0.45667 -2.27902,1.02483 -3.21484,1.74219 -0.93582,0.71735 -1.72059,1.54291 -2.35352,2.47851 -0.63292,0.9356 -1.10161,1.94587 -1.40039,3.05274 -0.29878,1.10686 -0.40814,2.27095 -0.3418,3.5039 0.0664,1.23296 0.33944,2.504 0.79102,3.8086 0.18548,0.53587 0.41608,1.07277 0.67187,1.61133 m 48.55864,3.9746 c -0.0219,0.0479 -0.0467,0.0946 -0.0684,0.14258 -0.84448,1.86994 -1.566,3.82342 -2.11914,5.82032 -0.55315,1.9969 -0.96078,4.57805 -1.18555,6.125 -0.22476,1.54695 -0.30469,4.65625 -0.30469,4.65625 0,0 0.002,0.0326 0.002,0.0332 m -0.004,0.006 0.002,0.002 v -0.002 z"
           id="path5060" />
      </g>
    </g>
    <g
       transform="matrix(0.04306434,-0.05576055,0.05576055,0.04306434,141.59571,115.32022)"
       style="color:#000000;fill:#efefef;fill-opacity:1;stroke:#000000;stroke-width:1.87770081;stroke-linecap:butt;stroke-linejoin:miter;stroke-miterlimit:4;stroke-dasharray:none;stroke-opacity:1"
       id="g5076" />
    <g
       id="g5121"
       transform="matrix(1.671983,0,0,1.671983,-96.854904,-69.036681)">
      <circle
         r="16.437868"
         cy="102.80009"
         cx="164.6237"
         id="path3819"
         style="fill:none;stroke:#000000;stroke-width:0.1337966;stroke-miterlimit:4;stroke-dasharray:0.40138981, 0.40138981;stroke-dashoffset:0;stroke-opacity:1" />
      <path
         inkscape:connector-curvature="0"
         id="path4780"
         d="m 149.70236,95.807767 a 16.437868,16.437868 0 0 1 18.43673,-9.156026 l -3.51765,16.057079 z"
         style="fill:#fff8ec;fill-opacity:0.41960784;stroke:#ff4400;stroke-width:0.134;stroke-miterlimit:4;stroke-dasharray:0.13400001, 0.40200003;stroke-dashoffset:0;stroke-opacity:1" />
      <g
         transform="matrix(0.04306434,-0.05576055,0.05576055,0.04306434,141.59571,115.32022)"
         style="color:#000000;fill:#efefef;fill-opacity:1;stroke:#000000;stroke-width:1.87770081;stroke-linecap:butt;stroke-linejoin:miter;stroke-miterlimit:4;stroke-dasharray:none;stroke-opacity:1"
         id="g288">
        <path
           sodipodi:nodetypes="czzzzzzzzzzzzzzczzzzzzzzzzzzzzzzzzczzzzzzzzzzzzzzzzzzzzzzzzzzzzzzczzzzzzzzzzzzzzzzzzczzzzzzzzzzzzzzc"
           style="fill:#efefef;fill-opacity:1;stroke:#000000;stroke-width:1.87770081;stroke-miterlimit:4;stroke-dasharray:none;stroke-opacity:1"
           inkscape:connector-curvature="0"
           id="path290"
           d="m 550.53151,148.61597 c 0,0 -0.60186,-7.09267 -1.7,-10.6 -1.09814,-3.50733 -2.74886,-6.91033 -4.9,-10.2 -2.15114,-3.28967 -4.86478,-6.35041 -8,-9.3 -3.13522,-2.94959 -6.7584,-5.71919 -10.8,-8.2 -4.0416,-2.48081 -8.59224,-4.59703 -13.4,-6.5 -4.80776,-1.90297 -9.95562,-3.53141 -15.4,-4.800003 -5.44438,-1.268598 -11.28863,-2.157083 -17.2,-2.7 -5.91137,-0.542917 -12.02244,-0.693775 -18.2,-0.5 -6.17756,0.193775 -12.50599,0.769108 -18.8,1.7 -6.29401,0.930892 -12.68917,2.230339 -18.9,3.900003 -6.21083,1.66966 -12.34245,3.76202 -18.3,6.1 -5.95755,2.33798 -11.84203,4.9569 -17.4,7.9 -5.55797,2.9431 -10.89658,6.25535 -15.9,9.7 -5.00342,3.44465 -9.76398,7.06749 -14.1,10.9 -4.33602,3.83251 -11.9,12 -11.9,12 0,0 5.80574,-7.21109 8.4,-11.2 2.59426,-3.98891 5.17701,-8.49534 7.1,-12.7 1.92299,-4.20466 3.41393,-8.36386 4.5,-12.4 1.08607,-4.03614 1.8045,-7.98024 2.1,-11.7 0.2955,-3.71976 0.24055,-7.214732 -0.2,-10.500003 -0.44055,-3.285271 -1.23535,-6.371241 -2.3,-9.1 -1.06465,-2.728759 -2.33415,-5.121613 -3.9,-7.2 -1.56585,-2.078387 -3.36277,-3.84653 -5.3,-5.2 -1.93723,-1.35347 -3.96532,-2.314 -6.1,-2.9 -2.13468,-0.586 -4.32949,-0.802718 -6.5,-0.6 -2.17051,0.202718 -4.25057,0.832603 -6.3,1.8 -2.04943,0.967397 -4.02696,2.274076 -5.8,4 -1.77304,1.725924 -3.27002,3.873421 -4.6,6.3 -1.32998,2.426579 -2.42345,5.183669 -3.2,8.2 -0.77655,3.016331 -1.2107,6.297425 -1.3,9.8 -0.0893,3.502575 0.21843,7.212913 0.9,11.100003 0.68157,3.88709 1.79537,7.96299 3.3,12.1 1.50463,4.13701 2.91983,7.61854 5.8,12.6 2.88017,4.98146 11.95091,16.84544 11.95091,16.84544 0,0 -2.32492,-2.50051 -5.35091,-5.34544 -3.02599,-2.84493 -8.31335,-7.85186 -13,-11.5 -4.68665,-3.64814 -9.79516,-7.09023 -15.1,-10.3 -5.30484,-3.20977 -10.92468,-6.24284 -16.7,-8.9 -5.77532,-2.65716 -11.80754,-4.99661 -17.9,-7 -6.09246,-2.00339 -12.33926,-3.69928 -18.6,-5.000003 -6.26074,-1.300719 -12.63926,-2.237136 -18.9,-2.8 -6.26074,-0.562864 -12.52226,-0.774478 -18.6,-0.6 -6.07774,0.174478 -12.10598,0.701952 -17.8,1.6 -5.69402,0.898048 -11.15616,2.11514 -16.3,3.700003 -5.14384,1.58486 -10.04204,3.49194 -14.5,5.7 -4.45796,2.20806 -8.59517,4.66621 -12.2,7.4 -3.60483,2.73379 -6.74693,5.64803 -9.4,8.8 -2.65307,3.15197 -4.87057,6.47554 -6.5,9.9 -1.62943,3.42446 -2.74883,6.84059 -3.3,10.4 -0.55117,3.55941 -0.55117,7.14059 0,10.7 0.55117,3.55941 1.67057,6.97554 3.3,10.4 1.62943,3.42446 3.84693,6.74803 6.5,9.9 2.65307,3.15197 5.79517,6.06621 9.4,8.8 3.60483,2.73379 7.74204,5.19194 12.2,7.4 4.45796,2.20806 9.35616,4.11514 14.5,5.7 5.14384,1.58486 10.60598,2.80195 16.3,3.7 5.69402,0.89805 11.72226,1.42552 17.8,1.6 6.07774,0.17448 12.33926,-0.0371 18.6,-0.6 6.26074,-0.56286 12.63926,-1.49928 18.9,-2.8 6.26074,-1.30072 12.50754,-2.99661 18.6,-5 6.09246,-2.00339 12.12468,-4.34284 17.9,-7 5.77532,-2.65716 11.39516,-5.69023 16.7,-8.9 5.30484,-3.20977 10.41335,-6.65186 15.1,-10.3 4.68665,-3.64814 10.07637,-8.61482 13,-11.5 2.92363,-2.88518 4.90113,-5.39481 4.90113,-5.39481 0,0 -8.68702,11.91708 -11.50113,16.89481 -2.81411,4.97773 -4.29537,8.46299 -5.8,12.6 -1.50463,4.13701 -2.61843,8.21291 -3.3,12.1 -0.68157,3.88709 -0.9893,7.59743 -0.9,11.1 0.0893,3.50257 0.52345,6.78367 1.3,9.8 0.77655,3.01633 1.87002,5.77342 3.2,8.2 1.32998,2.42658 2.82696,4.57408 4.6,6.3 1.77304,1.72592 3.75057,3.0326 5.8,4 2.04943,0.9674 4.12949,1.59728 6.3,1.8 2.17051,0.20272 4.36532,-0.014 6.5,-0.6 2.13468,-0.586 4.16277,-1.54653 6.1,-2.9 1.93723,-1.35347 3.73415,-3.12161 5.3,-5.2 1.56585,-2.07839 2.83535,-4.47124 3.9,-7.2 1.06465,-2.72876 1.85945,-5.81473 2.3,-9.1 0.44055,-3.28527 0.4955,-6.78024 0.2,-10.5 -0.2955,-3.71976 -1.01393,-7.66386 -2.1,-11.7 -1.08607,-4.03614 -2.57701,-8.19534 -4.5,-12.4 -1.92299,-4.20466 -4.50574,-8.71109 -7.1,-12.7 -2.59426,-3.98891 -8.4,-11.2 -8.4,-11.2 0,0 7.56398,8.16749 11.9,12 4.33602,3.83251 9.09658,7.45535 14.1,10.9 5.00342,3.44465 10.34203,6.7569 15.9,9.7 5.55797,2.9431 11.44245,5.56202 17.4,7.9 5.95755,2.33798 12.08917,4.43034 18.3,6.1 6.21083,1.66966 12.60599,2.96911 18.9,3.9 6.29401,0.93089 12.62244,1.50622 18.8,1.7 6.17756,0.19378 12.28863,0.0429 18.2,-0.5 5.91137,-0.54292 11.75562,-1.4314 17.2,-2.7 5.44438,-1.2686 10.59224,-2.89703 15.4,-4.8 4.80776,-1.90297 9.3584,-4.01919 13.4,-6.5 4.0416,-2.48081 7.66478,-5.25041 10.8,-8.2 3.13522,-2.94959 5.84886,-6.01033 8,-9.3 2.15114,-3.28967 3.79951,-6.67616 4.9,-10.2 1.10049,-3.52384 1.7,-10.7 1.7,-10.7" />
      </g>
      <path
         sodipodi:nodetypes="cccscccccccsccccccccccscscc"
         inkscape:connector-curvature="0"
         id="path5072"
         transform="scale(0.26458333)"
         d="m 629.24805,355.97852 c -0.54568,0.83581 -1.07469,1.68937 -1.56836,2.57031 -0.82825,1.47797 -1.59685,3.03846 -2.25586,4.61914 -0.65902,1.58068 -1.21447,3.21353 -1.69141,4.84961 -0.47694,1.63608 -0.88359,3.30081 -1.16797,4.95117 -0.28437,1.65036 -0.45455,3.31456 -0.54297,4.92969 -0.0884,1.61512 -0.1,3.20849 0.002,4.74609 0.0866,1.30673 0.40541,3.30131 0.51367,3.96485 z m -19.8418,15.64453 c -0.69288,-0.008 -1.35843,0.0816 -1.95898,0.26953 -0.60056,0.18797 -1.13257,0.45995 -1.60352,0.81445 -0.47095,0.3545 -0.87304,0.78106 -1.18359,1.27149 -0.31056,0.49042 -0.51679,1.03172 -0.64649,1.62109 -0.12969,0.58937 -0.17671,1.21846 -0.10156,1.87305 0.0752,0.65458 0.28515,1.32084 0.58008,1.99609 0.10242,0.23449 0.2329,0.46887 0.36133,0.70313 l 15.56445,7.19922 1.77344,0.82031 0.32421,-1.48047 c -0.13026,-0.53329 -0.53737,-2.17636 -0.89453,-3.19727 -0.4184,-1.19598 -0.94639,-2.47482 -1.51953,-3.56445 -0.57313,-1.08963 -1.20702,-2.08098 -1.88086,-2.9668 -0.67384,-0.88582 -1.38916,-1.67799 -2.125,-2.3457 -0.73583,-0.66772 -1.48007,-1.2261 -2.24414,-1.66797 -0.76407,-0.44187 -1.5446,-0.77633 -2.29297,-0.99609 -0.74836,-0.21977 -1.45946,-0.34133 -2.15234,-0.34961 z"
         style="fill:#ffeac7;fill-opacity:0.23966944;stroke:#ff4400;stroke-width:0.50645667;stroke-miterlimit:4;stroke-dasharray:0.50645668, 0.50645668;stroke-dashoffset:0;stroke-opacity:1" />
      <path
         sodipodi:nodetypes="cccsccccccccscscccsccc"
         inkscape:connector-curvature="0"
         style="fill:none;fill-opacity:0.23966944;stroke:#ff4400;stroke-width:0.75590551;stroke-miterlimit:4;stroke-dasharray:none;stroke-dashoffset:0;stroke-opacity:1"
         d="m 629.24805,355.97852 c -0.54568,0.83581 -1.07469,1.68937 -1.56836,2.57031 -0.82825,1.47797 -1.59685,3.03846 -2.25586,4.61914 -0.65902,1.58068 -1.21447,3.21353 -1.69141,4.84961 -0.47694,1.63608 -0.88359,3.30081 -1.16797,4.95117 -0.28437,1.65036 -0.45455,3.31456 -0.54297,4.92969 -0.0884,1.61512 -0.1,3.20849 0.002,4.74609 0.0866,1.30673 0.40541,3.30131 0.50291,4.01563 -0.14103,-0.48251 -0.54814,-2.12558 -0.9053,-3.14649 -0.4184,-1.19598 -0.94639,-2.47482 -1.51953,-3.56445 -0.57313,-1.08963 -1.20702,-2.08098 -1.88086,-2.9668 -0.67384,-0.88582 -1.38916,-1.67799 -2.125,-2.3457 -0.73583,-0.66772 -1.48007,-1.2261 -2.24414,-1.66797 -0.76407,-0.44187 -1.5446,-0.77633 -2.29297,-0.99609 -0.74836,-0.21977 -1.45946,-0.34133 -2.15234,-0.34961 -0.69288,-0.008 -1.35843,0.0816 -1.95898,0.26953 -0.60056,0.18797 -1.13257,0.45995 -1.60352,0.81445 -0.47095,0.3545 -0.87304,0.78106 -1.18359,1.27149 -0.31056,0.49042 -0.51679,1.03172 -0.64649,1.62109 -0.12969,0.58937 -0.17671,1.21846 -0.10156,1.87305 0.0752,0.65458 0.28515,1.32084 0.58008,1.99609 0.10242,0.23449 0.2329,0.46887 0.36133,0.70313"
         transform="scale(0.26458333)"
         id="path5080" />
      <g
         transform="matrix(0.1337966,0,0,0.1337966,86.724338,39.725696)"
         id="g4681">
        <path
           style="fill:none;stroke:#000000;stroke-width:2;stroke-linecap:butt;stroke-linejoin:miter;stroke-miterlimit:4;stroke-dasharray:none;stroke-opacity:1;marker-end:url(#Arrow2Mend)"
           d="m 582.3348,470.02738 64.47279,-83.19069"
           id="path3857"
           inkscape:connector-curvature="0" />
        <circle
           r="3.0279572"
           cy="469.64862"
           cx="582.37714"
           style="fill:#000000;fill-opacity:1;fill-rule:evenodd;stroke:none;stroke-width:1;stroke-linecap:butt;stroke-linejoin:miter;stroke-miterlimit:4;stroke-dasharray:none;stroke-dashoffset:0;stroke-opacity:1"
           id="path4305" />
      </g>
      <path
         sodipodi:open="true"
         sodipodi:end="4.9280534"
         sodipodi:start="3.5748466"
         sodipodi:type="arc"
         style="fill:none;stroke:#ffc6b1;stroke-width:0.30000001;stroke-miterlimit:4;stroke-dasharray:none;stroke-dashoffset:0;stroke-opacity:1"
         id="path4728"
         sodipodi:cx="164.62144"
         sodipodi:cy="102.75606"
         sodipodi:rx="16.437868"
         sodipodi:ry="16.437868"
         d="m 149.70236,95.855008 a 16.437868,16.437868 0 0 1 18.43673,-9.156026" />
    </g>
    <g
       id="g5132"
       transform="matrix(1.671983,0,0,1.671983,-118.05839,-69.036683)">
      <path
         inkscape:connector-curvature="0"
         id="path4784"
         d="m 200.75932,95.866719 a 16.437868,16.437868 0 0 1 18.43673,-9.156026 l -3.51764,16.057077 z"
         style="fill:#fff8ec;fill-opacity:0.41960784;stroke:#ff4400;stroke-width:0.134;stroke-miterlimit:4;stroke-dasharray:0.13400001, 0.40200003;stroke-dashoffset:0;stroke-opacity:1" />
      <path
         sodipodi:nodetypes="czzzzzzzzzzzzzzzzzzzzzzzzzzzzzzzzzzzzzzzzzzzzzzzzzzzzzzzzzzzzzzzzzzzzzzzzzzzzzzzzzzzzzzzzzzzzzc"
         style="color:#000000;fill:#efefef;fill-opacity:1;stroke:#000000;stroke-width:0.13229166;stroke-linecap:butt;stroke-linejoin:miter;stroke-miterlimit:4;stroke-dasharray:none;stroke-opacity:1"
         inkscape:connector-curvature="0"
         id="path340"
         d="m 215.75801,102.72561 c 0,0 0.006,0.006 0.0149,0.0118 0.009,0.005 0.0221,0.009 0.0426,0.0175 0.0205,0.008 0.0421,0.0179 0.0803,0.0311 0.0382,0.0132 0.0861,0.0284 0.14956,0.0454 0.0635,0.017 0.13653,0.0358 0.23164,0.0538 0.0951,0.018 0.20698,0.035 0.33936,0.05 0.13238,0.015 0.28143,0.0304 0.4549,0.0364 0.17347,0.006 0.36927,0.006 0.58507,-0.006 0.2158,-0.0118 0.4524,-0.0333 0.70818,-0.0701 0.25578,-0.0368 0.53387,-0.0857 0.82422,-0.1559 0.29035,-0.0702 0.59936,-0.16007 0.91436,-0.27019 0.315,-0.11012 0.64396,-0.23734 0.97182,-0.39413 0.32786,-0.15679 0.66393,-0.34218 0.98953,-0.54943 0.3256,-0.20725 0.65245,-0.43802 0.95888,-0.6945 0.30643,-0.25648 0.60152,-0.53986 0.87386,-0.842174 0.27234,-0.302315 0.53272,-0.627182 0.75537,-0.967868 0.22265,-0.340686 0.41851,-0.699731 0.57678,-1.068444 0.15827,-0.368713 0.28743,-0.752025 0.37074,-1.134235 0.0833,-0.38221 0.12673,-0.767625 0.13048,-1.146419 0.004,-0.378794 -0.0266,-0.755781 -0.10453,-1.114162 -0.0779,-0.358381 -0.19789,-0.702008 -0.35494,-1.02151 -0.15705,-0.319502 -0.34966,-0.616523 -0.57735,-0.882594 -0.22769,-0.266071 -0.48975,-0.503466 -0.77674,-0.70134 -0.28699,-0.197874 -0.59852,-0.357106 -0.93037,-0.475922 -0.33185,-0.118816 -0.68583,-0.192826 -1.04528,-0.228038 -0.35945,-0.03521 -0.72786,-0.02749 -1.09695,0.02139 -0.36909,0.04888 -0.74167,0.142508 -1.10311,0.274452 -0.36144,0.131944 -0.71418,0.30938 -1.05202,0.516251 -0.33784,0.206871 -0.66238,0.452346 -0.96462,0.722218 -0.30224,0.269872 -0.58469,0.574335 -0.8409,0.892355 -0.25621,0.31802 -0.48704,0.661127 -0.69183,1.009932 -0.20479,0.348805 -0.3836,0.71346 -0.5352,1.077055 -0.1516,0.363595 -0.27461,0.736767 -0.37494,1.098682 -0.10033,0.361915 -0.17511,0.722893 -0.22985,1.068034 -0.0547,0.345141 -0.087,0.68258 -0.10284,0.998961 -0.0159,0.316381 -0.0107,0.618237 0.002,0.896436 0.0127,0.2782 0.0352,0.53626 0.0686,0.77144 0.0334,0.23518 0.0807,0.44855 0.12498,0.63862 0.0443,0.19007 0.0901,0.35663 0.1359,0.50214 0.0458,0.14551 0.0907,0.26576 0.13401,0.3717 0.0433,0.10594 0.0862,0.19192 0.12141,0.26503 0.0352,0.0731 0.0619,0.12884 0.0882,0.17434 0.0263,0.0455 0.0474,0.0757 0.0659,0.10036 0.0185,0.0246 0.0324,0.0374 0.0419,0.0491 0.01,0.0117 0.0122,0.0167 0.016,0.0206 0.004,0.004 0.005,0.002 0.005,0.004 2.4e-4,0.002 -0.002,0.005 -0.004,0.005 -0.002,2.4e-4 -3.8e-4,-10e-4 -0.005,-0.004 -0.005,-0.003 -0.0102,-0.004 -0.0238,-0.0107 -0.0136,-0.007 -0.0293,-0.0171 -0.0575,-0.0293 -0.0282,-0.0122 -0.0626,-0.0257 -0.11295,-0.0407 -0.0504,-0.015 -0.11078,-0.028 -0.19008,-0.0452 -0.0793,-0.0172 -0.17292,-0.0389 -0.28603,-0.0563 -0.11311,-0.0174 -0.2405,-0.0331 -0.39268,-0.0438 -0.15218,-0.0107 -0.32484,-0.0164 -0.51999,-0.0152 -0.19515,0.001 -0.41368,0.005 -0.65016,0.0272 -0.23648,0.0223 -0.4927,0.0605 -0.7662,0.113 -0.2735,0.0525 -0.5683,0.11754 -0.87229,0.20665 -0.30399,0.0891 -0.62464,0.19906 -0.94754,0.33268 -0.3229,0.13362 -0.65653,0.29043 -0.98512,0.4723 -0.32859,0.18187 -0.66284,0.38841 -0.98113,0.62053 -0.31829,0.23212 -0.63127,0.49095 -0.92278,0.77135 -0.29151,0.2804 -0.57141,0.5848 -0.82101,0.90803 -0.2496,0.32323 -0.47991,0.66882 -0.67196,1.02561 -0.19205,0.35679 -0.35518,0.72957 -0.47767,1.10631 -0.12249,0.37674 -0.21288,0.76111 -0.25702,1.14334 -0.0441,0.38223 -0.0484,0.76636 -0.01,1.13669 0.0384,0.37033 0.11673,0.7304 0.2347,1.07176 0.11797,0.34136 0.27239,0.66837 0.46523,0.96342 0.19284,0.29505 0.42026,0.56092 0.67954,0.79393 0.25928,0.23301 0.55117,0.43256 0.86296,0.59202 0.31179,0.15946 0.6455,0.27759 0.9928,0.3559 0.3473,0.0783 0.70943,0.11499 1.07609,0.10725 0.36666,-0.008 0.74036,-0.066 1.10786,-0.15786 0.3675,-0.0919 0.73221,-0.22386 1.0845,-0.39391 0.35229,-0.17005 0.69497,-0.38494 1.01668,-0.62473 0.32171,-0.23979 0.62526,-0.51389 0.90472,-0.80977 0.27946,-0.29588 0.53474,-0.62478 0.76531,-0.96004 0.23057,-0.33526 0.43742,-0.68823 0.61547,-1.04597 0.17805,-0.35774 0.32634,-0.72936 0.45206,-1.09428 0.12572,-0.36492 0.22773,-0.73492 0.30384,-1.09028 0.0761,-0.35536 0.12321,-0.70491 0.15693,-1.03689 0.0337,-0.33198 0.0492,-0.65344 0.0498,-0.95215 6.1e-4,-0.29871 -0.0166,-0.58055 -0.0404,-0.83786 -0.0238,-0.25731 -0.058,-0.49242 -0.0968,-0.70503 -0.0388,-0.21261 -0.0841,-0.40309 -0.13043,-0.57038 -0.0463,-0.16729 -0.0959,-0.30868 -0.14136,-0.43391 -0.0455,-0.12523 -0.088,-0.23006 -0.12771,-0.31836 -0.0397,-0.0883 -0.0749,-0.15501 -0.10623,-0.21276 -0.0313,-0.0577 -0.0573,-0.10079 -0.079,-0.13486 -0.0217,-0.0341 -0.0362,-0.0528 -0.0489,-0.0708 -0.0127,-0.018 -0.0194,-0.0296 -0.0269,-0.0374 -0.007,-0.008 -0.0144,-0.008 -0.0149,-0.0118 -4.8e-4,-0.004 0.004,-0.005 0.004,-0.005" />
      <circle
         style="fill:none;stroke:#000000;stroke-width:0.1337966;stroke-miterlimit:4;stroke-dasharray:0.40138981, 0.40138981;stroke-dashoffset:0;stroke-opacity:1"
         id="path3833"
         cx="215.68066"
         cy="102.74114"
         r="16.437868" />
      <g
         transform="matrix(0.1337966,0,0,0.1337966,137.82962,39.869296)"
         id="g4699">
        <path
           inkscape:connector-curvature="0"
           id="path4701"
           d="m 582.3348,470.02738 64.47279,-83.19069"
           style="fill:none;stroke:#000000;stroke-width:2;stroke-linecap:butt;stroke-linejoin:miter;stroke-miterlimit:4;stroke-dasharray:none;stroke-opacity:1;marker-end:url(#Arrow2Mend)" />
        <circle
           id="path4703"
           style="fill:#000000;fill-opacity:1;fill-rule:evenodd;stroke:none"
           cx="582.37714"
           cy="469.64862"
           r="3.0279572" />
      </g>
      <path
         sodipodi:open="true"
         d="m 200.75932,95.866719 a 16.437868,16.437868 0 0 1 18.43673,-9.156026"
         sodipodi:ry="16.437868"
         sodipodi:rx="16.437868"
         sodipodi:cy="102.76777"
         sodipodi:cx="215.67841"
         id="path4734"
         style="fill:none;stroke:#ffc6b1;stroke-width:0.30000001;stroke-miterlimit:4;stroke-dasharray:none;stroke-dashoffset:0;stroke-opacity:1"
         sodipodi:type="arc"
         sodipodi:start="3.5748466"
         sodipodi:end="4.9280534" />
      <path
         inkscape:connector-curvature="0"
         id="path5083"
         transform="scale(0.26458333)"
         d="m 823.54688,350.14258 c -0.215,0.18056 -0.44086,0.3461 -0.6504,0.5332 -1.14232,1.01999 -2.20938,2.17108 -3.17773,3.37305 -0.96835,1.20196 -1.84122,2.49809 -2.61523,3.8164 -0.77401,1.31832 -1.45047,2.6961 -2.02344,4.07032 -0.57298,1.37421 -1.03682,2.78447 -1.41602,4.15234 -0.3792,1.36787 -0.66225,2.73264 -0.86914,4.03711 -0.20674,1.30447 -0.3288,2.57962 -0.38867,3.77539 -0.0601,1.19577 -0.0402,2.33721 0.008,3.38867 0.048,1.05147 0.13158,2.02715 0.25782,2.91602 0.12623,0.88887 0.30529,1.69569 0.47265,2.41406 0.16743,0.71838 0.34057,1.34653 0.51367,1.89648 0.17311,0.54996 0.34412,1.00585 0.50782,1.40626 0.16365,0.4004 0.3259,0.72563 0.45898,1.00195 0.13304,0.27628 0.23263,0.48623 0.33203,0.6582 0.0994,0.17197 0.18008,0.2857 0.25,0.37891 0.0191,0.0254 0.0265,0.0312 0.043,0.0508 z m -9.92579,37.55859 1.54102,0.71289 0.0566,-0.26172 c -0.036,-0.0195 -0.0583,-0.0359 -0.11523,-0.0605 -0.10659,-0.0461 -0.23744,-0.0976 -0.42774,-0.1543 -0.19049,-0.0567 -0.41903,-0.10491 -0.71875,-0.16992 -0.0932,-0.0202 -0.23164,-0.0439 -0.33594,-0.0664 z"
         style="fill:#ffeac7;fill-opacity:0.23966944;stroke:#ff4400;stroke-width:0.50645667;stroke-miterlimit:4;stroke-dasharray:0.50645668, 0.50645668;stroke-dashoffset:0;stroke-opacity:1" />
      <path
         sodipodi:nodetypes="cccccsccscccccsccccccccc"
         inkscape:connector-curvature="0"
         style="fill:none;fill-opacity:0.23966944;stroke:#ff4400;stroke-width:0.75590551;stroke-miterlimit:4;stroke-dasharray:none;stroke-dashoffset:0;stroke-opacity:1"
         d="m 823.54688,350.14258 c -0.215,0.18056 -0.44086,0.3461 -0.6504,0.5332 -1.14232,1.01999 -2.20938,2.17108 -3.17773,3.37305 -0.96835,1.20196 -1.84122,2.49809 -2.61523,3.8164 -0.77401,1.31832 -1.45047,2.6961 -2.02344,4.07032 -0.57298,1.37421 -1.03682,2.78447 -1.41602,4.15234 -0.3792,1.36787 -0.66225,2.73264 -0.86914,4.03711 -0.20674,1.30447 -0.3288,2.57962 -0.38867,3.77539 -0.0601,1.19577 -0.0402,2.33721 0.008,3.38867 0.048,1.05147 0.13158,2.02715 0.25782,2.91602 0.12623,0.88887 0.30529,1.69569 0.47265,2.41406 0.16743,0.71838 0.34057,1.34653 0.51367,1.89648 0.17311,0.54996 0.34412,1.00585 0.50782,1.40626 0.16365,0.4004 0.3259,0.72563 0.45898,1.00195 0.13304,0.27628 0.23263,0.48623 0.33203,0.6582 0.0994,0.17197 0.18008,0.2857 0.25,0.37891 0.0191,0.0254 0.0265,0.0312 0.043,0.0508 m -1.62891,-0.31055 1.54102,0.71289 0.0566,-0.26172 c -0.036,-0.0195 -0.0583,-0.0359 -0.11523,-0.0605 -0.10659,-0.0461 -0.23744,-0.0976 -0.42774,-0.1543 -0.19049,-0.0567 -0.41903,-0.10491 -0.71875,-0.16992 -0.0932,-0.0202 -0.23164,-0.0439 -0.33594,-0.0664 z"
         transform="scale(0.26458333)"
         id="path5088" />
    </g>
    <text
       xml:space="preserve"
       style="font-style:italic;font-variant:normal;font-weight:normal;font-stretch:normal;font-size:3.17499995px;line-height:1;font-family:sans-serif;-inkscape-font-specification:'sans-serif Italic';text-align:center;letter-spacing:0px;word-spacing:0px;text-anchor:middle;fill:#000000;fill-opacity:1;stroke:none;stroke-width:0.26458332"
       x="50.145508"
       y="134.44804"
       id="text5136"><tspan
         sodipodi:role="line"
         id="tspan5134"
         x="50.145508"
         y="134.44804"
         style="font-style:italic;font-variant:normal;font-weight:normal;font-stretch:normal;font-size:3.17499995px;line-height:1;font-family:sans-serif;-inkscape-font-specification:'sans-serif Italic';text-align:center;text-anchor:middle;stroke-width:0.26458332">integrate</tspan><tspan
         sodipodi:role="line"
         x="50.145508"
         y="137.62305"
         style="font-style:italic;font-variant:normal;font-weight:normal;font-stretch:normal;font-size:3.17499995px;line-height:1;font-family:sans-serif;-inkscape-font-specification:'sans-serif Italic';text-align:center;text-anchor:middle;stroke-width:0.26458332"
         id="tspan5144">spherial function</tspan></text>
    <text
       id="text5140"
       y="134.44804"
       x="114.21799"
       style="font-style:italic;font-variant:normal;font-weight:normal;font-stretch:normal;font-size:3.17499995px;line-height:1;font-family:sans-serif;-inkscape-font-specification:'sans-serif Italic';text-align:center;letter-spacing:0px;word-spacing:0px;text-anchor:middle;fill:#000000;fill-opacity:1;stroke:none;stroke-width:0.26458332"
       xml:space="preserve"><tspan
         style="font-style:italic;font-variant:normal;font-weight:normal;font-stretch:normal;font-size:3.17499995px;line-height:1;font-family:sans-serif;-inkscape-font-specification:'sans-serif Italic';text-align:center;text-anchor:middle;stroke-width:0.26458332"
         y="134.44804"
         x="114.21799"
         id="tspan5138"
         sodipodi:role="line">integrate</tspan><tspan
         style="font-style:italic;font-variant:normal;font-weight:normal;font-stretch:normal;font-size:3.17499995px;line-height:1;font-family:sans-serif;-inkscape-font-specification:'sans-serif Italic';text-align:center;text-anchor:middle;stroke-width:0.26458332"
         y="137.62305"
         x="114.21799"
         sodipodi:role="line"
         id="tspan5142">spherial harmonics</tspan></text>
    <text
       xml:space="preserve"
       style="font-style:italic;font-variant:normal;font-weight:normal;font-stretch:normal;font-size:3.17499995px;line-height:1;font-family:sans-serif;-inkscape-font-specification:'sans-serif Italic';text-align:center;letter-spacing:0px;word-spacing:0px;text-anchor:middle;fill:#000000;fill-opacity:1;stroke:none;stroke-width:0.26458332"
       x="178.38107"
       y="134.44804"
       id="text5150"><tspan
         sodipodi:role="line"
         id="tspan5146"
         x="178.38107"
         y="134.44804"
         style="font-style:italic;font-variant:normal;font-weight:normal;font-stretch:normal;font-size:3.17499995px;line-height:1;font-family:sans-serif;-inkscape-font-specification:'sans-serif Italic';text-align:center;text-anchor:middle;stroke-width:0.26458332">integrate</tspan><tspan
         id="tspan5148"
         sodipodi:role="line"
         x="178.38107"
         y="137.62305"
         style="font-style:italic;font-variant:normal;font-weight:normal;font-stretch:normal;font-size:3.17499995px;line-height:1;font-family:sans-serif;-inkscape-font-specification:'sans-serif Italic';text-align:center;text-anchor:middle;stroke-width:0.26458332">zonal harmonics</tspan></text>
    <text
       id="text5156"
       y="134.44804"
       x="242.54396"
       xml:space="preserve"
       style="font-style:italic;font-variant:normal;font-weight:normal;font-stretch:normal;font-size:3.17499995px;line-height:1;font-family:sans-serif;-inkscape-font-specification:'sans-serif Italic';text-align:center;letter-spacing:0px;word-spacing:0px;text-anchor:middle;fill:#000000;fill-opacity:1;stroke:none;stroke-width:0.26458332"><tspan
         style="font-style:italic;font-variant:normal;font-weight:normal;font-stretch:normal;font-size:3.17499995px;line-height:1;font-family:sans-serif;-inkscape-font-specification:'sans-serif Italic';text-align:center;text-anchor:middle;stroke-width:0.26458332"
         y="134.44804"
         x="242.54396"
         id="tspan5152"
         sodipodi:role="line">integrate</tspan><tspan
         style="font-style:italic;font-variant:normal;font-weight:normal;font-stretch:normal;font-size:3.17499995px;line-height:1;font-family:sans-serif;-inkscape-font-specification:'sans-serif Italic';text-align:center;text-anchor:middle;stroke-width:0.26458332"
         y="137.62305"
         x="242.54396"
         sodipodi:role="line"
         id="tspan5154">power cosine</tspan></text>
  </g>
</svg>
