<?xml version="1.0" encoding="UTF-8" standalone="no"?>
<!-- Created with Inkscape (http://www.inkscape.org/) -->

<svg
   xmlns:dc="http://purl.org/dc/elements/1.1/"
   xmlns:cc="http://creativecommons.org/ns#"
   xmlns:rdf="http://www.w3.org/1999/02/22-rdf-syntax-ns#"
   xmlns:svg="http://www.w3.org/2000/svg"
   xmlns="http://www.w3.org/2000/svg"
   xmlns:sodipodi="http://sodipodi.sourceforge.net/DTD/sodipodi-0.dtd"
   xmlns:inkscape="http://www.inkscape.org/namespaces/inkscape"
   id="svg2"
   version="1.1"
   inkscape:version="0.91 r13725"
   xml:space="preserve"
   width="112.5"
   height="84.375"
   viewBox="0 0 112.5 84.375"
   sodipodi:docname="applications-01svg.svg"><metadata
     id="metadata8"><rdf:RDF><cc:Work
         rdf:about=""><dc:format>image/svg+xml</dc:format><dc:type
           rdf:resource="http://purl.org/dc/dcmitype/StillImage" /><dc:title></dc:title></cc:Work></rdf:RDF></metadata><defs
     id="defs6"><clipPath
       clipPathUnits="userSpaceOnUse"
       id="clipPath26"><path
         d="m 0,67.5 90,0 L 90,0 0,0 0,67.5 Z"
         id="path28"
         inkscape:connector-curvature="0" /></clipPath><clipPath
       clipPathUnits="userSpaceOnUse"
       id="clipPath34"><path
         d="m 26.9724,21.4332 33.1862,0 0,-16.28606 -33.1862,0 0,16.28606 z"
         id="path36"
         inkscape:connector-curvature="0" /></clipPath><clipPath
       clipPathUnits="userSpaceOnUse"
       id="clipPath118"><path
         d="M 31.528,5.167 78.75,12 78.75,48.5 31.528,5.167 Z"
         id="path120"
         inkscape:connector-curvature="0" /></clipPath><clipPath
       clipPathUnits="userSpaceOnUse"
       id="clipPath126"><path
         d="m 25.5617,22.8721 36.0633,0 0,-19.16605 -36.0633,0 0,19.16605 z"
         id="path128"
         inkscape:connector-curvature="0" /></clipPath><clipPath
       clipPathUnits="userSpaceOnUse"
       id="clipPath146"><path
         d="m 0,67.5 90,0 L 90,0 0,0 0,67.5 Z"
         id="path148"
         inkscape:connector-curvature="0" /></clipPath><clipPath
       clipPathUnits="userSpaceOnUse"
       id="clipPath162"><path
         d="m 81.36,30.03 5.938,0 0,5.405 -5.938,0 0,-5.405 z"
         id="path164"
         inkscape:connector-curvature="0" /></clipPath><clipPath
       clipPathUnits="userSpaceOnUse"
       id="clipPath178"><path
         d="m 30.797,10.068 5,0 0,6.603 -5,0 0,-6.603 z"
         id="path180"
         inkscape:connector-curvature="0" /></clipPath><clipPath
       clipPathUnits="userSpaceOnUse"
       id="clipPath194"><path
         d="m 23.014,5.107 2.994,0 0,2.973 -2.994,0 0,-2.973 z"
         id="path196"
         inkscape:connector-curvature="0" /></clipPath><clipPath
       clipPathUnits="userSpaceOnUse"
       id="clipPath206"><path
         d="m 0,67.5 90,0 L 90,0 0,0 0,67.5 Z"
         id="path208"
         inkscape:connector-curvature="0" /></clipPath><clipPath
       clipPathUnits="userSpaceOnUse"
       id="clipPath226"><path
         d="m 2.462,33.617 3,0 0,3.001 -3,0 0,-3.001 z"
         id="path228"
         inkscape:connector-curvature="0" /></clipPath><clipPath
       clipPathUnits="userSpaceOnUse"
       id="clipPath238"><path
         d="m 67.348,22.492 5.999,0 0,6 -5.999,0 0,-6 z"
         id="path240"
         inkscape:connector-curvature="0" /></clipPath><clipPath
       clipPathUnits="userSpaceOnUse"
       id="clipPath254"><path
         d="m 15.919,41 45,0 0,14.999 -45,0 0,-14.999 z"
         id="path256"
         inkscape:connector-curvature="0" /></clipPath><clipPath
       clipPathUnits="userSpaceOnUse"
       id="clipPath334"><path
         d="m 0,67.5 90,0 L 90,0 0,0 0,67.5 Z"
         id="path336"
         inkscape:connector-curvature="0" /></clipPath></defs><sodipodi:namedview
     pagecolor="#ffffff"
     bordercolor="#666666"
     borderopacity="1"
     objecttolerance="10"
     gridtolerance="10"
     guidetolerance="10"
     inkscape:pageopacity="0"
     inkscape:pageshadow="2"
     inkscape:window-width="1263"
     inkscape:window-height="638"
     id="namedview4"
     showgrid="false"
     inkscape:zoom="2.797037"
     inkscape:cx="56.25"
     inkscape:cy="42.1875"
     inkscape:window-x="0"
     inkscape:window-y="0"
     inkscape:window-maximized="0"
     inkscape:current-layer="g10" /><g
     id="g10"
     inkscape:groupmode="layer"
     inkscape:label="applications-diagram-2"
     transform="matrix(1.25,0,0,-1.25,0,84.375)"><g
       id="g12"
       transform="translate(76.5,13.5)"><path
         d="M 0,0 0,31.5 2.25,35 2.25,-1.5 0,0 Z"
         style="fill:#fcea0f;fill-opacity:1;fill-rule:nonzero;stroke:none"
         id="path14"
         inkscape:connector-curvature="0" /></g><g
       id="g16"
       transform="translate(76.5,13.5)"><path
         d="M 0,0 0,31.5 2.25,35 2.25,-1.5 0,0 Z"
         style="fill:none;stroke:#f39200;stroke-width:0.75;stroke-linecap:round;stroke-linejoin:round;stroke-miterlimit:10;stroke-dasharray:none;stroke-opacity:1"
         id="path18"
         inkscape:connector-curvature="0" /></g><path
       d="M 27,4.5 76.5,4.5 76.5,2 27,2 27,4.5 Z"
       style="fill:#ca9e67;fill-opacity:1;fill-rule:nonzero;stroke:#1d1d1b;stroke-width:0.75;stroke-linecap:butt;stroke-linejoin:miter;stroke-miterlimit:10;stroke-dasharray:none;stroke-opacity:1"
       id="path20"
       inkscape:connector-curvature="0" /><g
       id="g22"><g
         id="g24"
         clip-path="url(#clipPath26)"><g
           id="g30"><g
             id="g32" /><g
             id="g38"><g
               clip-path="url(#clipPath34)"
               id="g40"
               style="opacity:0.25"><g
                 transform="translate(31.5,5.168)"
                 id="g42"><path
                   d="m 0,0 c 0,0 -3.658,1.916 -4.455,7.395 -0.795,5.48 5.109,4.584 9.75,5.75 4.643,1.168 27.359,6.396 22.75,0 C 23.437,6.75 19.922,2.561 14.545,1.145 9.17,-0.271 0,0 0,0"
                   style="fill:#006633;fill-opacity:1;fill-rule:nonzero;stroke:none"
                   id="path44"
                   inkscape:connector-curvature="0" /></g></g></g></g><g
           id="g46"
           transform="translate(31.5,5.168)"><path
             d="m 0,0 c 0,0 -3.658,1.916 -4.455,7.395 -0.795,5.48 5.109,4.584 9.75,5.75 4.643,1.168 27.359,6.396 22.75,0 C 23.437,6.75 19.922,2.561 14.545,1.145 9.17,-0.271 0,0 0,0 Z"
             style="fill:none;stroke:#006633;stroke-width:0.75;stroke-linecap:round;stroke-linejoin:round;stroke-miterlimit:10;stroke-dasharray:none;stroke-opacity:1"
             id="path48"
             inkscape:connector-curvature="0" /></g><g
           id="g50"
           transform="translate(21.6436,15.4053)"><path
             d="M 0,0 8.128,-8.812"
             style="fill:none;stroke:#1d71b8;stroke-width:0.5;stroke-linecap:butt;stroke-linejoin:miter;stroke-miterlimit:10;stroke-dasharray:none;stroke-opacity:1"
             id="path52"
             inkscape:connector-curvature="0" /></g><g
           id="g54"
           transform="translate(19.25,18)"><path
             d="M 0,0 1.879,-5.035 2.573,-2.789 4.867,-2.278 0,0 Z"
             style="fill:#1d71b8;fill-opacity:1;fill-rule:nonzero;stroke:none"
             id="path56"
             inkscape:connector-curvature="0" /></g><g
           id="g58"
           transform="translate(31.5,5.168)"><path
             d="M 0,0 1.105,1.014"
             style="fill:none;stroke:#be1622;stroke-width:0.5;stroke-linecap:round;stroke-linejoin:miter;stroke-miterlimit:10;stroke-dasharray:none;stroke-opacity:1"
             id="path60"
             inkscape:connector-curvature="0" /></g><g
           id="g62"
           transform="translate(34.75,8.1484)"><path
             d="M 0,0 41.822,38.354"
             style="fill:none;stroke:#be1622;stroke-width:0.5;stroke-linecap:round;stroke-linejoin:miter;stroke-miterlimit:10;stroke-dasharray:2.91, 2.91;stroke-dashoffset:0;stroke-opacity:1"
             id="path64"
             inkscape:connector-curvature="0" /></g><g
           id="g66"
           transform="translate(77.6445,47.4863)"><path
             d="M 0,0 1.105,1.014"
             style="fill:none;stroke:#be1622;stroke-width:0.5;stroke-linecap:round;stroke-linejoin:miter;stroke-miterlimit:10;stroke-dasharray:none;stroke-opacity:1"
             id="path68"
             inkscape:connector-curvature="0" /></g><g
           id="g70"
           transform="translate(31.5,5.168)"><path
             d="M 0,0 1.484,0.215"
             style="fill:none;stroke:#be1622;stroke-width:0.5;stroke-linecap:round;stroke-linejoin:miter;stroke-miterlimit:10;stroke-dasharray:none;stroke-opacity:1"
             id="path72"
             inkscape:connector-curvature="0" /></g><g
           id="g74"
           transform="translate(35.9365,5.8096)"><path
             d="M 0,0 39.853,5.763"
             style="fill:none;stroke:#be1622;stroke-width:0.5;stroke-linecap:round;stroke-linejoin:miter;stroke-miterlimit:10;stroke-dasharray:2.983, 2.983;stroke-dashoffset:0;stroke-opacity:1"
             id="path76"
             inkscape:connector-curvature="0" /></g><g
           id="g78"
           transform="translate(77.2656,11.7852)"><path
             d="M 0,0 1.484,0.215"
             style="fill:none;stroke:#be1622;stroke-width:0.5;stroke-linecap:round;stroke-linejoin:miter;stroke-miterlimit:10;stroke-dasharray:none;stroke-opacity:1"
             id="path80"
             inkscape:connector-curvature="0" /></g><g
           id="g82"
           transform="matrix(0.98311472,-0.18299031,0.18299031,0.98311472,9.5142174,27.834925)"><path
             d="M 0,0 C 0.342,1.275 1.136,2.173 1.774,2.002 2.414,1.83 2.655,0.655 2.313,-0.62 1.97,-1.898 1.174,-2.794 0.535,-2.622 -0.103,-2.451 -0.343,-1.279 0,0"
             style="fill:#a7d0f0;fill-opacity:1;fill-rule:nonzero;stroke:none"
             id="path84"
             inkscape:connector-curvature="0" /></g><g
           id="g86"
           transform="matrix(0.98311472,-0.18299031,0.18299031,0.98311472,9.5142174,27.834925)"><path
             d="M 0,0 C 0.342,1.275 1.136,2.173 1.774,2.002 2.414,1.83 2.655,0.655 2.313,-0.62 1.97,-1.898 1.174,-2.794 0.535,-2.622 -0.103,-2.451 -0.343,-1.279 0,0 Z"
             style="fill:none;stroke:#1d1d1b;stroke-width:0.125;stroke-linecap:butt;stroke-linejoin:miter;stroke-miterlimit:10;stroke-dasharray:none;stroke-opacity:1"
             id="path88"
             inkscape:connector-curvature="0" /></g><g
           id="g90"
           transform="matrix(0.98311472,-0.18299031,0.18299031,0.98311472,10.442006,27.389121)"><path
             d="M 0,0 C 0.218,0.815 0.728,1.389 1.135,1.279 1.543,1.17 1.698,0.419 1.479,-0.396 1.26,-1.213 0.751,-1.784 0.344,-1.675 -0.063,-1.565 -0.219,-0.816 0,0"
             style="fill:#1d1d1b;fill-opacity:1;fill-rule:nonzero;stroke:none"
             id="path92"
             inkscape:connector-curvature="0" /></g><g
           id="g94"
           transform="matrix(0.98311472,-0.18299031,0.18299031,0.98311472,10.442006,27.389121)"><path
             d="M 0,0 C 0.218,0.815 0.728,1.389 1.135,1.279 1.543,1.17 1.698,0.419 1.479,-0.396 1.26,-1.213 0.751,-1.784 0.344,-1.675 -0.063,-1.565 -0.219,-0.816 0,0 Z"
             style="fill:none;stroke:#ffffff;stroke-width:0.125;stroke-linecap:butt;stroke-linejoin:miter;stroke-miterlimit:10;stroke-dasharray:none;stroke-opacity:1"
             id="path96"
             inkscape:connector-curvature="0" /></g><g
           id="g98"
           transform="matrix(0.98311472,-0.18299031,0.18299031,0.98311472,1.8383825,31.501642)"><path
             d="M 0,0 C 1.372,-0.368 12.418,2.542 12.786,3.909"
             style="fill:none;stroke:#1d1d1b;stroke-width:1;stroke-linecap:round;stroke-linejoin:miter;stroke-miterlimit:4;stroke-dasharray:none;stroke-opacity:1"
             id="path100"
             inkscape:connector-curvature="0" /></g><g
           id="g102"
           transform="matrix(0.98311472,-0.18299031,0.18299031,0.98311472,1.8383825,31.501642)"><path
             d="M 0,0 C 1.372,-0.368 9.483,-8.409 9.118,-9.779"
             style="fill:none;stroke:#1d1d1b;stroke-width:1;stroke-linecap:round;stroke-linejoin:miter;stroke-miterlimit:4;stroke-dasharray:none;stroke-opacity:1"
             id="path104"
             inkscape:connector-curvature="0" /></g><g
           id="g106"
           transform="matrix(0.98311472,-0.18299031,0.18299031,0.98311472,11.347009,31.669795)"><path
             d="M 0,0 C 0,0 2.369,-2.104 1.635,-4.841 0.901,-7.578 -2.201,-8.215 -2.201,-8.215"
             style="fill:none;stroke:#1d1d1b;stroke-width:1;stroke-linecap:round;stroke-linejoin:miter;stroke-miterlimit:4;stroke-dasharray:none;stroke-opacity:1"
             id="path108"
             inkscape:connector-curvature="0" /></g><g
           id="g110"
           transform="translate(68.1646,10.502)"><path
             d="M 0,0 C -0.171,7.523 -2.711,15.053 -7.764,21.391"
             style="fill:none;stroke:#be1622;stroke-width:0.75;stroke-linecap:butt;stroke-linejoin:round;stroke-miterlimit:10;stroke-dasharray:none;stroke-opacity:1"
             id="path112"
             inkscape:connector-curvature="0" /></g></g></g><g
       id="g114"><g
         id="g116"
         clip-path="url(#clipPath118)"><g
           id="g122"><g
             id="g124" /><g
             id="g130"><g
               clip-path="url(#clipPath126)"
               id="g132"
               style="opacity:0.25"><g
                 transform="translate(33.356,3.7061)"
                 id="g134"><path
                   d="m 0,0 c -1.154,0 -1.871,0.021 -1.871,0.021 l -0.331,0.01 -0.294,0.155 c -0.176,0.091 -4.32,2.327 -5.212,8.463 -0.246,1.693 0.035,3.089 0.834,4.152 1.431,1.903 4.146,2.279 6.771,2.642 1.084,0.15 2.207,0.305 3.218,0.56 1.289,0.324 12.778,3.163 19.436,3.163 2.074,0 4.567,-0.22 5.446,-1.937 0.357,-0.697 0.541,-1.865 -0.612,-3.464 C 22.96,7.622 19.097,2.798 13.084,1.214 9.075,0.158 3.166,0 0,0"
                   style="fill:#be1622;fill-opacity:1;fill-rule:nonzero;stroke:none"
                   id="path136"
                   inkscape:connector-curvature="0" /></g></g></g></g><g
           id="g138"
           transform="translate(33.356,3.7061)"><path
             d="m 0,0 c -1.154,0 -1.871,0.021 -1.871,0.021 l -0.331,0.01 -0.294,0.155 c -0.176,0.091 -4.32,2.327 -5.212,8.463 -0.246,1.693 0.035,3.089 0.834,4.152 1.431,1.903 4.146,2.279 6.771,2.642 1.084,0.15 2.207,0.305 3.218,0.56 1.289,0.324 12.778,3.163 19.436,3.163 2.074,0 4.567,-0.22 5.446,-1.937 0.357,-0.697 0.541,-1.865 -0.612,-3.464 C 22.96,7.622 19.097,2.798 13.084,1.214 9.075,0.158 3.166,0 0,0 Z"
             style="fill:none;stroke:#be1622;stroke-width:0.5;stroke-linecap:round;stroke-linejoin:round;stroke-miterlimit:10;stroke-dasharray:none;stroke-opacity:1"
             id="path140"
             inkscape:connector-curvature="0" /></g></g></g><g
       id="g142"><g
         id="g144"
         clip-path="url(#clipPath146)"><g
           id="g150"
           transform="translate(31.5,3.418)"><path
             d="M 0,0 C -0.965,0 -1.75,0.786 -1.75,1.752 -1.75,2.716 -0.965,3.5 0,3.5 0.965,3.5 1.75,2.716 1.75,1.752 1.75,0.786 0.965,0 0,0"
             style="fill:#ffffff;fill-opacity:1;fill-rule:nonzero;stroke:none"
             id="path152"
             inkscape:connector-curvature="0" /></g><g
           id="g154"
           transform="translate(31.5,7.418)"><path
             d="m 0,0 c -1.242,0 -2.25,-1.008 -2.25,-2.248 0,-1.246 1.008,-2.252 2.25,-2.252 1.242,0 2.25,1.006 2.25,2.252 C 2.25,-1.008 1.242,0 0,0 M 0,-1 C 0.689,-1 1.25,-1.56 1.25,-2.248 1.25,-2.938 0.689,-3.5 0,-3.5 c -0.689,0 -1.25,0.562 -1.25,1.252 C -1.25,-1.56 -0.689,-1 0,-1"
             style="fill:#008d36;fill-opacity:1;fill-rule:nonzero;stroke:none"
             id="path156"
             inkscape:connector-curvature="0" /></g></g></g></g></svg>