<?xml version="1.0" encoding="UTF-8" standalone="no"?>
<!-- Created with Inkscape (http://www.inkscape.org/) -->

<svg
   xmlns:dc="http://purl.org/dc/elements/1.1/"
   xmlns:cc="http://creativecommons.org/ns#"
   xmlns:rdf="http://www.w3.org/1999/02/22-rdf-syntax-ns#"
   xmlns:svg="http://www.w3.org/2000/svg"
   xmlns="http://www.w3.org/2000/svg"
   xmlns:sodipodi="http://sodipodi.sourceforge.net/DTD/sodipodi-0.dtd"
   xmlns:inkscape="http://www.inkscape.org/namespaces/inkscape"
   id="svg2"
   version="1.1"
   inkscape:version="0.91 r13725"
   xml:space="preserve"
   width="135"
   height="84.375"
   viewBox="0 0 135 84.375"
   sodipodi:docname="applications-02.svg"><metadata
     id="metadata8"><rdf:RDF><cc:Work
         rdf:about=""><dc:format>image/svg+xml</dc:format><dc:type
           rdf:resource="http://purl.org/dc/dcmitype/StillImage" /><dc:title></dc:title></cc:Work></rdf:RDF></metadata><defs
     id="defs6"><clipPath
       clipPathUnits="userSpaceOnUse"
       id="clipPath16"><path
         d="M 41.027,5.167 108,14.849 108,34.717 101.875,60.875 41.027,5.167 Z"
         id="path18"
         inkscape:connector-curvature="0" /></clipPath><clipPath
       clipPathUnits="userSpaceOnUse"
       id="clipPath32"><path
         d="M 41.027,5.167 88.25,12 88.25,48.5 41.027,5.167 Z"
         id="path34"
         inkscape:connector-curvature="0" /></clipPath><clipPath
       clipPathUnits="userSpaceOnUse"
       id="clipPath40"><path
         d="m 35.0614,22.8721 36.0634,0 0,-19.16605 -36.0634,0 0,19.16605 z"
         id="path42"
         inkscape:connector-curvature="0" /></clipPath><clipPath
       clipPathUnits="userSpaceOnUse"
       id="clipPath62"><path
         d="m 0,67.5 108,0 L 108,0 0,0 0,67.5 Z"
         id="path64"
         inkscape:connector-curvature="0" /></clipPath><clipPath
       clipPathUnits="userSpaceOnUse"
       id="clipPath70"><path
         d="m 36.4724,21.4332 33.1862,0 0,-16.28606 -33.1862,0 0,16.28606 z"
         id="path72"
         inkscape:connector-curvature="0" /></clipPath><clipPath
       clipPathUnits="userSpaceOnUse"
       id="clipPath134"><path
         d="m 0.182892,79.5198 105.131108,0 0,-106.9616 -105.131108,0 0,106.9616 z"
         id="path136"
         inkscape:connector-curvature="0" /></clipPath><clipPath
       clipPathUnits="userSpaceOnUse"
       id="clipPath182"><path
         d="m 39.797,10.068 5,0 0,6.603 -5,0 0,-6.603 z"
         id="path184"
         inkscape:connector-curvature="0" /></clipPath><clipPath
       clipPathUnits="userSpaceOnUse"
       id="clipPath198"><path
         d="m 32.014,5.107 2.994,0 0,2.973 -2.994,0 0,-2.973 z"
         id="path200"
         inkscape:connector-curvature="0" /></clipPath><clipPath
       clipPathUnits="userSpaceOnUse"
       id="clipPath210"><path
         d="m 0,67.5 108,0 L 108,0 0,0 0,67.5 Z"
         id="path212"
         inkscape:connector-curvature="0" /></clipPath><clipPath
       clipPathUnits="userSpaceOnUse"
       id="clipPath230"><path
         d="m 11.462,33.617 3,0 0,3.001 -3,0 0,-3.001 z"
         id="path232"
         inkscape:connector-curvature="0" /></clipPath><clipPath
       clipPathUnits="userSpaceOnUse"
       id="clipPath242"><path
         d="m 76.348,22.492 5.999,0 0,6 -5.999,0 0,-6 z"
         id="path244"
         inkscape:connector-curvature="0" /></clipPath><clipPath
       clipPathUnits="userSpaceOnUse"
       id="clipPath258"><path
         d="m 0,67.5 108,0 L 108,0 0,0 0,67.5 Z"
         id="path260"
         inkscape:connector-curvature="0" /></clipPath><clipPath
       clipPathUnits="userSpaceOnUse"
       id="clipPath274"><path
         d="m 19.798,41.004 58.752,0 0,14.992 -58.752,0 0,-14.992 z"
         id="path276"
         inkscape:connector-curvature="0" /></clipPath><clipPath
       clipPathUnits="userSpaceOnUse"
       id="clipPath378"><path
         d="m 0,67.5 108,0 L 108,0 0,0 0,67.5 Z"
         id="path380"
         inkscape:connector-curvature="0" /></clipPath></defs><sodipodi:namedview
     pagecolor="#ffffff"
     bordercolor="#666666"
     borderopacity="1"
     objecttolerance="10"
     gridtolerance="10"
     guidetolerance="10"
     inkscape:pageopacity="0"
     inkscape:pageshadow="2"
     inkscape:window-width="1280"
     inkscape:window-height="707"
     id="namedview4"
     showgrid="false"
     inkscape:zoom="2.797037"
     inkscape:cx="67.5"
     inkscape:cy="42.1875"
     inkscape:window-x="0"
     inkscape:window-y="1"
     inkscape:window-maximized="1"
     inkscape:current-layer="g10" /><g
     id="g10"
     inkscape:groupmode="layer"
     inkscape:label="applications-diagram-2"
     transform="matrix(1.25,0,0,-1.25,0,84.375)"><g
       id="g12"><g
         id="g14"
         clip-path="url(#clipPath16)"><g
           id="g20"
           transform="translate(53.9902,-22.5)"><path
             d="M 0,0 C -27.34,0 -49.49,22.16 -49.49,49.5 -49.49,76.84 -27.34,99 0,99 27.34,99 49.51,76.84 49.51,49.5 49.51,22.16 27.34,0 0,0 m 51.14,38.16 c 0.42,1.69 2.719,2.6 2.69,4.34 -0.03,1.64 -2.181,2.74 -2.011,4.37 0.151,1.38 1.971,2.41 1.561,3.74 -0.32,1 -1.68,1.24 -2.26,2.12 -0.99,1.53 1.01,3.43 0.8,5.25 -0.09,0.7 -0.5,1.31 -0.86,1.93 -1.68,2.89 -2.21,6.43 -1.451,9.69 0.25,1.08 0.571,2.41 -0.259,3.16 -0.621,0.57 -1.58,0.46 -2.42,0.59 -4.63,0.74 -4.47,8.08 -8.361,10.72 -1.069,0.72 -2.389,1.03 -3.399,1.83 -2.391,1.88 -2.63,6.04 -5.51,7.04 -1.46,0.5 -3.16,-0.05 -4.56,0.59 -2.17,0.99 -2.661,4.33 -4.97,4.93 -1.83,0.48 -3.62,-1.13 -5.51,-1.03 -2.28,0.13 -3.74,2.64 -5.94,3.28 -1.85,0.53 -3.79,-0.36 -5.71,-0.52 -3.83,-0.33 -7.491,2.25 -11.3,1.77 -3.65,-0.46 -7.22,-3.63 -10.54,-2.07 -0.72,0.34 -1.41,0.9 -2.2,0.81 -1.19,-0.14 -1.66,-1.56 -2.21,-2.63 -1.56,-3.05 -8.04,-6.21 -8.04,-6.21 0,0 -4.09,-3.83 -5.17,-6.39 -0.43,-0.99 -0.98,-2.22 -2.06,-2.25 -0.54,-0.01 -1.02,0.3 -1.55,0.37 -1.921,0.28 -2.82,-2.28 -2.93,-4.21 -0.11,-1.94 -0.79,-4.5 -2.72,-4.46 -0.56,0.01 -1.15,0.27 -1.66,0.05 -0.56,-0.25 -0.73,-0.96 -0.84,-1.56 -0.65,-3.81 -1.31,-7.62 -1.97,-11.43 -0.38,-2.23 -0.79,-4.53 -1.99,-6.44 -0.6,-0.95 -1.41,-1.86 -1.45,-2.98 -0.08,-2.39 3.35,-4.46 2.13,-6.52 -0.59,-1.01 -2.15,-1.4 -2.27,-2.57 -0.07,-0.66 0.39,-1.24 0.8,-1.77 2.82,-3.64 4.39,-8.23 4.4,-12.84 2.51,-0.92 4.91,-3.5 4.97,-6.17 -0.94,-2.54 0.44,-5.39 2.32,-7.35 2.289,-2.39 5.59,-4.49 5.7,-7.8 4.14,1.52 9.19,0.12 11.95,-3.34 0.49,-0.61 0.91,-1.28 1.52,-1.78 0.52,-0.42 1.13,-0.68 1.74,-0.94 5.02,-0.63 8.91,-3.6 11.75,-3.22 3.05,0.41 9.36,-0.71 14.06,-0.55 2.279,0.08 4.39,-2.86 5.619,-2.64 1.241,0.22 1.921,4.05 4.16,4.88 3.931,1.46 11.801,4.38 11.801,4.38 0,0 2.05,0.78 2.73,1.61 1.059,1.3 1.02,3.43 2.45,4.31 2.09,1.27 4.16,0.32 6.46,1.13 2.09,0.72 1.01,1.47 1.5,3.62 1.519,6.55 4.47,12.89 9.2,17.11 0.81,0.72 1.72,1.47 1.94,2.53 0.24,1.16 -0.42,2.37 -0.13,3.52"
             style="fill:#ffd166;fill-opacity:1;fill-rule:nonzero;stroke:none"
             id="path22"
             inkscape:connector-curvature="0" /></g><g
           id="g24"
           transform="translate(46.6348,79.5195)"><path
             d="m 0,0 c -0.324,0 -0.648,-0.019 -0.975,-0.06 -2.939,-0.37 -5.826,-2.498 -8.573,-2.498 -0.664,0 -1.32,0.124 -1.967,0.429 -0.667,0.315 -1.309,0.819 -2.029,0.819 -0.056,0 -0.113,-0.003 -0.171,-0.009 -1.19,-0.14 -1.66,-1.56 -2.21,-2.631 -1.56,-3.05 -8.04,-6.21 -8.04,-6.21 0,0 -4.09,-3.829 -5.17,-6.389 -0.43,-0.991 -0.98,-2.221 -2.06,-2.251 l -0.025,0 c -0.53,0 -1.003,0.301 -1.525,0.37 -0.097,0.015 -0.193,0.022 -0.285,0.022 -1.724,0 -2.54,-2.4 -2.645,-4.232 -0.109,-1.924 -0.78,-4.46 -2.675,-4.46 l -0.045,0 c -0.394,0.007 -0.804,0.139 -1.189,0.139 -0.162,0 -0.32,-0.023 -0.471,-0.089 -0.56,-0.25 -0.73,-0.96 -0.84,-1.559 -0.65,-3.811 -1.31,-7.62 -1.97,-11.43 -0.38,-2.231 -0.79,-4.53 -1.989,-6.44 -0.601,-0.951 -1.411,-1.861 -1.451,-2.981 -0.08,-2.39 3.35,-4.46 2.13,-6.519 -0.59,-1.01 -2.15,-1.401 -2.27,-2.571 -0.07,-0.66 0.39,-1.239 0.8,-1.769 2.82,-3.641 4.39,-8.231 4.4,-12.84 2.51,-0.92 4.91,-3.5 4.97,-6.17 -0.94,-2.54 0.44,-5.391 2.32,-7.351 2.29,-2.389 5.59,-4.49 5.7,-7.799 1.122,0.412 2.312,0.609 3.504,0.609 3.206,0 6.435,-1.427 8.446,-3.949 0.49,-0.611 0.91,-1.281 1.52,-1.781 0.52,-0.42 1.13,-0.679 1.74,-0.939 4.72,-0.593 8.441,-3.254 11.23,-3.254 0.177,0 0.351,0.011 0.52,0.033 0.478,0.065 1.035,0.091 1.653,0.091 3.066,0 7.636,-0.656 11.435,-0.656 0.331,0 0.654,0.005 0.973,0.015 0.03,0.001 0.06,0.002 0.091,0.002 2.163,0 4.164,-2.653 5.392,-2.653 0.047,0 0.092,0.004 0.136,0.012 1.24,0.22 1.921,4.05 4.16,4.88 3.931,1.46 11.801,4.38 11.801,4.38 0,0 2.05,0.78 2.729,1.61 1.06,1.3 1.021,3.43 2.45,4.309 2.09,1.27 4.161,0.321 6.46,1.13 2.09,0.72 1.01,1.47 1.5,3.62 1.52,6.55 4.47,12.89 9.201,17.111 0.809,0.72 1.719,1.47 1.939,2.529 0.24,1.16 -0.42,2.37 -0.13,3.521 0.42,1.689 2.72,2.599 2.691,4.339 -0.031,1.64 -2.181,2.741 -2.011,4.371 0.15,1.379 1.971,2.41 1.56,3.74 -0.32,1 -1.679,1.239 -2.259,2.12 -0.991,1.529 1.009,3.43 0.799,5.25 -0.089,0.699 -0.5,1.31 -0.86,1.93 -1.68,2.889 -2.21,6.429 -1.45,9.689 0.25,1.08 0.57,2.41 -0.26,3.16 -0.62,0.571 -1.58,0.46 -2.42,0.59 -4.63,0.74 -4.47,8.08 -8.36,10.72 -1.07,0.721 -2.39,1.031 -3.4,1.83 -2.39,1.881 -2.629,6.04 -5.509,7.04 -1.46,0.5 -3.161,-0.049 -4.561,0.591 -2.17,0.989 -2.66,4.329 -4.97,4.929 -0.238,0.063 -0.476,0.09 -0.714,0.09 -1.529,0 -3.042,-1.124 -4.625,-1.124 -0.056,0 -0.114,0.001 -0.17,0.005 -2.281,0.13 -3.741,2.639 -5.941,3.279 -0.416,0.12 -0.837,0.167 -1.261,0.167 -1.461,0 -2.961,-0.563 -4.449,-0.687 C 10.094,-1.85 9.862,-1.859 9.633,-1.859 6.378,-1.859 3.233,0 0,0 m 0,-1 c 1.472,0 2.953,-0.431 4.521,-0.887 1.642,-0.478 3.339,-0.972 5.112,-0.972 0.263,0 0.524,0.011 0.775,0.033 0.718,0.06 1.417,0.208 2.093,0.352 0.803,0.17 1.561,0.331 2.273,0.331 0.363,0 0.686,-0.042 0.982,-0.127 0.798,-0.231 1.532,-0.812 2.309,-1.427 1.068,-0.844 2.279,-1.801 3.857,-1.891 0.075,-0.004 0.15,-0.006 0.224,-0.006 0.975,0 1.85,0.32 2.696,0.63 0.693,0.254 1.348,0.494 1.929,0.494 0.165,0 0.315,-0.018 0.462,-0.057 0.85,-0.221 1.416,-1.083 2.073,-2.08 0.679,-1.035 1.45,-2.206 2.733,-2.792 0.94,-0.43 1.937,-0.434 2.815,-0.439 0.673,-0.003 1.308,-0.006 1.834,-0.186 1.235,-0.429 1.885,-1.722 2.638,-3.219 0.668,-1.328 1.36,-2.701 2.578,-3.66 0.649,-0.514 1.363,-0.836 2.052,-1.147 0.512,-0.231 0.995,-0.45 1.407,-0.727 1.487,-1.009 2.359,-2.971 3.201,-4.869 1.204,-2.71 2.448,-5.513 5.568,-6.012 0.244,-0.037 0.497,-0.058 0.75,-0.077 0.485,-0.038 0.943,-0.074 1.153,-0.267 0.384,-0.347 0.142,-1.391 -0.044,-2.19 -0.818,-3.51 -0.25,-7.308 1.56,-10.419 l 0.146,-0.25 c 0.275,-0.464 0.534,-0.902 0.585,-1.293 0.062,-0.537 -0.204,-1.194 -0.484,-1.889 -0.447,-1.108 -1.005,-2.487 -0.157,-3.797 0.374,-0.567 0.902,-0.907 1.368,-1.207 0.363,-0.233 0.706,-0.454 0.77,-0.657 0.077,-0.25 -0.178,-0.632 -0.579,-1.187 -0.433,-0.6 -0.925,-1.28 -1.019,-2.155 -0.129,-1.239 0.6,-2.196 1.186,-2.966 0.416,-0.547 0.81,-1.063 0.819,-1.525 0.008,-0.497 -0.396,-0.955 -1.062,-1.65 -0.63,-0.657 -1.343,-1.401 -1.599,-2.428 -0.2,-0.793 -0.073,-1.547 0.038,-2.212 0.083,-0.498 0.162,-0.968 0.083,-1.35 -0.139,-0.671 -0.79,-1.246 -1.477,-1.854 l -0.149,-0.132 c -5.647,-5.038 -8.288,-12.368 -9.51,-17.634 -0.192,-0.843 -0.177,-1.505 -0.166,-1.988 0.005,-0.215 0.01,-0.511 -0.02,-0.58 -10e-4,-0.002 -0.1,-0.135 -0.671,-0.331 -0.862,-0.304 -1.715,-0.317 -2.618,-0.329 -1.232,-0.019 -2.63,-0.039 -4.034,-0.893 -1.125,-0.692 -1.547,-1.86 -1.92,-2.892 -0.227,-0.628 -0.441,-1.221 -0.779,-1.635 -0.347,-0.424 -1.585,-1.033 -2.305,-1.307 0,0 -7.87,-2.92 -11.8,-4.38 -1.6,-0.593 -2.482,-2.206 -3.19,-3.502 -0.245,-0.447 -0.604,-1.103 -0.82,-1.311 -0.288,0.091 -0.897,0.537 -1.312,0.841 -1.095,0.799 -2.458,1.796 -4.018,1.796 l -0.126,-0.003 c -0.306,-0.009 -0.619,-0.014 -0.938,-0.014 -1.96,0 -4.132,0.179 -6.231,0.351 -1.91,0.157 -3.712,0.305 -5.204,0.305 -0.703,0 -1.287,-0.032 -1.785,-0.1 -0.122,-0.016 -0.253,-0.024 -0.388,-0.024 -1.153,0 -2.621,0.581 -4.32,1.254 -1.939,0.768 -4.132,1.637 -6.644,1.974 -0.514,0.219 -0.996,0.435 -1.372,0.739 -0.355,0.291 -0.656,0.69 -0.974,1.113 -0.132,0.175 -0.263,0.35 -0.398,0.517 -2.161,2.709 -5.61,4.326 -9.228,4.326 -0.919,0 -1.817,-0.106 -2.681,-0.317 -0.583,2.326 -2.476,4.072 -4.176,5.64 -0.579,0.534 -1.125,1.038 -1.625,1.56 -1.549,1.614 -2.914,4.12 -2.104,6.31 l 0.066,0.179 -0.004,0.191 c -0.068,3.027 -2.511,5.653 -4.981,6.817 -0.152,4.619 -1.773,9.136 -4.621,12.812 -0.268,0.346 -0.6,0.775 -0.573,1.027 0.025,0.243 0.4,0.525 0.798,0.824 0.464,0.348 0.991,0.745 1.338,1.338 0.996,1.681 -0.054,3.273 -0.897,4.552 -0.55,0.835 -1.119,1.699 -1.094,2.442 0.021,0.599 0.442,1.215 0.887,1.867 0.14,0.204 0.279,0.408 0.41,0.616 1.33,2.118 1.755,4.608 2.129,6.802 l 0.013,0.075 c 0.656,3.785 1.311,7.572 1.955,11.345 0.119,0.653 0.228,0.799 0.251,0.822 10e-4,0 0.02,0.007 0.076,0.007 0.113,0 0.271,-0.027 0.438,-0.056 0.219,-0.036 0.466,-0.078 0.73,-0.083 l 0.055,0 0.011,0 c 2.077,0 3.485,2.071 3.674,5.404 0.09,1.588 0.773,3.288 1.646,3.288 0.046,0 0.092,-0.004 0.155,-0.013 0.129,-0.017 0.296,-0.074 0.473,-0.134 0.319,-0.109 0.718,-0.245 1.182,-0.245 l 0.039,0 0.014,0.001 c 1.732,0.048 2.494,1.803 2.954,2.861 0.791,1.876 3.653,4.834 4.825,5.948 1.142,0.569 6.77,3.49 8.353,6.583 0.09,0.176 0.179,0.361 0.268,0.549 0.35,0.733 0.713,1.492 1.165,1.545 0.02,0.002 0.039,0.003 0.058,0.003 0.266,0 0.625,-0.199 1.005,-0.41 0.199,-0.11 0.397,-0.219 0.599,-0.315 0.739,-0.347 1.544,-0.523 2.392,-0.523 1.673,0 3.322,0.669 4.917,1.316 1.255,0.509 2.553,1.035 3.781,1.19 C -0.576,-1.017 -0.29,-1 0,-1"
             style="fill:#f39200;fill-opacity:1;fill-rule:nonzero;stroke:none"
             id="path26"
             inkscape:connector-curvature="0" /></g></g></g><g
       id="g28"><g
         id="g30"
         clip-path="url(#clipPath32)"><g
           id="g36"><g
             id="g38" /><g
             id="g44"><g
               clip-path="url(#clipPath40)"
               id="g46"
               style="opacity:0.25"><g
                 transform="translate(42.8564,3.7061)"
                 id="g48"><path
                   d="m 0,0 c -1.154,0 -1.871,0.021 -1.871,0.021 l -0.332,0.01 -0.294,0.155 c -0.176,0.091 -4.319,2.327 -5.212,8.463 -0.246,1.693 0.035,3.089 0.834,4.152 1.431,1.903 4.146,2.279 6.772,2.642 1.084,0.15 2.205,0.305 3.218,0.56 1.288,0.324 12.777,3.163 19.435,3.163 2.074,0 4.567,-0.22 5.446,-1.937 0.358,-0.697 0.541,-1.865 -0.612,-3.464 C 22.959,7.622 19.096,2.798 13.083,1.214 9.074,0.158 3.165,0 0,0"
                   style="fill:#be1622;fill-opacity:1;fill-rule:nonzero;stroke:none"
                   id="path50"
                   inkscape:connector-curvature="0" /></g></g></g></g><g
           id="g52"
           transform="translate(42.8564,3.7061)"><path
             d="m 0,0 c -1.154,0 -1.871,0.021 -1.871,0.021 l -0.332,0.01 -0.294,0.155 c -0.176,0.091 -4.319,2.327 -5.212,8.463 -0.246,1.693 0.035,3.089 0.834,4.152 1.431,1.903 4.146,2.279 6.772,2.642 1.084,0.15 2.205,0.305 3.218,0.56 1.288,0.324 12.777,3.163 19.435,3.163 2.074,0 4.567,-0.22 5.446,-1.937 0.358,-0.697 0.541,-1.865 -0.612,-3.464 C 22.959,7.622 19.096,2.798 13.083,1.214 9.074,0.158 3.165,0 0,0 Z"
             style="fill:none;stroke:#be1622;stroke-width:0.5;stroke-linecap:round;stroke-linejoin:round;stroke-miterlimit:10;stroke-dasharray:none;stroke-opacity:1"
             id="path54"
             inkscape:connector-curvature="0" /></g></g></g><path
       d="M 36.5,4.5 86,4.5 86,2 36.5,2 l 0,2.5 z"
       style="fill:#ca9e67;fill-opacity:1;fill-rule:nonzero;stroke:#1d1d1b;stroke-width:0.75;stroke-linecap:butt;stroke-linejoin:miter;stroke-miterlimit:10;stroke-dasharray:none;stroke-opacity:1"
       id="path56"
       inkscape:connector-curvature="0" /><g
       id="g58"><g
         id="g60"
         clip-path="url(#clipPath62)"><g
           id="g66"><g
             id="g68" /><g
             id="g74"><g
               clip-path="url(#clipPath70)"
               id="g76"
               style="opacity:0.25"><g
                 transform="translate(41,5.168)"
                 id="g78"><path
                   d="m 0,0 c 0,0 -3.658,1.916 -4.455,7.395 -0.795,5.48 5.109,4.584 9.75,5.75 4.643,1.168 27.359,6.396 22.75,0 C 23.437,6.75 19.922,2.561 14.545,1.145 9.17,-0.271 0,0 0,0"
                   style="fill:#006633;fill-opacity:1;fill-rule:nonzero;stroke:none"
                   id="path80"
                   inkscape:connector-curvature="0" /></g></g></g></g><g
           id="g82"
           transform="translate(41,5.168)"><path
             d="m 0,0 c 0,0 -3.658,1.916 -4.455,7.395 -0.795,5.48 5.109,4.584 9.75,5.75 4.643,1.168 27.359,6.396 22.75,0 C 23.437,6.75 19.922,2.561 14.545,1.145 9.17,-0.271 0,0 0,0 Z"
             style="fill:none;stroke:#006633;stroke-width:0.75;stroke-linecap:round;stroke-linejoin:round;stroke-miterlimit:10;stroke-dasharray:none;stroke-opacity:1"
             id="path84"
             inkscape:connector-curvature="0" /></g><g
           id="g86"
           transform="translate(31.1436,15.4053)"><path
             d="M 0,0 8.128,-8.812"
             style="fill:none;stroke:#1d71b8;stroke-width:0.5;stroke-linecap:butt;stroke-linejoin:miter;stroke-miterlimit:10;stroke-dasharray:none;stroke-opacity:1"
             id="path88"
             inkscape:connector-curvature="0" /></g><g
           id="g90"
           transform="translate(28.75,18)"><path
             d="M 0,0 1.879,-5.035 2.573,-2.789 4.867,-2.278 0,0 Z"
             style="fill:#1d71b8;fill-opacity:1;fill-rule:nonzero;stroke:none"
             id="path92"
             inkscape:connector-curvature="0" /></g><g
           id="g94"
           transform="translate(18.9106,28.1816)"><path
             d="M 0,0 C 0.342,1.275 1.136,2.173 1.774,2.002 2.414,1.83 2.655,0.655 2.313,-0.62 1.97,-1.898 1.174,-2.794 0.535,-2.622 -0.103,-2.451 -0.343,-1.279 0,0"
             style="fill:#a7d0f0;fill-opacity:1;fill-rule:nonzero;stroke:none"
             id="path96"
             inkscape:connector-curvature="0" /></g><g
           id="g98"
           transform="translate(18.9106,28.1816)"><path
             d="M 0,0 C 0.342,1.275 1.136,2.173 1.774,2.002 2.414,1.83 2.655,0.655 2.313,-0.62 1.97,-1.898 1.174,-2.794 0.535,-2.622 -0.103,-2.451 -0.343,-1.279 0,0 Z"
             style="fill:none;stroke:#1d1d1b;stroke-width:0.125;stroke-linecap:butt;stroke-linejoin:miter;stroke-miterlimit:10;stroke-dasharray:none;stroke-opacity:1"
             id="path100"
             inkscape:connector-curvature="0" /></g><g
           id="g102"
           transform="translate(19.9043,27.9131)"><path
             d="M 0,0 C 0.218,0.815 0.728,1.389 1.135,1.279 1.543,1.17 1.698,0.419 1.479,-0.396 1.26,-1.213 0.751,-1.784 0.344,-1.675 -0.063,-1.566 -0.219,-0.816 0,0"
             style="fill:#1d1d1b;fill-opacity:1;fill-rule:nonzero;stroke:none"
             id="path104"
             inkscape:connector-curvature="0" /></g><g
           id="g106"
           transform="translate(19.9043,27.9131)"><path
             d="M 0,0 C 0.218,0.815 0.728,1.389 1.135,1.279 1.543,1.17 1.698,0.419 1.479,-0.396 1.26,-1.213 0.751,-1.784 0.344,-1.675 -0.063,-1.566 -0.219,-0.816 0,0 Z"
             style="fill:none;stroke:#ffffff;stroke-width:0.125;stroke-linecap:butt;stroke-linejoin:miter;stroke-miterlimit:10;stroke-dasharray:none;stroke-opacity:1"
             id="path108"
             inkscape:connector-curvature="0" /></g><g
           id="g110"
           transform="translate(10.6934,30.3818)"><path
             d="M 0,0 C 1.372,-0.368 12.418,2.542 12.786,3.909"
             style="fill:none;stroke:#1d1d1b;stroke-width:1;stroke-linecap:round;stroke-linejoin:miter;stroke-miterlimit:4;stroke-dasharray:none;stroke-opacity:1"
             id="path112"
             inkscape:connector-curvature="0" /></g><g
           id="g114"
           transform="translate(10.6934,30.3818)"><path
             d="M 0,0 C 1.372,-0.368 9.483,-8.409 9.118,-9.779"
             style="fill:none;stroke:#1d1d1b;stroke-width:1;stroke-linecap:round;stroke-linejoin:miter;stroke-miterlimit:4;stroke-dasharray:none;stroke-opacity:1"
             id="path116"
             inkscape:connector-curvature="0" /></g><g
           id="g118"
           transform="translate(20.0107,32.2871)"><path
             d="M 0,0 C 0,0 2.369,-2.104 1.635,-4.841 0.901,-7.578 -2.201,-8.215 -2.201,-8.215"
             style="fill:none;stroke:#1d1d1b;stroke-width:1;stroke-linecap:round;stroke-linejoin:miter;stroke-miterlimit:4;stroke-dasharray:none;stroke-opacity:1"
             id="path120"
             inkscape:connector-curvature="0" /></g><g
           id="g122"
           transform="translate(77.665,10.502)"><path
             d="M 0,0 C -0.172,7.523 -2.712,15.053 -7.765,21.391"
             style="fill:none;stroke:#be1622;stroke-width:0.75;stroke-linecap:butt;stroke-linejoin:round;stroke-miterlimit:10;stroke-dasharray:none;stroke-opacity:1"
             id="path124"
             inkscape:connector-curvature="0" /></g><g
           id="g126"
           transform="translate(86,13.5)"><path
             d="M 0,0 0,31.5 2.25,35 2.25,-1.5 0,0 Z"
             style="fill:none;stroke:#000000;stroke-width:0.75;stroke-linecap:round;stroke-linejoin:round;stroke-miterlimit:10;stroke-dasharray:none;stroke-opacity:1"
             id="path128"
             inkscape:connector-curvature="0" /></g><g
           id="g130"><g
             id="g132" /><g
             id="g138"><g
               clip-path="url(#clipPath134)"
               id="g140"
               style="opacity:0.35000604"><g
                 transform="translate(101.7471,13.9453)"
                 id="g142"><path
                   d="m 0,0 c -5.731,-21.002 -24.937,-36.445 -47.757,-36.445 -27.34,0 -49.49,22.16 -49.49,49.5 0,27.34 22.15,49.5 49.49,49.5 17.103,0 32.181,-8.672 41.076,-21.859 l 1.262,1.156 c -0.974,2.175 -1.908,4.51 -3.769,5.773 -1.069,0.72 -2.389,1.03 -3.399,1.83 -2.391,1.88 -2.63,6.04 -5.51,7.04 -1.46,0.5 -3.16,-0.05 -4.56,0.59 -2.17,0.99 -2.66,4.33 -4.97,4.93 -1.83,0.48 -3.62,-1.13 -5.51,-1.03 -2.28,0.13 -3.74,2.64 -5.94,3.28 -1.85,0.53 -3.79,-0.36 -5.71,-0.52 -3.83,-0.33 -7.49,2.25 -11.3,1.77 -3.65,-0.46 -7.22,-3.63 -10.54,-2.07 -0.72,0.34 -1.41,0.9 -2.2,0.81 -1.19,-0.14 -1.66,-1.56 -2.21,-2.63 -1.56,-3.05 -8.04,-6.21 -8.04,-6.21 0,0 -4.09,-3.83 -5.17,-6.39 -0.43,-0.99 -0.98,-2.22 -2.06,-2.251 -0.54,-0.009 -1.02,0.301 -1.55,0.371 -1.92,0.28 -2.82,-2.281 -2.93,-4.21 -0.11,-1.94 -0.79,-4.5 -2.72,-4.46 -0.56,0.009 -1.15,0.27 -1.66,0.049 -0.56,-0.25 -0.73,-0.96 -0.84,-1.559 -0.65,-3.811 -1.31,-7.62 -1.97,-11.43 -0.38,-2.23 -0.79,-4.53 -1.99,-6.44 -0.6,-0.95 -1.41,-1.861 -1.45,-2.981 -0.08,-2.389 3.35,-4.46 2.13,-6.519 -0.59,-1.01 -2.15,-1.401 -2.27,-2.571 -0.07,-0.66 0.39,-1.239 0.8,-1.769 2.82,-3.641 4.39,-8.231 4.4,-12.84 2.51,-0.92 4.91,-3.5 4.97,-6.17 -0.94,-2.54 0.44,-5.391 2.32,-7.35 2.29,-2.39 5.59,-4.491 5.7,-7.8 4.14,1.519 9.19,0.12 11.95,-3.34 0.49,-0.61 0.91,-1.28 1.52,-1.78 0.52,-0.42 1.13,-0.68 1.74,-0.94 5.02,-0.631 8.91,-3.6 11.75,-3.221 3.05,0.411 9.36,-0.71 14.06,-0.549 2.28,0.08 4.39,-2.861 5.619,-2.64 1.241,0.22 1.921,4.05 4.161,4.88 3.93,1.46 11.8,4.38 11.8,4.38 0,0 2.05,0.78 2.73,1.61 1.059,1.3 1.02,3.43 2.45,4.31 2.09,1.269 4.16,0.32 6.46,1.13 2.09,0.719 1.01,1.469 1.5,3.62 1.52,6.549 4.47,12.889 9.2,17.11 0.81,0.72 1.72,1.47 1.94,2.529 0.156,0.753 -0.065,1.527 -0.161,2.29 L 0,0 Z"
                   style="fill:#ffd166;fill-opacity:1;fill-rule:nonzero;stroke:none"
                   id="path144"
                   inkscape:connector-curvature="0" /></g></g></g></g><g
           id="g146"
           transform="translate(41,5.168)"><path
             d="M 0,0 1.105,1.014"
             style="fill:none;stroke:#be1622;stroke-width:0.5;stroke-linecap:round;stroke-linejoin:miter;stroke-miterlimit:10;stroke-dasharray:none;stroke-opacity:1"
             id="path148"
             inkscape:connector-curvature="0" /></g><g
           id="g150"
           transform="translate(44.229,8.1289)"><path
             d="M 0,0 49.897,45.76"
             style="fill:none;stroke:#be1622;stroke-width:0.5;stroke-linecap:round;stroke-linejoin:miter;stroke-miterlimit:10;stroke-dasharray:2.881, 2.881;stroke-dashoffset:0;stroke-opacity:1"
             id="path152"
             inkscape:connector-curvature="0" /></g><g
           id="g154"
           transform="translate(95.1875,54.8623)"><path
             d="M 0,0 1.105,1.014"
             style="fill:none;stroke:#be1622;stroke-width:0.5;stroke-linecap:round;stroke-linejoin:miter;stroke-miterlimit:10;stroke-dasharray:none;stroke-opacity:1"
             id="path156"
             inkscape:connector-curvature="0" /></g><g
           id="g158"
           transform="translate(41,5.168)"><path
             d="M 0,0 1.484,0.215"
             style="fill:none;stroke:#be1622;stroke-width:0.5;stroke-linecap:round;stroke-linejoin:miter;stroke-miterlimit:10;stroke-dasharray:none;stroke-opacity:1"
             id="path160"
             inkscape:connector-curvature="0" /></g><g
           id="g162"
           transform="translate(45.3955,5.8037)"><path
             d="M 0,0 56.763,8.207"
             style="fill:none;stroke:#be1622;stroke-width:0.5;stroke-linecap:round;stroke-linejoin:miter;stroke-miterlimit:10;stroke-dasharray:2.941, 2.941;stroke-dashoffset:0;stroke-opacity:1"
             id="path164"
             inkscape:connector-curvature="0" /></g><g
           id="g166"
           transform="translate(103.6133,14.2217)"><path
             d="M 0,0 1.484,0.215"
             style="fill:none;stroke:#be1622;stroke-width:0.5;stroke-linecap:round;stroke-linejoin:miter;stroke-miterlimit:10;stroke-dasharray:none;stroke-opacity:1"
             id="path168"
             inkscape:connector-curvature="0" /></g><g
           id="g170"
           transform="translate(41,3.418)"><path
             d="M 0,0 C -0.965,0 -1.75,0.786 -1.75,1.752 -1.75,2.716 -0.965,3.5 0,3.5 0.965,3.5 1.75,2.716 1.75,1.752 1.75,0.786 0.965,0 0,0"
             style="fill:#ffffff;fill-opacity:1;fill-rule:nonzero;stroke:none"
             id="path172"
             inkscape:connector-curvature="0" /></g><g
           id="g174"
           transform="translate(41,7.418)"><path
             d="m 0,0 c -1.242,0 -2.25,-1.008 -2.25,-2.248 0,-1.246 1.008,-2.252 2.25,-2.252 1.242,0 2.25,1.006 2.25,2.252 C 2.25,-1.008 1.242,0 0,0 M 0,-1 C 0.689,-1 1.25,-1.56 1.25,-2.248 1.25,-2.938 0.689,-3.5 0,-3.5 c -0.689,0 -1.25,0.562 -1.25,1.252 C -1.25,-1.56 -0.689,-1 0,-1"
             style="fill:#008d36;fill-opacity:1;fill-rule:nonzero;stroke:none"
             id="path176"
             inkscape:connector-curvature="0" /></g></g></g></g></svg>