<?xml version="1.0" encoding="UTF-8" standalone="no"?>
<!-- Created with Inkscape (http://www.inkscape.org/) -->

<svg
   xmlns:dc="http://purl.org/dc/elements/1.1/"
   xmlns:cc="http://creativecommons.org/ns#"
   xmlns:rdf="http://www.w3.org/1999/02/22-rdf-syntax-ns#"
   xmlns:svg="http://www.w3.org/2000/svg"
   xmlns="http://www.w3.org/2000/svg"
   xmlns:sodipodi="http://sodipodi.sourceforge.net/DTD/sodipodi-0.dtd"
   xmlns:inkscape="http://www.inkscape.org/namespaces/inkscape"
   id="svg2"
   version="1.1"
   inkscape:version="0.91 r13725"
   xml:space="preserve"
   width="135"
   height="84.375"
   viewBox="0 0 135 84.375"
   sodipodi:docname="applications-04.svg"><metadata
     id="metadata8"><rdf:RDF><cc:Work
         rdf:about=""><dc:format>image/svg+xml</dc:format><dc:type
           rdf:resource="http://purl.org/dc/dcmitype/StillImage" /><dc:title></dc:title></cc:Work></rdf:RDF></metadata><defs
     id="defs6"><clipPath
       clipPathUnits="userSpaceOnUse"
       id="clipPath16"><path
         d="m 0,67.5 108,0 L 108,0 0,0 0,67.5 Z"
         id="path18"
         inkscape:connector-curvature="0" /></clipPath><clipPath
       clipPathUnits="userSpaceOnUse"
       id="clipPath24"><path
         d="m 0.182892,79.5198 107.637108,0 0,-106.9616 -107.637108,0 0,106.9616 z"
         id="path26"
         inkscape:connector-curvature="0" /></clipPath><clipPath
       clipPathUnits="userSpaceOnUse"
       id="clipPath40"><path
         d="m 10.125,64.6236 88.4693,0 0,-74.29798 -88.4693,0 0,74.29798 z"
         id="path42"
         inkscape:connector-curvature="0" /></clipPath><clipPath
       clipPathUnits="userSpaceOnUse"
       id="clipPath44"><path
         d="m 57.723,64.249 c -9.046,0 -18.881,-3.554 -18.77,-9.008 -3.597,2.335 -7.109,3.335 -10.329,3.335 C 14.768,58.576 6.291,40.093 19.552,30.04 1.682,24.567 13.397,1.308 27.796,1.308 29.2,1.308 30.629,1.529 32.06,2.011 32.887,-3.772 45.636,-9.3 55.328,-9.3 c 5.407,0 9.862,1.721 10.768,6.075 2.893,-2.307 6.23,-3.315 9.632,-3.315 15.748,0 32.876,21.628 13.812,36.197 14.892,3.753 10.12,28.195 -10.483,28.195 -2.078,0 -4.316,-0.249 -6.711,-0.792 -1.06,5.049 -7.607,7.189 -14.623,7.189"
         id="path46"
         inkscape:connector-curvature="0" /></clipPath><radialGradient
       fx="0"
       fy="0"
       cx="0"
       cy="0"
       r="1"
       gradientUnits="userSpaceOnUse"
       gradientTransform="matrix(-41.31916,0,0,-39.352371,54.359634,27.4746)"
       spreadMethod="pad"
       id="radialGradient48"><stop
         style="stop-opacity:1;stop-color:#ffffff"
         offset="0"
         id="stop50" /><stop
         style="stop-opacity:1;stop-color:#ffffff"
         offset="0.27728432"
         id="stop52" /><stop
         style="stop-opacity:1;stop-color:#dcddde"
         offset="1"
         id="stop54" /></radialGradient><clipPath
       clipPathUnits="userSpaceOnUse"
       id="clipPath128"><path
         d="m 38.4413,35.591 24.0877,0 0,-16.0544 -24.0877,0 0,16.0544 z"
         id="path130"
         inkscape:connector-curvature="0" /></clipPath><clipPath
       clipPathUnits="userSpaceOnUse"
       id="clipPath148"><path
         d="M 43.969,30.922 99.174,6.734 96.293,52.728 43.969,30.922 Z"
         id="path150"
         inkscape:connector-curvature="0" /></clipPath><clipPath
       clipPathUnits="userSpaceOnUse"
       id="clipPath156"><path
         d="m 37.0026,37.0312 26.951,0 0,-18.9345 -26.951,0 0,18.9345 z"
         id="path158"
         inkscape:connector-curvature="0" /></clipPath><clipPath
       clipPathUnits="userSpaceOnUse"
       id="clipPath176"><path
         d="m 0,67.5 108,0 L 108,0 0,0 0,67.5 Z"
         id="path178"
         inkscape:connector-curvature="0" /></clipPath><clipPath
       clipPathUnits="userSpaceOnUse"
       id="clipPath208"><path
         d="M 43.969,30.922 108,2.769 108,57.625 43.969,30.922 Z"
         id="path210"
         inkscape:connector-curvature="0" /></clipPath><clipPath
       clipPathUnits="userSpaceOnUse"
       id="clipPath224"><path
         d="m 64.423,28.141 6,0 0,6 -6,0 0,-6 z"
         id="path226"
         inkscape:connector-curvature="0" /></clipPath><clipPath
       clipPathUnits="userSpaceOnUse"
       id="clipPath240"><path
         d="m 0,67.5 108,0 L 108,0 0,0 0,67.5 Z"
         id="path242"
         inkscape:connector-curvature="0" /></clipPath><clipPath
       clipPathUnits="userSpaceOnUse"
       id="clipPath260"><path
         d="m 15.962,47.117 3,0 0,3.001 -3,0 0,-3.001 z"
         id="path262"
         inkscape:connector-curvature="0" /></clipPath><clipPath
       clipPathUnits="userSpaceOnUse"
       id="clipPath272"><path
         d="m 0,67.5 108,0 L 108,0 0,0 0,67.5 Z"
         id="path274"
         inkscape:connector-curvature="0" /></clipPath><clipPath
       clipPathUnits="userSpaceOnUse"
       id="clipPath296"><path
         d="m 34.298,28.764 2.994,0 0,2.973 -2.994,0 0,-2.973 z"
         id="path298"
         inkscape:connector-curvature="0" /></clipPath><clipPath
       clipPathUnits="userSpaceOnUse"
       id="clipPath308"><path
         d="m 0,67.5 108,0 L 108,0 0,0 0,67.5 Z"
         id="path310"
         inkscape:connector-curvature="0" /></clipPath><clipPath
       clipPathUnits="userSpaceOnUse"
       id="clipPath364"><path
         d="m 3.632,49.742 85.001,0 0,15 -85.001,0 0,-15 z"
         id="path366"
         inkscape:connector-curvature="0" /></clipPath></defs><sodipodi:namedview
     pagecolor="#ffffff"
     bordercolor="#666666"
     borderopacity="1"
     objecttolerance="10"
     gridtolerance="10"
     guidetolerance="10"
     inkscape:pageopacity="0"
     inkscape:pageshadow="2"
     inkscape:window-width="1280"
     inkscape:window-height="707"
     id="namedview4"
     showgrid="false"
     inkscape:zoom="2.797037"
     inkscape:cx="67.5"
     inkscape:cy="42.1875"
     inkscape:window-x="0"
     inkscape:window-y="1"
     inkscape:window-maximized="1"
     inkscape:current-layer="g10" /><g
     id="g10"
     inkscape:groupmode="layer"
     inkscape:label="applications-diagram-2"
     transform="matrix(1.25,0,0,-1.25,0,84.375)"><g
       id="g12"><g
         id="g14"
         clip-path="url(#clipPath16)"><g
           id="g20"><g
             id="g22" /><g
             id="g28"><g
               clip-path="url(#clipPath24)"
               id="g30"
               style="opacity:0.35000604"><g
                 transform="translate(53.9902,-22.5)"
                 id="g32"><path
                   d="M 0,0 C -27.34,0 -49.49,22.16 -49.49,49.5 -49.49,76.84 -27.34,99 0,99 27.34,99 49.51,76.84 49.51,49.5 49.51,22.16 27.34,0 0,0 m 51.14,38.16 c 0.42,1.69 2.719,2.6 2.69,4.34 -0.03,1.64 -2.181,2.74 -2.011,4.37 0.151,1.38 1.971,2.41 1.561,3.74 -0.32,1 -1.68,1.24 -2.26,2.12 -0.99,1.53 1.01,3.43 0.8,5.25 -0.09,0.7 -0.5,1.31 -0.86,1.93 -1.68,2.89 -2.21,6.43 -1.451,9.69 0.25,1.08 0.571,2.41 -0.259,3.16 -0.621,0.57 -1.58,0.46 -2.42,0.59 -4.63,0.74 -4.47,8.08 -8.361,10.72 -1.069,0.72 -2.389,1.03 -3.399,1.83 -2.391,1.88 -2.63,6.04 -5.51,7.04 -1.46,0.5 -3.16,-0.05 -4.56,0.59 -2.17,0.99 -2.661,4.33 -4.97,4.93 -1.83,0.48 -3.62,-1.13 -5.51,-1.03 -2.28,0.13 -3.74,2.64 -5.94,3.28 -1.85,0.53 -3.79,-0.36 -5.71,-0.52 -3.83,-0.33 -7.491,2.25 -11.3,1.77 -3.65,-0.46 -7.22,-3.63 -10.54,-2.07 -0.72,0.34 -1.41,0.9 -2.2,0.81 -1.19,-0.14 -1.66,-1.56 -2.21,-2.63 -1.56,-3.05 -8.04,-6.21 -8.04,-6.21 0,0 -4.09,-3.83 -5.17,-6.39 -0.43,-0.99 -0.98,-2.22 -2.06,-2.25 -0.54,-0.01 -1.02,0.3 -1.55,0.37 -1.921,0.28 -2.82,-2.28 -2.93,-4.21 -0.11,-1.94 -0.79,-4.5 -2.72,-4.46 -0.56,0.01 -1.15,0.27 -1.66,0.05 -0.56,-0.25 -0.73,-0.96 -0.84,-1.56 -0.65,-3.81 -1.31,-7.62 -1.97,-11.43 -0.38,-2.23 -0.79,-4.53 -1.99,-6.44 -0.6,-0.95 -1.41,-1.86 -1.45,-2.98 -0.08,-2.39 3.35,-4.46 2.13,-6.52 -0.59,-1.01 -2.15,-1.4 -2.27,-2.57 -0.07,-0.66 0.39,-1.24 0.8,-1.77 2.82,-3.64 4.39,-8.23 4.4,-12.84 2.51,-0.92 4.91,-3.5 4.97,-6.17 -0.94,-2.54 0.44,-5.39 2.32,-7.35 2.289,-2.39 5.59,-4.49 5.7,-7.8 4.14,1.52 9.19,0.12 11.95,-3.34 0.49,-0.61 0.91,-1.28 1.52,-1.78 0.52,-0.42 1.13,-0.68 1.74,-0.94 5.02,-0.63 8.91,-3.6 11.75,-3.22 3.05,0.41 9.36,-0.71 14.06,-0.55 2.279,0.08 4.39,-2.86 5.619,-2.64 1.241,0.22 1.921,4.05 4.16,4.88 3.931,1.46 11.801,4.38 11.801,4.38 0,0 2.05,0.78 2.73,1.61 1.059,1.3 1.02,3.43 2.45,4.31 2.09,1.27 4.16,0.32 6.46,1.13 2.09,0.72 1.01,1.47 1.5,3.62 1.519,6.55 4.47,12.89 9.2,17.11 0.81,0.72 1.72,1.47 1.94,2.53 0.24,1.16 -0.42,2.37 -0.13,3.52"
                   style="fill:#ffd166;fill-opacity:1;fill-rule:nonzero;stroke:none"
                   id="path34"
                   inkscape:connector-curvature="0" /></g></g></g></g><g
           id="g36"><g
             id="g38" /><g
             id="g56"><g
               clip-path="url(#clipPath40)"
               id="g58"
               style="opacity:0.5"><g
                 id="g60"><g
                   clip-path="url(#clipPath44)"
                   id="g62"><g
                     id="g64"><g
                       id="g66"><path
                         d="m 57.723,64.249 c -9.046,0 -18.881,-3.554 -18.77,-9.008 -3.597,2.335 -7.109,3.335 -10.329,3.335 C 14.768,58.576 6.291,40.093 19.552,30.04 1.682,24.567 13.397,1.308 27.796,1.308 29.2,1.308 30.629,1.529 32.06,2.011 32.887,-3.772 45.636,-9.3 55.328,-9.3 c 5.407,0 9.862,1.721 10.768,6.075 2.893,-2.307 6.23,-3.315 9.632,-3.315 15.748,0 32.876,21.628 13.812,36.197 14.892,3.753 10.12,28.195 -10.483,28.195 -2.078,0 -4.316,-0.249 -6.711,-0.792 -1.06,5.049 -7.607,7.189 -14.623,7.189"
                         style="fill:url(#radialGradient48);stroke:none"
                         id="path68"
                         inkscape:connector-curvature="0" /></g></g></g></g><g
                 transform="translate(57.7227,64.249)"
                 id="g70"><path
                   d="m 0,0 c -9.046,0 -18.881,-3.554 -18.77,-9.008 -3.596,2.335 -7.109,3.335 -10.329,3.335 -13.856,0 -22.333,-18.483 -9.072,-28.536 -17.87,-5.473 -6.155,-28.732 8.245,-28.732 1.404,0 2.832,0.221 4.263,0.703 0.827,-5.783 13.577,-11.311 23.268,-11.311 5.408,0 9.863,1.721 10.768,6.075 2.894,-2.307 6.231,-3.315 9.632,-3.315 15.748,0 32.877,21.628 13.812,36.197 14.892,3.753 10.121,28.195 -10.483,28.195 -2.078,0 -4.315,-0.249 -6.711,-0.792 C 13.563,-2.14 7.017,0 0,0"
                   style="fill:none;stroke:#c6c6c6;stroke-width:0.75;stroke-linecap:butt;stroke-linejoin:miter;stroke-miterlimit:10;stroke-dasharray:none;stroke-opacity:1"
                   id="path72"
                   inkscape:connector-curvature="0" /></g></g></g></g><g
           id="g74"
           transform="translate(69.2393,19.7803)"><path
             d="M 0,0 C 2.569,6.903 2.863,14.48 0.305,21.679"
             style="fill:none;stroke:#be1622;stroke-width:0.75;stroke-linecap:butt;stroke-linejoin:round;stroke-miterlimit:10;stroke-dasharray:none;stroke-opacity:1"
             id="path76"
             inkscape:connector-curvature="0" /></g><g
           id="g78"
           transform="translate(30.1611,38.7891)"><path
             d="M 0,0 59.839,-34.289"
             style="fill:none;stroke:#1d71b8;stroke-width:0.5;stroke-linecap:butt;stroke-linejoin:miter;stroke-miterlimit:10;stroke-dasharray:none;stroke-opacity:1"
             id="path80"
             inkscape:connector-curvature="0" /></g><g
           id="g82"
           transform="translate(27.0981,40.5449)"><path
             d="M 0,0 3.306,-4.237 3.292,-1.887 5.327,-0.71 0,0 Z"
             style="fill:#1d71b8;fill-opacity:1;fill-rule:nonzero;stroke:none"
             id="path84"
             inkscape:connector-curvature="0" /></g><path
           d="M 36.5,4.5 86,4.5 86,2 36.5,2 l 0,2.5 z"
           style="fill:#ca9e67;fill-opacity:1;fill-rule:nonzero;stroke:#1d1d1b;stroke-width:0.75;stroke-linecap:butt;stroke-linejoin:miter;stroke-miterlimit:10;stroke-dasharray:none;stroke-opacity:1"
           id="path86"
           inkscape:connector-curvature="0" /><g
           id="g88"
           transform="translate(86,13.5)"><path
             d="M 0,0 0,31.5 2.25,35 2.25,-1.5 0,0 Z"
             style="fill:none;stroke:#000000;stroke-width:0.75;stroke-linecap:butt;stroke-linejoin:round;stroke-miterlimit:10;stroke-dasharray:none;stroke-opacity:1"
             id="path90"
             inkscape:connector-curvature="0" /></g><g
           id="g92"
           transform="translate(16.5796,44.7793)"><path
             d="m 0,0 c 0,0 2.223,-0.383 9.479,0.768 1.212,-1.798 1.847,-2.997 1.04,-5.002 C 9.711,-6.24 8.422,-6.665 6.303,-7.121 1.869,-1.264 0,0 0,0"
             style="fill:#ffffff;fill-opacity:1;fill-rule:nonzero;stroke:none"
             id="path94"
             inkscape:connector-curvature="0" /></g><g
           id="g96"
           transform="translate(24.4717,41.6045)"><path
             d="M 0,0 C 0.493,1.225 1.39,2.02 2.002,1.772 2.617,1.525 2.714,0.33 2.221,-0.895 1.727,-2.123 0.829,-2.915 0.214,-2.668 -0.398,-2.422 -0.495,-1.229 0,0"
             style="fill:#a7d0f0;fill-opacity:1;fill-rule:nonzero;stroke:none"
             id="path98"
             inkscape:connector-curvature="0" /></g><g
           id="g100"
           transform="translate(24.4717,41.6045)"><path
             d="M 0,0 C 0.493,1.225 1.39,2.02 2.002,1.772 2.617,1.525 2.714,0.33 2.221,-0.895 1.727,-2.123 0.829,-2.915 0.214,-2.668 -0.398,-2.422 -0.495,-1.229 0,0 Z"
             style="fill:none;stroke:#1d1d1b;stroke-width:0.125;stroke-linecap:butt;stroke-linejoin:miter;stroke-miterlimit:10;stroke-dasharray:none;stroke-opacity:1"
             id="path102"
             inkscape:connector-curvature="0" /></g><g
           id="g104"
           transform="translate(25.4258,41.2178)"><path
             d="M 0,0 C 0.315,0.783 0.89,1.29 1.281,1.133 1.673,0.976 1.735,0.211 1.42,-0.571 1.104,-1.356 0.53,-1.862 0.139,-1.704 -0.252,-1.547 -0.316,-0.784 0,0"
             style="fill:#1d1d1b;fill-opacity:1;fill-rule:nonzero;stroke:none"
             id="path106"
             inkscape:connector-curvature="0" /></g><g
           id="g108"
           transform="translate(25.4258,41.2178)"><path
             d="M 0,0 C 0.315,0.783 0.89,1.29 1.281,1.133 1.673,0.976 1.735,0.211 1.42,-0.571 1.104,-1.356 0.53,-1.862 0.139,-1.704 -0.252,-1.547 -0.316,-0.784 0,0 Z"
             style="fill:none;stroke:#ffffff;stroke-width:0.125;stroke-linecap:butt;stroke-linejoin:miter;stroke-miterlimit:10;stroke-dasharray:none;stroke-opacity:1"
             id="path110"
             inkscape:connector-curvature="0" /></g><g
           id="g112"
           transform="translate(16.5796,44.7793)"><path
             d="M 0,0 C 1.317,-0.53 12.634,1.025 13.165,2.339"
             style="fill:none;stroke:#1d1d1b;stroke-width:1;stroke-linecap:round;stroke-linejoin:miter;stroke-miterlimit:4;stroke-dasharray:none;stroke-opacity:1"
             id="path114"
             inkscape:connector-curvature="0" /></g><g
           id="g116"
           transform="translate(16.5796,44.7793)"><path
             d="M 0,0 C 1.317,-0.53 8.4,-9.491 7.872,-10.808"
             style="fill:none;stroke:#1d1d1b;stroke-width:1;stroke-linecap:round;stroke-linejoin:miter;stroke-miterlimit:4;stroke-dasharray:none;stroke-opacity:1"
             id="path118"
             inkscape:connector-curvature="0" /></g><g
           id="g120"
           transform="translate(26.0591,45.5469)"><path
             d="M 0,0 C 0,0 2.098,-2.373 1.039,-5.002 -0.02,-7.631 -3.176,-7.889 -3.176,-7.889"
             style="fill:none;stroke:#1d1d1b;stroke-width:1;stroke-linecap:round;stroke-linejoin:miter;stroke-miterlimit:4;stroke-dasharray:none;stroke-opacity:1"
             id="path122"
             inkscape:connector-curvature="0" /></g><g
           id="g124"><g
             id="g126" /><g
             id="g132"><g
               clip-path="url(#clipPath128)"
               id="g134"
               style="opacity:0.25"><g
                 transform="translate(62.4023,20.1924)"
                 id="g136"><path
                   d="m 0,0 c 1.241,2.153 -6.885,9.167 -13.344,12.893 -6.458,3.725 -8.802,2.752 -10.044,0.598 C -24.63,11.339 -24.299,8.822 -17.84,5.097 -11.382,1.371 -1.242,-2.152 0,0"
                   style="fill:#006633;fill-opacity:1;fill-rule:nonzero;stroke:none"
                   id="path138"
                   inkscape:connector-curvature="0" /></g></g></g></g><g
           id="g140"
           transform="translate(62.4023,20.1924)"><path
             d="m 0,0 c 1.241,2.153 -6.885,9.167 -13.344,12.893 -6.458,3.725 -8.802,2.752 -10.044,0.598 C -24.63,11.339 -24.299,8.822 -17.84,5.097 -11.382,1.371 -1.242,-2.152 0,0 Z"
             style="fill:none;stroke:#006633;stroke-width:0.75;stroke-linecap:round;stroke-linejoin:round;stroke-miterlimit:10;stroke-dasharray:none;stroke-opacity:1"
             id="path142"
             inkscape:connector-curvature="0" /></g></g></g><g
       id="g144"><g
         id="g146"
         clip-path="url(#clipPath148)"><g
           id="g152"><g
             id="g154" /><g
             id="g160"><g
               clip-path="url(#clipPath156)"
               id="g162"
               style="opacity:0.25"><g
                 transform="translate(60.5449,18.0967)"
                 id="g164"><path
                   d="m 0,0 c -3.951,0 -11.746,3.086 -16.703,5.945 -3.247,1.873 -5.278,3.624 -6.209,5.352 -0.883,1.639 -0.838,3.325 0.135,5.01 1.005,1.743 2.506,2.628 4.461,2.628 1.932,0 4.401,-0.883 7.549,-2.7 C -7.426,14.309 5.544,5.607 3.105,1.377 2.578,0.463 1.533,0 0,0"
                   style="fill:#be1622;fill-opacity:1;fill-rule:nonzero;stroke:none"
                   id="path166"
                   inkscape:connector-curvature="0" /></g></g></g></g><g
           id="g168"
           transform="translate(60.5449,18.0967)"><path
             d="m 0,0 c -3.951,0 -11.746,3.086 -16.703,5.945 -3.247,1.873 -5.278,3.624 -6.209,5.352 -0.883,1.639 -0.838,3.325 0.135,5.01 1.005,1.743 2.506,2.628 4.461,2.628 1.932,0 4.401,-0.883 7.549,-2.7 C -7.426,14.309 5.544,5.607 3.105,1.377 2.578,0.463 1.533,0 0,0 Z"
             style="fill:none;stroke:#be1622;stroke-width:0.5;stroke-linecap:round;stroke-linejoin:round;stroke-miterlimit:10;stroke-dasharray:none;stroke-opacity:1"
             id="path170"
             inkscape:connector-curvature="0" /></g></g></g><g
       id="g172"><g
         id="g174"
         clip-path="url(#clipPath176)"><g
           id="g180"
           transform="translate(43.9688,30.9219)"><path
             d="M 0,0 1.374,-0.602"
             style="fill:none;stroke:#be1622;stroke-width:0.5;stroke-linecap:round;stroke-linejoin:miter;stroke-miterlimit:10;stroke-dasharray:none;stroke-opacity:1"
             id="path182"
             inkscape:connector-curvature="0" /></g><g
           id="g184"
           transform="translate(48.1035,29.1104)"><path
             d="M 0,0 48.315,-21.17"
             style="fill:none;stroke:#be1622;stroke-width:0.5;stroke-linecap:round;stroke-linejoin:miter;stroke-miterlimit:10;stroke-dasharray:3.014, 3.014;stroke-dashoffset:0;stroke-opacity:1"
             id="path186"
             inkscape:connector-curvature="0" /></g><g
           id="g188"
           transform="translate(97.7998,7.3359)"><path
             d="M 0,0 1.374,-0.603"
             style="fill:none;stroke:#be1622;stroke-width:0.5;stroke-linecap:round;stroke-linejoin:miter;stroke-miterlimit:10;stroke-dasharray:none;stroke-opacity:1"
             id="path190"
             inkscape:connector-curvature="0" /></g><g
           id="g192"
           transform="translate(96.293,52.7285)"><path
             d="M 0,0 -1.385,-0.577"
             style="fill:none;stroke:#be1622;stroke-width:0.5;stroke-linecap:round;stroke-linejoin:miter;stroke-miterlimit:10;stroke-dasharray:none;stroke-opacity:1"
             id="path194"
             inkscape:connector-curvature="0" /></g><g
           id="g196"
           transform="translate(91.9932,50.9365)"><path
             d="M 0,0 -45.182,-18.83"
             style="fill:none;stroke:#be1622;stroke-width:0.5;stroke-linecap:round;stroke-linejoin:miter;stroke-miterlimit:10;stroke-dasharray:3.158, 3.158;stroke-dashoffset:0;stroke-opacity:1"
             id="path198"
             inkscape:connector-curvature="0" /></g><g
           id="g200"
           transform="translate(45.3535,31.499)"><path
             d="M 0,0 -1.385,-0.577"
             style="fill:none;stroke:#be1622;stroke-width:0.5;stroke-linecap:round;stroke-linejoin:miter;stroke-miterlimit:10;stroke-dasharray:none;stroke-opacity:1"
             id="path202"
             inkscape:connector-curvature="0" /></g></g></g><g
       id="g204"><g
         id="g206"
         clip-path="url(#clipPath208)"><g
           id="g212"
           transform="translate(53.9902,-22.5)"><path
             d="M 0,0 C -27.34,0 -49.49,22.16 -49.49,49.5 -49.49,76.84 -27.34,99 0,99 27.34,99 49.51,76.84 49.51,49.5 49.51,22.16 27.34,0 0,0 m 51.14,38.16 c 0.42,1.69 2.719,2.6 2.69,4.34 -0.03,1.64 -2.181,2.74 -2.011,4.37 0.151,1.38 1.971,2.41 1.561,3.74 -0.32,1 -1.68,1.24 -2.26,2.12 -0.99,1.53 1.01,3.43 0.8,5.25 -0.09,0.7 -0.5,1.31 -0.86,1.93 -1.68,2.89 -2.21,6.43 -1.451,9.69 0.25,1.08 0.571,2.41 -0.259,3.16 -0.621,0.57 -1.58,0.46 -2.42,0.59 -4.63,0.74 -4.47,8.08 -8.361,10.72 -1.069,0.72 -2.389,1.03 -3.399,1.83 -2.391,1.88 -2.63,6.04 -5.51,7.04 -1.46,0.5 -3.16,-0.05 -4.56,0.59 -2.17,0.99 -2.661,4.33 -4.97,4.93 -1.83,0.48 -3.62,-1.13 -5.51,-1.03 -2.28,0.13 -3.74,2.64 -5.94,3.28 -1.85,0.53 -3.79,-0.36 -5.71,-0.52 -3.83,-0.33 -7.491,2.25 -11.3,1.77 -3.65,-0.46 -7.22,-3.63 -10.54,-2.07 -0.72,0.34 -1.41,0.9 -2.2,0.81 -1.19,-0.14 -1.66,-1.56 -2.21,-2.63 -1.56,-3.05 -8.04,-6.21 -8.04,-6.21 0,0 -4.09,-3.83 -5.17,-6.39 -0.43,-0.99 -0.98,-2.22 -2.06,-2.25 -0.54,-0.01 -1.02,0.3 -1.55,0.37 -1.921,0.28 -2.82,-2.28 -2.93,-4.21 -0.11,-1.94 -0.79,-4.5 -2.72,-4.46 -0.56,0.01 -1.15,0.27 -1.66,0.05 -0.56,-0.25 -0.73,-0.96 -0.84,-1.56 -0.65,-3.81 -1.31,-7.62 -1.97,-11.43 -0.38,-2.23 -0.79,-4.53 -1.99,-6.44 -0.6,-0.95 -1.41,-1.86 -1.45,-2.98 -0.08,-2.39 3.35,-4.46 2.13,-6.52 -0.59,-1.01 -2.15,-1.4 -2.27,-2.57 -0.07,-0.66 0.39,-1.24 0.8,-1.77 2.82,-3.64 4.39,-8.23 4.4,-12.84 2.51,-0.92 4.91,-3.5 4.97,-6.17 -0.94,-2.54 0.44,-5.39 2.32,-7.35 2.289,-2.39 5.59,-4.49 5.7,-7.8 4.14,1.52 9.19,0.12 11.95,-3.34 0.49,-0.61 0.91,-1.28 1.52,-1.78 0.52,-0.42 1.13,-0.68 1.74,-0.94 5.02,-0.63 8.91,-3.6 11.75,-3.22 3.05,0.41 9.36,-0.71 14.06,-0.55 2.279,0.08 4.39,-2.86 5.619,-2.64 1.241,0.22 1.921,4.05 4.16,4.88 3.931,1.46 11.801,4.38 11.801,4.38 0,0 2.05,0.78 2.73,1.61 1.059,1.3 1.02,3.43 2.45,4.31 2.09,1.27 4.16,0.32 6.46,1.13 2.09,0.72 1.01,1.47 1.5,3.62 1.519,6.55 4.47,12.89 9.2,17.11 0.81,0.72 1.72,1.47 1.94,2.53 0.24,1.16 -0.42,2.37 -0.13,3.52"
             style="fill:#ffd166;fill-opacity:1;fill-rule:nonzero;stroke:none"
             id="path214"
             inkscape:connector-curvature="0" /></g><g
           id="g216"
           transform="translate(46.6348,79.5195)"><path
             d="m 0,0 c -0.324,0 -0.648,-0.019 -0.975,-0.06 -2.939,-0.37 -5.826,-2.498 -8.573,-2.498 -0.664,0 -1.32,0.124 -1.967,0.428 -0.667,0.316 -1.309,0.82 -2.029,0.82 -0.056,0 -0.113,-0.002 -0.171,-0.009 -1.19,-0.141 -1.66,-1.561 -2.21,-2.63 -1.56,-3.051 -8.04,-6.21 -8.04,-6.21 0,0 -4.09,-3.83 -5.17,-6.391 -0.43,-0.989 -0.98,-2.22 -2.06,-2.25 l -0.025,0 c -0.53,0 -1.003,0.302 -1.525,0.37 -0.097,0.015 -0.193,0.022 -0.285,0.022 -1.724,0 -2.54,-2.4 -2.645,-4.232 -0.109,-1.924 -0.78,-4.46 -2.675,-4.46 l -0.045,0 c -0.394,0.007 -0.804,0.139 -1.189,0.139 -0.162,0 -0.32,-0.023 -0.471,-0.089 -0.56,-0.25 -0.73,-0.96 -0.84,-1.559 -0.65,-3.811 -1.31,-7.62 -1.97,-11.43 -0.38,-2.231 -0.79,-4.53 -1.989,-6.44 -0.601,-0.951 -1.411,-1.861 -1.451,-2.981 -0.08,-2.39 3.35,-4.46 2.13,-6.519 -0.59,-1.01 -2.15,-1.401 -2.27,-2.571 -0.07,-0.66 0.39,-1.239 0.8,-1.769 2.82,-3.641 4.39,-8.231 4.4,-12.84 2.51,-0.92 4.91,-3.5 4.97,-6.17 -0.94,-2.54 0.44,-5.391 2.32,-7.351 2.29,-2.389 5.59,-4.49 5.7,-7.799 1.122,0.412 2.312,0.609 3.504,0.609 3.206,0 6.435,-1.427 8.446,-3.949 0.49,-0.611 0.91,-1.281 1.52,-1.781 0.52,-0.42 1.13,-0.679 1.74,-0.939 4.72,-0.593 8.441,-3.254 11.23,-3.254 0.177,0 0.351,0.011 0.52,0.033 0.478,0.065 1.035,0.091 1.653,0.091 3.066,0 7.636,-0.656 11.435,-0.656 0.331,0 0.654,0.005 0.973,0.015 0.03,0.001 0.06,0.002 0.091,0.002 2.163,0 4.164,-2.653 5.392,-2.653 0.047,0 0.092,0.004 0.136,0.012 1.24,0.22 1.921,4.05 4.16,4.88 3.931,1.46 11.801,4.38 11.801,4.38 0,0 2.05,0.78 2.729,1.61 1.06,1.3 1.021,3.43 2.45,4.309 2.09,1.27 4.161,0.321 6.46,1.13 2.09,0.72 1.01,1.47 1.5,3.62 1.52,6.55 4.47,12.89 9.201,17.111 0.809,0.72 1.719,1.47 1.939,2.529 0.24,1.16 -0.42,2.37 -0.13,3.521 0.42,1.689 2.72,2.599 2.691,4.339 -0.031,1.64 -2.181,2.741 -2.011,4.371 0.15,1.379 1.971,2.41 1.56,3.74 -0.32,1 -1.679,1.239 -2.259,2.12 -0.991,1.529 1.009,3.43 0.799,5.25 -0.089,0.699 -0.5,1.31 -0.86,1.93 -1.68,2.889 -2.21,6.429 -1.45,9.689 0.25,1.08 0.57,2.41 -0.26,3.16 -0.62,0.571 -1.58,0.46 -2.42,0.59 -4.63,0.74 -4.47,8.08 -8.36,10.721 -1.07,0.72 -2.39,1.029 -3.4,1.83 -2.39,1.88 -2.629,6.04 -5.509,7.04 -1.46,0.5 -3.161,-0.051 -4.561,0.59 -2.17,0.989 -2.66,4.33 -4.97,4.929 -0.238,0.063 -0.476,0.09 -0.714,0.09 -1.529,0 -3.042,-1.124 -4.625,-1.124 -0.056,0 -0.114,0.001 -0.17,0.004 -2.281,0.13 -3.741,2.641 -5.941,3.28 -0.416,0.12 -0.837,0.167 -1.261,0.167 -1.461,0 -2.961,-0.562 -4.449,-0.686 C 10.094,-1.85 9.862,-1.858 9.633,-1.858 6.378,-1.858 3.233,0 0,0 m 0,-1 c 1.472,0 2.953,-0.431 4.521,-0.888 1.642,-0.477 3.339,-0.97 5.112,-0.97 0.263,0 0.524,0.01 0.775,0.032 0.718,0.059 1.417,0.208 2.093,0.351 0.803,0.171 1.561,0.332 2.273,0.332 0.363,0 0.686,-0.042 0.982,-0.127 0.798,-0.232 1.532,-0.812 2.309,-1.427 1.068,-0.844 2.279,-1.801 3.857,-1.891 0.075,-0.004 0.15,-0.006 0.224,-0.006 0.975,0 1.85,0.321 2.696,0.63 0.693,0.254 1.348,0.494 1.929,0.494 0.165,0 0.315,-0.018 0.462,-0.057 0.85,-0.221 1.416,-1.082 2.073,-2.08 0.679,-1.035 1.45,-2.206 2.733,-2.792 0.94,-0.429 1.937,-0.434 2.815,-0.439 0.673,-0.003 1.308,-0.007 1.834,-0.186 1.235,-0.429 1.885,-1.722 2.638,-3.219 0.668,-1.328 1.36,-2.701 2.578,-3.66 0.649,-0.514 1.363,-0.836 2.052,-1.148 0.512,-0.23 0.995,-0.449 1.407,-0.726 1.487,-1.009 2.359,-2.971 3.201,-4.869 1.204,-2.71 2.448,-5.513 5.568,-6.012 0.244,-0.037 0.497,-0.058 0.75,-0.077 0.485,-0.038 0.943,-0.074 1.153,-0.267 0.384,-0.347 0.142,-1.391 -0.044,-2.19 -0.818,-3.51 -0.25,-7.308 1.56,-10.419 l 0.146,-0.25 c 0.275,-0.464 0.534,-0.902 0.585,-1.293 0.062,-0.537 -0.204,-1.194 -0.484,-1.889 -0.447,-1.108 -1.005,-2.487 -0.157,-3.797 0.374,-0.567 0.902,-0.907 1.368,-1.207 0.363,-0.233 0.706,-0.454 0.77,-0.657 0.077,-0.25 -0.178,-0.632 -0.579,-1.187 -0.433,-0.6 -0.925,-1.281 -1.019,-2.155 -0.129,-1.239 0.6,-2.196 1.186,-2.966 0.416,-0.547 0.81,-1.063 0.819,-1.525 0.008,-0.497 -0.396,-0.955 -1.062,-1.65 -0.63,-0.657 -1.343,-1.401 -1.599,-2.428 -0.2,-0.793 -0.073,-1.547 0.038,-2.212 0.083,-0.498 0.162,-0.968 0.083,-1.349 -0.139,-0.672 -0.79,-1.247 -1.477,-1.855 l -0.149,-0.132 c -5.647,-5.038 -8.288,-12.368 -9.51,-17.634 -0.192,-0.843 -0.177,-1.505 -0.166,-1.988 0.005,-0.215 0.01,-0.511 -0.02,-0.58 -10e-4,-0.002 -0.1,-0.135 -0.671,-0.331 -0.862,-0.304 -1.715,-0.317 -2.618,-0.329 -1.232,-0.019 -2.63,-0.039 -4.034,-0.893 -1.125,-0.692 -1.547,-1.86 -1.92,-2.892 -0.227,-0.628 -0.441,-1.221 -0.779,-1.635 -0.347,-0.424 -1.585,-1.033 -2.305,-1.307 0,0 -7.87,-2.92 -11.8,-4.38 -1.6,-0.593 -2.482,-2.206 -3.19,-3.502 -0.245,-0.447 -0.604,-1.103 -0.82,-1.311 -0.288,0.091 -0.897,0.537 -1.312,0.841 -1.095,0.799 -2.458,1.796 -4.018,1.796 l -0.126,-0.003 c -0.306,-0.009 -0.619,-0.014 -0.938,-0.014 -1.96,0 -4.132,0.179 -6.231,0.351 -1.91,0.157 -3.712,0.305 -5.204,0.305 -0.703,0 -1.287,-0.032 -1.785,-0.1 -0.122,-0.016 -0.253,-0.024 -0.388,-0.024 -1.153,0 -2.621,0.581 -4.32,1.254 -1.939,0.768 -4.132,1.637 -6.644,1.974 -0.514,0.219 -0.996,0.435 -1.372,0.739 -0.355,0.291 -0.656,0.69 -0.974,1.113 -0.132,0.175 -0.263,0.35 -0.398,0.517 -2.161,2.709 -5.61,4.326 -9.228,4.326 -0.919,0 -1.817,-0.106 -2.681,-0.317 -0.583,2.326 -2.476,4.072 -4.176,5.64 -0.579,0.534 -1.125,1.038 -1.625,1.56 -1.549,1.614 -2.914,4.12 -2.104,6.31 l 0.066,0.179 -0.004,0.191 c -0.068,3.027 -2.511,5.653 -4.981,6.817 -0.152,4.619 -1.773,9.136 -4.621,12.812 -0.268,0.346 -0.6,0.775 -0.573,1.027 0.025,0.243 0.4,0.525 0.798,0.824 0.464,0.348 0.991,0.745 1.338,1.338 0.996,1.681 -0.054,3.273 -0.897,4.552 -0.55,0.835 -1.119,1.699 -1.094,2.442 0.021,0.599 0.442,1.215 0.887,1.867 0.14,0.204 0.279,0.408 0.41,0.616 1.33,2.118 1.755,4.608 2.129,6.802 l 0.013,0.075 c 0.656,3.785 1.311,7.572 1.955,11.345 0.119,0.653 0.228,0.799 0.251,0.822 10e-4,0 0.02,0.007 0.076,0.007 0.113,0 0.271,-0.027 0.438,-0.056 0.219,-0.036 0.466,-0.078 0.73,-0.083 l 0.055,0 0.011,0 c 2.077,0 3.485,2.071 3.674,5.404 0.09,1.588 0.773,3.288 1.646,3.288 0.046,0 0.092,-0.004 0.155,-0.013 0.129,-0.017 0.296,-0.074 0.473,-0.134 0.319,-0.109 0.718,-0.245 1.182,-0.245 l 0.039,0 0.014,0.001 c 1.732,0.048 2.494,1.803 2.954,2.861 0.791,1.876 3.653,4.834 4.825,5.948 1.142,0.568 6.77,3.49 8.353,6.584 0.09,0.176 0.179,0.36 0.268,0.548 0.35,0.733 0.713,1.492 1.165,1.545 0.02,0.002 0.039,0.003 0.058,0.003 0.266,0 0.625,-0.199 1.005,-0.41 0.199,-0.11 0.397,-0.219 0.599,-0.314 0.739,-0.348 1.544,-0.524 2.392,-0.524 1.673,0 3.322,0.669 4.917,1.316 1.255,0.51 2.553,1.036 3.781,1.19 C -0.576,-1.018 -0.29,-1 0,-1"
             style="fill:#f39200;fill-opacity:1;fill-rule:nonzero;stroke:none"
             id="path218"
             inkscape:connector-curvature="0" /></g></g></g></g></svg>