<?xml version="1.0" encoding="UTF-8" standalone="no"?>
<!-- Created with Inkscape (http://www.inkscape.org/) -->

<svg
   xmlns:dc="http://purl.org/dc/elements/1.1/"
   xmlns:cc="http://creativecommons.org/ns#"
   xmlns:rdf="http://www.w3.org/1999/02/22-rdf-syntax-ns#"
   xmlns:svg="http://www.w3.org/2000/svg"
   xmlns="http://www.w3.org/2000/svg"
   xmlns:sodipodi="http://sodipodi.sourceforge.net/DTD/sodipodi-0.dtd"
   xmlns:inkscape="http://www.inkscape.org/namespaces/inkscape"
   id="svg2"
   version="1.1"
   inkscape:version="0.91 r13725"
   xml:space="preserve"
   width="112.5"
   height="84.375"
   viewBox="0 0 112.5 84.375"
   sodipodi:docname="applications-03.svg"><metadata
     id="metadata8"><rdf:RDF><cc:Work
         rdf:about=""><dc:format>image/svg+xml</dc:format><dc:type
           rdf:resource="http://purl.org/dc/dcmitype/StillImage" /><dc:title /></cc:Work></rdf:RDF></metadata><defs
     id="defs6"><clipPath
       clipPathUnits="userSpaceOnUse"
       id="clipPath16"><path
         d="m 0,67.5 90,0 L 90,0 0,0 0,67.5 Z"
         id="path18"
         inkscape:connector-curvature="0" /></clipPath><clipPath
       clipPathUnits="userSpaceOnUse"
       id="clipPath24"><path
         d="m 0.942108,65.0653 88.469292,0 0,-74.29792 -88.469292,0 0,74.29792 z"
         id="path26"
         inkscape:connector-curvature="0" /></clipPath><clipPath
       clipPathUnits="userSpaceOnUse"
       id="clipPath28"><path
         d="m 48.54,64.69 c -9.046,0 -18.881,-3.553 -18.77,-9.007 -3.596,2.335 -7.109,3.335 -10.329,3.335 C 5.585,59.018 -2.892,40.534 10.369,30.481 -7.5,25.009 4.214,1.75 18.613,1.75 c 1.404,0 2.833,0.221 4.263,0.702 0.828,-5.782 13.578,-11.309 23.269,-11.309 5.407,0 9.863,1.719 10.768,6.075 2.893,-2.308 6.23,-3.316 9.632,-3.316 15.748,0 32.876,21.628 13.812,36.198 14.892,3.752 10.121,28.194 -10.483,28.194 -2.078,0 -4.315,-0.249 -6.711,-0.793 -1.059,5.05 -7.606,7.189 -14.623,7.189"
         id="path30"
         inkscape:connector-curvature="0" /></clipPath><radialGradient
       fx="0"
       fy="0"
       cx="0"
       cy="0"
       r="1"
       gradientUnits="userSpaceOnUse"
       gradientTransform="matrix(-41.31916,0,0,-39.352371,45.176743,27.916351)"
       spreadMethod="pad"
       id="radialGradient32"><stop
         style="stop-opacity:1;stop-color:#ffffff"
         offset="0"
         id="stop34" /><stop
         style="stop-opacity:1;stop-color:#ffffff"
         offset="0.27728432"
         id="stop36" /><stop
         style="stop-opacity:1;stop-color:#dcddde"
         offset="1"
         id="stop38" /></radialGradient><clipPath
       clipPathUnits="userSpaceOnUse"
       id="clipPath78"><path
         d="m 0,67.5 90,0 L 90,0 0,0 0,67.5 Z"
         id="path80"
         inkscape:connector-curvature="0" /></clipPath><clipPath
       clipPathUnits="userSpaceOnUse"
       id="clipPath118"><path
         d="m 29.2584,36.0328 24.0877,0 0,-16.0545 -24.0877,0 0,16.0545 z"
         id="path120"
         inkscape:connector-curvature="0" /></clipPath><clipPath
       clipPathUnits="userSpaceOnUse"
       id="clipPath138"><path
         d="M 34.786,31.363 89.991,7.176 87.11,53.17 34.786,31.363 Z"
         id="path140"
         inkscape:connector-curvature="0" /></clipPath><clipPath
       clipPathUnits="userSpaceOnUse"
       id="clipPath146"><path
         d="m 27.8218,37.4727 26.9674,0 0,-18.9346 -26.9674,0 0,18.9346 z"
         id="path148"
         inkscape:connector-curvature="0" /></clipPath><clipPath
       clipPathUnits="userSpaceOnUse"
       id="clipPath166"><path
         d="m 0,67.5 90,0 L 90,0 0,0 0,67.5 Z"
         id="path168"
         inkscape:connector-curvature="0" /></clipPath><clipPath
       clipPathUnits="userSpaceOnUse"
       id="clipPath204"><path
         d="m 80.751,17.202 5.938,0 0,5.405 -5.938,0 0,-5.405 z"
         id="path206"
         inkscape:connector-curvature="0" /></clipPath><clipPath
       clipPathUnits="userSpaceOnUse"
       id="clipPath220"><path
         d="m 25.298,28.764 2.994,0 0,2.973 -2.994,0 0,-2.973 z"
         id="path222"
         inkscape:connector-curvature="0" /></clipPath><clipPath
       clipPathUnits="userSpaceOnUse"
       id="clipPath232"><path
         d="m 56.355,27.849 5.999,0 0,6 -5.999,0 0,-6 z"
         id="path234"
         inkscape:connector-curvature="0" /></clipPath><clipPath
       clipPathUnits="userSpaceOnUse"
       id="clipPath248"><path
         d="m 0,67.5 90,0 L 90,0 0,0 0,67.5 Z"
         id="path250"
         inkscape:connector-curvature="0" /></clipPath><clipPath
       clipPathUnits="userSpaceOnUse"
       id="clipPath276"><path
         d="m 6.962,47.117 3,0 0,3.001 -3,0 0,-3.001 z"
         id="path278"
         inkscape:connector-curvature="0" /></clipPath><clipPath
       clipPathUnits="userSpaceOnUse"
       id="clipPath288"><path
         d="m 0,67.5 90,0 L 90,0 0,0 0,67.5 Z"
         id="path290"
         inkscape:connector-curvature="0" /></clipPath><clipPath
       clipPathUnits="userSpaceOnUse"
       id="clipPath324"><path
         d="m 9.58,48.617 71.933,0 0,14.991 -71.933,0 0,-14.991 z"
         id="path326"
         inkscape:connector-curvature="0" /></clipPath><clipPath
       clipPathUnits="userSpaceOnUse"
       id="clipPath436"><path
         d="m 0,67.5 90,0 L 90,0 0,0 0,67.5 Z"
         id="path438"
         inkscape:connector-curvature="0" /></clipPath></defs><sodipodi:namedview
     pagecolor="#ffffff"
     bordercolor="#666666"
     borderopacity="1"
     objecttolerance="10"
     gridtolerance="10"
     guidetolerance="10"
     inkscape:pageopacity="0"
     inkscape:pageshadow="2"
     inkscape:window-width="1280"
     inkscape:window-height="707"
     id="namedview4"
     showgrid="false"
     inkscape:zoom="12.34713"
     inkscape:cx="57.298398"
     inkscape:cy="37.450441"
     inkscape:window-x="0"
     inkscape:window-y="1"
     inkscape:window-maximized="1"
     inkscape:current-layer="g10" /><g
     id="g10"
     inkscape:groupmode="layer"
     inkscape:label="applications-diagram-2"
     transform="matrix(1.25,0,0,-1.25,0,84.375)"><g
       id="g12"><g
         id="g14"
         clip-path="url(#clipPath16)"><g
           id="g20"><g
             id="g22" /><g
             id="g40"><g
               clip-path="url(#clipPath24)"
               id="g42"
               style="opacity:0.5"><g
                 id="g44"><g
                   clip-path="url(#clipPath28)"
                   id="g46"><g
                     id="g48"><g
                       id="g50"><path
                         d="m 48.54,64.69 c -9.046,0 -18.881,-3.553 -18.77,-9.007 -3.596,2.335 -7.109,3.335 -10.329,3.335 C 5.585,59.018 -2.892,40.534 10.369,30.481 -7.5,25.009 4.214,1.75 18.613,1.75 c 1.404,0 2.833,0.221 4.263,0.702 0.828,-5.782 13.578,-11.309 23.269,-11.309 5.407,0 9.863,1.719 10.768,6.075 2.893,-2.308 6.23,-3.316 9.632,-3.316 15.748,0 32.876,21.628 13.812,36.198 14.892,3.752 10.121,28.194 -10.483,28.194 -2.078,0 -4.315,-0.249 -6.711,-0.793 -1.059,5.05 -7.606,7.189 -14.623,7.189"
                         style="fill:url(#radialGradient32);stroke:none"
                         id="path52"
                         inkscape:connector-curvature="0" /></g></g></g></g><g
                 transform="translate(48.5396,64.6904)"
                 id="g54"><path
                   d="m 0,0 c -9.046,0 -18.88,-3.554 -18.77,-9.008 -3.596,2.335 -7.108,3.335 -10.329,3.335 -13.856,0 -22.332,-18.483 -9.071,-28.536 -17.87,-5.473 -6.155,-28.731 8.244,-28.731 1.404,0 2.832,0.22 4.263,0.702 0.828,-5.783 13.577,-11.31 23.268,-11.31 5.408,0 9.863,1.72 10.768,6.075 2.894,-2.307 6.231,-3.315 9.632,-3.315 15.748,0 32.877,21.628 13.813,36.197 14.891,3.752 10.12,28.195 -10.484,28.195 -2.078,0 -4.315,-0.25 -6.71,-0.793 C 13.564,-2.14 7.017,0 0,0"
                   style="fill:none;stroke:#c6c6c6;stroke-width:0.75;stroke-linecap:butt;stroke-linejoin:miter;stroke-miterlimit:10;stroke-dasharray:none;stroke-opacity:1"
                   id="path56"
                   inkscape:connector-curvature="0" /></g></g></g></g></g></g><g
       id="g58"
       transform="translate(76.5,13.5)"><path
         d="M 0,0 0,31.5 2.25,35 2.25,-1.5 0,0 Z"
         style="fill:#fcea0f;fill-opacity:1;fill-rule:nonzero;stroke:none"
         id="path60"
         inkscape:connector-curvature="0" /></g><g
       id="g62"
       transform="translate(76.5,13.5)"><path
         d="M 0,0 0,31.5 2.25,35 2.25,-1.5 0,0 Z"
         style="fill:none;stroke:#f39200;stroke-width:0.75;stroke-linecap:round;stroke-linejoin:round;stroke-miterlimit:10;stroke-dasharray:none;stroke-opacity:1"
         id="path64"
         inkscape:connector-curvature="0" /></g><g
       id="g66"
       transform="translate(20.978,39.2314)"><path
         d="M 0,0 59.839,-34.29"
         style="fill:none;stroke:#1d71b8;stroke-width:0.5;stroke-linecap:butt;stroke-linejoin:miter;stroke-miterlimit:10;stroke-dasharray:none;stroke-opacity:1"
         id="path68"
         inkscape:connector-curvature="0" /></g><g
       id="g70"
       transform="translate(17.915,40.9863)"><path
         d="M 0,0 3.306,-4.237 3.292,-1.887 5.327,-0.71 0,0 Z"
         style="fill:#1d71b8;fill-opacity:1;fill-rule:nonzero;stroke:none"
         id="path72"
         inkscape:connector-curvature="0" /></g><g
       id="g74"><g
         id="g76"
         clip-path="url(#clipPath78)"><g
           id="g82"
           transform="translate(7.397,45.2217)"><path
             d="M 0,0 C 0,0 2.223,-0.384 9.479,0.767 10.69,-1.03 11.326,-2.229 10.518,-4.235 9.711,-6.241 8.422,-6.665 6.303,-7.122 1.869,-1.265 0,0 0,0"
             style="fill:#ffffff;fill-opacity:1;fill-rule:nonzero;stroke:none"
             id="path84"
             inkscape:connector-curvature="0" /></g><g
           id="g86"
           transform="translate(15.2886,42.0459)"><path
             d="M 0,0 C 0.493,1.225 1.39,2.02 2.002,1.773 2.617,1.525 2.715,0.33 2.222,-0.895 1.727,-2.123 0.829,-2.915 0.215,-2.668 -0.397,-2.421 -0.494,-1.229 0,0"
             style="fill:#a7d0f0;fill-opacity:1;fill-rule:nonzero;stroke:none"
             id="path88"
             inkscape:connector-curvature="0" /></g><g
           id="g90"
           transform="translate(15.2886,42.0459)"><path
             d="M 0,0 C 0.493,1.225 1.39,2.02 2.002,1.773 2.617,1.525 2.715,0.33 2.222,-0.895 1.727,-2.123 0.829,-2.915 0.215,-2.668 -0.397,-2.421 -0.494,-1.229 0,0 Z"
             style="fill:none;stroke:#1d1d1b;stroke-width:0.125;stroke-linecap:butt;stroke-linejoin:miter;stroke-miterlimit:10;stroke-dasharray:none;stroke-opacity:1"
             id="path92"
             inkscape:connector-curvature="0" /></g><g
           id="g94"
           transform="translate(16.2427,41.6602)"><path
             d="M 0,0 C 0.315,0.782 0.89,1.29 1.282,1.132 1.673,0.975 1.736,0.21 1.421,-0.572 1.105,-1.356 0.531,-1.862 0.139,-1.705 -0.252,-1.548 -0.315,-0.785 0,0"
             style="fill:#1d1d1b;fill-opacity:1;fill-rule:nonzero;stroke:none"
             id="path96"
             inkscape:connector-curvature="0" /></g><g
           id="g98"
           transform="translate(16.2427,41.6602)"><path
             d="M 0,0 C 0.315,0.782 0.89,1.29 1.282,1.132 1.673,0.975 1.736,0.21 1.421,-0.572 1.105,-1.356 0.531,-1.862 0.139,-1.705 -0.252,-1.548 -0.315,-0.785 0,0 Z"
             style="fill:none;stroke:#ffffff;stroke-width:0.125;stroke-linecap:butt;stroke-linejoin:miter;stroke-miterlimit:10;stroke-dasharray:none;stroke-opacity:1"
             id="path100"
             inkscape:connector-curvature="0" /></g><g
           id="g102"
           transform="translate(7.397,45.2217)"><path
             d="M 0,0 C 1.317,-0.53 12.634,1.025 13.165,2.338"
             style="fill:none;stroke:#1d1d1b;stroke-width:1;stroke-linecap:round;stroke-linejoin:miter;stroke-miterlimit:4;stroke-dasharray:none;stroke-opacity:1"
             id="path104"
             inkscape:connector-curvature="0" /></g><g
           id="g106"
           transform="translate(7.397,45.2217)"><path
             d="M 0,0 C 1.317,-0.53 8.399,-9.492 7.872,-10.809"
             style="fill:none;stroke:#1d1d1b;stroke-width:1;stroke-linecap:round;stroke-linejoin:miter;stroke-miterlimit:4;stroke-dasharray:none;stroke-opacity:1"
             id="path108"
             inkscape:connector-curvature="0" /></g><g
           id="g110"
           transform="translate(16.876,45.9883)"><path
             d="M 0,0 C 0,0 2.098,-2.373 1.039,-5.002 -0.019,-7.631 -3.176,-7.889 -3.176,-7.889"
             style="fill:none;stroke:#1d1d1b;stroke-width:1;stroke-linecap:round;stroke-linejoin:miter;stroke-miterlimit:4;stroke-dasharray:none;stroke-opacity:1"
             id="path112"
             inkscape:connector-curvature="0" /></g><g
           id="g114"><g
             id="g116" /><g
             id="g122"><g
               clip-path="url(#clipPath118)"
               id="g124"
               style="opacity:0.25"><g
                 transform="translate(53.2192,20.6348)"
                 id="g126"><path
                   d="m 0,0 c 1.242,2.152 -6.885,9.166 -13.343,12.892 -6.458,3.725 -8.803,2.752 -10.045,0.599 -1.241,-2.153 -0.911,-4.67 5.548,-8.395 C -11.382,1.37 -1.242,-2.153 0,0"
                   style="fill:#006633;fill-opacity:1;fill-rule:nonzero;stroke:none"
                   id="path128"
                   inkscape:connector-curvature="0" /></g></g></g></g><g
           id="g130"
           transform="translate(53.2192,20.6348)"><path
             d="m 0,0 c 1.242,2.152 -6.885,9.166 -13.343,12.892 -6.458,3.725 -8.803,2.752 -10.045,0.599 -1.241,-2.153 -0.911,-4.67 5.548,-8.395 C -11.382,1.37 -1.242,-2.153 0,0 Z"
             style="fill:none;stroke:#006633;stroke-width:0.75;stroke-linecap:round;stroke-linejoin:round;stroke-miterlimit:10;stroke-dasharray:none;stroke-opacity:1"
             id="path132"
             inkscape:connector-curvature="0" /></g></g></g><g
       id="g134"><g
         id="g136"
         clip-path="url(#clipPath138)"><g
           id="g142"><g
             id="g144" /><g
             id="g150"><g
               clip-path="url(#clipPath146)"
               id="g152"
               style="opacity:0.25"><g
                 transform="translate(51.3608,18.5381)"
                 id="g154"><path
                   d="m 0,0 c -3.951,0.001 -11.746,3.086 -16.702,5.945 -3.881,2.24 -8.735,5.749 -6.075,10.363 1.006,1.743 2.507,2.627 4.463,2.627 1.931,0 4.4,-0.883 7.549,-2.7 3.304,-1.905 7.066,-4.674 9.818,-7.226 C 2.812,5.524 4.099,3.1 3.106,1.377 2.579,0.464 1.534,0 0,0"
                   style="fill:#be1622;fill-opacity:1;fill-rule:nonzero;stroke:none"
                   id="path156"
                   inkscape:connector-curvature="0" /></g></g></g></g><g
           id="g158"
           transform="translate(51.3608,18.5381)"><path
             d="m 0,0 c -3.951,0.001 -11.746,3.086 -16.702,5.945 -3.881,2.24 -8.735,5.749 -6.075,10.363 1.006,1.743 2.507,2.627 4.463,2.627 1.931,0 4.4,-0.883 7.549,-2.7 3.304,-1.905 7.066,-4.674 9.818,-7.226 C 2.812,5.524 4.099,3.1 3.106,1.377 2.579,0.464 1.534,0 0,0 Z"
             style="fill:none;stroke:#be1622;stroke-width:0.5;stroke-linecap:round;stroke-linejoin:round;stroke-miterlimit:10;stroke-dasharray:none;stroke-opacity:1"
             id="path160"
             inkscape:connector-curvature="0" /></g></g></g><g
       id="g162"><g
         id="g164"
         clip-path="url(#clipPath166)"><g
           id="g170"
           transform="translate(34.7856,31.3633)"><path
             d="M 0,0 1.373,-0.604"
             style="fill:none;stroke:#be1622;stroke-width:0.5;stroke-linecap:round;stroke-linejoin:miter;stroke-miterlimit:10;stroke-dasharray:none;stroke-opacity:1"
             id="path172"
             inkscape:connector-curvature="0" /></g><g
           id="g174"
           transform="translate(38.9067,29.5488)"><path
             d="M 0,0 37.097,-16.339"
             style="fill:none;stroke:#be1622;stroke-width:0.5;stroke-linecap:round;stroke-linejoin:miter;stroke-miterlimit:10;stroke-dasharray:3.003, 3.003;stroke-dashoffset:0;stroke-opacity:1"
             id="path176"
             inkscape:connector-curvature="0" /></g><g
           id="g178"
           transform="translate(77.3774,12.6045)"><path
             d="M 0,0 1.373,-0.604"
             style="fill:none;stroke:#be1622;stroke-width:0.5;stroke-linecap:round;stroke-linejoin:miter;stroke-miterlimit:10;stroke-dasharray:none;stroke-opacity:1"
             id="path180"
             inkscape:connector-curvature="0" /></g><g
           id="g182"
           transform="translate(78.75,48.5)"><path
             d="M 0,0 -1.397,-0.545"
             style="fill:none;stroke:#be1622;stroke-width:0.5;stroke-linecap:round;stroke-linejoin:miter;stroke-miterlimit:10;stroke-dasharray:none;stroke-opacity:1"
             id="path184"
             inkscape:connector-curvature="0" /></g><g
           id="g186"
           transform="translate(74.6079,46.8857)"><path
             d="M 0,0 -37.052,-14.442"
             style="fill:none;stroke:#be1622;stroke-width:0.5;stroke-linecap:round;stroke-linejoin:miter;stroke-miterlimit:10;stroke-dasharray:2.946, 2.946;stroke-dashoffset:0;stroke-opacity:1"
             id="path188"
             inkscape:connector-curvature="0" /></g><g
           id="g190"
           transform="translate(36.1836,31.9082)"><path
             d="M 0,0 -1.398,-0.545"
             style="fill:none;stroke:#be1622;stroke-width:0.5;stroke-linecap:round;stroke-linejoin:miter;stroke-miterlimit:10;stroke-dasharray:none;stroke-opacity:1"
             id="path192"
             inkscape:connector-curvature="0" /></g><g
           id="g194"
           transform="translate(61.2754,19.9043)"><path
             d="M 0,0 C 2.569,6.904 2.862,14.481 0.304,21.68"
             style="fill:none;stroke:#be1622;stroke-width:0.75;stroke-linecap:butt;stroke-linejoin:round;stroke-miterlimit:10;stroke-dasharray:none;stroke-opacity:1"
             id="path196"
             inkscape:connector-curvature="0" /></g><path
           d="M 27,4.5 76.5,4.5 76.5,2 27,2 27,4.5 Z"
           style="fill:#ca9e67;fill-opacity:1;fill-rule:nonzero;stroke:#1d1d1b;stroke-width:0.75;stroke-linecap:butt;stroke-linejoin:miter;stroke-miterlimit:10;stroke-dasharray:none;stroke-opacity:1"
           id="path198"
           inkscape:connector-curvature="0" /></g></g><g
       id="attenuation"
       style="opacity:0"><g
         transform="translate(77.625,40.2842)"
         id="g300"
         style=""><path
           sodipodi:nodetypes="cc"
           inkscape:connector-curvature="0"
           id="path302"
           style="fill:none;stroke:#f39200;stroke-width:0.5;stroke-linecap:round;stroke-linejoin:miter;stroke-miterlimit:10;stroke-dasharray:0.1, 1;stroke-dashoffset:0;stroke-opacity:1"
           d="M 0,-10.04282 -42.839,-8.921" /></g><g
         transform="translate(0,-10.04282)"
         id="g12499"
         style=""><g
           id="g304"
           transform="translate(77.625,38.5342)"
           style=""><path
             d="M 0,0 C -0.965,0 -1.75,0.786 -1.75,1.752 -1.75,2.716 -0.965,3.5 0,3.5 0.965,3.5 1.75,2.716 1.75,1.752 1.75,0.786 0.965,0 0,0"
             style="fill:#fcea0f;fill-opacity:1;fill-rule:nonzero;stroke:none"
             id="path306"
             inkscape:connector-curvature="0" /></g><g
           id="g308"
           transform="translate(77.625,42.5342)"
           style=""><path
             d="m 0,0 c -1.242,0 -2.25,-1.008 -2.25,-2.248 0,-1.246 1.008,-2.252 2.25,-2.252 1.242,0 2.25,1.006 2.25,2.252 C 2.25,-1.008 1.242,0 0,0 M 0,-1 C 0.689,-1 1.25,-1.561 1.25,-2.248 1.25,-2.938 0.689,-3.5 0,-3.5 c -0.689,0 -1.25,0.562 -1.25,1.252 C -1.25,-1.561 -0.689,-1 0,-1"
             style="fill:#f39200;fill-opacity:1;fill-rule:nonzero;stroke:none"
             id="path310"
             inkscape:connector-curvature="0" /></g></g></g><g
       id="g312"
       transform="translate(34.7856,29.6133)"><path
         d="M 0,0 C -0.965,0 -1.75,0.786 -1.75,1.752 -1.75,2.716 -0.965,3.5 0,3.5 0.965,3.5 1.75,2.716 1.75,1.752 1.75,0.786 0.965,0 0,0"
         style="fill:#ffffff;fill-opacity:1;fill-rule:nonzero;stroke:none"
         id="path314"
         inkscape:connector-curvature="0" /></g><g
       id="g316"
       transform="translate(34.7856,33.6133)"><path
         d="m 0,0 c -1.242,0 -2.25,-1.008 -2.25,-2.248 0,-1.246 1.008,-2.252 2.25,-2.252 1.242,0 2.25,1.006 2.25,2.252 C 2.25,-1.008 1.242,0 0,0 M 0,-1 C 0.689,-1 1.25,-1.56 1.25,-2.248 1.25,-2.938 0.689,-3.5 0,-3.5 c -0.689,0 -1.25,0.562 -1.25,1.252 C -1.25,-1.56 -0.689,-1 0,-1"
         style="fill:#008d36;fill-opacity:1;fill-rule:nonzero;stroke:none"
         id="path318"
         inkscape:connector-curvature="0" /></g></g></svg>