<?xml version="1.0" encoding="utf-8" standalone="no"?>
<!DOCTYPE svg PUBLIC "-//W3C//DTD SVG 1.1//EN"
  "http://www.w3.org/Graphics/SVG/1.1/DTD/svg11.dtd">
<!-- Created with matplotlib (https://matplotlib.org/) -->
<svg height="345.6pt" version="1.1" viewBox="0 0 460.8 345.6" width="460.8pt" xmlns="http://www.w3.org/2000/svg" xmlns:xlink="http://www.w3.org/1999/xlink">
 <defs>
  <style type="text/css">
*{stroke-linecap:butt;stroke-linejoin:round;}
  </style>
 </defs>
 <g id="figure_1">
  <g id="patch_1">
   <path d="M 0 345.6 
L 460.8 345.6 
L 460.8 0 
L 0 0 
z
" style="fill:#ffffff;"/>
  </g>
  <g id="axes_1">
   <g id="patch_2">
    <path d="M 57.6 307.584 
L 414.72 307.584 
L 414.72 41.472 
L 57.6 41.472 
z
" style="fill:#ffffff;"/>
   </g>
   <g id="matplotlib.axis_1">
    <g id="xtick_1">
     <g id="line2d_1">
      <path clip-path="url(#p93b5607710)" d="M 176.540174 307.584 
L 176.540174 41.472 
" style="fill:none;stroke:#b0b0b0;stroke-linecap:square;stroke-width:0.8;"/>
     </g>
     <g id="line2d_2">
      <defs>
       <path d="M 0 0 
L 0 3.5 
" id="m7b24ae3b74" style="stroke:#000000;stroke-width:0.8;"/>
      </defs>
      <g>
       <use style="stroke:#000000;stroke-width:0.8;" x="176.540174" xlink:href="#m7b24ae3b74" y="307.584"/>
      </g>
     </g>
     <g id="text_1">
      <!-- $\mathdefault{10^{0}}$ -->
      <defs>
       <path d="M 28.796875 12.203125 
L 28.796875 46.90625 
C 28.796875 52.90625 28.90625 59 29.09375 60.296875 
C 29.09375 60.703125 28.796875 60.796875 28.5 60.796875 
C 22.90625 57.296875 17.703125 54.90625 8.90625 50.796875 
C 9 49.59375 9.5 48.703125 10.40625 48.09375 
C 14.90625 50 17.203125 50.59375 19.09375 50.59375 
C 20.703125 50.59375 21.09375 48.203125 21.09375 44.796875 
L 21.09375 12.203125 
C 21.09375 3.90625 18.40625 3.40625 11.40625 3.09375 
C 10.796875 2.5 10.796875 0.40625 11.40625 -0.203125 
C 16.296875 -0.09375 19.796875 0 25.296875 0 
C 30 0 32.5 -0.09375 37.5 -0.203125 
C 38.09375 0.40625 38.09375 2.5 37.5 3.09375 
C 30.5 3.40625 28.796875 3.90625 28.796875 12.203125 
z
" id="LinLibertineO-49"/>
       <path d="M 23.203125 57.5 
C 24.90625 57.5 26.5 56.90625 27.703125 55.796875 
C 30.796875 53.203125 33.5 45.59375 33.5 32.203125 
C 33.5 23 33.203125 16.703125 31.796875 11.59375 
C 29.59375 3.40625 24.703125 2.5 22.90625 2.5 
C 13.59375 2.5 12.59375 19.59375 12.59375 28.296875 
C 12.59375 52.90625 18.703125 57.5 23.203125 57.5 
z
M 22.796875 -1 
C 30.5 -1 42.203125 6.796875 42.203125 30.296875 
C 42.203125 40.203125 39.796875 48.703125 35.40625 54.5 
C 32.703125 57.90625 28.59375 61 23.203125 61 
C 13.296875 61 3.90625 49.203125 3.90625 29.40625 
C 3.90625 18.703125 7.09375 8.59375 12.59375 3.203125 
C 15.5 0.296875 18.90625 -1 22.796875 -1 
z
" id="LinLibertineO-48"/>
      </defs>
      <g transform="translate(168.155174 323.657594)scale(0.13 -0.13)">
       <use transform="translate(0 0.134375)" xlink:href="#LinLibertineO-49"/>
       <use transform="translate(46.499985 0.134375)" xlink:href="#LinLibertineO-48"/>
       <use transform="translate(93.75411 30.3)scale(0.7)" xlink:href="#LinLibertineO-48"/>
      </g>
     </g>
    </g>
    <g id="xtick_2">
     <g id="line2d_3">
      <path clip-path="url(#p93b5607710)" d="M 347.13355 307.584 
L 347.13355 41.472 
" style="fill:none;stroke:#b0b0b0;stroke-linecap:square;stroke-width:0.8;"/>
     </g>
     <g id="line2d_4">
      <g>
       <use style="stroke:#000000;stroke-width:0.8;" x="347.13355" xlink:href="#m7b24ae3b74" y="307.584"/>
      </g>
     </g>
     <g id="text_2">
      <!-- $\mathdefault{10^{1}}$ -->
      <g transform="translate(338.74855 323.657594)scale(0.13 -0.13)">
       <use transform="translate(0 0.276563)" xlink:href="#LinLibertineO-49"/>
       <use transform="translate(46.499985 0.276563)" xlink:href="#LinLibertineO-48"/>
       <use transform="translate(93.75411 30.442188)scale(0.7)" xlink:href="#LinLibertineO-49"/>
      </g>
     </g>
    </g>
    <g id="xtick_3">
     <g id="line2d_5">
      <defs>
       <path d="M 0 0 
L 0 2 
" id="me057664227" style="stroke:#000000;stroke-width:0.6;"/>
      </defs>
      <g>
       <use style="stroke:#000000;stroke-width:0.6;" x="87.340523" xlink:href="#me057664227" y="307.584"/>
      </g>
     </g>
    </g>
    <g id="xtick_4">
     <g id="line2d_6">
      <g>
       <use style="stroke:#000000;stroke-width:0.6;" x="108.654244" xlink:href="#me057664227" y="307.584"/>
      </g>
     </g>
    </g>
    <g id="xtick_5">
     <g id="line2d_7">
      <g>
       <use style="stroke:#000000;stroke-width:0.6;" x="125.18645" xlink:href="#me057664227" y="307.584"/>
      </g>
     </g>
    </g>
    <g id="xtick_6">
     <g id="line2d_8">
      <g>
       <use style="stroke:#000000;stroke-width:0.6;" x="138.694247" xlink:href="#me057664227" y="307.584"/>
      </g>
     </g>
    </g>
    <g id="xtick_7">
     <g id="line2d_9">
      <g>
       <use style="stroke:#000000;stroke-width:0.6;" x="150.114925" xlink:href="#me057664227" y="307.584"/>
      </g>
     </g>
    </g>
    <g id="xtick_8">
     <g id="line2d_10">
      <g>
       <use style="stroke:#000000;stroke-width:0.6;" x="160.007967" xlink:href="#me057664227" y="307.584"/>
      </g>
     </g>
    </g>
    <g id="xtick_9">
     <g id="line2d_11">
      <g>
       <use style="stroke:#000000;stroke-width:0.6;" x="168.734249" xlink:href="#me057664227" y="307.584"/>
      </g>
     </g>
    </g>
    <g id="xtick_10">
     <g id="line2d_12">
      <g>
       <use style="stroke:#000000;stroke-width:0.6;" x="227.893897" xlink:href="#me057664227" y="307.584"/>
      </g>
     </g>
    </g>
    <g id="xtick_11">
     <g id="line2d_13">
      <g>
       <use style="stroke:#000000;stroke-width:0.6;" x="257.933899" xlink:href="#me057664227" y="307.584"/>
      </g>
     </g>
    </g>
    <g id="xtick_12">
     <g id="line2d_14">
      <g>
       <use style="stroke:#000000;stroke-width:0.6;" x="279.24762" xlink:href="#me057664227" y="307.584"/>
      </g>
     </g>
    </g>
    <g id="xtick_13">
     <g id="line2d_15">
      <g>
       <use style="stroke:#000000;stroke-width:0.6;" x="295.779826" xlink:href="#me057664227" y="307.584"/>
      </g>
     </g>
    </g>
    <g id="xtick_14">
     <g id="line2d_16">
      <g>
       <use style="stroke:#000000;stroke-width:0.6;" x="309.287622" xlink:href="#me057664227" y="307.584"/>
      </g>
     </g>
    </g>
    <g id="xtick_15">
     <g id="line2d_17">
      <g>
       <use style="stroke:#000000;stroke-width:0.6;" x="320.708301" xlink:href="#me057664227" y="307.584"/>
      </g>
     </g>
    </g>
    <g id="xtick_16">
     <g id="line2d_18">
      <g>
       <use style="stroke:#000000;stroke-width:0.6;" x="330.601343" xlink:href="#me057664227" y="307.584"/>
      </g>
     </g>
    </g>
    <g id="xtick_17">
     <g id="line2d_19">
      <g>
       <use style="stroke:#000000;stroke-width:0.6;" x="339.327625" xlink:href="#me057664227" y="307.584"/>
      </g>
     </g>
    </g>
    <g id="xtick_18">
     <g id="line2d_20">
      <g>
       <use style="stroke:#000000;stroke-width:0.6;" x="398.487273" xlink:href="#me057664227" y="307.584"/>
      </g>
     </g>
    </g>
    <g id="text_3">
     <!-- Blur standard deviation -->
     <defs>
      <path d="M 19.09375 55 
C 19.09375 60.296875 19.09375 61.296875 27.796875 61.296875 
C 33.40625 61.296875 40.703125 58.296875 40.703125 48.09375 
C 40.703125 39.59375 34.796875 36.59375 26.5 36.59375 
L 19.09375 36.59375 
z
M 19.09375 33.203125 
L 26 33.203125 
C 39.703125 33.203125 45.40625 25.5 45.40625 16.5 
C 45.40625 9.203125 42.59375 3.09375 27.40625 3.09375 
C 20.40625 3.09375 19.09375 5.703125 19.09375 11.796875 
z
M 14.796875 64.5 
C 11.203125 64.5 5.796875 64.59375 1.90625 64.703125 
C 1.296875 64.09375 1.296875 62 1.90625 61.40625 
C 8.90625 61.09375 10.59375 60.59375 10.59375 52.296875 
L 10.59375 12.203125 
C 10.59375 3.90625 8.90625 3.40625 1.90625 3.09375 
C 1.296875 2.5 1.296875 0.40625 1.90625 -0.203125 
C 5.796875 -0.09375 11.09375 0 14.90625 0 
C 18.40625 0 21.09375 -0.203125 29.5 -0.203125 
C 49.40625 -0.203125 54.703125 9.796875 54.703125 18.40625 
C 54.703125 28 48 33.5 39.296875 36 
L 39.296875 36.203125 
C 44.296875 38.703125 48.796875 43.796875 48.796875 49.296875 
C 48.796875 56 45.90625 64.703125 27.296875 64.703125 
C 23.796875 64.703125 18.40625 64.5 14.796875 64.5 
z
" id="LinLibertineO-66"/>
      <path d="M 9.5 12.203125 
C 9.5 3.90625 8.40625 3.40625 2.296875 3.09375 
C 1.703125 2.5 1.703125 0.40625 2.296875 -0.203125 
C 5.796875 -0.09375 9.5 0 13.5 0 
C 17.5 0 21.296875 -0.09375 24.59375 -0.203125 
C 25.203125 0.40625 25.203125 2.5 24.59375 3.09375 
C 18.5 3.40625 17.40625 3.90625 17.40625 12.203125 
L 17.40625 58.296875 
C 17.40625 64.796875 17.796875 68.796875 17.796875 68.796875 
C 17.796875 69.5 17.40625 69.796875 16.5 69.796875 
C 14 68.796875 6.5 67.40625 2.5 67.09375 
C 2.296875 66.296875 2.5 64.703125 3.09375 64.09375 
C 8.90625 63.703125 9.5 63.40625 9.5 55.90625 
z
" id="LinLibertineO-108"/>
      <path d="M 21.703125 -1 
C 25.59375 -1 30.296875 1 35.203125 5 
C 35.703125 5.40625 36.59375 5.59375 36.703125 4.90625 
C 36.90625 2.296875 37.796875 -1 37.796875 -1 
C 38.59375 -1.296875 39 -1.296875 39.703125 -1 
C 41.90625 0.796875 45.40625 2.296875 51.5 3 
C 52.09375 3.59375 52.09375 5.09375 51.5 5.703125 
C 45.09375 6.203125 44.203125 8.09375 44.203125 13 
L 44.203125 32.203125 
C 44.203125 35.203125 44.59375 42.5 44.59375 42.5 
C 44.59375 42.796875 44.296875 43.09375 43.796875 43.09375 
C 43.296875 43 41.796875 42.90625 40.296875 42.90625 
C 37.09375 42.90625 33.5 43 30.09375 43.09375 
C 29.5 42.5 29.5 40.40625 30.09375 39.796875 
C 35 39.5 36.296875 38.296875 36.296875 31.703125 
L 36.296875 12.40625 
C 36.296875 10.5 36.09375 9.703125 34.703125 8.5 
C 31 5.296875 27.203125 3.703125 24.703125 3.703125 
C 21.703125 3.703125 16.703125 5.09375 16.703125 14 
L 16.703125 32.203125 
C 16.703125 35.203125 17.09375 42.5 17.09375 42.5 
C 17.09375 42.796875 16.796875 43.09375 16.296875 43.09375 
C 15.796875 43 14.296875 42.90625 12.796875 42.90625 
C 9.59375 42.90625 6 43 2.59375 43.09375 
C 2 42.5 2 40.40625 2.59375 39.796875 
C 7.40625 39.40625 8.796875 38.296875 8.796875 31.796875 
L 8.796875 12.59375 
C 8.796875 5.703125 11.796875 -1 21.703125 -1 
z
" id="LinLibertineO-117"/>
      <path d="M 17.59375 35.796875 
C 17.40625 39.796875 17.203125 42.296875 16.796875 43.40625 
C 16.5 43.796875 16.40625 44.203125 15.59375 44.203125 
C 12.796875 43.09375 10.203125 42.203125 3.296875 41.296875 
C 3.09375 40.703125 3.296875 39.09375 3.5 38.5 
C 8.90625 38 10 37.5 10 31.703125 
L 10 12.203125 
C 10 3.90625 8.796875 3.5 2.59375 3.09375 
C 2 2.5 2 0.40625 2.59375 -0.203125 
C 6.09375 -0.09375 10 0 14 0 
C 18 0 22.59375 -0.09375 26.09375 -0.203125 
C 26.703125 0.40625 26.703125 2.5 26.09375 3.09375 
C 19.09375 3.59375 17.90625 3.90625 17.90625 12.203125 
L 17.90625 26.09375 
C 17.90625 28.703125 19.09375 31 20.296875 32.796875 
C 21.40625 34.40625 23.703125 37.703125 24.90625 37.703125 
C 25.796875 37.703125 26.703125 37.40625 27.40625 36.40625 
C 28.203125 35.40625 29.296875 34.09375 31.09375 34.09375 
C 33.5 34.09375 35.796875 36.59375 35.796875 39.09375 
C 35.796875 41 34 43.90625 29.796875 43.90625 
C 25.09375 43.90625 21 39.5 18.703125 35.59375 
C 18.09375 34.5 17.59375 35.296875 17.59375 35.796875 
z
" id="LinLibertineO-114"/>
      <path id="LinLibertineO-32"/>
      <path d="M 4.796875 13.796875 
C 5.203125 8.90625 5.5 4.203125 5.5 0 
C 6.5 0.203125 7.5 0.296875 8 0.296875 
C 8.703125 0.296875 9.296875 0.296875 10 0.09375 
C 12.703125 -0.59375 15.40625 -1 19.09375 -1 
C 24.703125 -1 35 1.703125 35 11.59375 
C 35 18.40625 30.09375 22.40625 23.296875 24.90625 
C 17.203125 27.09375 13.296875 28.703125 13.296875 34.203125 
C 13.296875 38.296875 16.90625 40.59375 20.296875 40.59375 
C 22.5 40.59375 28.296875 39.796875 29.59375 31.296875 
C 30.203125 30.703125 32.203125 30.796875 32.796875 31.40625 
C 33.09375 35 33.296875 38.703125 33.40625 42 
C 30.296875 42.5 25.5 43.90625 20.296875 43.90625 
C 12.90625 43.90625 6.203125 39.09375 6.203125 32.703125 
C 6.203125 25.40625 9.5 22.296875 17.203125 19.09375 
C 25.5 15.703125 27.40625 13.59375 27.40625 9.296875 
C 27.40625 4.40625 22.59375 2.296875 18.90625 2.296875 
C 15 2.296875 12.796875 3.59375 11.796875 4.703125 
C 9.59375 7 8.5 11.40625 7.90625 13.90625 
C 7.296875 14.5 5.40625 14.40625 4.796875 13.796875 
z
" id="LinLibertineO-115"/>
      <path d="M 4.296875 42.90625 
C 2.90625 42.90625 2.5 41.703125 2.5 40.90625 
L 2.5 39.59375 
C 2.5 39.09375 2.59375 39 3 39 
L 8.90625 39 
L 8.90625 8.90625 
C 8.90625 1.796875 12 -1 16.59375 -1 
C 21.203125 -1 26.203125 1.203125 30.09375 5.59375 
C 29.90625 6.59375 29.296875 7.203125 28.296875 7.296875 
C 25.703125 5.296875 22.703125 4.5 20.09375 4.5 
C 17.40625 4.5 16.796875 7.5 16.796875 13.703125 
L 16.796875 39 
L 27.203125 39 
C 28.203125 39 29.59375 39.40625 29.59375 40.296875 
L 29.59375 42.296875 
C 29.59375 42.703125 29.296875 42.90625 28.796875 42.90625 
L 16.796875 42.90625 
L 16.796875 46.796875 
C 16.796875 53.296875 17.203125 57.296875 17.203125 57.296875 
C 17.203125 57.90625 16.90625 58.09375 16.40625 58.09375 
C 15.90625 58.09375 15.09375 57.703125 14.203125 57.203125 
C 13 56.59375 12 56.203125 10.796875 55.796875 
C 9.59375 55.5 8.59375 55.09375 8.59375 54.5 
C 8.59375 53.296875 8.90625 54 8.90625 42.90625 
z
" id="LinLibertineO-116"/>
      <path d="M 29.296875 23.296875 
L 29.296875 10.09375 
C 29.296875 8.796875 28.703125 8.09375 27.90625 7.5 
C 25.296875 5.40625 21.90625 3.09375 19.09375 3.09375 
C 14.09375 3.09375 11.90625 7.09375 11.90625 10.203125 
C 11.90625 14.703125 14 19.296875 21.40625 21.203125 
z
M 29.296875 4.796875 
C 29.90625 1.703125 30.90625 -1 36 -1 
C 39.796875 -1 43.40625 0.703125 45.5 2.703125 
C 45.296875 3.90625 44.90625 4.703125 43.796875 5.40625 
C 43 4.703125 41.296875 3.796875 40.09375 3.796875 
C 37.203125 3.796875 37.09375 7.703125 37.09375 12.296875 
L 37.09375 27 
C 37.09375 41.203125 29.296875 43.90625 22 43.90625 
C 13.796875 43.90625 5.5 38.5 5.5 32.796875 
C 5.5 30.40625 6.703125 29.203125 9 29.203125 
C 11.90625 29.203125 13.703125 31.296875 13.703125 32.59375 
C 13.703125 33.296875 13.59375 34 13.40625 34.40625 
C 13.296875 34.703125 13.203125 35.296875 13.203125 36.40625 
C 13.203125 39.5 17.40625 40.59375 21.203125 40.59375 
C 24.59375 40.59375 29.296875 38.90625 29.296875 27.59375 
C 29.296875 26.90625 29 26.5 28.703125 26.40625 
L 20.09375 24.296875 
C 10.5 21.90625 3.59375 16.59375 3.59375 9.796875 
C 3.59375 1.59375 9.203125 -1 16.203125 -1 
C 19.59375 -1 22.703125 -0.203125 27.09375 3.203125 
L 29.09375 4.796875 
z
" id="LinLibertineO-97"/>
      <path d="M 18.40625 35.796875 
C 17.703125 35.09375 17.203125 34.796875 17.203125 35.796875 
C 17.09375 38.5 16.796875 42.296875 16.40625 43.40625 
C 16.09375 43.796875 16 44.203125 15.203125 44.203125 
C 12.40625 43.09375 9.796875 42.203125 2.90625 41.296875 
C 2.703125 40.703125 2.90625 39.09375 3.09375 38.5 
C 8.5 38 9.59375 37.5 9.59375 31.703125 
L 9.59375 12.203125 
C 9.59375 4 8.59375 3.59375 2.59375 3.09375 
C 2 2.5 2 0.40625 2.59375 -0.203125 
C 5.59375 -0.09375 9.59375 0 13.59375 0 
C 17.59375 0 20.59375 -0.09375 23.59375 -0.203125 
C 24.203125 0.40625 24.203125 2.5 23.59375 3.09375 
C 18.5 3.59375 17.5 4 17.5 12.203125 
L 17.5 28.59375 
C 17.5 30.703125 18.40625 31.90625 19.203125 32.796875 
C 23 36.5 27.5 38.703125 31.40625 38.703125 
C 33.40625 38.703125 35.5 37.40625 36.703125 35.09375 
C 37.703125 33.09375 37.90625 30.40625 37.90625 27.40625 
L 37.90625 12.203125 
C 37.90625 4 36.90625 3.59375 31.703125 3.09375 
C 31.203125 2.5 31.203125 0.40625 31.703125 -0.203125 
C 34.703125 -0.09375 37.90625 0 41.90625 0 
C 45.90625 0 49.5 -0.09375 52.5 -0.203125 
C 53 0.40625 53 2.5 52.5 3.09375 
C 46.90625 3.59375 45.796875 4 45.796875 12.203125 
L 45.796875 27.09375 
C 45.796875 32.59375 45.40625 37.40625 43.09375 40.5 
C 41.40625 42.703125 38.296875 43.90625 34.796875 43.90625 
C 29.90625 43.90625 24.296875 42.59375 18.40625 35.796875 
z
" id="LinLibertineO-110"/>
      <path d="M 34.5 12.40625 
C 34.5 10.5 34.296875 9.703125 32.90625 8.5 
C 29.203125 5.296875 26 3.703125 23.5 3.703125 
C 18.09375 3.703125 12.5 9.59375 12.5 22.09375 
C 12.5 29.296875 13.90625 33.296875 15.40625 35.40625 
C 18.5 40.09375 22.703125 40.40625 24.703125 40.40625 
C 28.296875 40.40625 30.796875 39.09375 32.796875 36.796875 
C 34.203125 35.203125 34.5 34.5 34.5 31.40625 
z
M 33.40625 5 
C 33.796875 5.40625 34.796875 5.59375 34.90625 4.90625 
C 35.09375 2.40625 36 -1 36 -1 
C 36.796875 -1.296875 37.296875 -1.296875 37.90625 -1 
C 40.09375 0.796875 43.59375 2.296875 49.703125 3 
C 50.296875 3.59375 50.296875 5.09375 49.703125 5.703125 
C 43.296875 6.203125 42.40625 8.09375 42.40625 13 
L 42.40625 58.296875 
C 42.40625 64.796875 42.796875 68.796875 42.796875 68.796875 
C 42.796875 69.5 42.40625 69.796875 41.5 69.796875 
C 39 68.796875 31.5 67.40625 27.5 67.09375 
C 27.296875 66.296875 27.5 64.703125 28.09375 64.09375 
C 33.296875 63.796875 34.5 64.296875 34.5 55.90625 
L 34.5 43.09375 
C 34.5 42.40625 34.296875 42.203125 33.59375 42.203125 
C 33.203125 42.203125 29.09375 43.90625 25.796875 43.90625 
C 19.203125 43.90625 14.796875 41.703125 10.796875 37.90625 
C 6.5 33.59375 3.90625 27.703125 3.90625 20.296875 
C 3.90625 8 10.09375 -1 20.90625 -1 
C 24.796875 -1 28.5 1 33.40625 5 
z
" id="LinLibertineO-100"/>
      <path d="M 12.40625 28.203125 
C 14.296875 39.5 21.296875 40.40625 23.703125 40.40625 
C 27.5 40.40625 32 38.296875 32 29.90625 
C 32 29 31.59375 28.5 30.5 28.5 
z
M 38.59375 9.296875 
C 34.90625 5.5 32 3.90625 26.203125 3.90625 
C 22.59375 3.90625 18.40625 6 15.296875 11.09375 
C 13.296875 14.40625 12.09375 19 12.09375 24.796875 
L 38.703125 24.59375 
C 39.90625 24.59375 40.59375 25.203125 40.59375 26.296875 
C 40.59375 34.703125 37.59375 43.703125 23.703125 43.703125 
C 15 43.703125 3.703125 35.40625 3.703125 20.203125 
C 3.703125 14.59375 5.09375 9.203125 8.40625 5.40625 
C 11.796875 1.40625 16.5 -1 23.703125 -1 
C 31.296875 -1 36.703125 2.5 40.703125 7.703125 
C 40.40625 8.703125 39.796875 9.203125 38.59375 9.296875 
z
" id="LinLibertineO-101"/>
      <path d="M 32.5 39.796875 
C 37.90625 39.40625 38.40625 38.09375 36.296875 33.09375 
L 28.296875 13.5 
C 26.59375 9.5 26.09375 9.59375 24.59375 13.796875 
L 17.296875 33.09375 
C 15.59375 37.90625 15.09375 39.09375 20.5 39.796875 
C 21.09375 40.40625 21.09375 42.5 20.5 43.09375 
C 17.203125 43 13.703125 42.90625 10.40625 42.90625 
C 7.09375 42.90625 4.09375 43 1.09375 43.09375 
C 0.5 42.5 0.5 40.40625 1.09375 39.796875 
C 6.40625 39.09375 7.09375 37.5 9.09375 32.5 
L 21.90625 0.90625 
C 22.5 -0.59375 23.09375 -1.203125 24.40625 -1.203125 
C 25.40625 -1.203125 26 -0.59375 26.796875 1.09375 
L 40.09375 32.40625 
C 42 36.703125 43.09375 39.296875 48.703125 39.796875 
C 49.296875 40.40625 49.296875 42.5 48.703125 43.09375 
C 46.703125 43 44.296875 42.90625 41.703125 42.90625 
C 38.40625 42.90625 35 43 32.5 43.09375 
C 31.90625 42.5 31.90625 40.40625 32.5 39.796875 
z
" id="LinLibertineO-118"/>
      <path d="M 9 59.90625 
C 9 57.296875 11.40625 54.703125 13.796875 54.703125 
C 16.59375 54.703125 19 57.296875 19 59.5 
C 19 61.90625 16.90625 64.703125 14.203125 64.703125 
C 11.796875 64.703125 9 62.296875 9 59.90625 
z
M 18.09375 12.203125 
L 18.09375 32.09375 
C 18.09375 37.09375 18.5 43.5 18.5 43.5 
C 18.5 43.90625 18 44.203125 17.203125 44.203125 
C 14.296875 43.09375 10.40625 42.203125 3.5 41.296875 
C 3.296875 40.703125 3.5 39.09375 3.703125 38.5 
C 9.09375 37.90625 10.203125 37.40625 10.203125 31.703125 
L 10.203125 12.203125 
C 10.203125 3.90625 9.09375 3.59375 3 3.09375 
C 2.40625 2.5 2.40625 0.40625 3 -0.203125 
C 6.296875 -0.09375 10.203125 0 14.203125 0 
C 18.203125 0 22 -0.09375 25.296875 -0.203125 
C 25.90625 0.40625 25.90625 2.5 25.296875 3.09375 
C 19.203125 3.5 18.09375 3.90625 18.09375 12.203125 
z
" id="LinLibertineO-105"/>
      <path d="M 4.09375 20.5 
C 4.09375 10.296875 10.90625 -1 25.09375 -1 
C 31.5 -1 36.296875 1.203125 39.703125 4.59375 
C 44.203125 8.90625 46.296875 15.203125 46.296875 21.40625 
C 46.296875 31.796875 40.59375 43.90625 25.296875 43.90625 
C 18.703125 43.90625 13.203125 41.203125 9.59375 36.90625 
C 6 32.59375 4.09375 26.796875 4.09375 20.5 
z
M 23.796875 40.40625 
C 32.40625 40.40625 37.703125 32.59375 37.703125 18.203125 
C 37.703125 5.59375 31.203125 2.5 26.5 2.5 
C 16.09375 2.5 12.703125 15.09375 12.703125 22.796875 
C 12.703125 31.5 14.796875 40.40625 23.796875 40.40625 
z
" id="LinLibertineO-111"/>
     </defs>
     <g transform="translate(173.682813 339.774)scale(0.13 -0.13)">
      <use xlink:href="#LinLibertineO-66"/>
      <use x="58.799988" xlink:href="#LinLibertineO-108"/>
      <use x="85.199982" xlink:href="#LinLibertineO-117"/>
      <use x="138.299973" xlink:href="#LinLibertineO-114"/>
      <use x="175.499969" xlink:href="#LinLibertineO-32"/>
      <use x="200.499954" xlink:href="#LinLibertineO-115"/>
      <use x="239.499939" xlink:href="#LinLibertineO-116"/>
      <use x="271.09993" xlink:href="#LinLibertineO-97"/>
      <use x="316.799927" xlink:href="#LinLibertineO-110"/>
      <use x="370.999924" xlink:href="#LinLibertineO-100"/>
      <use x="421.599915" xlink:href="#LinLibertineO-97"/>
      <use x="467.299911" xlink:href="#LinLibertineO-114"/>
      <use x="504.499908" xlink:href="#LinLibertineO-100"/>
      <use x="555.099899" xlink:href="#LinLibertineO-32"/>
      <use x="580.099884" xlink:href="#LinLibertineO-100"/>
      <use x="630.699875" xlink:href="#LinLibertineO-101"/>
      <use x="675.399872" xlink:href="#LinLibertineO-118"/>
      <use x="725.099869" xlink:href="#LinLibertineO-105"/>
      <use x="752.19986" xlink:href="#LinLibertineO-97"/>
      <use x="797.899857" xlink:href="#LinLibertineO-116"/>
      <use x="829.499847" xlink:href="#LinLibertineO-105"/>
      <use x="856.599838" xlink:href="#LinLibertineO-111"/>
      <use x="906.999832" xlink:href="#LinLibertineO-110"/>
     </g>
    </g>
   </g>
   <g id="matplotlib.axis_2">
    <g id="ytick_1">
     <g id="line2d_21">
      <path clip-path="url(#p93b5607710)" d="M 57.6 277.859121 
L 414.72 277.859121 
" style="fill:none;stroke:#b0b0b0;stroke-linecap:square;stroke-width:0.8;"/>
     </g>
     <g id="line2d_22">
      <defs>
       <path d="M 0 0 
L -3.5 0 
" id="mac22c046ce" style="stroke:#000000;stroke-width:0.8;"/>
      </defs>
      <g>
       <use style="stroke:#000000;stroke-width:0.8;" x="57.6" xlink:href="#mac22c046ce" y="277.859121"/>
      </g>
     </g>
     <g id="text_4">
      <!-- $\mathdefault{10^{-6}}$ -->
      <defs>
       <path d="M 46.296875 22.59375 
C 47.59375 22.59375 49 24.90625 49 25.90625 
C 49 26.703125 48.59375 27.59375 47.59375 27.59375 
L 8.5 27.59375 
C 7.296875 27.59375 6 25.703125 6 24.203125 
C 6 23.40625 6.59375 22.59375 7.5 22.59375 
z
" id="LinLibertineO-8722"/>
       <path d="M 13.5 30.703125 
C 16.796875 32.796875 20 33 21.796875 33 
C 31.59375 33 33.796875 23.40625 33.796875 18.40625 
C 33.796875 7.40625 29.59375 2.40625 24.703125 2.40625 
C 18.40625 2.40625 12.703125 5.796875 12.703125 22.90625 
C 12.703125 25.09375 12.90625 27.796875 13.5 30.703125 
z
M 14.40625 34.296875 
C 17.09375 43.40625 23.5 53.5 36.796875 58.5 
C 36.796875 59.703125 36.40625 60.59375 35.59375 61.09375 
C 25.5 58.09375 19.296875 53.90625 13.703125 47.40625 
C 7.5 40.203125 4.40625 31.09375 4.40625 23.203125 
C 4.40625 2.90625 15.90625 -1.09375 23.59375 -1.09375 
C 36.703125 -1.09375 42.09375 11.59375 42.09375 20.203125 
C 42.09375 28.796875 37.5 36.5 23.90625 36.5 
C 21.296875 36.5 17.40625 35.703125 14.40625 34.296875 
z
" id="LinLibertineO-54"/>
      </defs>
      <g transform="translate(28.89 282.395918)scale(0.13 -0.13)">
       <use transform="translate(0 0.06875)" xlink:href="#LinLibertineO-49"/>
       <use transform="translate(46.499985 0.06875)" xlink:href="#LinLibertineO-48"/>
       <use transform="translate(93.75411 30.234375)scale(0.7)" xlink:href="#LinLibertineO-8722"/>
       <use transform="translate(132.254099 30.234375)scale(0.7)" xlink:href="#LinLibertineO-54"/>
      </g>
     </g>
    </g>
    <g id="ytick_2">
     <g id="line2d_23">
      <path clip-path="url(#p93b5607710)" d="M 57.6 232.780953 
L 414.72 232.780953 
" style="fill:none;stroke:#b0b0b0;stroke-linecap:square;stroke-width:0.8;"/>
     </g>
     <g id="line2d_24">
      <g>
       <use style="stroke:#000000;stroke-width:0.8;" x="57.6" xlink:href="#mac22c046ce" y="232.780953"/>
      </g>
     </g>
     <g id="text_5">
      <!-- $\mathdefault{10^{-5}}$ -->
      <defs>
       <path d="M 31.90625 18.90625 
C 31.90625 9.40625 26.90625 2.40625 20.90625 2.40625 
C 17.09375 2.40625 15.796875 4.90625 14.296875 6.90625 
C 13 8.59375 11.296875 10.09375 9.203125 10.09375 
C 7.296875 10.09375 5.40625 8.40625 5.40625 6.40625 
C 5.40625 2.296875 13.90625 -1.09375 19.59375 -1.09375 
C 32 -1.09375 40.796875 8.09375 40.796875 20.703125 
C 40.796875 30.40625 34.09375 39.09375 22.90625 39.09375 
C 18.59375 39.09375 14.90625 38.203125 13.09375 37.5 
L 15.09375 54.203125 
C 18.796875 53.796875 22 53.296875 26.796875 53.296875 
C 29.796875 53.296875 33.203125 53.5 37.296875 53.90625 
L 38.90625 60.703125 
L 38.203125 61.09375 
C 32.5 60.5 27.09375 60 21.796875 60 
C 18.09375 60 14.5 60.203125 11 60.5 
L 7.59375 31.703125 
C 12.90625 33.703125 16.703125 34.09375 20.296875 34.09375 
C 26.796875 34.09375 31.90625 29.796875 31.90625 18.90625 
z
" id="LinLibertineO-53"/>
      </defs>
      <g transform="translate(28.89 237.31775)scale(0.13 -0.13)">
       <use transform="translate(0 0.06875)" xlink:href="#LinLibertineO-49"/>
       <use transform="translate(46.499985 0.06875)" xlink:href="#LinLibertineO-48"/>
       <use transform="translate(93.75411 30.234375)scale(0.7)" xlink:href="#LinLibertineO-8722"/>
       <use transform="translate(132.254099 30.234375)scale(0.7)" xlink:href="#LinLibertineO-53"/>
      </g>
     </g>
    </g>
    <g id="ytick_3">
     <g id="line2d_25">
      <path clip-path="url(#p93b5607710)" d="M 57.6 187.702785 
L 414.72 187.702785 
" style="fill:none;stroke:#b0b0b0;stroke-linecap:square;stroke-width:0.8;"/>
     </g>
     <g id="line2d_26">
      <g>
       <use style="stroke:#000000;stroke-width:0.8;" x="57.6" xlink:href="#mac22c046ce" y="187.702785"/>
      </g>
     </g>
     <g id="text_6">
      <!-- $\mathdefault{10^{-4}}$ -->
      <defs>
       <path d="M 27.09375 50.703125 
L 27.09375 21.90625 
L 8 21.90625 
C 13.09375 30.09375 20.203125 41.203125 27.09375 50.703125 
z
M 43 21.90625 
L 34.703125 21.90625 
L 34.703125 51.09375 
C 34.703125 56.09375 34.703125 60 34.90625 60.796875 
L 34.703125 61 
L 31.5 61 
C 30.796875 61 30.203125 60.296875 29.90625 59.90625 
C 23.59375 52.09375 11.90625 35.703125 2.796875 21.40625 
C 3.09375 19.90625 3.703125 17.203125 6.703125 17.203125 
L 27.09375 17.203125 
L 27.09375 8 
C 27.09375 3.40625 23.296875 3.40625 19 3.09375 
C 18.40625 2.5 18.40625 0.40625 19 -0.203125 
C 22.203125 -0.09375 26.203125 0 30.796875 0 
C 34.703125 0 38.5 -0.09375 41.703125 -0.203125 
C 42.296875 0.40625 42.296875 2.5 41.703125 3.09375 
C 36.796875 3.5 34.703125 3.296875 34.703125 8 
L 34.703125 17.203125 
L 41.59375 17.203125 
C 43 17.203125 44.5 19.09375 44.5 20.296875 
C 44.5 21.296875 44.09375 21.90625 43 21.90625 
z
" id="LinLibertineO-52"/>
      </defs>
      <g transform="translate(28.89 192.239582)scale(0.13 -0.13)">
       <use transform="translate(0 0.134375)" xlink:href="#LinLibertineO-49"/>
       <use transform="translate(46.499985 0.134375)" xlink:href="#LinLibertineO-48"/>
       <use transform="translate(93.75411 30.3)scale(0.7)" xlink:href="#LinLibertineO-8722"/>
       <use transform="translate(132.254099 30.3)scale(0.7)" xlink:href="#LinLibertineO-52"/>
      </g>
     </g>
    </g>
    <g id="ytick_4">
     <g id="line2d_27">
      <path clip-path="url(#p93b5607710)" d="M 57.6 142.624617 
L 414.72 142.624617 
" style="fill:none;stroke:#b0b0b0;stroke-linecap:square;stroke-width:0.8;"/>
     </g>
     <g id="line2d_28">
      <g>
       <use style="stroke:#000000;stroke-width:0.8;" x="57.6" xlink:href="#mac22c046ce" y="142.624617"/>
      </g>
     </g>
     <g id="text_7">
      <!-- $\mathdefault{10^{-3}}$ -->
      <defs>
       <path d="M 21.5 57.5 
C 25.796875 57.5 29.796875 54.90625 29.796875 48.40625 
C 29.796875 43.40625 24 35.796875 14.09375 34.40625 
L 14.59375 31.203125 
C 16.296875 31.40625 18.09375 31.40625 19.40625 31.40625 
C 25.09375 31.40625 32.5 29.796875 32.5 18.5 
C 32.5 5.203125 23.59375 2.5 20.09375 2.5 
C 15 2.5 14.09375 4.796875 12.90625 6.59375 
C 11.90625 8 10.59375 9.203125 8.59375 9.203125 
C 6.5 9.203125 4.40625 7.296875 4.40625 5.703125 
C 4.40625 1.703125 12.796875 -1 18.796875 -1 
C 30.703125 -1 41.296875 6.703125 41.296875 19.90625 
C 41.296875 30.796875 33.09375 34.703125 27.203125 35.703125 
L 27.09375 35.90625 
C 35.296875 39.703125 37.59375 43.90625 37.59375 49.09375 
C 37.59375 52.09375 36.90625 54.59375 34.5 57.09375 
C 32.296875 59.296875 28.796875 61 23.59375 61 
C 8.90625 61 4.703125 51.40625 4.703125 48.09375 
C 4.703125 46.703125 5.703125 44.703125 8.09375 44.703125 
C 11.59375 44.703125 12 48 12 49.90625 
C 12 56.296875 18.90625 57.5 21.5 57.5 
z
" id="LinLibertineO-51"/>
      </defs>
      <g transform="translate(28.89 147.161414)scale(0.13 -0.13)">
       <use transform="translate(0 0.134375)" xlink:href="#LinLibertineO-49"/>
       <use transform="translate(46.499985 0.134375)" xlink:href="#LinLibertineO-48"/>
       <use transform="translate(93.75411 30.3)scale(0.7)" xlink:href="#LinLibertineO-8722"/>
       <use transform="translate(132.254099 30.3)scale(0.7)" xlink:href="#LinLibertineO-51"/>
      </g>
     </g>
    </g>
    <g id="ytick_5">
     <g id="line2d_29">
      <path clip-path="url(#p93b5607710)" d="M 57.6 97.54645 
L 414.72 97.54645 
" style="fill:none;stroke:#b0b0b0;stroke-linecap:square;stroke-width:0.8;"/>
     </g>
     <g id="line2d_30">
      <g>
       <use style="stroke:#000000;stroke-width:0.8;" x="57.6" xlink:href="#mac22c046ce" y="97.54645"/>
      </g>
     </g>
     <g id="text_8">
      <!-- $\mathdefault{10^{-2}}$ -->
      <defs>
       <path d="M 6.09375 46.796875 
C 6.09375 44.703125 8 42.90625 10.09375 42.90625 
C 11.796875 42.90625 14.796875 44.59375 14.796875 46.90625 
C 14.796875 47.703125 14.59375 48.296875 14.40625 49 
C 14.203125 49.703125 13.59375 50.59375 13.59375 51.40625 
C 13.59375 53.90625 16.203125 57.5 23.5 57.5 
C 27.09375 57.5 32.203125 55 32.203125 45.40625 
C 32.203125 39 29.90625 33.796875 24 27.796875 
L 16.59375 20.5 
C 6.796875 10.5 5.203125 5.703125 5.203125 -0.203125 
C 5.203125 -0.203125 10.296875 0 13.5 0 
L 31 0 
C 34.203125 0 38.796875 -0.203125 38.796875 -0.203125 
C 40.09375 5.09375 41.09375 12.59375 41.203125 15.59375 
C 40.59375 16.09375 39.296875 16.296875 38.296875 16.09375 
C 36.59375 9 34.90625 6.5 31.296875 6.5 
L 13.5 6.5 
C 13.5 11.296875 20.40625 18.09375 20.90625 18.59375 
L 31 28.296875 
C 36.703125 33.796875 41 38.203125 41 45.796875 
C 41 56.59375 32.203125 61 24.09375 61 
C 13 61 6.09375 52.796875 6.09375 46.796875 
z
" id="LinLibertineO-50"/>
      </defs>
      <g transform="translate(28.89 102.083246)scale(0.13 -0.13)">
       <use transform="translate(0 0.134375)" xlink:href="#LinLibertineO-49"/>
       <use transform="translate(46.499985 0.134375)" xlink:href="#LinLibertineO-48"/>
       <use transform="translate(93.75411 30.3)scale(0.7)" xlink:href="#LinLibertineO-8722"/>
       <use transform="translate(132.254099 30.3)scale(0.7)" xlink:href="#LinLibertineO-50"/>
      </g>
     </g>
    </g>
    <g id="ytick_6">
     <g id="line2d_31">
      <path clip-path="url(#p93b5607710)" d="M 57.6 52.468282 
L 414.72 52.468282 
" style="fill:none;stroke:#b0b0b0;stroke-linecap:square;stroke-width:0.8;"/>
     </g>
     <g id="line2d_32">
      <g>
       <use style="stroke:#000000;stroke-width:0.8;" x="57.6" xlink:href="#mac22c046ce" y="52.468282"/>
      </g>
     </g>
     <g id="text_9">
      <!-- $\mathdefault{10^{-1}}$ -->
      <g transform="translate(28.89 57.005079)scale(0.13 -0.13)">
       <use transform="translate(0 0.276563)" xlink:href="#LinLibertineO-49"/>
       <use transform="translate(46.499985 0.276563)" xlink:href="#LinLibertineO-48"/>
       <use transform="translate(93.75411 30.442188)scale(0.7)" xlink:href="#LinLibertineO-8722"/>
       <use transform="translate(132.254099 30.442188)scale(0.7)" xlink:href="#LinLibertineO-49"/>
      </g>
     </g>
    </g>
    <g id="ytick_7">
     <g id="line2d_33">
      <defs>
       <path d="M 0 0 
L -2 0 
" id="m5229189efc" style="stroke:#000000;stroke-width:0.6;"/>
      </defs>
      <g>
       <use style="stroke:#000000;stroke-width:0.6;" x="57.6" xlink:href="#m5229189efc" y="301.429537"/>
      </g>
     </g>
    </g>
    <g id="ytick_8">
     <g id="line2d_34">
      <g>
       <use style="stroke:#000000;stroke-width:0.6;" x="57.6" xlink:href="#m5229189efc" y="295.797527"/>
      </g>
     </g>
    </g>
    <g id="ytick_9">
     <g id="line2d_35">
      <g>
       <use style="stroke:#000000;stroke-width:0.6;" x="57.6" xlink:href="#m5229189efc" y="291.429002"/>
      </g>
     </g>
    </g>
    <g id="ytick_10">
     <g id="line2d_36">
      <g>
       <use style="stroke:#000000;stroke-width:0.6;" x="57.6" xlink:href="#m5229189efc" y="287.859656"/>
      </g>
     </g>
    </g>
    <g id="ytick_11">
     <g id="line2d_37">
      <g>
       <use style="stroke:#000000;stroke-width:0.6;" x="57.6" xlink:href="#m5229189efc" y="284.841817"/>
      </g>
     </g>
    </g>
    <g id="ytick_12">
     <g id="line2d_38">
      <g>
       <use style="stroke:#000000;stroke-width:0.6;" x="57.6" xlink:href="#m5229189efc" y="282.227647"/>
      </g>
     </g>
    </g>
    <g id="ytick_13">
     <g id="line2d_39">
      <g>
       <use style="stroke:#000000;stroke-width:0.6;" x="57.6" xlink:href="#m5229189efc" y="279.921785"/>
      </g>
     </g>
    </g>
    <g id="ytick_14">
     <g id="line2d_40">
      <g>
       <use style="stroke:#000000;stroke-width:0.6;" x="57.6" xlink:href="#m5229189efc" y="264.28924"/>
      </g>
     </g>
    </g>
    <g id="ytick_15">
     <g id="line2d_41">
      <g>
       <use style="stroke:#000000;stroke-width:0.6;" x="57.6" xlink:href="#m5229189efc" y="256.351369"/>
      </g>
     </g>
    </g>
    <g id="ytick_16">
     <g id="line2d_42">
      <g>
       <use style="stroke:#000000;stroke-width:0.6;" x="57.6" xlink:href="#m5229189efc" y="250.71936"/>
      </g>
     </g>
    </g>
    <g id="ytick_17">
     <g id="line2d_43">
      <g>
       <use style="stroke:#000000;stroke-width:0.6;" x="57.6" xlink:href="#m5229189efc" y="246.350834"/>
      </g>
     </g>
    </g>
    <g id="ytick_18">
     <g id="line2d_44">
      <g>
       <use style="stroke:#000000;stroke-width:0.6;" x="57.6" xlink:href="#m5229189efc" y="242.781488"/>
      </g>
     </g>
    </g>
    <g id="ytick_19">
     <g id="line2d_45">
      <g>
       <use style="stroke:#000000;stroke-width:0.6;" x="57.6" xlink:href="#m5229189efc" y="239.76365"/>
      </g>
     </g>
    </g>
    <g id="ytick_20">
     <g id="line2d_46">
      <g>
       <use style="stroke:#000000;stroke-width:0.6;" x="57.6" xlink:href="#m5229189efc" y="237.149479"/>
      </g>
     </g>
    </g>
    <g id="ytick_21">
     <g id="line2d_47">
      <g>
       <use style="stroke:#000000;stroke-width:0.6;" x="57.6" xlink:href="#m5229189efc" y="234.843617"/>
      </g>
     </g>
    </g>
    <g id="ytick_22">
     <g id="line2d_48">
      <g>
       <use style="stroke:#000000;stroke-width:0.6;" x="57.6" xlink:href="#m5229189efc" y="219.211072"/>
      </g>
     </g>
    </g>
    <g id="ytick_23">
     <g id="line2d_49">
      <g>
       <use style="stroke:#000000;stroke-width:0.6;" x="57.6" xlink:href="#m5229189efc" y="211.273201"/>
      </g>
     </g>
    </g>
    <g id="ytick_24">
     <g id="line2d_50">
      <g>
       <use style="stroke:#000000;stroke-width:0.6;" x="57.6" xlink:href="#m5229189efc" y="205.641192"/>
      </g>
     </g>
    </g>
    <g id="ytick_25">
     <g id="line2d_51">
      <g>
       <use style="stroke:#000000;stroke-width:0.6;" x="57.6" xlink:href="#m5229189efc" y="201.272666"/>
      </g>
     </g>
    </g>
    <g id="ytick_26">
     <g id="line2d_52">
      <g>
       <use style="stroke:#000000;stroke-width:0.6;" x="57.6" xlink:href="#m5229189efc" y="197.70332"/>
      </g>
     </g>
    </g>
    <g id="ytick_27">
     <g id="line2d_53">
      <g>
       <use style="stroke:#000000;stroke-width:0.6;" x="57.6" xlink:href="#m5229189efc" y="194.685482"/>
      </g>
     </g>
    </g>
    <g id="ytick_28">
     <g id="line2d_54">
      <g>
       <use style="stroke:#000000;stroke-width:0.6;" x="57.6" xlink:href="#m5229189efc" y="192.071311"/>
      </g>
     </g>
    </g>
    <g id="ytick_29">
     <g id="line2d_55">
      <g>
       <use style="stroke:#000000;stroke-width:0.6;" x="57.6" xlink:href="#m5229189efc" y="189.765449"/>
      </g>
     </g>
    </g>
    <g id="ytick_30">
     <g id="line2d_56">
      <g>
       <use style="stroke:#000000;stroke-width:0.6;" x="57.6" xlink:href="#m5229189efc" y="174.132905"/>
      </g>
     </g>
    </g>
    <g id="ytick_31">
     <g id="line2d_57">
      <g>
       <use style="stroke:#000000;stroke-width:0.6;" x="57.6" xlink:href="#m5229189efc" y="166.195033"/>
      </g>
     </g>
    </g>
    <g id="ytick_32">
     <g id="line2d_58">
      <g>
       <use style="stroke:#000000;stroke-width:0.6;" x="57.6" xlink:href="#m5229189efc" y="160.563024"/>
      </g>
     </g>
    </g>
    <g id="ytick_33">
     <g id="line2d_59">
      <g>
       <use style="stroke:#000000;stroke-width:0.6;" x="57.6" xlink:href="#m5229189efc" y="156.194498"/>
      </g>
     </g>
    </g>
    <g id="ytick_34">
     <g id="line2d_60">
      <g>
       <use style="stroke:#000000;stroke-width:0.6;" x="57.6" xlink:href="#m5229189efc" y="152.625153"/>
      </g>
     </g>
    </g>
    <g id="ytick_35">
     <g id="line2d_61">
      <g>
       <use style="stroke:#000000;stroke-width:0.6;" x="57.6" xlink:href="#m5229189efc" y="149.607314"/>
      </g>
     </g>
    </g>
    <g id="ytick_36">
     <g id="line2d_62">
      <g>
       <use style="stroke:#000000;stroke-width:0.6;" x="57.6" xlink:href="#m5229189efc" y="146.993143"/>
      </g>
     </g>
    </g>
    <g id="ytick_37">
     <g id="line2d_63">
      <g>
       <use style="stroke:#000000;stroke-width:0.6;" x="57.6" xlink:href="#m5229189efc" y="144.687281"/>
      </g>
     </g>
    </g>
    <g id="ytick_38">
     <g id="line2d_64">
      <g>
       <use style="stroke:#000000;stroke-width:0.6;" x="57.6" xlink:href="#m5229189efc" y="129.054737"/>
      </g>
     </g>
    </g>
    <g id="ytick_39">
     <g id="line2d_65">
      <g>
       <use style="stroke:#000000;stroke-width:0.6;" x="57.6" xlink:href="#m5229189efc" y="121.116865"/>
      </g>
     </g>
    </g>
    <g id="ytick_40">
     <g id="line2d_66">
      <g>
       <use style="stroke:#000000;stroke-width:0.6;" x="57.6" xlink:href="#m5229189efc" y="115.484856"/>
      </g>
     </g>
    </g>
    <g id="ytick_41">
     <g id="line2d_67">
      <g>
       <use style="stroke:#000000;stroke-width:0.6;" x="57.6" xlink:href="#m5229189efc" y="111.11633"/>
      </g>
     </g>
    </g>
    <g id="ytick_42">
     <g id="line2d_68">
      <g>
       <use style="stroke:#000000;stroke-width:0.6;" x="57.6" xlink:href="#m5229189efc" y="107.546985"/>
      </g>
     </g>
    </g>
    <g id="ytick_43">
     <g id="line2d_69">
      <g>
       <use style="stroke:#000000;stroke-width:0.6;" x="57.6" xlink:href="#m5229189efc" y="104.529146"/>
      </g>
     </g>
    </g>
    <g id="ytick_44">
     <g id="line2d_70">
      <g>
       <use style="stroke:#000000;stroke-width:0.6;" x="57.6" xlink:href="#m5229189efc" y="101.914975"/>
      </g>
     </g>
    </g>
    <g id="ytick_45">
     <g id="line2d_71">
      <g>
       <use style="stroke:#000000;stroke-width:0.6;" x="57.6" xlink:href="#m5229189efc" y="99.609113"/>
      </g>
     </g>
    </g>
    <g id="ytick_46">
     <g id="line2d_72">
      <g>
       <use style="stroke:#000000;stroke-width:0.6;" x="57.6" xlink:href="#m5229189efc" y="83.976569"/>
      </g>
     </g>
    </g>
    <g id="ytick_47">
     <g id="line2d_73">
      <g>
       <use style="stroke:#000000;stroke-width:0.6;" x="57.6" xlink:href="#m5229189efc" y="76.038698"/>
      </g>
     </g>
    </g>
    <g id="ytick_48">
     <g id="line2d_74">
      <g>
       <use style="stroke:#000000;stroke-width:0.6;" x="57.6" xlink:href="#m5229189efc" y="70.406688"/>
      </g>
     </g>
    </g>
    <g id="ytick_49">
     <g id="line2d_75">
      <g>
       <use style="stroke:#000000;stroke-width:0.6;" x="57.6" xlink:href="#m5229189efc" y="66.038162"/>
      </g>
     </g>
    </g>
    <g id="ytick_50">
     <g id="line2d_76">
      <g>
       <use style="stroke:#000000;stroke-width:0.6;" x="57.6" xlink:href="#m5229189efc" y="62.468817"/>
      </g>
     </g>
    </g>
    <g id="ytick_51">
     <g id="line2d_77">
      <g>
       <use style="stroke:#000000;stroke-width:0.6;" x="57.6" xlink:href="#m5229189efc" y="59.450978"/>
      </g>
     </g>
    </g>
    <g id="ytick_52">
     <g id="line2d_78">
      <g>
       <use style="stroke:#000000;stroke-width:0.6;" x="57.6" xlink:href="#m5229189efc" y="56.836808"/>
      </g>
     </g>
    </g>
    <g id="ytick_53">
     <g id="line2d_79">
      <g>
       <use style="stroke:#000000;stroke-width:0.6;" x="57.6" xlink:href="#m5229189efc" y="54.530946"/>
      </g>
     </g>
    </g>
    <g id="text_10">
     <!-- RMSE -->
     <defs>
      <path d="M 27.203125 61.796875 
C 33.296875 61.796875 40.5 59.59375 40.5 47.796875 
C 40.5 35.296875 33.40625 32.5 23.703125 32.5 
L 18.90625 32.5 
L 18.90625 55.40625 
C 18.90625 58.296875 20.09375 61.796875 27.203125 61.796875 
z
M 18.90625 12.203125 
L 18.90625 29.09375 
C 27.296875 29.09375 29.09375 27.59375 30.59375 25.296875 
L 41.296875 7.90625 
C 44.09375 3.203125 48.5 -1 54.5 -1 
C 56 -1 57.703125 -0.796875 58.703125 -0.296875 
C 59 0.296875 59 1.296875 58.59375 2.09375 
C 54.09375 2.09375 51.59375 5.40625 49 9.796875 
L 36.40625 30.796875 
C 40.703125 32.203125 49.703125 37.40625 49.703125 47.90625 
C 49.703125 52.90625 48 57 44.40625 60.40625 
C 39.59375 64.90625 33.40625 65.203125 27.09375 65.203125 
C 22.40625 65.203125 18.203125 64.5 14.59375 64.5 
C 11.09375 64.5 6.40625 64.59375 1.703125 64.703125 
C 1.09375 64.09375 1.09375 62 1.703125 61.40625 
C 8.703125 61.09375 10.40625 60.59375 10.40625 52.296875 
L 10.40625 12.203125 
C 10.40625 3.90625 8.703125 3.40625 1.703125 3.09375 
C 1.09375 2.5 1.09375 0.40625 1.703125 -0.203125 
C 6.203125 -0.09375 10.796875 0 14.703125 0 
C 18.40625 0 23.203125 -0.09375 27.59375 -0.203125 
C 28.203125 0.40625 28.203125 2.5 27.59375 3.09375 
C 20.59375 3.40625 18.90625 3.90625 18.90625 12.203125 
z
" id="LinLibertineO-82"/>
      <path d="M 66.203125 11.59375 
C 66.703125 3.5 66.40625 3.40625 59.90625 3.09375 
C 59.296875 2.5 59.296875 0.40625 59.90625 -0.203125 
C 63.59375 -0.09375 67.59375 0 70.59375 0 
C 73.59375 0 78.09375 -0.09375 81.5 -0.203125 
C 82.09375 0.40625 82.09375 2.5 81.5 3.09375 
C 74.703125 3.40625 74.296875 3.796875 73.796875 12.09375 
L 70.796875 54.203125 
C 70.40625 59.59375 70.90625 61 77.703125 61.40625 
C 78.296875 62 78.296875 64.09375 77.703125 64.703125 
L 64.59375 64.5 
L 43.40625 13.796875 
C 43 12.796875 42.703125 12.40625 42.5 12.40625 
C 42.296875 12.40625 42 12.90625 41.703125 13.703125 
L 21.203125 64.5 
L 6.703125 64.703125 
C 6.09375 64.09375 6.09375 62 6.703125 61.40625 
C 13.59375 61 14.203125 60.796875 13.5 53.296875 
L 9.40625 12.09375 
C 8.90625 6.09375 7.703125 3.59375 2 3.09375 
C 1.40625 2.5 1.40625 0.40625 2 -0.203125 
C 5 -0.09375 8.203125 0 10.59375 0 
C 13 0 17 -0.09375 20 -0.203125 
C 20.59375 0.40625 20.59375 2.5 20 3.09375 
C 13.40625 3.59375 12.796875 6.59375 13.40625 12.296875 
L 17.203125 52.40625 
L 17.40625 52.40625 
L 38.09375 0.5 
C 38.296875 -0.296875 39 -1 39.59375 -1 
C 40.203125 -1 40.59375 -0.296875 41 0.5 
L 63.5 53.40625 
L 63.703125 53.40625 
z
" id="LinLibertineO-77"/>
      <path d="M 39.40625 63.09375 
C 33.59375 63.90625 33.90625 65.796875 24.09375 65.796875 
C 14 65.796875 5.09375 59.09375 5.09375 48.5 
C 5.09375 37.90625 13.703125 33.09375 22.5 29.796875 
C 28.59375 27.40625 36 24.59375 36 14.90625 
C 36 6.796875 31.40625 2.59375 23.5 2.59375 
C 14.09375 2.59375 8.09375 6.796875 5.90625 16.796875 
C 4.703125 17.203125 3.59375 17 2.703125 16.5 
C 3.09375 8.796875 3.5 6.203125 4.703125 1.296875 
C 11 1.296875 13.703125 -1 22.59375 -1 
C 27.203125 -1 31.5 0.09375 35 2.203125 
C 40.703125 5.796875 44.40625 12 44.40625 18.40625 
C 44.40625 29 36.296875 33.703125 28.09375 36.703125 
C 22.203125 39 12.203125 42.703125 12.203125 51.203125 
C 12.203125 56.796875 17.296875 62.40625 23.09375 62.40625 
C 32.90625 62.40625 36 56.203125 38 49.59375 
C 39 49.40625 40.296875 49.5 41.203125 50.203125 
C 40.90625 55 40.5 57.796875 39.40625 63.09375 
z
" id="LinLibertineO-83"/>
      <path d="M 28.09375 36.09375 
L 19 36.09375 
L 19 54.09375 
C 19 58.5 20.203125 60.5 25.59375 60.5 
L 33.09375 60.5 
C 40.59375 60.5 42.203125 56.5 44.40625 49.59375 
C 45.59375 49.40625 46.703125 49.59375 47.703125 50.09375 
C 47.203125 54.203125 45.703125 63.796875 45.5 64.59375 
C 45.5 64.796875 45.40625 64.90625 45.09375 64.90625 
C 43.40625 64.59375 42.59375 64.5 40.203125 64.5 
L 14.703125 64.5 
C 11.59375 64.5 5.796875 64.59375 1.796875 64.703125 
C 1.203125 64.09375 1.203125 62 1.796875 61.40625 
C 8.796875 61.09375 10.5 60.59375 10.5 52.296875 
L 10.5 12.203125 
C 10.5 3.90625 8.796875 3.40625 1.796875 3.09375 
C 1.203125 2.5 1.203125 0.40625 1.796875 -0.203125 
C 5.5 -0.09375 11.5 0 14.796875 0 
L 36.296875 0 
C 41.09375 0 49.09375 -0.203125 49.09375 -0.203125 
C 50.5 4.796875 52 11.40625 52.796875 16.5 
C 51.703125 17 50.59375 17.296875 49.296875 17 
C 47.296875 9.796875 43.796875 3.90625 36.203125 3.90625 
L 24.59375 3.90625 
C 20.40625 3.90625 19 5.5 19 10.203125 
L 19 32.296875 
L 28.09375 32.296875 
C 36.59375 32.296875 36.90625 30 37.203125 25.5 
C 37.796875 24.90625 39.90625 24.90625 40.5 25.5 
C 40.40625 28.09375 40.296875 30.796875 40.296875 34.296875 
C 40.296875 37.09375 40.40625 40.5 40.5 42.90625 
C 39.90625 43.5 37.796875 43.5 37.203125 42.90625 
C 36.90625 37.40625 36.59375 36.09375 28.09375 36.09375 
z
" id="LinLibertineO-69"/>
     </defs>
     <g transform="translate(21.847187 190.570812)rotate(-90)scale(0.13 -0.13)">
      <use xlink:href="#LinLibertineO-82"/>
      <use x="58.699997" xlink:href="#LinLibertineO-77"/>
      <use x="142.599991" xlink:href="#LinLibertineO-83"/>
      <use x="191.099976" xlink:href="#LinLibertineO-69"/>
     </g>
    </g>
   </g>
   <g id="line2d_80">
    <path clip-path="url(#p93b5607710)" d="M 73.832727 81.741187 
L 144.972534 115.37882 
L 180.585672 139.214141 
L 204.536246 155.453124 
L 222.606662 167.622075 
L 237.12247 177.051955 
L 249.254853 184.665284 
L 259.677221 191.031228 
L 268.812602 196.472616 
L 276.944188 201.186223 
L 284.270895 205.316549 
L 290.937807 208.986115 
L 297.054002 212.30098 
L 302.703562 215.347911 
L 307.952672 218.192504 
L 312.854361 220.880685 
L 317.451779 223.442473 
L 321.780502 225.896285 
L 325.870211 228.252747 
L 329.745927 230.517623 
L 333.428933 232.693927 
L 336.93749 234.783368 
L 340.287378 236.787309 
L 343.492331 238.707378 
L 346.564371 240.545825 
L 349.514084 242.305689 
L 352.350841 243.990827 
L 355.082975 245.605841 
L 357.717929 247.155939 
L 360.262379 248.646755 
L 362.722338 250.084165 
L 365.103235 251.474104 
L 367.409996 252.822404 
L 369.647098 254.134662 
L 371.818626 255.416142 
L 373.928314 256.6717 
L 375.979586 257.905748 
L 377.975592 259.122234 
L 379.919231 260.324646 
L 381.813181 261.516028 
L 383.659919 262.699009 
L 385.461742 263.875839 
L 387.220783 265.048427 
L 388.939026 266.218381 
L 390.618321 267.387052 
L 392.260395 268.555564 
L 393.866862 269.72486 
L 395.439234 270.895725 
L 396.978927 272.068815 
L 398.487273 273.244687 
" style="fill:none;stroke:#1f77b4;stroke-linecap:square;stroke-width:1.5;"/>
    <defs>
     <path d="M 0 3 
C 0.795609 3 1.55874 2.683901 2.12132 2.12132 
C 2.683901 1.55874 3 0.795609 3 0 
C 3 -0.795609 2.683901 -1.55874 2.12132 -2.12132 
C 1.55874 -2.683901 0.795609 -3 0 -3 
C -0.795609 -3 -1.55874 -2.683901 -2.12132 -2.12132 
C -2.683901 -1.55874 -3 -0.795609 -3 0 
C -3 0.795609 -2.683901 1.55874 -2.12132 2.12132 
C -1.55874 2.683901 -0.795609 3 0 3 
z
" id="m707be4614f" style="stroke:#1f77b4;"/>
    </defs>
    <g clip-path="url(#p93b5607710)">
     <use style="fill:#1f77b4;stroke:#1f77b4;" x="73.832727" xlink:href="#m707be4614f" y="81.741187"/>
     <use style="fill:#1f77b4;stroke:#1f77b4;" x="144.972534" xlink:href="#m707be4614f" y="115.37882"/>
     <use style="fill:#1f77b4;stroke:#1f77b4;" x="180.585672" xlink:href="#m707be4614f" y="139.214141"/>
     <use style="fill:#1f77b4;stroke:#1f77b4;" x="204.536246" xlink:href="#m707be4614f" y="155.453124"/>
     <use style="fill:#1f77b4;stroke:#1f77b4;" x="222.606662" xlink:href="#m707be4614f" y="167.622075"/>
     <use style="fill:#1f77b4;stroke:#1f77b4;" x="237.12247" xlink:href="#m707be4614f" y="177.051955"/>
     <use style="fill:#1f77b4;stroke:#1f77b4;" x="249.254853" xlink:href="#m707be4614f" y="184.665284"/>
     <use style="fill:#1f77b4;stroke:#1f77b4;" x="259.677221" xlink:href="#m707be4614f" y="191.031228"/>
     <use style="fill:#1f77b4;stroke:#1f77b4;" x="268.812602" xlink:href="#m707be4614f" y="196.472616"/>
     <use style="fill:#1f77b4;stroke:#1f77b4;" x="276.944188" xlink:href="#m707be4614f" y="201.186223"/>
     <use style="fill:#1f77b4;stroke:#1f77b4;" x="284.270895" xlink:href="#m707be4614f" y="205.316549"/>
     <use style="fill:#1f77b4;stroke:#1f77b4;" x="290.937807" xlink:href="#m707be4614f" y="208.986115"/>
     <use style="fill:#1f77b4;stroke:#1f77b4;" x="297.054002" xlink:href="#m707be4614f" y="212.30098"/>
     <use style="fill:#1f77b4;stroke:#1f77b4;" x="302.703562" xlink:href="#m707be4614f" y="215.347911"/>
     <use style="fill:#1f77b4;stroke:#1f77b4;" x="307.952672" xlink:href="#m707be4614f" y="218.192504"/>
     <use style="fill:#1f77b4;stroke:#1f77b4;" x="312.854361" xlink:href="#m707be4614f" y="220.880685"/>
     <use style="fill:#1f77b4;stroke:#1f77b4;" x="317.451779" xlink:href="#m707be4614f" y="223.442473"/>
     <use style="fill:#1f77b4;stroke:#1f77b4;" x="321.780502" xlink:href="#m707be4614f" y="225.896285"/>
     <use style="fill:#1f77b4;stroke:#1f77b4;" x="325.870211" xlink:href="#m707be4614f" y="228.252747"/>
     <use style="fill:#1f77b4;stroke:#1f77b4;" x="329.745927" xlink:href="#m707be4614f" y="230.517623"/>
     <use style="fill:#1f77b4;stroke:#1f77b4;" x="333.428933" xlink:href="#m707be4614f" y="232.693927"/>
     <use style="fill:#1f77b4;stroke:#1f77b4;" x="336.93749" xlink:href="#m707be4614f" y="234.783368"/>
     <use style="fill:#1f77b4;stroke:#1f77b4;" x="340.287378" xlink:href="#m707be4614f" y="236.787309"/>
     <use style="fill:#1f77b4;stroke:#1f77b4;" x="343.492331" xlink:href="#m707be4614f" y="238.707378"/>
     <use style="fill:#1f77b4;stroke:#1f77b4;" x="346.564371" xlink:href="#m707be4614f" y="240.545825"/>
     <use style="fill:#1f77b4;stroke:#1f77b4;" x="349.514084" xlink:href="#m707be4614f" y="242.305689"/>
     <use style="fill:#1f77b4;stroke:#1f77b4;" x="352.350841" xlink:href="#m707be4614f" y="243.990827"/>
     <use style="fill:#1f77b4;stroke:#1f77b4;" x="355.082975" xlink:href="#m707be4614f" y="245.605841"/>
     <use style="fill:#1f77b4;stroke:#1f77b4;" x="357.717929" xlink:href="#m707be4614f" y="247.155939"/>
     <use style="fill:#1f77b4;stroke:#1f77b4;" x="360.262379" xlink:href="#m707be4614f" y="248.646755"/>
     <use style="fill:#1f77b4;stroke:#1f77b4;" x="362.722338" xlink:href="#m707be4614f" y="250.084165"/>
     <use style="fill:#1f77b4;stroke:#1f77b4;" x="365.103235" xlink:href="#m707be4614f" y="251.474104"/>
     <use style="fill:#1f77b4;stroke:#1f77b4;" x="367.409996" xlink:href="#m707be4614f" y="252.822404"/>
     <use style="fill:#1f77b4;stroke:#1f77b4;" x="369.647098" xlink:href="#m707be4614f" y="254.134662"/>
     <use style="fill:#1f77b4;stroke:#1f77b4;" x="371.818626" xlink:href="#m707be4614f" y="255.416142"/>
     <use style="fill:#1f77b4;stroke:#1f77b4;" x="373.928314" xlink:href="#m707be4614f" y="256.6717"/>
     <use style="fill:#1f77b4;stroke:#1f77b4;" x="375.979586" xlink:href="#m707be4614f" y="257.905748"/>
     <use style="fill:#1f77b4;stroke:#1f77b4;" x="377.975592" xlink:href="#m707be4614f" y="259.122234"/>
     <use style="fill:#1f77b4;stroke:#1f77b4;" x="379.919231" xlink:href="#m707be4614f" y="260.324646"/>
     <use style="fill:#1f77b4;stroke:#1f77b4;" x="381.813181" xlink:href="#m707be4614f" y="261.516028"/>
     <use style="fill:#1f77b4;stroke:#1f77b4;" x="383.659919" xlink:href="#m707be4614f" y="262.699009"/>
     <use style="fill:#1f77b4;stroke:#1f77b4;" x="385.461742" xlink:href="#m707be4614f" y="263.875839"/>
     <use style="fill:#1f77b4;stroke:#1f77b4;" x="387.220783" xlink:href="#m707be4614f" y="265.048427"/>
     <use style="fill:#1f77b4;stroke:#1f77b4;" x="388.939026" xlink:href="#m707be4614f" y="266.218381"/>
     <use style="fill:#1f77b4;stroke:#1f77b4;" x="390.618321" xlink:href="#m707be4614f" y="267.387052"/>
     <use style="fill:#1f77b4;stroke:#1f77b4;" x="392.260395" xlink:href="#m707be4614f" y="268.555564"/>
     <use style="fill:#1f77b4;stroke:#1f77b4;" x="393.866862" xlink:href="#m707be4614f" y="269.72486"/>
     <use style="fill:#1f77b4;stroke:#1f77b4;" x="395.439234" xlink:href="#m707be4614f" y="270.895725"/>
     <use style="fill:#1f77b4;stroke:#1f77b4;" x="396.978927" xlink:href="#m707be4614f" y="272.068815"/>
     <use style="fill:#1f77b4;stroke:#1f77b4;" x="398.487273" xlink:href="#m707be4614f" y="273.244687"/>
    </g>
   </g>
   <g id="line2d_81">
    <path clip-path="url(#p93b5607710)" d="M 73.832727 86.155698 
L 144.972534 126.369012 
L 180.585672 146.500108 
L 204.536246 160.038688 
L 222.606662 170.253381 
L 237.12247 178.458756 
L 249.254853 185.316847 
L 259.677221 191.208316 
L 268.812602 196.372288 
L 276.944188 200.968843 
L 284.270895 205.110422 
L 290.937807 208.879039 
L 297.054002 212.33635 
L 302.703562 215.529886 
L 307.952672 218.497059 
L 312.854361 221.267845 
L 317.451779 223.866634 
L 321.780502 226.313539 
L 325.870211 228.625335 
L 329.745927 230.816167 
L 333.428933 232.898066 
L 336.93749 234.881354 
L 340.287378 236.774951 
L 343.492331 238.586619 
L 346.564371 240.323156 
L 349.514084 241.990546 
L 352.350841 243.594084 
L 355.082975 245.138481 
L 357.717929 246.627946 
L 360.262379 248.066252 
L 362.722338 249.456796 
L 365.103235 250.80265 
L 367.409996 252.106597 
L 369.647098 253.371167 
L 371.818626 254.59867 
L 373.928314 255.791217 
L 375.979586 256.950743 
L 377.975592 258.079029 
L 379.919231 259.177712 
L 381.813181 260.248309 
L 383.659919 261.292217 
L 385.461742 262.310737 
L 387.220783 263.305072 
L 388.939026 264.276346 
L 390.618321 265.225604 
L 392.260395 266.153822 
L 393.866862 267.061913 
L 395.439234 267.950729 
L 396.978927 268.821074 
L 398.487273 269.673699 
" style="fill:none;stroke:#1f77b4;stroke-dasharray:5.55,2.4;stroke-dashoffset:0;stroke-width:1.5;"/>
   </g>
   <g id="line2d_82">
    <path clip-path="url(#p93b5607710)" d="M 73.832727 80.995755 
L 144.972534 114.701183 
L 180.585672 138.245018 
L 204.536246 153.508637 
L 222.606662 164.574098 
L 237.12247 173.151168 
L 249.254853 180.248982 
L 259.677221 186.440477 
L 268.812602 192.030255 
L 276.944188 197.169173 
L 284.270895 201.930125 
L 290.937807 206.353331 
L 297.054002 210.469615 
L 302.703562 214.30952 
L 307.952672 217.904727 
L 312.854361 221.286373 
L 317.451779 224.483022 
L 321.780502 227.519473 
L 325.870211 230.416569 
L 329.745927 233.191677 
L 333.428933 235.859455 
L 336.93749 238.432599 
L 340.287378 240.922425 
L 343.492331 243.339235 
L 346.564371 245.692517 
L 349.514084 247.991003 
L 352.350841 250.242654 
L 355.082975 252.454618 
L 357.717929 254.633169 
L 360.262379 256.783668 
L 362.722338 258.910541 
L 365.103235 261.01728 
L 367.409996 263.106463 
L 369.647098 265.179802 
L 371.818626 267.238193 
L 373.928314 269.2818 
L 375.979586 271.310129 
L 377.975592 273.322126 
L 379.919231 275.316277 
L 381.813181 277.290705 
L 383.659919 279.243284 
L 385.461742 281.171741 
L 387.220783 283.073764 
L 388.939026 284.947101 
L 390.618321 286.789657 
L 392.260395 288.599578 
L 393.866862 290.375327 
L 395.439234 292.115738 
L 396.978927 293.820064 
L 398.487273 295.488 
" style="fill:none;stroke:#ff7f0e;stroke-linecap:square;stroke-width:1.5;"/>
    <defs>
     <path d="M 0 3 
C 0.795609 3 1.55874 2.683901 2.12132 2.12132 
C 2.683901 1.55874 3 0.795609 3 0 
C 3 -0.795609 2.683901 -1.55874 2.12132 -2.12132 
C 1.55874 -2.683901 0.795609 -3 0 -3 
C -0.795609 -3 -1.55874 -2.683901 -2.12132 -2.12132 
C -2.683901 -1.55874 -3 -0.795609 -3 0 
C -3 0.795609 -2.683901 1.55874 -2.12132 2.12132 
C -1.55874 2.683901 -0.795609 3 0 3 
z
" id="mc844647897" style="stroke:#ff7f0e;"/>
    </defs>
    <g clip-path="url(#p93b5607710)">
     <use style="fill:#ff7f0e;stroke:#ff7f0e;" x="73.832727" xlink:href="#mc844647897" y="80.995755"/>
     <use style="fill:#ff7f0e;stroke:#ff7f0e;" x="144.972534" xlink:href="#mc844647897" y="114.701183"/>
     <use style="fill:#ff7f0e;stroke:#ff7f0e;" x="180.585672" xlink:href="#mc844647897" y="138.245018"/>
     <use style="fill:#ff7f0e;stroke:#ff7f0e;" x="204.536246" xlink:href="#mc844647897" y="153.508637"/>
     <use style="fill:#ff7f0e;stroke:#ff7f0e;" x="222.606662" xlink:href="#mc844647897" y="164.574098"/>
     <use style="fill:#ff7f0e;stroke:#ff7f0e;" x="237.12247" xlink:href="#mc844647897" y="173.151168"/>
     <use style="fill:#ff7f0e;stroke:#ff7f0e;" x="249.254853" xlink:href="#mc844647897" y="180.248982"/>
     <use style="fill:#ff7f0e;stroke:#ff7f0e;" x="259.677221" xlink:href="#mc844647897" y="186.440477"/>
     <use style="fill:#ff7f0e;stroke:#ff7f0e;" x="268.812602" xlink:href="#mc844647897" y="192.030255"/>
     <use style="fill:#ff7f0e;stroke:#ff7f0e;" x="276.944188" xlink:href="#mc844647897" y="197.169173"/>
     <use style="fill:#ff7f0e;stroke:#ff7f0e;" x="284.270895" xlink:href="#mc844647897" y="201.930125"/>
     <use style="fill:#ff7f0e;stroke:#ff7f0e;" x="290.937807" xlink:href="#mc844647897" y="206.353331"/>
     <use style="fill:#ff7f0e;stroke:#ff7f0e;" x="297.054002" xlink:href="#mc844647897" y="210.469615"/>
     <use style="fill:#ff7f0e;stroke:#ff7f0e;" x="302.703562" xlink:href="#mc844647897" y="214.30952"/>
     <use style="fill:#ff7f0e;stroke:#ff7f0e;" x="307.952672" xlink:href="#mc844647897" y="217.904727"/>
     <use style="fill:#ff7f0e;stroke:#ff7f0e;" x="312.854361" xlink:href="#mc844647897" y="221.286373"/>
     <use style="fill:#ff7f0e;stroke:#ff7f0e;" x="317.451779" xlink:href="#mc844647897" y="224.483022"/>
     <use style="fill:#ff7f0e;stroke:#ff7f0e;" x="321.780502" xlink:href="#mc844647897" y="227.519473"/>
     <use style="fill:#ff7f0e;stroke:#ff7f0e;" x="325.870211" xlink:href="#mc844647897" y="230.416569"/>
     <use style="fill:#ff7f0e;stroke:#ff7f0e;" x="329.745927" xlink:href="#mc844647897" y="233.191677"/>
     <use style="fill:#ff7f0e;stroke:#ff7f0e;" x="333.428933" xlink:href="#mc844647897" y="235.859455"/>
     <use style="fill:#ff7f0e;stroke:#ff7f0e;" x="336.93749" xlink:href="#mc844647897" y="238.432599"/>
     <use style="fill:#ff7f0e;stroke:#ff7f0e;" x="340.287378" xlink:href="#mc844647897" y="240.922425"/>
     <use style="fill:#ff7f0e;stroke:#ff7f0e;" x="343.492331" xlink:href="#mc844647897" y="243.339235"/>
     <use style="fill:#ff7f0e;stroke:#ff7f0e;" x="346.564371" xlink:href="#mc844647897" y="245.692517"/>
     <use style="fill:#ff7f0e;stroke:#ff7f0e;" x="349.514084" xlink:href="#mc844647897" y="247.991003"/>
     <use style="fill:#ff7f0e;stroke:#ff7f0e;" x="352.350841" xlink:href="#mc844647897" y="250.242654"/>
     <use style="fill:#ff7f0e;stroke:#ff7f0e;" x="355.082975" xlink:href="#mc844647897" y="252.454618"/>
     <use style="fill:#ff7f0e;stroke:#ff7f0e;" x="357.717929" xlink:href="#mc844647897" y="254.633169"/>
     <use style="fill:#ff7f0e;stroke:#ff7f0e;" x="360.262379" xlink:href="#mc844647897" y="256.783668"/>
     <use style="fill:#ff7f0e;stroke:#ff7f0e;" x="362.722338" xlink:href="#mc844647897" y="258.910541"/>
     <use style="fill:#ff7f0e;stroke:#ff7f0e;" x="365.103235" xlink:href="#mc844647897" y="261.01728"/>
     <use style="fill:#ff7f0e;stroke:#ff7f0e;" x="367.409996" xlink:href="#mc844647897" y="263.106463"/>
     <use style="fill:#ff7f0e;stroke:#ff7f0e;" x="369.647098" xlink:href="#mc844647897" y="265.179802"/>
     <use style="fill:#ff7f0e;stroke:#ff7f0e;" x="371.818626" xlink:href="#mc844647897" y="267.238193"/>
     <use style="fill:#ff7f0e;stroke:#ff7f0e;" x="373.928314" xlink:href="#mc844647897" y="269.2818"/>
     <use style="fill:#ff7f0e;stroke:#ff7f0e;" x="375.979586" xlink:href="#mc844647897" y="271.310129"/>
     <use style="fill:#ff7f0e;stroke:#ff7f0e;" x="377.975592" xlink:href="#mc844647897" y="273.322126"/>
     <use style="fill:#ff7f0e;stroke:#ff7f0e;" x="379.919231" xlink:href="#mc844647897" y="275.316277"/>
     <use style="fill:#ff7f0e;stroke:#ff7f0e;" x="381.813181" xlink:href="#mc844647897" y="277.290705"/>
     <use style="fill:#ff7f0e;stroke:#ff7f0e;" x="383.659919" xlink:href="#mc844647897" y="279.243284"/>
     <use style="fill:#ff7f0e;stroke:#ff7f0e;" x="385.461742" xlink:href="#mc844647897" y="281.171741"/>
     <use style="fill:#ff7f0e;stroke:#ff7f0e;" x="387.220783" xlink:href="#mc844647897" y="283.073764"/>
     <use style="fill:#ff7f0e;stroke:#ff7f0e;" x="388.939026" xlink:href="#mc844647897" y="284.947101"/>
     <use style="fill:#ff7f0e;stroke:#ff7f0e;" x="390.618321" xlink:href="#mc844647897" y="286.789657"/>
     <use style="fill:#ff7f0e;stroke:#ff7f0e;" x="392.260395" xlink:href="#mc844647897" y="288.599578"/>
     <use style="fill:#ff7f0e;stroke:#ff7f0e;" x="393.866862" xlink:href="#mc844647897" y="290.375327"/>
     <use style="fill:#ff7f0e;stroke:#ff7f0e;" x="395.439234" xlink:href="#mc844647897" y="292.115738"/>
     <use style="fill:#ff7f0e;stroke:#ff7f0e;" x="396.978927" xlink:href="#mc844647897" y="293.820064"/>
     <use style="fill:#ff7f0e;stroke:#ff7f0e;" x="398.487273" xlink:href="#mc844647897" y="295.488"/>
    </g>
   </g>
   <g id="line2d_83">
    <path clip-path="url(#p93b5607710)" d="M 73.832727 53.568 
L 144.972534 103.625397 
L 180.585672 128.684517 
L 204.536246 145.537295 
L 222.606662 158.252511 
L 237.12247 168.466533 
L 249.254853 177.003462 
L 259.677221 184.337143 
L 268.812602 190.765237 
L 276.944188 196.487013 
L 284.270895 201.642437 
L 290.937807 206.333598 
L 297.054002 210.637247 
L 302.703562 214.61255 
L 307.952672 218.306076 
L 312.854361 221.755141 
L 317.451779 224.990106 
L 321.780502 228.036004 
L 325.870211 230.913721 
L 329.745927 233.640861 
L 333.428933 236.232402 
L 336.93749 238.701191 
L 340.287378 241.058334 
L 343.492331 243.313493 
L 346.564371 245.475129 
L 349.514084 247.550689 
L 352.350841 249.546768 
L 355.082975 251.469229 
L 357.717929 253.32331 
L 360.262379 255.113708 
L 362.722338 256.844653 
L 365.103235 258.519967 
L 367.409996 260.143116 
L 369.647098 261.717248 
L 371.818626 263.24524 
L 373.928314 264.729718 
L 375.979586 266.173092 
L 377.975592 267.577578 
L 379.919231 268.945216 
L 381.813181 270.277891 
L 383.659919 271.577345 
L 385.461742 272.845194 
L 387.220783 274.08294 
L 388.939026 275.291979 
L 390.618321 276.473612 
L 392.260395 277.629054 
L 393.866862 278.759442 
L 395.439234 279.865838 
L 396.978927 280.94924 
L 398.487273 282.010585 
" style="fill:none;stroke:#ff7f0e;stroke-dasharray:5.55,2.4;stroke-dashoffset:0;stroke-width:1.5;"/>
   </g>
   <g id="patch_3">
    <path d="M 57.6 307.584 
L 57.6 41.472 
" style="fill:none;stroke:#000000;stroke-linecap:square;stroke-linejoin:miter;stroke-width:0.8;"/>
   </g>
   <g id="patch_4">
    <path d="M 414.72 307.584 
L 414.72 41.472 
" style="fill:none;stroke:#000000;stroke-linecap:square;stroke-linejoin:miter;stroke-width:0.8;"/>
   </g>
   <g id="patch_5">
    <path d="M 57.6 307.584 
L 414.72 307.584 
" style="fill:none;stroke:#000000;stroke-linecap:square;stroke-linejoin:miter;stroke-width:0.8;"/>
   </g>
   <g id="patch_6">
    <path d="M 57.6 41.472 
L 414.72 41.472 
" style="fill:none;stroke:#000000;stroke-linecap:square;stroke-linejoin:miter;stroke-width:0.8;"/>
   </g>
   <g id="text_11">
    <!-- -2.14 -->
    <defs>
     <path d="M 27.09375 22.296875 
C 28.40625 22.296875 29.796875 25.09375 29.796875 26.296875 
C 29.796875 27.296875 29.40625 28.296875 28.40625 28.296875 
L 6.5 28.296875 
C 5.296875 28.296875 4 26 4 24.203125 
C 4 23.203125 4.59375 22.296875 5.5 22.296875 
z
" id="LinLibertineO-45"/>
     <path d="M 5.703125 4.296875 
C 5.703125 1.40625 8.09375 -1 11 -1 
C 13.90625 -1 16.296875 1.40625 16.296875 4.296875 
C 16.296875 7.203125 13.90625 9.59375 11 9.59375 
C 8.09375 9.59375 5.703125 7.203125 5.703125 4.296875 
z
" id="LinLibertineO-46"/>
    </defs>
    <g style="fill:#1f77b4;" transform="translate(290.937807 208.986115)scale(0.13 -0.13)">
     <use xlink:href="#LinLibertineO-45"/>
     <use x="33.799988" xlink:href="#LinLibertineO-50"/>
     <use x="80.299973" xlink:href="#LinLibertineO-46"/>
     <use x="102.299957" xlink:href="#LinLibertineO-49"/>
     <use x="148.799942" xlink:href="#LinLibertineO-52"/>
    </g>
   </g>
   <g id="text_12">
    <!-- -2.66 -->
    <g style="fill:#ff7f0e;" transform="translate(290.937807 206.353331)scale(0.13 -0.13)">
     <use xlink:href="#LinLibertineO-45"/>
     <use x="33.799988" xlink:href="#LinLibertineO-50"/>
     <use x="80.299973" xlink:href="#LinLibertineO-46"/>
     <use x="102.299957" xlink:href="#LinLibertineO-54"/>
     <use x="148.799942" xlink:href="#LinLibertineO-54"/>
    </g>
   </g>
   <g id="legend_1">
    <g id="patch_7">
     <path d="M 279.493594 89.157625 
L 405.62 89.157625 
Q 408.22 89.157625 408.22 86.557625 
L 408.22 50.572 
Q 408.22 47.972 405.62 47.972 
L 279.493594 47.972 
Q 276.893594 47.972 276.893594 50.572 
L 276.893594 86.557625 
Q 276.893594 89.157625 279.493594 89.157625 
z
" style="fill:#ffffff;opacity:0.8;stroke:#cccccc;stroke-linejoin:miter;"/>
    </g>
    <g id="line2d_84">
     <path d="M 282.093594 57.722 
L 308.093594 57.722 
" style="fill:none;stroke:#1f77b4;stroke-linecap:square;stroke-width:1.5;"/>
    </g>
    <g id="line2d_85">
     <g>
      <use style="fill:#1f77b4;stroke:#1f77b4;" x="295.093594" xlink:href="#m707be4614f" y="57.722"/>
     </g>
    </g>
    <g id="text_13">
     <!-- Ours -->
     <defs>
      <path d="M 33.09375 62.203125 
C 46.296875 62.203125 57 51.203125 57 31 
C 57 13.09375 48.40625 2.59375 37 2.59375 
C 24.796875 2.59375 13.296875 13.5 13.296875 32.703125 
C 13.296875 53.703125 23.203125 62.203125 33.09375 62.203125 
z
M 66.59375 32.90625 
C 66.59375 53.59375 52.296875 65.796875 34.40625 65.796875 
C 15 65.796875 3.703125 50.296875 3.703125 31 
C 3.703125 11.296875 18 -1 35 -1 
C 46 -1 54.90625 3.703125 60.40625 11.59375 
C 64.40625 17.203125 66.59375 24.5 66.59375 32.90625 
z
" id="LinLibertineO-79"/>
     </defs>
     <g transform="translate(318.493594 62.272)scale(0.13 -0.13)">
      <use xlink:href="#LinLibertineO-79"/>
      <use x="70.199982" xlink:href="#LinLibertineO-117"/>
      <use x="123.299973" xlink:href="#LinLibertineO-114"/>
      <use x="160.499969" xlink:href="#LinLibertineO-115"/>
     </g>
    </g>
    <g id="line2d_86">
     <path d="M 282.093594 76.364812 
L 308.093594 76.364812 
" style="fill:none;stroke:#ff7f0e;stroke-linecap:square;stroke-width:1.5;"/>
    </g>
    <g id="line2d_87">
     <g>
      <use style="fill:#ff7f0e;stroke:#ff7f0e;" x="295.093594" xlink:href="#mc844647897" y="76.364812"/>
     </g>
    </g>
    <g id="text_14">
     <!-- Heitz et al. 2019 -->
     <defs>
      <path d="M 61.796875 12.203125 
L 61.796875 52.296875 
C 61.796875 60.59375 63.5 61.09375 70.5 61.40625 
C 71.09375 62 71.09375 64.09375 70.5 64.703125 
C 66.40625 64.59375 61.296875 64.5 57.5 64.5 
C 53.703125 64.5 49 64.59375 44.59375 64.703125 
C 44 64.09375 44 62 44.59375 61.40625 
C 51.59375 61.09375 53.296875 60.59375 53.296875 52.296875 
L 53.296875 36.296875 
L 19.09375 36.296875 
L 19.09375 52.296875 
C 19.09375 60.59375 20.796875 61.09375 27.796875 61.40625 
C 28.40625 62 28.40625 64.09375 27.796875 64.703125 
C 24 64.59375 19.90625 64.5 14.796875 64.5 
C 9.796875 64.5 5.703125 64.59375 1.90625 64.703125 
C 1.296875 64.09375 1.296875 62 1.90625 61.40625 
C 8.90625 61.09375 10.59375 60.59375 10.59375 52.296875 
L 10.59375 12.203125 
C 10.59375 3.90625 8.90625 3.40625 1.90625 3.09375 
C 1.296875 2.5 1.296875 0.40625 1.90625 -0.203125 
C 6.296875 -0.09375 11.09375 0 14.90625 0 
C 18.5 0 23.40625 -0.09375 27.796875 -0.203125 
C 28.40625 0.40625 28.40625 2.5 27.796875 3.09375 
C 20.796875 3.40625 19.09375 3.90625 19.09375 12.203125 
L 19.09375 32.09375 
L 53.296875 32.09375 
L 53.296875 12.203125 
C 53.296875 3.90625 51.59375 3.40625 44.59375 3.09375 
C 44 2.5 44 0.40625 44.59375 -0.203125 
C 49.09375 -0.09375 53.796875 0 57.59375 0 
C 61.296875 0 66.09375 -0.09375 70.5 -0.203125 
C 71.09375 0.40625 71.09375 2.5 70.5 3.09375 
C 63.5 3.40625 61.796875 3.90625 61.796875 12.203125 
z
" id="LinLibertineO-72"/>
      <path d="M 7.09375 43.90625 
C 6.796875 43.90625 6.5 43.5 6.5 43.296875 
C 6.40625 38.796875 5.90625 35.296875 5 30.40625 
C 5.796875 30 7.09375 29.796875 8.296875 30.09375 
C 10.296875 37.40625 13.40625 39.09375 16.40625 39.203125 
L 29.203125 39.5 
C 22.40625 28.09375 12.40625 13.703125 4.59375 3.203125 
C 3.703125 2 3.703125 1.703125 3.703125 1.203125 
C 3.703125 0.5 4.5 0 6 0 
L 37.203125 -0.296875 
C 38.40625 3.09375 39.703125 8.296875 40.40625 13.296875 
C 39.703125 13.59375 38.59375 13.90625 37.40625 13.90625 
L 36 11 
C 33.40625 5.703125 31.40625 3.5 26.203125 3.40625 
L 12.90625 3.40625 
C 20.296875 12.796875 30.703125 28.5 36.90625 38.703125 
C 38.40625 41.203125 38.703125 42 38.703125 42.40625 
C 38.703125 42.796875 38.203125 43.09375 37.5 43.09375 
C 37 43.09375 34.203125 42.90625 31.296875 42.90625 
L 13 42.90625 
C 9.703125 42.90625 8.5 43.296875 7.09375 43.90625 
z
" id="LinLibertineO-122"/>
      <path d="M 33.5 29.203125 
C 30.296875 27 27 26.90625 25.296875 26.90625 
C 15.5 26.90625 13.296875 36.5 13.296875 41.5 
C 13.296875 52.5 17.5 57.5 22.40625 57.5 
C 28.703125 57.5 34.40625 54.09375 34.40625 37 
C 34.40625 34.703125 34.09375 32 33.5 29.203125 
z
M 32.59375 25.5 
C 29.90625 16.40625 23.59375 6.296875 10.296875 1.40625 
C 10.296875 0.203125 10.703125 -0.703125 11.5 -1.203125 
C 21.59375 1.796875 27.796875 6 33.40625 12.5 
C 39.59375 19.703125 42.703125 28.796875 42.703125 36.703125 
C 42.703125 57 31.203125 61 23.5 61 
C 10.40625 61 5 48.296875 5 39.703125 
C 5 31.09375 9.59375 23.40625 23.203125 23.40625 
C 25.796875 23.40625 29.59375 24.203125 32.59375 25.5 
z
" id="LinLibertineO-57"/>
     </defs>
     <g transform="translate(318.493594 80.914812)scale(0.13 -0.13)">
      <use xlink:href="#LinLibertineO-72"/>
      <use x="72.999985" xlink:href="#LinLibertineO-101"/>
      <use x="117.699982" xlink:href="#LinLibertineO-105"/>
      <use x="144.799973" xlink:href="#LinLibertineO-116"/>
      <use x="176.399963" xlink:href="#LinLibertineO-122"/>
      <use x="218.799957" xlink:href="#LinLibertineO-32"/>
      <use x="243.799942" xlink:href="#LinLibertineO-101"/>
      <use x="288.499939" xlink:href="#LinLibertineO-116"/>
      <use x="320.09993" xlink:href="#LinLibertineO-32"/>
      <use x="345.099915" xlink:href="#LinLibertineO-97"/>
      <use x="390.799911" xlink:href="#LinLibertineO-108"/>
      <use x="417.199905" xlink:href="#LinLibertineO-46"/>
      <use x="439.19989" xlink:href="#LinLibertineO-32"/>
      <use x="464.199875" xlink:href="#LinLibertineO-50"/>
      <use x="510.69986" xlink:href="#LinLibertineO-48"/>
      <use x="557.199844" xlink:href="#LinLibertineO-49"/>
      <use x="603.699829" xlink:href="#LinLibertineO-57"/>
     </g>
    </g>
   </g>
  </g>
 </g>
 <defs>
  <clipPath id="p93b5607710">
   <rect height="266.112" width="357.12" x="57.6" y="41.472"/>
  </clipPath>
 </defs>
</svg>
